<?xml version="1.0" encoding="UTF-8"?>
<svg version="1.1" xmlns="http://www.w3.org/2000/svg" width="693" height="360">
<path d="M0 0 C0.82983398 0.01836914 1.65966797 0.03673828 2.51464844 0.05566406 C20.19336726 0.64321929 35.13427201 8.05478167 48 20 C48.78503906 20.65742187 49.57007813 21.31484375 50.37890625 21.9921875 C56.05662708 26.77645987 60.53457442 32.09197091 65 38 C65.62970703 38.82346924 66.25941406 39.64693848 66.90820312 40.49536133 C71.77197027 46.9953125 75.76141741 53.64464651 79.4375 60.875 C79.9953418 61.95998779 80.55318359 63.04497559 81.12792969 64.1628418 C85.82527022 73.4148719 89.94231912 82.84942469 93.91308594 92.4296875 C96.16419253 97.75305906 98.58607832 103.00176298 100.99511719 108.25512695 C102.64035818 111.86821264 104.2077141 115.46930446 105.5703125 119.19921875 C112.34311424 137.60450535 124.82634179 161.17862829 141 173 C141.99 173.73863281 142.98 174.47726563 144 175.23828125 C155.57316505 183.67574883 169.71779775 191.80056232 184.5703125 189.5703125 C208.89695177 183.86020103 229.77503272 160.12908795 243.35107422 140.16381836 C246.39624396 135.72035638 249.75781375 131.66948392 253.3125 127.625 C256.82042308 123.61975802 260.07071607 119.74877354 262.734375 115.1171875 C264.49640309 112.16959729 266.47060655 109.37515363 268.4375 106.5625 C270.99328964 102.89758426 273.53568979 99.227355 276 95.5 C278.47463394 91.77430112 280.97452417 88.06640384 283.5 84.375 C284.56734375 82.80878906 284.56734375 82.80878906 285.65625 81.2109375 C287.34593213 78.89607299 289.01835137 76.78447526 290.8984375 74.640625 C294.28371454 70.75965432 297.17877466 66.59270642 300.125 62.375 C305.4422373 54.900187 311.08950353 48.06199244 317.51171875 41.51904297 C319.03363572 39.96566905 320.53278947 38.39238996 322.03125 36.81640625 C339.55992154 18.57619714 360.90642153 6.63376918 386.38671875 5.93359375 C400.20786529 5.8855546 410.5810965 12.30489196 420.5625 21.3125 C425.91440439 27.21331766 429.94121948 32.59998151 433 40 C434.10930804 42.23701692 435.23465289 44.46614512 436.375 46.6875 C439.57183793 53.00252351 442.43545027 59.39865903 445 66 C445.28617188 66.72058594 445.57234375 67.44117187 445.8671875 68.18359375 C447.57103431 72.82965025 448.3756782 77.3596893 449.125 82.25 C450.57354429 91.15293497 454.16664763 98.93978906 457.85546875 107.11328125 C459.60651541 111.00990283 461.01615754 114.85007951 462.25 118.9375 C463.27429527 122.23386841 464.19763995 124.60774718 466.5 127.1875 C468.8262668 129.80455015 469.60762925 131.27405079 470.8125 134.4375 C472.68427093 139.00523729 475.34575818 141.48517714 479.1953125 144.4921875 C481 146 481 146 483 149 C476.5624333 148.62860192 476.5624333 148.62860192 473.875 145.625 C473.25625 144.75875 472.6375 143.8925 472 143 C471.154375 142.525625 470.30875 142.05125 469.4375 141.5625 C466.27874288 139.53765569 465.57537874 137.35624167 464 134 C463.34 133.360625 462.68 132.72125 462 132.0625 C459.87970039 129.87594103 458.93854257 127.83848203 457.83984375 125.0234375 C456.90191411 122.76368143 455.77609895 120.65875878 454.625 118.5 C451.84391964 113.03836025 450.0288917 107.34771968 448.2109375 101.515625 C447.08071031 97.976788 447.08071031 97.976788 445.3515625 94.734375 C444 92 444 92 444 89 C443.01 88.67 442.02 88.34 441 88 C440.12109375 85.48828125 440.12109375 85.48828125 439.4375 82.3125 C439.18742188 81.22710937 438.93734375 80.14171875 438.6796875 79.0234375 C438.45539062 78.02570313 438.23109375 77.02796875 438 76 C436.99798714 71.55960499 436.99798714 71.55960499 433.9375 68.5625 C432 67 432 67 431.125 63.4375 C431.063125 61.7359375 431.063125 61.7359375 431 60 C431.66 59.34 432.32 58.68 433 58 C432.67958603 55.39719432 432.67958603 55.39719432 432 53 C431.38125 52.91234375 430.7625 52.8246875 430.125 52.734375 C428 52 428 52 426.875 50.328125 C426.58625 49.64234375 426.2975 48.9565625 426 48.25 C424.37662597 44.68864457 422.47153706 42.05307519 420 39 C419.11993101 37.39860865 418.24554205 35.79409025 417.375 34.1875 C413.0702913 26.90428073 406.29696418 20.98271497 398.109375 18.4609375 C388.22872326 16.30183212 377.11625974 16.14058649 368 21 C366.88625 21.268125 365.7725 21.53625 364.625 21.8125 C359.54978648 23.47506995 356.32494457 26.17998975 353.19140625 30.484375 C350.68989617 33.35598372 348.59230695 34.41559046 345.125 35.9375 C339.96416 38.36057732 336.79293637 40.80780717 333 45 C332.34 45 331.68 45 331 45 C330.7525 45.53625 330.505 46.0725 330.25 46.625 C327.73470126 51.4040676 324.79687371 55.20312629 321 59 C319.65729179 60.99371825 318.32346506 62.9934562 317 65 C316.28457031 65.68835938 316.28457031 65.68835938 315.5546875 66.390625 C313.68707719 68.32393015 312.51777622 70.35310344 311.1875 72.6875 C307.87428335 78.32736754 304.1733452 83.50704521 299.875 88.4375 C298.16465031 90.77497792 297.26114255 92.65783951 296.1875 95.3125 C294.35478914 99.67333771 291.88923236 102.70307399 288.67578125 106.13671875 C287.1323399 107.85285284 285.90823864 109.54773258 284.6875 111.5 C284.130625 112.325 283.57375 113.15 283 114 C282.34 114 281.68 114 281 114 C280.85111328 114.87785156 280.85111328 114.87785156 280.69921875 115.7734375 C279.86709471 118.42321796 278.73233448 119.63311875 276.8125 121.625 C273.31444308 125.44695108 270.77812462 129.48035172 268.26171875 133.99609375 C267 136 267 136 265 137 C264.731875 137.7115625 264.46375 138.423125 264.1875 139.15625 C262.42182846 143.38456869 259.4953398 146.65859584 256.6328125 150.18359375 C254.73785348 152.5663085 253.11920532 154.6968646 252 157.54296875 C250.62075505 160.93181668 248.46948668 163.13124048 246 165.8125 C245.113125 166.78832031 244.22625 167.76414063 243.3125 168.76953125 C241 171 241 171 239 171 C238.814375 171.680625 238.62875 172.36125 238.4375 173.0625 C236.41009449 177.20545909 233.33324242 179.87009263 230 183 C227.07367407 185.85316778 224.33264576 188.76411752 221.6875 191.875 C212.41377587 202.39179778 200.44951175 210.21246745 186.046875 211.203125 C161.66819402 211.54974132 141.29113257 203.30628513 123 187 C116.61413898 180.71998198 111.80207882 173.52132827 107 166 C106.06800781 164.58460938 106.06800781 164.58460938 105.1171875 163.140625 C101.2861795 157.26972963 98.03776241 151.30989224 95 145 C94.12222307 143.25638868 93.24431376 141.51284117 92.36303711 139.77099609 C88.52193585 132.16174511 84.98301066 124.53579964 81.89208984 116.58959961 C79.41490436 110.24526111 76.68463646 104.29574022 73.3125 98.359375 C71.61663244 95.31085117 70.30616098 92.23430337 69 89 C58.38458469 62.88738889 43.39011967 37.75896653 17.25 25.2890625 C-2.35013969 17.51496863 -23.07564558 20.05265919 -42 28.1875 C-59.22129175 35.95669407 -73.70182962 45.84418527 -87.52734375 58.71484375 C-89.59860099 60.62903883 -91.70914701 62.44587611 -93.875 64.25 C-102.38165463 71.6516665 -110.16099313 80.37606638 -116.73046875 89.5234375 C-117.14941406 90.01070313 -117.56835938 90.49796875 -118 91 C-118.66 91 -119.32 91 -120 91 C-120.2784375 92.175625 -120.2784375 92.175625 -120.5625 93.375 C-122.17152231 97.43253452 -124.31636625 100.43052487 -126.86328125 103.94921875 C-129.43392797 107.61955712 -131.81897294 111.38469823 -134.1875 115.1875 C-134.60322266 115.85249512 -135.01894531 116.51749023 -135.44726562 117.20263672 C-137.39163061 120.33306434 -139.29186717 123.47991052 -141.11328125 126.68359375 C-142.68917199 129.45363772 -144.32204836 132.16656718 -146 134.875 C-151.06920693 142.93247885 -151.06920693 142.93247885 -153 152 C-152.1300943 152.18125931 -152.1300943 152.18125931 -151.24261475 152.36618042 C-145.20672105 153.62499408 -139.17248788 154.89154378 -133.13916016 156.16259766 C-130.88729842 156.63593958 -128.63502082 157.10730754 -126.38232422 157.57666016 C-123.14439308 158.25164536 -119.90802396 158.9337157 -116.671875 159.6171875 C-115.66445251 159.82560272 -114.65703003 160.03401794 -113.61907959 160.24874878 C-112.20806976 160.54883347 -112.20806976 160.54883347 -110.76855469 160.85498047 C-109.94248718 161.02818817 -109.11641968 161.20139587 -108.26531982 161.37985229 C-105.9825274 162.00478325 -104.07310905 162.86910173 -102 164 C-103.52916953 168.40467309 -105.88457521 172.0558797 -108.5 175.875 C-109.40377262 177.2121539 -110.30741474 178.54939601 -111.2109375 179.88671875 C-111.67338867 180.56782715 -112.13583984 181.24893555 -112.61230469 181.95068359 C-114.80172287 185.18396583 -116.96254313 188.43615245 -119.125 191.6875 C-120.28884165 193.4337685 -121.45317557 195.1797077 -122.61767578 196.92553711 C-123.61201851 198.41775367 -124.60502227 199.91086279 -125.59716797 201.40454102 C-131.67746659 210.5475743 -137.82651134 219.64392121 -143.97164917 228.74343872 C-157.17855908 248.30083945 -157.17855908 248.30083945 -170.32501221 267.89889526 C-171.39664039 269.50139888 -172.47049329 271.1024141 -173.54443359 272.70336914 C-177.12574789 278.07175658 -180.5150032 283.48002082 -183.66040039 289.11694336 C-185 291 -185 291 -188 292 C-189.50080188 290.49919812 -189.36889622 289.02845371 -189.64501953 286.93823242 C-189.76277237 286.06300934 -189.88052521 285.18778625 -190.00184631 284.28604126 C-190.12756516 283.31895233 -190.253284 282.3518634 -190.3828125 281.35546875 C-190.51767563 280.3445517 -190.65253876 279.33363464 -190.79148865 278.29208374 C-191.23988835 274.92439405 -191.68238018 271.55595381 -192.125 268.1875 C-192.43827755 265.82733371 -192.75200462 263.46722705 -193.06616211 261.10717773 C-193.72047939 256.18919242 -194.37283673 251.27095275 -195.02392578 246.35253906 C-196.3747567 236.16095587 -197.75187318 225.97293854 -199.12786865 215.784729 C-199.56183682 212.56741659 -199.99434294 209.34991131 -200.42626953 206.13232422 C-201.72789237 196.43617596 -203.03309023 186.74061295 -204.35984802 177.04786682 C-204.93929325 172.80965517 -205.51453618 168.57087919 -206.08908081 164.33200073 C-206.36143606 162.33069024 -206.63576589 160.32964741 -206.91213989 158.32888794 C-207.29016916 155.59100456 -207.6615043 152.85229363 -208.03125 150.11328125 C-208.14540756 149.29937927 -208.25956512 148.48547729 -208.37718201 147.64691162 C-208.62714532 145.76976313 -208.82016611 143.88515991 -209 142 C-208.67 141.67 -208.34 141.34 -208 141 C-200.90270011 141.11538109 -194.08309169 142.79736705 -187.25 144.5625 C-179.24276982 146.67482308 -179.24276982 146.67482308 -171 147 C-170.61070312 145.79988281 -170.22140625 144.59976563 -169.8203125 143.36328125 C-157.58849956 106.54832549 -136.35546703 75.39112346 -109.1875 47.9375 C-108.29067505 47.02665649 -108.29067505 47.02665649 -107.37573242 46.09741211 C-103.20470417 41.95629608 -98.76738738 38.42875203 -94 35 C-93.12214844 34.34515625 -92.24429688 33.6903125 -91.33984375 33.015625 C-84.27118269 27.82044646 -77.04149708 22.89555023 -69.69384766 18.10595703 C-68.26291641 17.17166494 -66.83955939 16.22578773 -65.41796875 15.27734375 C-44.96670956 2.21222928 -23.73464069 -0.58396656 0 0 Z " fill="#0E0E0E" transform="translate(210,34)"/>
<path d="M0 0 C3.10253632 3.6211974 4.68211015 7.6279309 6.4375 12 C6.74606934 12.75385986 7.05463867 13.50771973 7.37255859 14.28442383 C9.15741212 18.70242923 10.72403509 23.13007537 12.125 27.6875 C13.19350753 31.04827581 14.1406057 33.55641787 16.5 36.1875 C18.8262668 38.80455015 19.60762925 40.27405079 20.8125 43.4375 C22.68427093 48.00523729 25.34575818 50.48517714 29.1953125 53.4921875 C31 55 31 55 33 58 C26.5624333 57.62860192 26.5624333 57.62860192 23.875 54.625 C23.25625 53.75875 22.6375 52.8925 22 52 C21.154375 51.525625 20.30875 51.05125 19.4375 50.5625 C16.27874288 48.53765569 15.57537874 46.35624167 14 43 C13.01 42.0409375 13.01 42.0409375 12 41.0625 C9.88378761 38.88015597 8.94325313 36.84757593 7.84375 34.0390625 C6.87597814 31.70028051 5.73127338 29.49490008 4.5625 27.25 C-2 14.24431818 -2 14.24431818 -2 7 C-1.34 7 -0.68 7 0 7 C0 4.69 0 2.38 0 0 Z " fill="#292929" transform="translate(660,125)"/>
<path d="M0 0 C-0.50710421 4.21748823 -2.83811928 6.21120813 -5.76953125 9.1328125 C-6.2469426 9.61072235 -6.72435394 10.0886322 -7.2162323 10.58102417 C-8.22560742 11.58806327 -9.23866642 12.59142166 -10.25512695 13.59130859 C-11.80533623 15.11794517 -13.34181829 16.65744044 -14.87695312 18.19921875 C-23.11069585 26.38629832 -23.11069585 26.38629832 -27 28 C-23.35095092 19.30788309 -14.01313437 11.9240179 -7.4375 5.25 C-6.66913818 4.46206055 -6.66913818 4.46206055 -5.88525391 3.65820312 C-2.23564388 0 -2.23564388 0 0 0 Z " fill="#636363" transform="translate(543,62)"/>
<path d="M0 0 C-6.62100457 -0.92694064 -6.62100457 -0.92694064 -9.59375 -1.5 C-14.17890765 -2.17305066 -18.74833662 -2.36119724 -23.375 -2.5625 C-24.30183594 -2.60568359 -25.22867188 -2.64886719 -26.18359375 -2.69335938 C-28.45560294 -2.79876186 -30.72770925 -2.90088606 -33 -3 C-33 -2.34 -33 -1.68 -33 -1 C-36.05578449 0.43239898 -38.34943574 1.02911964 -41.75 1.3125 C-46.17173178 1.73959909 -49.24449455 3.64479681 -52.921875 6.0390625 C-55 7 -55 7 -57.265625 6.6484375 C-57.83796875 6.43445312 -58.4103125 6.22046875 -59 6 C-42.37058958 -2.86092672 -17.57619299 -11.717462 0 0 Z " fill="#9F9F9F" transform="translate(616,45)"/>
<path d="M0 0 C3.90986158 2.38935986 5.31430396 4.46278681 6.6875 8.6875 C8.71829104 14.39909979 12.24215069 17.40498446 16.85546875 21.1875 C19 23 19 23 20 25 C13.5624333 24.62860192 13.5624333 24.62860192 10.875 21.625 C10.25625 20.75875 9.6375 19.8925 9 19 C8.113125 18.505 7.22625 18.01 6.3125 17.5 C4 16 4 16 3.125 13.4375 C3 11 3 11 4 9 C2.92770717 5.86560559 1.52342979 2.93804317 0 0 Z " fill="#939393" transform="translate(673,158)"/>
<path d="M0 0 C1.87680911 2.81521366 2.87923181 5.14720546 4 8.3125 C4.34804688 9.28703125 4.69609375 10.2615625 5.0546875 11.265625 C5.77661704 13.35385094 6.45965163 15.4555635 7.125 17.5625 C7.85406086 20.13847331 7.85406086 20.13847331 10 22 C10.56520003 24.65537372 10.73788198 27.29144713 11 30 C10.67 29.34 10.34 28.68 10 28 C9.38125 27.690625 8.7625 27.38125 8.125 27.0625 C5.02311097 25.51155549 3.40383471 23.96222345 2.05078125 20.73828125 C1.68533203 19.53751953 1.68533203 19.53751953 1.3125 18.3125 C1.06113281 17.50425781 0.80976562 16.69601563 0.55078125 15.86328125 C0.36902344 15.24839844 0.18726563 14.63351563 0 14 C0.99 13.67 1.98 13.34 3 13 C2.7834375 12.39671875 2.566875 11.7934375 2.34375 11.171875 C2.0653125 10.37265625 1.786875 9.5734375 1.5 8.75 C1.08234375 7.56664062 1.08234375 7.56664062 0.65625 6.359375 C0 4 0 4 0 0 Z " fill="#727272" transform="translate(667,141)"/>
<path d="M0 0 C13.83297735 -0.24047701 27.2894954 0.0829257 41 2 C41 2.33 41 2.66 41 3 C11.65458453 3.41277905 11.65458453 3.41277905 0 1 C0 0.67 0 0.34 0 0 Z " fill="#7F7F7F" transform="translate(187,34)"/>
<path d="M0 0 C7.53409297 0.06317898 14.78127337 2.02787365 22 4 C22 4.33 22 4.66 22 5 C16.39 4.67 10.78 4.34 5 4 C4.67 3.01 4.34 2.02 4 1 C3.01 1 2.02 1 1 1 C1.33 6.28 1.66 11.56 2 17 C1.67 17 1.34 17 1 17 C0.63917123 14.35491639 0.28604648 11.70920453 -0.0625 9.0625 C-0.16626953 8.30775391 -0.27003906 7.55300781 -0.37695312 6.77539062 C-0.62665638 4.85525872 -0.81790281 2.92771856 -1 1 C-0.67 0.67 -0.34 0.34 0 0 Z " fill="#858585" transform="translate(2,175)"/>
<path d="M0 0 C1.73360571 6.93442286 -0.25186318 12.62432259 -3 19 C-7.62853285 21.31426642 -13.81262778 20.32755096 -18.625 19 C-19.40875 18.67 -20.1925 18.34 -21 18 C-21 17.67 -21 17.34 -21 17 C-16.05 17.33 -11.1 17.66 -6 18 C-4.02 12.06 -2.04 6.12 0 0 Z " fill="#787878" transform="translate(45,163)"/>
<path d="M0 0 C2.47186455 2.96346786 3.66248361 5.54041689 4.6875 9.25 C4.93886719 10.14203125 5.19023438 11.0340625 5.44921875 11.953125 C5.72185547 12.96632812 5.72185547 12.96632812 6 14 C4.68 13.34 3.36 12.68 2 12 C1.67 13.65 1.34 15.3 1 17 C-1.29633824 13.55549263 -1.54016485 11.06187717 -2 7 C-1.34 7 -0.68 7 0 7 C0 4.69 0 2.38 0 0 Z " fill="#4E4E4E" transform="translate(660,125)"/>
<path d="M0 0 C0 0.33 0 0.66 0 1 C-2.31 1 -4.62 1 -7 1 C-7 1.66 -7 2.32 -7 3 C-9.03814233 3.67736481 -11.08070555 4.34143534 -13.125 5 C-14.83042969 5.556875 -14.83042969 5.556875 -16.5703125 6.125 C-19.87895941 6.96911949 -22.60528016 7.16509276 -26 7 C-23.23898524 4.23898524 -20.0156711 3.51147083 -16.375 2.375 C-15.68792969 2.14554688 -15.00085938 1.91609375 -14.29296875 1.6796875 C-9.36452803 0.12625778 -5.16331805 -0.22045628 0 0 Z " fill="#898989" transform="translate(187,35)"/>
<path d="M0 0 C5.8822376 3.81550547 7.19124654 8.47089398 8.6875 15 C8.790625 15.66 8.89375 16.32 9 17 C7.35 16.67 5.7 16.34 4 16 C2.875 11.25 2.875 11.25 4 9 C2.92770717 5.86560559 1.52342979 2.93804317 0 0 Z " fill="#797979" transform="translate(673,158)"/>
<path d="M0 0 C0.66 0.33 1.32 0.66 2 1 C-0.4138364 6.31044007 -4.96434351 10.18980695 -10 13 C-11.32 12.67 -12.64 12.34 -14 12 C-9.38 8.04 -4.76 4.08 0 0 Z " fill="#727272" transform="translate(427,204)"/>
<path d="M0 0 C0 3 0 3 -1.20703125 4.4296875 C-2.00173828 5.14511719 -2.00173828 5.14511719 -2.8125 5.875 C-4.81154465 7.76220998 -6.0935911 9.1598848 -7.5 11.5625 C-9.51420313 14.83558009 -11.9729192 16.64560382 -15 19 C-15 15.28276664 -14.23006589 14.82298531 -11.71875 12.20703125 C-11.04199219 11.49482422 -10.36523438 10.78261719 -9.66796875 10.04882812 C-8.95253906 9.31083984 -8.23710937 8.57285156 -7.5 7.8125 C-6.42685547 6.68811523 -6.42685547 6.68811523 -5.33203125 5.54101562 C-3.56121397 3.68756021 -1.78375194 1.84099646 0 0 Z " fill="#6E6E6E" transform="translate(447,183)"/>
<path d="M0 0 C4.70635989 0.44822475 9.35580527 0.98045206 14 1.875 C14.7425 2.01679688 15.485 2.15859375 16.25 2.3046875 C16.8275 2.53414062 17.405 2.76359375 18 3 C18.33 3.99 18.66 4.98 19 6 C18.34 6.66 17.68 7.32 17 8 C17 6.68 17 5.36 17 4 C16.03900391 4.03480469 16.03900391 4.03480469 15.05859375 4.0703125 C9.59012904 4.18440863 5.16901723 3.79791904 0 2 C0 1.34 0 0.68 0 0 Z " fill="#767676" transform="translate(89,194)"/>
<path d="M0 0 C0.66 0 1.32 0 2 0 C2.66 2.97 3.32 5.94 4 9 C3.34 9 2.68 9 2 9 C3.2491742 12.45925163 4.67527795 15.14693203 7 18 C6.67 18.66 6.34 19.32 6 20 C2.39825609 17.6911898 1.15476647 16.59843036 0.0625 12.375 C0.041875 11.26125 0.02125 10.1475 0 9 C0.66 8.34 1.32 7.68 2 7 C1.83492354 4.42459787 1.83492354 4.42459787 1 2 C0.34 1.67 -0.32 1.34 -1 1 C-0.67 0.67 -0.34 0.34 0 0 Z " fill="#808080" transform="translate(641,85)"/>
<path d="M0 0 C0.99 1.0209375 0.99 1.0209375 2 2.0625 C4.91090447 4.98172134 8.00824855 7.66468066 11.1328125 10.3515625 C12.82403463 11.84464982 14.42498825 13.38585753 16 15 C12.87545629 14.9256061 10.72107146 14.68749215 8.40625 12.48046875 C7.38139282 11.23861375 6.37609751 9.98036546 5.390625 8.70703125 C3.99245216 6.83607889 3.99245216 6.83607889 1.625 5.3125 C1.08875 4.879375 0.5525 4.44625 0 4 C0 2.68 0 1.36 0 0 Z " fill="#757575" transform="translate(338,195)"/>
<path d="M0 0 C4.69978858 2.89217759 4.69978858 2.89217759 5.5546875 6.046875 C5.78597215 8.02330745 5.90062818 10.01256369 6 12 C5.67 11.34 5.34 10.68 5 10 C4.34 9.79375 3.68 9.5875 3 9.375 C1 8 1 8 0.515625 6.09375 C0.27330851 4.06969459 0.13124383 2.03427939 0 0 Z " fill="#111111" transform="translate(672,159)"/>
<path d="M0 0 C2.55263088 2.274694 3.84144815 4.43202693 5.1875 7.5625 C5.53167969 8.34753906 5.87585938 9.13257812 6.23046875 9.94140625 C7 12 7 12 7 14 C6.34 14 5.68 14 5 14 C5 13.34 5 12.68 5 12 C4.34 12 3.68 12 3 12 C1.82923301 8.01939223 0.74250597 4.08378283 0 0 Z " fill="#757575" transform="translate(642,74)"/>
<path d="M0 0 C0.66 0.33 1.32 0.66 2 1 C1.06027344 1.70576172 1.06027344 1.70576172 0.1015625 2.42578125 C-0.71570313 3.04839844 -1.53296875 3.67101563 -2.375 4.3125 C-3.18710938 4.92738281 -3.99921875 5.54226562 -4.8359375 6.17578125 C-7.19779389 7.99480683 -7.19779389 7.99480683 -9 11 C-10.32 10.67 -11.64 10.34 -13 10 C-8.71 6.7 -4.42 3.4 0 0 Z " fill="#A3A3A3" transform="translate(131,58)"/>
<path d="M0 0 C0.66 0.33 1.32 0.66 2 1 C0.58972554 2.46451579 -0.82848796 3.9213893 -2.25 5.375 C-3.03890625 6.18710938 -3.8278125 6.99921875 -4.640625 7.8359375 C-6.73379455 9.75583143 -8.40397179 10.91633685 -11 12 C-9.49650623 8.33213607 -7.36271208 6.31089607 -4.375 3.75 C-3.14910156 2.69039063 -3.14910156 2.69039063 -1.8984375 1.609375 C-1.27195312 1.07828125 -0.64546875 0.5471875 0 0 Z " fill="#434343" transform="translate(527,78)"/>
<path d="M0 0 C0.33 0 0.66 0 1 0 C2.38529821 5.45461169 3.2396943 10.36718401 3 16 C2.34 16 1.68 16 1 16 C-0.12862175 10.63904667 -0.09688221 5.44693314 0 0 Z " fill="#696969" transform="translate(657,109)"/>
<path d="M0 0 C0 3.68553144 -0.8522582 5.03759752 -3 8 C-5.6875 9.8125 -5.6875 9.8125 -8 11 C-6.63629701 8.00779732 -5.05091917 5.70973471 -2.875 3.25 C-2.33617187 2.63640625 -1.79734375 2.0228125 -1.2421875 1.390625 C-0.62730469 0.70226562 -0.62730469 0.70226562 0 0 Z " fill="#777777" transform="translate(502,108)"/>
<path d="M0 0 C0.33 0.66 0.66 1.32 1 2 C-0.25 5.0625 -0.25 5.0625 -2 8 C-2.99 8.33 -3.98 8.66 -5 9 C-5 9.66 -5 10.32 -5 11 C-5.66 10.67 -6.32 10.34 -7 10 C-3.535 5.05 -3.535 5.05 0 0 Z " fill="#6C6C6C" transform="translate(515,90)"/>
<path d="M0 0 C4.59306496 1.4859916 7.43569245 3.85014682 11 7 C10.67 7.66 10.34 8.32 10 9 C5.27745665 7.50867052 5.27745665 7.50867052 3.875 4.9375 C3.58625 4.298125 3.2975 3.65875 3 3 C2.01 2.67 1.02 2.34 0 2 C0 1.34 0 0.68 0 0 Z " fill="#787878" transform="translate(621,49)"/>
<path d="M0 0 C-4.41880243 2.94586829 -6.67767339 3.0985616 -12 3 C-12 2.34 -12 1.68 -12 1 C-8.0186217 -0.3271261 -4.14954773 -0.06915913 0 0 Z " fill="#6D6D6D" transform="translate(583,43)"/>
<path d="M0 0 C2.34914492 2.34914492 2.73140357 3.95679446 3.625 7.125 C3.88539063 8.03507812 4.14578125 8.94515625 4.4140625 9.8828125 C4.70410156 10.93082031 4.70410156 10.93082031 5 12 C2.5 9.9375 2.5 9.9375 0 7 C-0.3125 3.1875 -0.3125 3.1875 0 0 Z " fill="#6C6C6C" transform="translate(294,106)"/>
<path d="M0 0 C1 3 1 3 0.29296875 5.0078125 C-0.25423828 6.05582031 -0.25423828 6.05582031 -0.8125 7.125 C-1.16957031 7.82882813 -1.52664063 8.53265625 -1.89453125 9.2578125 C-3 11 -3 11 -5 12 C-4.42365861 7.24518354 -2.44931479 4.02951788 0 0 Z " fill="#727272" transform="translate(506,125)"/>
<path d="M0 0 C2.3129482 2.3129482 2.49580975 3.47904875 3.125 6.625 C3.29257812 7.44226563 3.46015625 8.25953125 3.6328125 9.1015625 C3.81457031 10.04128906 3.81457031 10.04128906 4 11 C3.34 11 2.68 11 2 11 C2 10.34 2 9.68 2 9 C1.34 9 0.68 9 0 9 C0 6.03 0 3.06 0 0 Z " fill="#6C6C6C" transform="translate(653,98)"/>
<path d="M0 0 C0.99 0.33 1.98 0.66 3 1 C0.375 5.875 0.375 5.875 -3 7 C-1.125 1.125 -1.125 1.125 0 0 Z " fill="#656565" transform="translate(477,164)"/>
<path d="M0 0 C0.33 1.32 0.66 2.64 1 4 C0.01 4.33 -0.98 4.66 -2 5 C-2.33 6.65 -2.66 8.3 -3 10 C-3.66 10 -4.32 10 -5 10 C-3.84414715 6.08788267 -2.64465038 3.1254959 0 0 Z " fill="#828282" transform="translate(63,129)"/>
<path d="M0 0 C2.96404505 2.80804268 5.44499019 5.18315774 7 9 C5.8225266 8.26708288 4.65823146 7.51296199 3.5 6.75 C2.52546875 6.12351562 2.52546875 6.12351562 1.53125 5.484375 C1.0259375 4.99453125 0.520625 4.5046875 0 4 C0 2.68 0 1.36 0 0 Z " fill="#7B7B7B" transform="translate(632,58)"/>
<path d="M0 0 C1 2 1 2 0.75 4.0625 C0.5025 4.701875 0.255 5.34125 0 6 C-0.99 6.33 -1.98 6.66 -3 7 C-3.66 7.66 -4.32 8.32 -5 9 C-4.42647107 5.12867972 -2.51295648 2.91827204 0 0 Z " fill="#7F7F7F" transform="translate(477,143)"/>
<path d="M0 0 C2.95183101 2.95183101 3.08663988 5.95511947 4 10 C3.01 9.67 2.02 9.34 1 9 C0.67 6.03 0.34 3.06 0 0 Z " fill="#767676" transform="translate(662,129)"/>
<path d="M0 0 C0.33 1.32 0.66 2.64 1 4 C-1.97 6.475 -1.97 6.475 -5 9 C-3.50163895 5.88801935 -1.80066242 2.9465385 0 0 Z " fill="#868686" transform="translate(493,119)"/>
<path d="M0 0 C0.66 0.33 1.32 0.66 2 1 C-0.25 3.5625 -0.25 3.5625 -3 6 C-4.32 5.67 -5.64 5.34 -7 5 C-4.69 3.35 -2.38 1.7 0 0 Z " fill="#A3A3A3" transform="translate(148,47)"/>
</svg>
