<?xml version="1.0" encoding="UTF-8"?>
<svg version="1.1" xmlns="http://www.w3.org/2000/svg" width="333" height="749">
<path d="M0 0 C1.21171875 0.15984375 2.4234375 0.3196875 3.671875 0.484375 C7.29120464 1.25881671 9.96943432 2.586872 13.25 4.25 C15.3597601 4.50014306 15.3597601 4.50014306 17.375 4.25 C23.68645098 4.00270294 30.5801873 5.41509365 36.25 8.25 C37.10851562 8.19328125 37.96703125 8.1365625 38.8515625 8.078125 C43.39539482 8.30792801 46.60405496 9.98237277 50.625 12 C51.34171875 12.34804687 52.0584375 12.69609375 52.796875 13.0546875 C54.23929427 13.75767162 55.67773755 14.46887329 57.11206055 15.18823242 C58.53102217 15.89293313 59.95976175 16.57829607 61.39770508 17.2434082 C65.73953287 19.28479506 68.81179235 21.44638354 72.1875 24.9375 C76.1784872 28.70095788 78.73956775 30.24371566 84.2421875 30.15234375 C86.65705911 30.26979859 88.17017213 31.06086075 90.25 32.25 C90.25 33.24 90.25 34.23 90.25 35.25 C89.59 35.25 88.93 35.25 88.25 35.25 C89.6854503 37.02249524 91.12343803 38.79293576 92.5625 40.5625 C93.36300781 41.54863281 94.16351563 42.53476562 94.98828125 43.55078125 C97.09442144 46.16073848 97.09442144 46.16073848 99.04296875 47.98046875 C100.25 49.25 100.25 49.25 100.25 51.25 C101.28125 51.415 102.3125 51.58 103.375 51.75 C108.42604829 53.18147118 110.62370113 56.9422293 113.25 61.25 C114.27930047 63.23507948 115.28863929 65.23114251 116.25 67.25 C116.91 67.91 117.57 68.57 118.25 69.25 C118.58870968 75.57258065 118.58870968 75.57258065 117.25 78.25 C117.848125 78.3325 118.44625 78.415 119.0625 78.5 C122.03712675 79.51987203 122.75716447 80.47759116 124.25 83.25 C125.08822974 87.97456761 125.37008482 92.44660735 125.25 97.25 C124.59 97.25 123.93 97.25 123.25 97.25 C123.84861742 99.60171131 124.51924352 101.9359378 125.25 104.25 C125.91 104.58 126.57 104.91 127.25 105.25 C126.92 108.55 126.59 111.85 126.25 115.25 C125.59 115.25 124.93 115.25 124.25 115.25 C124.394375 115.765625 124.53875 116.28125 124.6875 116.8125 C124.873125 117.616875 125.05875 118.42125 125.25 119.25 C125.683125 120.8896875 125.683125 120.8896875 126.125 122.5625 C126.27596444 127.01595089 125.19832097 128.54373627 122.57421875 131.96484375 C121.25 133.25 121.25 133.25 119.25 133.25 C119.25 134.24 119.25 135.23 119.25 136.25 C120.57 136.58 121.89 136.91 123.25 137.25 C123.80353075 149.91970387 123.80353075 149.91970387 120.25 155.25 C119.59 155.25 118.93 155.25 118.25 155.25 C117.50073929 158.91305234 117.0119986 161.67355152 118.25 165.25 C117.610625 165.58 116.97125 165.91 116.3125 166.25 C113.69440139 168.78876229 113.91663539 170.61576133 113.65234375 174.12890625 C112.94605233 177.85236488 110.55487126 180.34571949 108.25 183.25 C107.734375 184.11625 107.21875 184.9825 106.6875 185.875 C104.44996779 189.57179235 101.88164089 192.64994115 98.75 195.625 C96.41209571 198.07979951 94.95185183 200.43986003 93.3515625 203.40625 C90.80956257 207.66094491 88.01832161 211.66055946 83.25 213.25 C82.56513275 214.57407669 81.90129797 215.90909241 81.25 217.25 C80.528125 217.91 79.80625 218.57 79.0625 219.25 C78.464375 219.91 77.86625 220.57 77.25 221.25 C77.50666433 223.11770524 77.50666433 223.11770524 78.25 225.25 C80.29086599 232.32230789 81.79154638 237.96268982 80.25 245.25 C81.57 245.91 82.89 246.57 84.25 247.25 C84.27705308 249.66674224 84.29686438 252.0831794 84.3125 254.5 C84.32087891 255.18191406 84.32925781 255.86382812 84.33789062 256.56640625 C84.36342198 261.82586569 84.36342198 261.82586569 83.6953125 264.32421875 C83.02328837 267.23042837 83.67135908 269.86463307 84.0625 272.8125 C84.80685588 280.80977526 83.40006802 288.19746953 81.6875 296 C81.44813721 297.12349854 81.20877441 298.24699707 80.9621582 299.40454102 C79.11214387 307.31684755 76.17137846 314.14476109 72.25 321.25 C71.59 321.25 70.93 321.25 70.25 321.25 C70.353125 322.075 70.45625 322.9 70.5625 323.75 C70.02234359 329.79975183 66.14497503 334.04074053 62.625 338.8125 C60.68366474 341.48709501 59.35532536 344.13518195 58.12890625 347.21875 C52.79577749 359.54420313 52.79577749 359.54420313 48.25 363.25 C47.59 363.25 46.93 363.25 46.25 363.25 C45.99041504 363.99330566 45.73083008 364.73661133 45.46337891 365.50244141 C44.2182579 368.32187637 42.9454014 369.9887158 40.8359375 372.2109375 C40.15660156 372.93023437 39.47726563 373.64953125 38.77734375 374.390625 C38.06707031 375.12796875 37.35679687 375.8653125 36.625 376.625 C35.59439453 377.71941406 35.59439453 377.71941406 34.54296875 378.8359375 C30.53569867 383.0462025 26.38668315 386.96795481 21.97363281 390.74902344 C20.00897553 392.4598893 18.21550558 394.284576 16.4375 396.1875 C12.58714168 400.10634295 8.35602868 403.24375126 3.86328125 406.390625 C2.08766166 407.65399559 0.35192657 408.97495084 -1.34375 410.34375 C-4.33240352 412.71138461 -7.4123568 414.41756844 -10.75 416.25 C-10.68143799 417.09240234 -10.61287598 417.93480469 -10.54223633 418.80273438 C-8.59889526 444.03659194 -8.8389975 468.39994985 -16.8828125 492.59375 C-17.86168868 495.59210948 -18.54232466 498.58241812 -19.1953125 501.6640625 C-19.96759764 505.26443409 -20.77993014 508.85367249 -21.625 512.4375 C-21.77453125 513.11530518 -21.9240625 513.79311035 -22.078125 514.49145508 C-23.1908126 519.13544375 -25.01242729 522.37813421 -27.75 526.25 C-28.68109427 528.36593527 -28.68109427 528.36593527 -29.25 530.4375 C-30.35412988 533.98391717 -31.50622264 537.49952053 -32.75 541 C-33.2140625 542.32257813 -33.2140625 542.32257813 -33.6875 543.671875 C-34.75 546.25 -34.75 546.25 -36.26953125 548.6796875 C-37.97705535 551.64420164 -38.65648078 554.29519123 -39.4375 557.625 C-44.37339196 577.25245825 -51.70002957 597.15005913 -60.75 615.25 C-59.60144531 615.61996094 -58.45289062 615.98992188 -57.26953125 616.37109375 C-50.65781101 618.57586359 -44.14214161 621.04230751 -37.61889648 623.4934082 C-35.42602164 624.31681001 -33.23162991 625.13607397 -31.03710938 625.95507812 C-29.63271957 626.481523 -28.22841944 627.00820716 -26.82421875 627.53515625 C-26.17313644 627.77790787 -25.52205414 628.02065948 -24.85124207 628.27076721 C-21.72747976 629.44817007 -18.69770458 630.67890718 -15.75 632.25 C-19.85274245 641.38123192 -28.15600926 648.83973481 -34.95263672 656.05834961 C-38.17641285 659.49951699 -41.24431974 662.9989333 -44.1875 666.6875 C-47.83830503 671.25268714 -51.73641549 675.50697675 -55.75 679.75 C-60.55940248 684.83462593 -65.09820805 690.02476232 -69.46875 695.49609375 C-73.12823976 699.91379971 -77.06402758 704.0689127 -80.9765625 708.26171875 C-83.11354314 710.5535841 -85.20223348 712.87758757 -87.25 715.25 C-89.78679493 718.18896973 -92.40456049 721.03920376 -95.05273438 723.87719727 C-100.20145827 729.39608563 -105.11689646 734.99618588 -109.8125 740.91015625 C-111.69749566 743.18659254 -113.52213572 745.30511042 -115.75 747.25 C-116.74 747.25 -117.73 747.25 -118.75 747.25 C-118.35252618 734.44776438 -118.35252618 734.44776438 -118.17358398 728.78710938 C-117.95089864 721.73459113 -117.73189387 714.68209559 -117.53125 707.62890625 C-117.08723341 692.43669243 -116.42452806 677.27099046 -115.61502075 662.09442139 C-115.11500869 652.67383504 -114.68774311 643.25985121 -114.46875 633.828125 C-114.44893066 632.98557159 -114.42911133 632.14301819 -114.40869141 631.27493286 C-114.31764363 627.26722553 -114.23984134 623.25975155 -114.1796875 619.25146484 C-114.04351581 611.74634981 -113.6636763 604.55534803 -111.75 597.25 C-107.49592456 595.83197485 -104.62791022 597.57919147 -100.65234375 599.1796875 C-99.86227432 599.4894754 -99.0722049 599.79926331 -98.25819397 600.11843872 C-95.73107521 601.11187127 -93.20938252 602.11835916 -90.6875 603.125 C-88.98405451 603.79641217 -87.28028206 604.46699543 -85.57617188 605.13671875 C-73.30408398 609.97295801 -73.30408398 609.97295801 -70.75 611.25 C-70.37875 610.074375 -70.0075 608.89875 -69.625 607.6875 C-66.59682679 598.64465248 -62.82882695 589.86305201 -59.1953125 581.05078125 C-53.7384246 567.7880711 -48.47410904 554.49616368 -43.71728516 540.96508789 C-43.01996818 539.00777794 -42.30374327 537.05716783 -41.57568359 535.11108398 C-38.41834329 526.57332824 -35.92427385 517.99274018 -33.69238281 509.17407227 C-33.12751631 506.94741905 -32.54886755 504.72467548 -31.96875 502.50195312 C-28.18821776 487.83935926 -25.63193094 473.1192102 -24 458.0625 C-23.86207031 456.92103516 -23.72414063 455.77957031 -23.58203125 454.60351562 C-22.43546295 444.13664727 -22.16462446 433.28905151 -25.75 423.25 C-31.83232519 424.90958337 -31.83232519 424.90958337 -37.0625 428.25 C-43.81300771 433.27363364 -53.29505681 433.59486691 -61.44921875 434.0390625 C-63.71243104 433.99923228 -63.71243104 433.99923228 -64.75 435.25 C-70.04067456 435.52096925 -74.79810588 434.82131032 -79.9375 433.75 C-83.93437827 432.93069531 -87.64178056 432.25 -91.75 432.25 C-91.75 432.91 -91.75 433.57 -91.75 434.25 C-99.22078902 434.52166506 -106.07562227 433.82770698 -112.75 430.25 C-112.75 429.59 -112.75 428.93 -112.75 428.25 C-113.69875 427.96125 -114.6475 427.6725 -115.625 427.375 C-118.75 426.25 -118.75 426.25 -120.75 424.25 C-121.91402344 423.81494141 -121.91402344 423.81494141 -123.1015625 423.37109375 C-132.57968866 419.3589666 -139.31353402 407.97039838 -143.1875 398.875 C-144.98302887 387.30381395 -143.55388246 378.09698842 -137.875 367.875 C-135.43604929 364.86217853 -132.81043069 362.62339523 -129.75 360.25 C-129.0075 359.54875 -128.265 358.8475 -127.5 358.125 C-120.93659436 353.6499507 -112.43984569 352.67165214 -104.75 351.25 C-103.98945312 351.07339844 -103.22890625 350.89679688 -102.4453125 350.71484375 C-81.93282728 347.17718326 -61.84465986 354.15447807 -44.953125 365.48046875 C-44.22609375 366.06441406 -43.4990625 366.64835937 -42.75 367.25 C-42.75 367.91 -42.75 368.57 -42.75 369.25 C-41.9146875 369.559375 -41.9146875 369.559375 -41.0625 369.875 C-38.45553814 371.42508543 -36.95053555 373.32904311 -35.09375 375.6953125 C-33.62883958 377.49814331 -33.62883958 377.49814331 -30.875 379.4375 C-24.44715043 384.55658638 -20.68684554 393.16367803 -16.75 400.25 C-12.88353264 398.96117755 -9.95847596 397.01949301 -6.69921875 394.6015625 C-4.63644401 393.17126178 -2.52647814 391.99379642 -0.3125 390.8125 C4.22134335 388.34578184 8.23857244 385.48938694 12.25 382.25 C13.25546875 381.44755859 13.25546875 381.44755859 14.28125 380.62890625 C18.73510893 376.92021218 22.27277377 372.93164705 25.70703125 368.265625 C27.12422935 366.41429786 28.48758036 364.77582084 30.25 363.25 C30.91 363.25 31.57 363.25 32.25 363.25 C32.4975 362.3425 32.745 361.435 33 360.5 C34.25 357.25 34.25 357.25 36.21484375 355.3671875 C38.51414702 352.97520598 39.12899177 351.27961401 40.0625 348.125 C41.79489733 343.02217984 44.16541445 339.25868284 47.33203125 334.9375 C57.70860892 320.39761112 64.89888789 302.7810245 68.25 285.25 C68.43175781 284.36957031 68.61351562 283.48914063 68.80078125 282.58203125 C71.07085097 265.74403584 69.98353237 246.61255755 62.25 231.25 C61.92 230.92 61.59 230.59 61.25 230.25 C59.91125569 230.36540899 58.57742 230.54140543 57.25 230.75 C55.92258 230.95859457 54.58874431 231.13459101 53.25 231.25 C52.92 230.92 52.59 230.59 52.25 230.25 C51.92 230.91 51.59 231.57 51.25 232.25 C52.57 232.25 53.89 232.25 55.25 232.25 C55.25 233.24 55.25 234.23 55.25 235.25 C54.59 235.25 53.93 235.25 53.25 235.25 C52.92 236.24 52.59 237.23 52.25 238.25 C47.44127181 241.37567332 42.82951246 241.89043142 37.25 242.25 C37.15589844 242.87253662 37.06179687 243.49507324 36.96484375 244.13647461 C36.25 246.25 36.25 246.25 32.8125 248.06640625 C31.30015902 248.67016047 29.77845013 249.25077534 28.25 249.8125 C27.44199951 250.11551025 26.63399902 250.41852051 25.80151367 250.73071289 C13.97089059 254.98513161 2.50451963 256.6009899 -10.05859375 256.28125 C-13.89525212 256.24877035 -17.61726293 256.53300523 -21.4375 256.875 C-37.97655537 258.04651642 -50.98453372 252.48999536 -63.75 242.25 C-64.47058594 241.69441406 -65.19117187 241.13882813 -65.93359375 240.56640625 C-76.56570823 231.92392723 -83.56814104 219.80397233 -85.75 206.25 C-86.94721843 192.96548015 -82.7299723 181.7824887 -74.75 171.25 C-69.1972525 165.3090665 -63.99622819 160.29913333 -55.5625 159.875 C-54.304375 159.66875 -53.04625 159.4625 -51.75 159.25 C-51.08161286 157.91752829 -50.41500084 156.58416495 -49.75 155.25 C-47.91772461 154.46582031 -47.91772461 154.46582031 -45.71484375 154.078125 C-44.90901855 153.93181641 -44.10319336 153.78550781 -43.27294922 153.63476562 C-42.44037598 153.50779297 -41.60780273 153.38082031 -40.75 153.25 C-39.97285645 153.12818359 -39.19571289 153.00636719 -38.39501953 152.88085938 C-21.83443102 150.50563552 -21.83443102 150.50563552 -13.67578125 152.74609375 C-11.57773285 153.38850458 -11.57773285 153.38850458 -8.625 153.1875 C-5.43791142 153.25678453 -3.02339327 154.13027661 -0.09375 155.3359375 C2.68854659 156.42103317 5.51837155 157.25528391 8.375 158.125 C13.4699399 159.79987359 16.36037096 161.63174042 20.25 165.25 C23.87818644 167.78189989 27.22625917 169.3482501 31.5625 170.25 C35.25 171.25 35.25 171.25 36.4375 173.25 C36.8396875 174.24 36.8396875 174.24 37.25 175.25 C37.971875 175.4975 38.69375 175.745 39.4375 176 C44.14461425 178.09205078 47.94758662 182.64517325 50.25 187.25 C51.37728516 187.90355469 51.37728516 187.90355469 52.52734375 188.5703125 C55.54680025 190.43310489 57.4825534 192.45873068 59.8125 195.125 C60.55628906 195.96804687 61.30007812 196.81109375 62.06640625 197.6796875 C64.17832344 200.16562938 66.22753718 202.69096541 68.25 205.25 C76.62240239 199.72421443 81.328583 193.29538394 86.59375 184.8203125 C88.60211102 181.70356355 90.82232662 179.0511616 93.25 176.25 C98.18266232 170.54412761 100.56080789 165.34980368 102.375 158.0625 C102.87219657 156.18059229 103.37088868 154.29907905 103.87109375 152.41796875 C104.10554199 151.51997559 104.33999023 150.62198242 104.58154297 149.69677734 C105.39871512 146.70565269 106.41047054 143.79988617 107.4375 140.875 C110.25479812 132.01224965 110.91952968 122.59102704 111.92456055 113.38208008 C112.25 111.25 112.25 111.25 113.25 109.25 C112.59 109.25 111.93 109.25 111.25 109.25 C111.04697266 107.64898437 111.04697266 107.64898437 110.83984375 106.015625 C109.6194649 97.27552964 107.795061 89.02602777 104.875 80.6875 C104.59519287 79.88022461 104.31538574 79.07294922 104.02709961 78.24121094 C99.80767291 66.6536029 93.12324633 57.31054002 84.95703125 48.18359375 C83.88565226 46.970018 82.83718679 45.73539723 81.82421875 44.47265625 C71.96603899 32.22629773 57.55150092 25.16332851 43.3125 19.15625 C39.90458227 17.6588316 36.61859781 15.91881764 33.31640625 14.203125 C31.32658469 13.11038651 31.32658469 13.11038651 29.25 13.25 C26.23112459 12.83833517 23.48578314 12.33453262 20.61328125 11.3046875 C15.75479933 9.78112174 10.82161362 9.14135402 5.79492188 8.39453125 C-2.06628151 7.16889518 -2.06628151 7.16889518 -5.75 5.25 C-7.5625 2.625 -7.5625 2.625 -8.75 0.25 C-5.7278566 -1.2610717 -3.31242452 -0.46122367 0 0 Z M-61.1875 180.5 C-66.75920189 187.02510143 -69.45765084 193.11310383 -69.0078125 201.75 C-68.92273438 202.575 -68.83765625 203.4 -68.75 204.25 C-68.66492188 205.24 -68.57984375 206.23 -68.4921875 207.25 C-66.59426713 219.78229958 -57.80976137 227.56589105 -48 234.8125 C-41.99855602 238.59030139 -35.79171936 240.14516681 -28.92578125 241.55859375 C-25.75 242.25 -25.75 242.25 -24.75 243.25 C-21.25 243.41666667 -21.25 243.41666667 -17.75 243.25 C-17.42 242.92 -17.09 242.59 -16.75 242.25 C-14.60424966 242.22188973 -12.45837754 242.20313074 -10.3125 242.1875 C6.56030538 241.58023725 27.09950059 234.85520693 41.234375 225.546875 C44.16162041 223.66345354 47.21232392 222.02445408 50.26953125 220.36328125 C51.9761903 219.4039167 53.62099395 218.33600403 55.25 217.25 C50.55501718 207.07753723 42.75704435 199.29780682 34.25 192.25 C33.52296875 191.62351563 32.7959375 190.99703125 32.046875 190.3515625 C8.11043227 170.29884723 -35.80281695 154.23364923 -61.1875 180.5 Z M-126.3671875 373.50390625 C-130.3657832 378.55298049 -131.16746935 384.28072793 -130.50390625 390.58984375 C-128.51576035 400.88245748 -123.01068404 407.06030435 -114.75 413.25 C-96.50288075 423.87224233 -74.50388065 424.284634 -54.46484375 419.21484375 C-45.4382748 416.76135412 -37.10707131 413.47940479 -28.75 409.25 C-32.53073597 396.12862224 -39.16274631 382.14498995 -51.35546875 375.03125 C-72.74610846 363.5006061 -106.44345695 354.16091224 -126.3671875 373.50390625 Z " fill="#0F0F0F" transform="translate(174.75,0.75)"/>
<path d="M0 0 C0.72703125 0.58394531 1.4540625 1.16789062 2.203125 1.76953125 C2.203125 2.42953125 2.203125 3.08953125 2.203125 3.76953125 C3.523125 4.42953125 4.843125 5.08953125 6.203125 5.76953125 C6.203125 6.75953125 6.203125 7.74953125 6.203125 8.76953125 C5.5946875 8.21265625 4.98625 7.65578125 4.359375 7.08203125 C-11.75727765 -6.94893694 -32.31226515 -14.58535406 -53.796875 -13.23046875 C-56.14875947 -12.63253202 -58.48613095 -11.9716508 -60.796875 -11.23046875 C-62.23124129 -11.0386945 -63.66922427 -10.87241909 -65.109375 -10.73046875 C-68.82545207 -10.60568191 -68.82545207 -10.60568191 -70.796875 -8.23046875 C-71.786875 -8.16859375 -72.776875 -8.10671875 -73.796875 -8.04296875 C-80.3786353 -7.28406557 -85.94064229 -2.22591892 -90.296875 2.45703125 C-90.791875 3.22015625 -91.286875 3.98328125 -91.796875 4.76953125 C-92.18875 5.36765625 -92.580625 5.96578125 -92.984375 6.58203125 C-94.2164339 9.89911292 -94.39392467 13.25810691 -94.796875 16.76953125 C-95.291875 17.26453125 -95.291875 17.26453125 -95.796875 17.76953125 C-97.12665029 29.56918284 -94.57703627 37.58935511 -87.3828125 46.890625 C-83.08479176 51.88334094 -80.21176563 54.93293928 -73.796875 56.76953125 C-71.46416861 58.49129073 -69.31498611 60.28680334 -67.1953125 62.26171875 C-63.70225131 64.4576823 -60.0505398 65.10384563 -56.046875 65.95703125 C-55.25410156 66.13427734 -54.46132812 66.31152344 -53.64453125 66.49414062 C-51.69727424 66.92816779 -49.74731896 67.35005804 -47.796875 67.76953125 C-47.301875 66.28453125 -47.301875 66.28453125 -46.796875 64.76953125 C-37.71678179 64.32051565 -29.60266357 65.58111042 -20.796875 67.76953125 C-20.796875 67.10953125 -20.796875 66.44953125 -20.796875 65.76953125 C-19.94307251 65.70221802 -19.94307251 65.70221802 -19.07202148 65.63354492 C-16.45829702 65.42040176 -13.84650616 65.18885561 -11.234375 64.95703125 C-10.33912109 64.88677734 -9.44386719 64.81652344 -8.52148438 64.74414062 C-2.70834638 64.21180198 3.36622722 63.60642903 7.703125 59.26953125 C10.16901139 56.80364486 12.94653798 55.89249229 16.203125 54.76953125 C20.58407738 55.15048363 20.58407738 55.15048363 22.203125 56.76953125 C22.43840273 59.11940387 22.61698917 61.47509164 22.765625 63.83203125 C22.89130859 65.76755859 22.89130859 65.76755859 23.01953125 67.7421875 C23.08011719 68.74121094 23.14070313 69.74023438 23.203125 70.76953125 C23.863125 70.76953125 24.523125 70.76953125 25.203125 70.76953125 C25.30078125 76.921875 25.30078125 76.921875 25.203125 78.76953125 C24.873125 79.09953125 24.543125 79.42953125 24.203125 79.76953125 C23.98644169 81.75429017 23.83159387 83.74586679 23.703125 85.73828125 C23.620625 86.94871094 23.538125 88.15914063 23.453125 89.40625 C23.370625 90.68113281 23.288125 91.95601563 23.203125 93.26953125 C23.04065355 95.78022292 22.87420876 98.29066174 22.703125 100.80078125 C22.6309375 101.92033203 22.55875 103.03988281 22.484375 104.19335938 C22.203125 106.76953125 22.203125 106.76953125 21.203125 107.76953125 C20.98886669 109.24255711 20.83267445 110.72415272 20.703125 112.20703125 C20.620625 113.10164062 20.538125 113.99625 20.453125 114.91796875 C20.370625 115.85898437 20.288125 116.8 20.203125 117.76953125 C20.04053618 119.62405995 19.87407844 121.47825491 19.703125 123.33203125 C19.6309375 124.15832031 19.55875 124.98460937 19.484375 125.8359375 C19.203125 127.76953125 19.203125 127.76953125 18.203125 128.76953125 C17.91626439 130.1633675 17.66710152 131.56498983 17.43359375 132.96875 C16.12993791 139.73934968 13.82155138 146.09771306 11.515625 152.58203125 C10.83444312 154.51960501 10.1556092 156.45798971 9.47709656 158.39649963 C9.02476817 159.68876934 8.57173819 160.9807937 8.11799622 162.27256775 C6.17639862 167.81048551 4.33787978 173.3790246 2.515625 178.95703125 C-0.37530748 187.74010488 -3.62218481 196.35277381 -7.06396484 204.93359375 C-7.68067197 206.47844305 -8.28163731 208.02956326 -8.87890625 209.58203125 C-11.10713786 215.34698793 -13.68552184 220.92613597 -16.3359375 226.5065918 C-17.93987787 229.88856093 -19.45261143 233.27577691 -20.796875 236.76953125 C-22.22682354 232.47968562 -20.31106154 229.75839958 -18.546875 225.83203125 C-17.79780329 224.10675865 -17.05189953 222.38010834 -16.30859375 220.65234375 C-15.90302246 219.71036133 -15.49745117 218.76837891 -15.07958984 217.79785156 C-4.33325687 192.4271789 5.23562308 166.44237364 12.203125 139.76953125 C12.45690918 138.82303711 12.71069336 137.87654297 12.97216797 136.90136719 C16.5915184 123.22528113 18.98510268 109.55068817 20.640625 95.51953125 C20.73047668 94.78635681 20.82032837 94.05318237 20.91290283 93.29779053 C22.33919634 81.44020637 23.29702067 69.23243914 19.203125 57.76953125 C13.12079981 59.42911462 13.12079981 59.42911462 7.890625 62.76953125 C1.14011729 67.79316489 -8.34193181 68.11439816 -16.49609375 68.55859375 C-18.75930604 68.51876353 -18.75930604 68.51876353 -19.796875 69.76953125 C-25.08754956 70.0405005 -29.84498088 69.34084157 -34.984375 68.26953125 C-38.98125327 67.45022656 -42.68865556 66.76953125 -46.796875 66.76953125 C-46.796875 67.42953125 -46.796875 68.08953125 -46.796875 68.76953125 C-54.26766402 69.04119631 -61.12249727 68.34723823 -67.796875 64.76953125 C-67.796875 64.10953125 -67.796875 63.44953125 -67.796875 62.76953125 C-68.745625 62.48078125 -69.694375 62.19203125 -70.671875 61.89453125 C-73.796875 60.76953125 -73.796875 60.76953125 -75.796875 58.76953125 C-76.96089844 58.33447266 -76.96089844 58.33447266 -78.1484375 57.890625 C-87.62656366 53.87849785 -94.36040902 42.48992963 -98.234375 33.39453125 C-100.02990387 21.8233452 -98.60075746 12.61651967 -92.921875 2.39453125 C-90.48292429 -0.61829022 -87.85730569 -2.85707352 -84.796875 -5.23046875 C-84.054375 -5.93171875 -83.311875 -6.63296875 -82.546875 -7.35546875 C-75.98346936 -11.83051805 -67.48672069 -12.80881661 -59.796875 -14.23046875 C-59.03632812 -14.40707031 -58.27578125 -14.58367187 -57.4921875 -14.765625 C-36.97970228 -18.30328549 -16.89153486 -11.32599068 0 0 Z " fill="#CBCBCB" transform="translate(129.796875,366.23046875)"/>
<path d="M0 0 C1.21171875 0.15984375 2.4234375 0.3196875 3.671875 0.484375 C7.29120464 1.25881671 9.96943432 2.586872 13.25 4.25 C15.3597601 4.50014306 15.3597601 4.50014306 17.375 4.25 C23.68645098 4.00270294 30.5801873 5.41509365 36.25 8.25 C37.10851562 8.19328125 37.96703125 8.1365625 38.8515625 8.078125 C43.39539482 8.30792801 46.60405496 9.98237277 50.625 12 C51.34171875 12.34804687 52.0584375 12.69609375 52.796875 13.0546875 C54.23929427 13.75767162 55.67773755 14.46887329 57.11206055 15.18823242 C58.53102217 15.89293313 59.95976175 16.57829607 61.39770508 17.2434082 C65.73953287 19.28479506 68.81179235 21.44638354 72.1875 24.9375 C76.1784872 28.70095788 78.73956775 30.24371566 84.2421875 30.15234375 C86.65705911 30.26979859 88.17017213 31.06086075 90.25 32.25 C90.25 33.24 90.25 34.23 90.25 35.25 C89.59 35.25 88.93 35.25 88.25 35.25 C90.56 37.89 92.87 40.53 95.25 43.25 C94.755 44.24 94.755 44.24 94.25 45.25 C87.54114589 38.87199349 87.54114589 38.87199349 85.875 35.3125 C84.45678363 33.02306854 84.45678363 33.02306854 82.07421875 32.9453125 C79.77733391 32.93816822 77.53596432 33.03434299 75.25 33.25 C76.24 35.725 76.24 35.725 77.25 38.25 C74.49808459 36.9669719 72.27660617 35.55005749 69.9375 33.625 C61.98546662 27.5492891 52.56811223 23.08555423 43.3828125 19.19140625 C39.95313954 17.67757624 36.64219887 15.93107985 33.31640625 14.203125 C31.32658469 13.11038651 31.32658469 13.11038651 29.25 13.25 C26.23112459 12.83833517 23.48578314 12.33453262 20.61328125 11.3046875 C15.75479933 9.78112174 10.82161362 9.14135402 5.79492188 8.39453125 C-2.06628151 7.16889518 -2.06628151 7.16889518 -5.75 5.25 C-7.5625 2.625 -7.5625 2.625 -8.75 0.25 C-5.7278566 -1.2610717 -3.31242452 -0.46122367 0 0 Z " fill="#353535" transform="translate(174.75,0.75)"/>
<path d="M0 0 C3.6310464 5.4465696 3.14879864 10.74542962 2 17 C3.32 17.66 4.64 18.32 6 19 C6.02705308 21.41674224 6.04686438 23.8331794 6.0625 26.25 C6.07087891 26.93191406 6.07925781 27.61382812 6.08789062 28.31640625 C6.11342198 33.57586569 6.11342198 33.57586569 5.4453125 36.07421875 C4.77328837 38.98042837 5.42135908 41.61463307 5.8125 44.5625 C6.55685588 52.55977526 5.15006802 59.94746953 3.4375 67.75 C3.07845581 69.4352478 3.07845581 69.4352478 2.7121582 71.15454102 C0.86214387 79.06684755 -2.07862154 85.89476109 -6 93 C-6.66 93 -7.32 93 -8 93 C-7.896875 93.825 -7.79375 94.65 -7.6875 95.5 C-8.22765641 101.54975183 -12.10502497 105.79074053 -15.625 110.5625 C-17.56633526 113.23709501 -18.89467464 115.88518195 -20.12109375 118.96875 C-25.45422251 131.29420313 -25.45422251 131.29420313 -30 135 C-30.66 135 -31.32 135 -32 135 C-32.25958496 135.74330566 -32.51916992 136.48661133 -32.78662109 137.25244141 C-34.0317421 140.07187637 -35.3045986 141.7387158 -37.4140625 143.9609375 C-38.43306641 145.03988281 -38.43306641 145.03988281 -39.47265625 146.140625 C-40.18292969 146.87796875 -40.89320313 147.6153125 -41.625 148.375 C-42.65560547 149.46941406 -42.65560547 149.46941406 -43.70703125 150.5859375 C-47.71430133 154.7962025 -51.86331685 158.71795481 -56.27636719 162.49902344 C-58.24102447 164.2098893 -60.03449442 166.034576 -61.8125 167.9375 C-65.66285832 171.85634295 -69.89397132 174.99375126 -74.38671875 178.140625 C-76.16233834 179.40399559 -77.89807343 180.72495084 -79.59375 182.09375 C-82.58240352 184.46138461 -85.6623568 186.16756844 -89 188 C-88.93143799 188.84240234 -88.86287598 189.68480469 -88.79223633 190.55273438 C-86.84889526 215.78659194 -87.0889975 240.14994985 -95.1328125 264.34375 C-96.11168868 267.34210948 -96.79232466 270.33241812 -97.4453125 273.4140625 C-98.21759764 277.01443409 -99.02993014 280.60367249 -99.875 284.1875 C-100.09929687 285.20420776 -100.09929687 285.20420776 -100.328125 286.24145508 C-101.4408126 290.88544375 -103.26242729 294.12813421 -106 298 C-106.93109427 300.11593527 -106.93109427 300.11593527 -107.5 302.1875 C-107.7371875 302.94675781 -107.974375 303.70601562 -108.21875 304.48828125 C-108.4765625 305.31714844 -108.734375 306.14601563 -109 307 C-109.65181401 308.96332687 -110.31878878 310.92167843 -111 312.875 C-111.309375 313.77992188 -111.61875 314.68484375 -111.9375 315.6171875 C-113.00106226 318.00238227 -114.03518483 319.3142779 -116 321 C-113.29351896 311.46013421 -113.29351896 311.46013421 -111.4375 307.3125 C-109.90874576 304.01879412 -109.90874576 304.01879412 -109.0625 300.4375 C-108 297 -108 297 -106.046875 294.2421875 C-103.77843018 290.64904017 -103.03461403 287.83961062 -102.1875 283.6875 C-100.57713162 276.14366076 -98.53206195 268.77959933 -96.375 261.375 C-94.00500911 253.15519606 -92.1230723 245.2099707 -91.2890625 236.6953125 C-91 234 -91 234 -90 231 C-89.19545645 216.33111287 -90.78608808 201.60407072 -92 187 C-89.19559092 185.3000671 -86.39233347 183.67446436 -83.5 182.125 C-81.16142642 180.79581074 -79.68949875 179.68949875 -77.75 177.75 C-75.26911352 175.26911352 -72.94138508 173.53359066 -70.0625 171.5625 C-64.48011497 167.5966649 -59.78632161 163.01854185 -55.03540039 158.09985352 C-52.23835839 155.20828658 -49.42735211 152.46482165 -46.3359375 149.88671875 C-43.46424486 147.47341087 -41.14797181 144.93801299 -38.875 141.9375 C-36.09265662 138.35172801 -33.3015658 135.10735605 -30 132 C-27.75240251 130.00138042 -27.75240251 130.00138042 -26.5625 126.625 C-25 123 -25 123 -23.4375 121 C-21.77549702 118.95642526 -21.77549702 118.95642526 -21.25 115.8125 C-20.1611811 111.4572244 -17.49636066 108.50095561 -14.65625 105.11328125 C-12.25801384 102.05326766 -11.11793081 99.44645234 -10.125 95.6875 C-9.1220843 92.40016519 -7.82562814 89.92381356 -6.078125 86.99609375 C-2.29009248 79.98274369 -0.52869656 72.57441684 0.5078125 64.7265625 C1 62 1 62 2.02075195 59.64160156 C3.04967948 56.86598553 3.21898481 54.94924043 3.16015625 52.0078125 C3.14855469 51.06172119 3.13695312 50.11562988 3.125 49.14086914 C3.104375 48.14563232 3.08375 47.15039551 3.0625 46.125 C2.95884257 37.01970251 3.19753105 28.07076506 4 19 C2.515 18.505 2.515 18.505 1 18 C-0.59412284 14.81175432 -0.10174735 11.37103338 -0.0625 7.875 C-0.05798828 7.12089844 -0.05347656 6.36679688 -0.04882812 5.58984375 C-0.03703499 3.72652873 -0.01909942 1.86325445 0 0 Z " fill="#E1E1E1" transform="translate(253,229)"/>
<path d="M0 0 C0.495 0.99 0.495 0.99 1 2 C1.66 2 2.32 2 3 2 C3.09765625 8.15234375 3.09765625 8.15234375 3 10 C2.67 10.33 2.34 10.66 2 11 C1.78331669 12.98475892 1.62846887 14.97633554 1.5 16.96875 C1.4175 18.17917969 1.335 19.38960938 1.25 20.63671875 C1.1675 21.91160156 1.085 23.18648438 1 24.5 C0.83752855 27.01069167 0.67108376 29.52113049 0.5 32.03125 C0.4278125 33.15080078 0.355625 34.27035156 0.28125 35.42382812 C0 38 0 38 -1 39 C-1.21425831 40.47302586 -1.37045055 41.95462147 -1.5 43.4375 C-1.5825 44.33210938 -1.665 45.22671875 -1.75 46.1484375 C-1.8325 47.08945312 -1.915 48.03046875 -2 49 C-2.16258882 50.8545287 -2.32904656 52.70872366 -2.5 54.5625 C-2.5721875 55.38878906 -2.644375 56.21507812 -2.71875 57.06640625 C-3 59 -3 59 -4 60 C-4.28686061 61.39383625 -4.53602348 62.79545858 -4.76953125 64.19921875 C-6.07318709 70.96981843 -8.38157362 77.32818181 -10.6875 83.8125 C-11.36868188 85.75007376 -12.0475158 87.68845846 -12.72602844 89.62696838 C-13.17835683 90.91923809 -13.63138681 92.21126245 -14.08512878 93.5030365 C-16.02672638 99.04095426 -17.86524522 104.60949335 -19.6875 110.1875 C-22.57843248 118.97057363 -25.82530981 127.58324256 -29.26708984 136.1640625 C-29.88379697 137.7089118 -30.48476231 139.26003201 -31.08203125 140.8125 C-33.31026286 146.57745668 -35.88864684 152.15660472 -38.5390625 157.73706055 C-40.14300287 161.11902968 -41.65573643 164.50624566 -43 168 C-44.42994854 163.71015437 -42.51418654 160.98886833 -40.75 157.0625 C-40.00092829 155.3372274 -39.25502453 153.61057709 -38.51171875 151.8828125 C-38.10614746 150.94083008 -37.70057617 149.99884766 -37.28271484 149.02832031 C-26.53638187 123.65764765 -16.96750192 97.67284239 -10 71 C-9.74621582 70.05350586 -9.49243164 69.10701172 -9.23095703 68.13183594 C-5.58727603 54.36381434 -3.22479073 40.6315465 -1.625 26.5 C-1.53941833 25.74974548 -1.45383667 24.99949097 -1.36566162 24.22650146 C-0.4592099 16.1324365 0.20874562 8.15713668 0 0 Z " fill="#DBDBDB" transform="translate(152,435)"/>
<path d="M0 0 C1.32 0 2.64 0 4 0 C4 0.66 4 1.32 4 2 C4.58652344 2.25007813 5.17304687 2.50015625 5.77734375 2.7578125 C8.29415569 4.16439632 9.70866201 5.67693706 11.5625 7.875 C12.14128906 8.55304688 12.72007812 9.23109375 13.31640625 9.9296875 C16.22236126 13.50313566 18.37292648 16.63059118 20.1015625 20.93359375 C21.55857103 24.28471336 23.35400476 27.46492248 25.109375 30.66796875 C26 33 26 33 25.953125 35.17578125 C25 37 25 37 22.8125 38.125 C21.884375 38.41375 20.95625 38.7025 20 39 C16.46885267 40.15745674 13.14135364 41.35167015 9.8125 43 C-2.11177196 48.2259418 -13.06998421 49.35886572 -26 49.375 C-27.25264648 49.37661133 -28.50529297 49.37822266 -29.79589844 49.37988281 C-47.60689952 49.16494716 -62.08895873 42.18975405 -75 30 C-74.67 28.68 -74.34 27.36 -74 26 C-73.53851563 26.58007812 -73.07703125 27.16015625 -72.6015625 27.7578125 C-61.699994 40.81384118 -47.57929089 45.44690483 -31 47 C-13.62491648 48.25982479 4.49358945 43.61005104 19.99609375 35.91796875 C22 35 22 35 24 35 C15.40741698 15.39320038 15.40741698 15.39320038 0 1 C0 0.67 0 0.34 0 0 Z " fill="#D2D2D2" transform="translate(122,375)"/>
<path d="M0 0 C2.80634087 1.14332406 4.25013159 2.26329641 6.375 4.5 C9.25688018 7.24464779 11.26133955 7.83166861 15 9 C17.33270639 10.72175948 19.48188889 12.51727209 21.6015625 14.4921875 C25.09462369 16.68815105 28.7463352 17.33431438 32.75 18.1875 C33.54277344 18.36474609 34.33554688 18.54199219 35.15234375 18.72460938 C37.09960076 19.15863654 39.04955604 19.58052679 41 20 C41.495 18.515 41.495 18.515 42 17 C51.08009321 16.5509844 59.19421143 17.81157917 68 20 C68 19.34 68 18.68 68 18 C68.85380249 17.93268677 68.85380249 17.93268677 69.72485352 17.86401367 C72.33857798 17.65087051 74.95036884 17.41932436 77.5625 17.1875 C78.45775391 17.11724609 79.35300781 17.04699219 80.27539062 16.97460938 C86.08852862 16.44227073 92.16310222 15.83689778 96.5 11.5 C98.96588639 9.03411361 101.74341298 8.12296104 105 7 C109.38095238 7.38095238 109.38095238 7.38095238 111 9 C111.23427778 11.01594582 111.41336124 13.038474 111.5625 15.0625 C111.64628906 16.16722656 111.73007813 17.27195312 111.81640625 18.41015625 C111.87699219 19.26480469 111.93757813 20.11945313 112 21 C110.12498358 17.43904445 109.04669153 13.8877114 108 10 C101.91767481 11.65958337 101.91767481 11.65958337 96.6875 15 C89.93699229 20.02363364 80.45494319 20.34486691 72.30078125 20.7890625 C70.03756896 20.74923228 70.03756896 20.74923228 69 22 C63.70932544 22.27096925 58.95189412 21.57131032 53.8125 20.5 C49.81562173 19.68069531 46.10821944 19 42 19 C42 19.66 42 20.32 42 21 C34.52921098 21.27166506 27.67437773 20.57770698 21 17 C21 16.34 21 15.68 21 15 C20.05125 14.71125 19.1025 14.4225 18.125 14.125 C15 13 15 13 13 11 C12.22269531 10.71253906 11.44539063 10.42507813 10.64453125 10.12890625 C7.61620436 8.83616405 5.96282887 7.29852864 3.6875 4.9375 C2.99011719 4.22464844 2.29273438 3.51179688 1.57421875 2.77734375 C0 1 0 1 0 0 Z " fill="#E6E6E6" transform="translate(41,414)"/>
<path d="M0 0 C0 4.300773 -2.59484916 6.07932229 -5.4375 9 C-9.40323292 13.17131146 -13.21193106 17.37740351 -16.8125 21.875 C-19.76301607 25.55122648 -22.8211701 28.87879584 -26.20703125 32.1484375 C-28.35340786 34.36495714 -30.25625691 36.71874739 -32.1875 39.125 C-36.63583747 44.65310486 -41.38951619 49.82778955 -46.2265625 55.01171875 C-48.36354314 57.3035841 -50.45223348 59.62758757 -52.5 62 C-55.03679493 64.93896973 -57.65456049 67.78920376 -60.30273438 70.62719727 C-65.45145827 76.14608563 -70.36689646 81.74618588 -75.0625 87.66015625 C-76.94749566 89.93659254 -78.77213572 92.05511042 -81 94 C-81.99 94 -82.98 94 -84 94 C-83.67 83.44 -83.34 72.88 -83 62 C-82.67 62 -82.34 62 -82 62 C-81.67 71.57 -81.34 81.14 -81 91 C-76.25182032 85.7242448 -71.52442763 80.4690588 -66.87109375 75.1171875 C-64.65517041 72.60981704 -62.38959092 70.15098411 -60.125 67.6875 C-56.74371115 63.98857493 -53.51340985 60.21927916 -50.375 56.3125 C-47.72250607 53.02247683 -45.03251747 49.94262071 -42 47 C-39.00788911 44.09623884 -36.35950562 41.06499532 -33.75 37.8125 C-29.32838739 32.30460886 -24.59566247 27.1565951 -19.78125 21.99609375 C-17.0544887 19.07156934 -14.41622514 16.07899731 -11.80078125 13.0546875 C-7.93459512 8.64337751 -3.95628027 4.33041542 0 0 Z " fill="#DCDCDC" transform="translate(140,654)"/>
<path d="M0 0 C0.33 0 0.66 0 1 0 C1.03738281 1.134375 1.07476562 2.26875 1.11328125 3.4375 C1.35041431 16.04044007 1.35041431 16.04044007 6.6875 27.1875 C8 29 8 29 7.8515625 31.296875 C8.0498922 34.90856328 9.38802117 36.31247633 11.6875 39.0625 C12.71423828 40.31740234 12.71423828 40.31740234 13.76171875 41.59765625 C16.02989576 44.03208707 18.35455418 45.98612458 21 48 C21.95777344 48.75539062 22.91554688 49.51078125 23.90234375 50.2890625 C25.40474609 51.44535156 25.40474609 51.44535156 26.9375 52.625 C27.93652344 53.40101563 28.93554688 54.17703125 29.96484375 54.9765625 C32.96846175 56.9789745 35.56015574 57.98346339 39 59 C39.886875 59.515625 40.77375 60.03125 41.6875 60.5625 C51.73243002 64.92162058 64.90324569 63.11571343 75.6875 63.0625 C77.4680977 63.05747418 79.24869677 63.05291319 81.02929688 63.04882812 C85.35289909 63.03791 89.67643403 63.02070521 94 63 C94 63.33 94 63.66 94 64 C87.63277322 65.03954723 81.45192178 65.02499425 75.0078125 64.9609375 C71.0858693 64.95902901 67.21958903 65.28002089 63.3125 65.625 C46.77344463 66.79651642 33.76546628 61.23999536 21 51 C20.27941406 50.44441406 19.55882813 49.88882813 18.81640625 49.31640625 C8.21904337 40.70217561 1.11136319 28.5388444 -1 15 C-1.26877863 9.9406376 -1.31345852 4.92546945 0 0 Z " fill="#DBDBDB" transform="translate(90,192)"/>
<path d="M0 0 C1.21171875 0.15984375 2.4234375 0.3196875 3.671875 0.484375 C7.29120464 1.25881671 9.96943432 2.586872 13.25 4.25 C15.3597601 4.50014306 15.3597601 4.50014306 17.375 4.25 C23.68645098 4.00270294 30.5801873 5.41509365 36.25 8.25 C37.10851562 8.19328125 37.96703125 8.1365625 38.8515625 8.078125 C43.39539482 8.30792801 46.60405496 9.98237277 50.625 12 C51.34171875 12.34804687 52.0584375 12.69609375 52.796875 13.0546875 C54.23929427 13.75767162 55.67773755 14.46887329 57.11206055 15.18823242 C58.53102217 15.89293313 59.95976175 16.57829607 61.39770508 17.2434082 C65.73953287 19.28479506 68.81179235 21.44638354 72.1875 24.9375 C76.1784872 28.70095788 78.73956775 30.24371566 84.2421875 30.15234375 C86.65705911 30.26979859 88.17017213 31.06086075 90.25 32.25 C90.25 33.24 90.25 34.23 90.25 35.25 C89.59 35.25 88.93 35.25 88.25 35.25 C90.56 37.89 92.87 40.53 95.25 43.25 C94.755 44.24 94.755 44.24 94.25 45.25 C87.57898172 38.90796345 87.57898172 38.90796345 85.875 35.5 C83.95751163 32.8450161 83.19056193 32.7778868 80.125 31.9375 C75.07145123 30.51361737 72.09907812 27.81354305 68.390625 24.1875 C64.82214522 20.95763509 60.96899881 19.01393256 56.5 17.3125 C53.13585633 16.01475912 49.87820676 14.61593437 46.625 13.0625 C43.10137731 11.4675971 40.08587702 10.83480129 36.25390625 10.52734375 C34.04944057 10.22224226 32.25818176 9.55892054 30.1875 8.75 C24.80440204 6.79592605 19.36362186 6.79601535 13.703125 6.65625 C10.00940507 6.22169471 8.33085988 5.22234952 5.25 3.25 C2.36972928 2.47607108 2.36972928 2.47607108 -0.5625 2.0625 C-2.02623047 1.82466797 -2.02623047 1.82466797 -3.51953125 1.58203125 C-4.25558594 1.47246094 -4.99164063 1.36289062 -5.75 1.25 C-6.08 1.91 -6.41 2.57 -6.75 3.25 C-7.41 2.26 -8.07 1.27 -8.75 0.25 C-5.7278566 -1.2610717 -3.31242452 -0.46122367 0 0 Z " fill="#CCCCCC" transform="translate(174.75,0.75)"/>
<path d="M0 0 C1.1171875 3.71875 1.1171875 3.71875 0.0625 6.25 C-0.288125 6.8275 -0.63875 7.405 -1 8 C-1.66 8 -2.32 8 -3 8 C-3.25910156 8.7115625 -3.51820313 9.423125 -3.78515625 10.15625 C-5.07625794 13.17850734 -6.64147857 15.74996289 -8.4375 18.5 C-12.95964279 25.09549126 -12.95964279 25.09549126 -15.875 32.4375 C-17.18346467 36.58097145 -19.12896089 38.77883417 -22 42 C-22.474375 42.845625 -22.94875 43.69125 -23.4375 44.5625 C-25 47 -25 47 -27.9375 49.4375 C-31.09749587 52.08157818 -32.74451111 54.58259258 -35 58 C-42.34482984 66.86076856 -52.94112959 72.9417342 -62.78125 78.64453125 C-64.93149527 79.9581494 -66.88334535 81.39734333 -68.875 82.9375 C-72 85 -72 85 -74.05078125 84.8359375 C-76.42714217 83.81681678 -77.06930776 82.92908601 -78.3125 80.6875 C-78.65925781 80.09324219 -79.00601563 79.49898438 -79.36328125 78.88671875 C-80 77 -80 77 -79 73 C-77.35 75.97 -75.7 78.94 -74 82 C-70.13353264 80.71117755 -67.20847596 78.76949301 -63.94921875 76.3515625 C-61.88644401 74.92126178 -59.77647814 73.74379642 -57.5625 72.5625 C-53.02865665 70.09578184 -49.01142756 67.23938694 -45 64 C-44.3296875 63.46503906 -43.659375 62.93007813 -42.96875 62.37890625 C-38.51489107 58.67021218 -34.97722623 54.68164705 -31.54296875 50.015625 C-30.12577065 48.16429786 -28.76241964 46.52582084 -27 45 C-26.34 45 -25.68 45 -25 45 C-24.7525 44.0925 -24.505 43.185 -24.25 42.25 C-23 39 -23 39 -21.03515625 37.1171875 C-18.73585298 34.72520598 -18.12100823 33.02961401 -17.1875 29.875 C-15.46440287 24.79957381 -13.1337258 21.04547455 -9.94921875 16.76953125 C-6.20369969 11.44774164 -3.15414699 5.68565718 0 0 Z " fill="#D3D3D3" transform="translate(232,319)"/>
<path d="M0 0 C13.367904 5.42687846 23.60906281 25.00168341 29.11132812 37.69921875 C32.46555952 46.38336069 34.61793271 55.78251362 35.56640625 65.03515625 C35.55557642 68.76425821 35.55557642 68.76425821 37 70 C36.96103988 72.99393559 36.85631364 75.95017154 36.6875 78.9375 C36.61474854 80.23941284 36.61474854 80.23941284 36.54052734 81.56762695 C35.97711738 90.64601682 34.43596283 98.56627305 31 107 C30.67 107 30.34 107 30 107 C30.44281671 102.94084681 30.95438237 99.02593486 31.9375 95.0625 C33.2041201 89.69354314 33.73054751 84.24188222 34.30249023 78.76391602 C34.9001016 73.19979681 34.9001016 73.19979681 36 71 C35.34 71 34.68 71 34 71 C33.86464844 69.93265625 33.72929687 68.8653125 33.58984375 67.765625 C32.3694649 59.02552964 30.545061 50.77602777 27.625 42.4375 C27.20528931 41.22658691 27.20528931 41.22658691 26.77709961 39.99121094 C22.55653304 28.40047253 15.8875397 19.16997774 7.74609375 10.03125 C4.9861091 6.82052961 2.48646747 3.42458524 0 0 Z " fill="#D1D1D1" transform="translate(252,39)"/>
<path d="M0 0 C1.7074998 1.28062485 3.37373596 2.61767557 5 4 C5 4.66 5 5.32 5 6 C6.03125 6.165 7.0625 6.33 8.125 6.5 C13.17604829 7.93147118 15.37370113 11.6922293 18 16 C19.02930047 17.98507948 20.03863929 19.98114251 21 22 C21.66 22.66 22.32 23.32 23 24 C23.33870968 30.32258065 23.33870968 30.32258065 22 33 C22.61875 33.0825 23.2375 33.165 23.875 33.25 C26 34 26 34 27.25 36.0625 C27.4975 36.701875 27.745 37.34125 28 38 C22.54910864 36.18303621 20.10139877 34.46501062 17.140625 29.5234375 C15.9850291 27.67840702 15.9850291 27.67840702 13 27 C12.3125 24.9375 12.3125 24.9375 12 23 C12.66 22.67 13.32 22.34 14 22 C12.94912082 19.93155482 11.88374228 17.87047291 10.8125 15.8125 C10.22082031 14.66394531 9.62914062 13.51539063 9.01953125 12.33203125 C6.99932155 8.99888062 4.81688833 6.66665429 2 4 C0.6875 1.6875 0.6875 1.6875 0 0 Z " fill="#CFCFCF" transform="translate(270,46)"/>
<path d="M0 0 C2.36575266 3.35841772 3.81045922 6.81115732 5.125 10.6875 C5.45757812 11.64011719 5.79015625 12.59273437 6.1328125 13.57421875 C11.95973095 36.59317138 9.27950248 64.07292306 -2 85 C-3.30670258 81.07989227 -2.33676236 79.82422112 -0.75 76.0625 C7.93644838 54.44289514 9.36553403 29.03253149 0.875 7.0625 C-0.23665383 4.3098642 -0.23665383 4.3098642 -2 2 C-3.33874431 2.11540899 -4.67258 2.29140543 -6 2.5 C-7.32742 2.70859457 -8.66125569 2.88459101 -10 3 C-10.33 2.67 -10.66 2.34 -11 2 C-11.33 2.66 -11.66 3.32 -12 4 C-10.68 4 -9.36 4 -8 4 C-8 4.99 -8 5.98 -8 7 C-8.66 7 -9.32 7 -10 7 C-10.33 7.99 -10.66 8.98 -11 10 C-14.0625 11.1875 -14.0625 11.1875 -17 12 C-15 10 -13 8 -11 6 C-12.65 6 -14.3 6 -16 6 C-16 5.34 -16 4.68 -16 4 C-15.34 3.67 -14.68 3.34 -14 3 C-14.33 2.34 -14.66 1.68 -15 1 C-4 -1.33333333 -4 -1.33333333 0 0 Z " fill="#D3D3D3" transform="translate(238,229)"/>
<path d="M0 0 C1.69653677 5.08961031 -0.58513332 9.95678631 -2 15 C-2.32677734 16.24136719 -2.32677734 16.24136719 -2.66015625 17.5078125 C-4.3564439 23.33816645 -7.20996482 27.32398257 -11 32 C-12.5081189 33.97298709 -14.00757021 35.95261864 -15.5 37.9375 C-16.27214844 38.96101563 -17.04429687 39.98453125 -17.83984375 41.0390625 C-19.69357914 43.57998732 -21.39429872 46.14883257 -23.0625 48.8125 C-26.03248989 53.38811468 -29.79886217 56.58421001 -34 60 C-34.66 60.66 -35.32 61.32 -36 62 C-37.32 62 -38.64 62 -40 62 C-41.421875 60.53125 -41.421875 60.53125 -42.75 58.5 C-46.42582125 53.25283532 -50.76247234 47.07917589 -57 45 C-58.87532041 42.53293116 -60.50765436 39.95342331 -62.18359375 37.34765625 C-64.05496371 34.92896088 -65.31121219 34.27303542 -68 33 C-68.33 32.01 -68.66 31.02 -69 30 C-63.3868948 31.36075278 -60.38968575 35.62621194 -57 40 C-56.67 40.66 -56.34 41.32 -56 42 C-55.24847656 42.43570313 -54.49695313 42.87140625 -53.72265625 43.3203125 C-50.70319975 45.18310489 -48.7674466 47.20873068 -46.4375 49.875 C-45.69371094 50.71804687 -44.94992188 51.56109375 -44.18359375 52.4296875 C-42.07167656 54.91562938 -40.02246282 57.44096541 -38 60 C-29.62759761 54.47421443 -24.921417 48.04538394 -19.65625 39.5703125 C-17.26917362 35.8658402 -14.46322685 32.6757111 -11.56591797 29.35766602 C-7.18360768 23.98207926 -5.35559937 18.7973975 -3.6875 12.125 C-3.19260504 10.25228696 -2.6965687 8.37987505 -2.19921875 6.5078125 C-1.99127686 5.68941895 -1.78333496 4.87102539 -1.5690918 4.02783203 C-1 2 -1 2 0 0 Z " fill="#E1E1E1" transform="translate(281,146)"/>
<path d="M0 0 C1.73007151 0.08786703 3.45911665 0.19605674 5.1875 0.3125 C6.63189453 0.39951172 6.63189453 0.39951172 8.10546875 0.48828125 C11 1 11 1 13.40625 2.5078125 C16.7958476 4.45785208 19.42343884 4.43935302 23.3125 4.5625 C28.85178327 4.82266203 33.70789077 5.37996656 39 7 C38.34 7.66 37.68 8.32 37 9 C37.99 10.32 38.98 11.64 40 13 C39.443125 12.649375 38.88625 12.29875 38.3125 11.9375 C36.04524454 10.75390766 36.04524454 10.75390766 33.75 11.5625 C30.36266959 12.10139347 28.38037676 11.01012697 25.26025391 9.78149414 C21.52876453 8.49131295 17.71023898 7.98965246 13.8125 7.4375 C4.47072376 6.08753233 4.47072376 6.08753233 0 4 C0 2.68 0 1.36 0 0 Z " fill="#737373" transform="translate(169,2)"/>
<path d="M0 0 C1.09699219 0.391875 2.19398438 0.78375 3.32421875 1.1875 C17.16837091 6.33210236 28.81369995 13.28166956 40 23 C41.20636955 23.96080421 42.41431027 24.91964531 43.625 25.875 C46 28 46 28 47 31 C44.07862611 29.69883133 42.27980064 28.39778806 40.1875 26 C32.50441685 18.13710001 22.47039222 12.52991924 12.75 7.5625 C12.13777588 7.24482666 11.52555176 6.92715332 10.89477539 6.59985352 C1.72927256 2.09399593 -7.2826916 0.50111049 -17.4375 0.6875 C-18.44014893 0.6973291 -19.44279785 0.7071582 -20.47583008 0.71728516 C-32.15452396 0.70242205 -32.15452396 0.70242205 -43.11328125 4.1328125 C-45 5 -45 5 -48 4 C-43.34933978 0.54826258 -38.65156674 0.03882479 -33.0625 -0.6875 C-32.12897705 -0.81342529 -31.1954541 -0.93935059 -30.23364258 -1.0690918 C-20.19418065 -2.34596128 -9.7032845 -3.53464654 0 0 Z " fill="#D7D7D7" transform="translate(170,169)"/>
<path d="M0 0 C2.5769989 0.41176464 5.13441883 0.55523965 7.73828125 0.72265625 C11.84896316 1.09273149 15.22367036 1.85366253 19.0078125 3.46875 C21.72297279 4.56949066 24.49791701 5.37110955 27.30078125 6.22265625 C32.39572115 7.89752984 35.28615221 9.72939667 39.17578125 13.34765625 C42.80396769 15.87955614 46.15204042 17.44590635 50.48828125 18.34765625 C54.17578125 19.34765625 54.17578125 19.34765625 55.67578125 21.47265625 C55.84078125 22.09140625 56.00578125 22.71015625 56.17578125 23.34765625 C55.68078125 23.05890625 55.18578125 22.77015625 54.67578125 22.47265625 C51.82045306 21.18775856 49.03487787 20.55561629 45.98046875 19.91015625 C44.17578125 19.34765625 44.17578125 19.34765625 42.17578125 17.34765625 C41.51578125 17.20328125 40.85578125 17.05890625 40.17578125 16.91015625 C38.17578125 16.34765625 38.17578125 16.34765625 36.17578125 13.34765625 C33.82245588 12.26649963 33.82245588 12.26649963 31.17578125 11.34765625 C30.38300781 10.94546875 29.59023437 10.54328125 28.7734375 10.12890625 C21.39512576 6.39995979 14.36466376 5.14861264 6.17578125 4.34765625 C6.17578125 3.68765625 6.17578125 3.02765625 6.17578125 2.34765625 C-3.06421875 2.34765625 -12.30421875 2.34765625 -21.82421875 2.34765625 C-21.82421875 2.01765625 -21.82421875 1.68765625 -21.82421875 1.34765625 C-6.5939281 -1.0803611 -6.5939281 -1.0803611 0 0 Z " fill="#D2D2D2" transform="translate(155.82421875,152.65234375)"/>
<path d="M0 0 C0.33 0 0.66 0 1 0 C2.11007678 10.75541058 -1.20082878 20.745935 -4 31 C-4.37372602 32.40068743 -4.74622303 33.80170366 -5.1171875 35.203125 C-5.77126787 37.66733476 -6.43232005 40.1297085 -7.1015625 42.58984375 C-7.97385661 45.90076879 -8.73825489 49.22474589 -9.5 52.5625 C-10.61693885 57.11523988 -12.26977301 60.1606183 -15 64 C-16.16898654 66.94584608 -17.05906388 69.97489039 -18 73 C-18.65181401 74.96332687 -19.31878878 76.92167843 -20 78.875 C-20.4640625 80.23238281 -20.4640625 80.23238281 -20.9375 81.6171875 C-22.00106226 84.00238227 -23.03518483 85.3142779 -25 87 C-22.29351896 77.46013421 -22.29351896 77.46013421 -20.4375 73.3125 C-18.90874576 70.01879412 -18.90874576 70.01879412 -18.0625 66.4375 C-17 63 -17 63 -15.046875 60.2421875 C-12.77843018 56.64904017 -12.03461403 53.83961062 -11.1875 49.6875 C-9.57713048 42.14365539 -7.53199848 34.77962164 -5.375 27.375 C-2.74876425 18.26356984 -0.75387536 9.46190499 0 0 Z " fill="#D2D2D2" transform="translate(162,463)"/>
<path d="M0 0 C-0.54785156 0.26296875 -1.09570312 0.5259375 -1.66015625 0.796875 C-9.79510367 4.97978619 -18.78012772 9.87702853 -22 19 C-22.40247003 21.6604837 -22.69315644 24.32607754 -23 27 C-23.33 27.33 -23.66 27.66 -24 28 C-25.3505142 39.9836766 -22.34795037 48.59991934 -15 58 C-15.99 58 -16.98 58 -18 58 C-25.70200661 48.51400968 -28.15000946 39.04705028 -27 27 C-24.6911217 17.63357103 -20.65395929 10.93572353 -13 5 C-12.113125 4.2575 -11.22625 3.515 -10.3125 2.75 C-6.85051761 0.13012143 -4.21989888 -0.11405132 0 0 Z " fill="#D1D1D1" transform="translate(58,356)"/>
<path d="M0 0 C3.6310464 5.4465696 3.14879864 10.74542962 2 17 C3.32 17.66 4.64 18.32 6 19 C6.02705308 21.41674224 6.04686438 23.8331794 6.0625 26.25 C6.07087891 26.93191406 6.07925781 27.61382812 6.08789062 28.31640625 C6.11344718 33.58105579 6.11344718 33.58105579 5.453125 36.01953125 C4.87563285 38.5435702 5.19687749 40.82951832 5.47094727 43.3828125 C6.39947617 52.19284547 5.31522088 58.69060516 2 67 C1.67 67 1.34 67 1 67 C1.45822468 63.53058454 1.89131683 60.32604951 3 57 C3.07046937 55.40245944 3.08426259 53.80207096 3.0625 52.203125 C3.05412109 51.25058838 3.04574219 50.29805176 3.03710938 49.31665039 C3.02486328 48.30465576 3.01261719 47.29266113 3 46.25 C2.93697572 37.11076365 3.19456824 28.10425546 4 19 C3.01 18.67 2.02 18.34 1 18 C-0.59412284 14.81175432 -0.10174735 11.37103338 -0.0625 7.875 C-0.05798828 7.12089844 -0.05347656 6.36679688 -0.04882812 5.58984375 C-0.03703499 3.72652873 -0.01909942 1.86325445 0 0 Z " fill="#C9C9C9" transform="translate(253,229)"/>
<path d="M0 0 C1.93395001 3.86790003 2.23289353 5.1500459 2.125 9.25 C2.10695313 10.14203125 2.08890625 11.0340625 2.0703125 11.953125 C2.03550781 12.96632813 2.03550781 12.96632813 2 14 C1.34 14 0.68 14 0 14 C0.59861742 16.35171131 1.26924352 18.6859378 2 21 C2.66 21.33 3.32 21.66 4 22 C3.67 25.3 3.34 28.6 3 32 C2.34 32 1.68 32 1 32 C1.144375 32.515625 1.28875 33.03125 1.4375 33.5625 C1.623125 34.366875 1.80875 35.17125 2 36 C2.268125 37.11375 2.53625 38.2275 2.8125 39.375 C3.04534086 43.87658998 1.77295681 45.55481124 -1 49 C-1.495 47.515 -1.495 47.515 -2 46 C-1.34 45.01 -0.68 44.02 0 43 C0.2502157 39.91634129 0.2502157 39.91634129 0 37 C-0.33 36.67 -0.66 36.34 -1 36 C-1.04080783 34.00041636 -1.04254356 31.99954746 -1 30 C-0.01 29.67 0.98 29.34 2 29 C2 27.02 2 25.04 2 23 C1.34 23 0.68 23 0 23 C0 24.32 0 25.64 0 27 C-0.66 27 -1.32 27 -2 27 C-4.44433951 22.11132099 -3.05609621 15.14846902 -2 10 C-1.34 10.33 -0.68 10.66 0 11 C0 7.37 0 3.74 0 0 Z " fill="#DADADA" transform="translate(298,84)"/>
<path d="M0 0 C0.99 1.0209375 0.99 1.0209375 2 2.0625 C2.996573 3.04515438 3.99699841 4.02390821 5 5 C5.56976563 5.56589844 6.13953125 6.13179688 6.7265625 6.71484375 C19.85429666 19.05923575 37.38075579 20.79354446 54.5625 21.5625 C55.93245117 21.62727539 55.93245117 21.62727539 57.33007812 21.69335938 C59.55327991 21.79811757 61.77656707 21.90029017 64 22 C64 22.33 64 22.66 64 23 C60.01647832 23.04987075 56.0330805 23.08593964 52.04931641 23.10986328 C50.03671881 23.12472879 48.02420812 23.150157 46.01171875 23.17578125 C28.43581413 23.26410238 14.79504772 16.98950658 1.3984375 5.7109375 C0 4 0 4 0 0 Z " fill="#BBBBBB" transform="translate(47,401)"/>
<path d="M0 0 C0 0.66 0 1.32 0 2 C-1.98567708 2.13020833 -3.97135417 2.26041667 -5.95703125 2.390625 C-8.17910653 2.82616604 -8.17910653 2.82616604 -9.40625 4.96484375 C-11.57684898 7.73661353 -13.26527528 7.73847767 -16.6875 8.3125 C-22.91677358 9.6867155 -26.89986611 12.11137883 -31 17 C-32.19482173 19.12169808 -32.19482173 19.12169808 -33 21 C-33.66 21 -34.32 21 -35 21 C-35.2475 21.66 -35.495 22.32 -35.75 23 C-37.78970749 27.89529799 -40.05635143 32.58452715 -43 37 C-41.94512515 25.52642973 -34.81218267 17.03677942 -26.39453125 9.70703125 C-22.66603106 7.0490303 -19.36160711 5.85377521 -14.8125 5.625 C-12.9253125 5.315625 -12.9253125 5.315625 -11 5 C-9.6237206 3.08235826 -9.6237206 3.08235826 -9 1 C-5.8035914 -0.06546953 -3.34252724 -0.07427838 0 0 Z " fill="#D6D6D6" transform="translate(134,155)"/>
<path d="M0 0 C1.81115956 1.81115956 1.38199448 4.61278227 1.5625 7.0625 C1.64628906 8.16722656 1.73007813 9.27195312 1.81640625 10.41015625 C1.87699219 11.26480469 1.93757813 12.11945313 2 13 C0.12498358 9.43904445 -0.95330847 5.8877114 -2 2 C-7.56819674 3.60131148 -11.51285348 5.24049886 -16 9 C-21.36451063 11.32546079 -26.62251121 11.42805317 -32.375 11.625 C-33.76525391 11.68300781 -33.76525391 11.68300781 -35.18359375 11.7421875 C-37.4555377 11.83587591 -39.72748596 11.92159348 -42 12 C-42 11.34 -42 10.68 -42 10 C-41.43079834 9.95512451 -40.86159668 9.91024902 -40.27514648 9.86401367 C-37.66142202 9.65087051 -35.04963116 9.41932436 -32.4375 9.1875 C-31.54224609 9.11724609 -30.64699219 9.04699219 -29.72460938 8.97460938 C-23.91147138 8.44227073 -17.83689778 7.83689778 -13.5 3.5 C-9.73075958 -0.26924042 -5.02676348 -1.77415182 0 0 Z " fill="#CBCBCB" transform="translate(151,422)"/>
<path d="M0 0 C4.40543913 0.52107345 6.74669745 2.05458227 10.125 4.875 C10.97320312 5.57367188 11.82140625 6.27234375 12.6953125 6.9921875 C15 9 15 9 16.52734375 10.72265625 C18.49335861 12.42792643 19.86639444 12.42809145 22.4375 12.5625 C25.80269258 12.75040415 28.05643101 13.33041303 31 15 C31 15.99 31 16.98 31 18 C30.34 18 29.68 18 29 18 C32.465 21.96 32.465 21.96 36 26 C35.67 26.66 35.34 27.32 35 28 C28.32898172 21.65796345 28.32898172 21.65796345 26.625 18.25 C24.70751163 15.5950161 23.94056193 15.5278868 20.875 14.6875 C15.80509988 13.25541782 12.9112884 10.52858893 9.15234375 6.94140625 C6.31056245 4.37812983 3.39720242 2.73474166 0 1 C0 0.67 0 0.34 0 0 Z " fill="#E1E1E1" transform="translate(234,18)"/>
<path d="M0 0 C0.99 0.33 1.98 0.66 3 1 C2.34 1 1.68 1 1 1 C1 1.99 1 2.98 1 4 C2.32 4.33 3.64 4.66 5 5 C5.55353075 17.66970387 5.55353075 17.66970387 2 23 C1.34 23 0.68 23 0 23 C-0.74926071 26.66305234 -1.2380014 29.42355152 0 33 C-1.32 33.66 -2.64 34.32 -4 35 C-3.835 34.46375 -3.67 33.9275 -3.5 33.375 C-2.88006541 30.91446006 -2.88006541 30.91446006 -3.125 28 C-2.98320477 24.59691439 -2.38078247 23.38078247 0 21 C0.66 21 1.32 21 2 21 C2.33 16.38 2.66 11.76 3 7 C2.01 7 1.02 7 0 7 C-0.38133299 5.0085944 -0.71325582 3.00720923 -1 1 C-0.67 0.67 -0.34 0.34 0 0 Z " fill="#EFEFEF" transform="translate(293,133)"/>
<path d="M0 0 C0.66 0.33 1.32 0.66 2 1 C-3.32448363 5.47968038 -8.51084669 9.50061081 -14.69921875 12.69921875 C-18.27744836 14.72222463 -21.48484995 17.23793603 -24.73828125 19.7421875 C-27 21 -27 21 -29.1484375 20.90234375 C-31.39738048 19.80633989 -32.10621811 18.86253337 -33.3125 16.6875 C-33.65925781 16.09324219 -34.00601563 15.49898438 -34.36328125 14.88671875 C-35 13 -35 13 -34 9 C-32.35 11.97 -30.7 14.94 -29 18 C-25.13353264 16.71117755 -22.20847596 14.76949301 -18.94921875 12.3515625 C-16.88644401 10.92126178 -14.77647814 9.74379642 -12.5625 8.5625 C-8.03519682 6.11993437 -4.02479185 3.19131997 0 0 Z " fill="#DCDCDC" transform="translate(187,383)"/>
<path d="M0 0 C0.66 0.66 1.32 1.32 2 2 C0.40427074 4.15258788 -1.2008659 6.29687334 -2.8125 8.4375 C-3.26431641 9.04916016 -3.71613281 9.66082031 -4.18164062 10.29101562 C-7.66015625 14.88671875 -7.66015625 14.88671875 -11 16 C-11.68486725 17.32407669 -12.34870203 18.65909241 -13 20 C-13.721875 20.598125 -14.44375 21.19625 -15.1875 21.8125 C-17.43114118 24.00990884 -17.43114118 24.00990884 -16.75 27.75 C-16.37875 29.35875 -16.37875 29.35875 -16 31 C-18.7972908 28.93243723 -19.02692273 27.85559629 -19.6875 24.3125 C-19.790625 23.219375 -19.89375 22.12625 -20 21 C-18.68 21.33 -17.36 21.66 -16 22 C-14.87483915 20.16715557 -14.87483915 20.16715557 -14 18 C-14.33 17.01 -14.66 16.02 -15 15 C-12.35261084 13.5393715 -11.10551666 13 -8 13 C-7.9175 12.443125 -7.835 11.88625 -7.75 11.3125 C-6.76104459 8.26322081 -5.15242534 6.34810037 -3 4 C-2.34 4 -1.68 4 -1 4 C-0.67 2.68 -0.34 1.36 0 0 Z " fill="#EAEAEA" transform="translate(269,198)"/>
<path d="M0 0 C0 3 0 3 -1.39453125 4.4296875 C-1.92433594 4.94789063 -2.45414062 5.46609375 -3 6 C-7.62012617 15.46840672 -6.18717594 24.1296319 -4.046875 34.08203125 C-2.8965849 37.28825031 -1.56639311 38.81008191 1 41 C0.67 41.66 0.34 42.32 0 43 C-6.38640312 36.94972336 -7.69959616 32.54316603 -8.1640625 23.97265625 C-8.3511532 16.68462308 -8.41030854 9.31363432 -3.6875 3.33984375 C-2.3125 1.9375 -2.3125 1.9375 0 0 Z " fill="#DADADA" transform="translate(113,181)"/>
<path d="M0 0 C2.59723228 0.41890843 5.18127821 0.59710572 7.8046875 0.7890625 C12.17357389 1.17003431 16.02490153 1.96663384 20.1796875 3.3515625 C20.1796875 3.6815625 20.1796875 4.0115625 20.1796875 4.3515625 C15.5596875 4.3515625 10.9396875 4.3515625 6.1796875 4.3515625 C6.1796875 3.6915625 6.1796875 3.0315625 6.1796875 2.3515625 C-3.0603125 2.3515625 -12.3003125 2.3515625 -21.8203125 2.3515625 C-21.8203125 2.0215625 -21.8203125 1.6915625 -21.8203125 1.3515625 C-6.61218814 -1.07292109 -6.61218814 -1.07292109 0 0 Z " fill="#D1D1D1" transform="translate(155.8203125,152.6484375)"/>
<path d="M0 0 C2.97837763 2.55289511 4.29394232 5.51370822 6 9 C6.66 9.66 7.32 10.32 8 11 C8.33870968 17.32258065 8.33870968 17.32258065 7 20 C7.61875 20.0825 8.2375 20.165 8.875 20.25 C11 21 11 21 12.25 23.0625 C12.4975 23.701875 12.745 24.34125 13 25 C9.5625 23.8125 9.5625 23.8125 6 22 C5.0625 19.3125 5.0625 19.3125 5 17 C5.66 17 6.32 17 7 17 C6.53851563 16.60683594 6.07703125 16.21367188 5.6015625 15.80859375 C3.67124923 13.62875218 3.1405237 11.85960584 2.375 9.0625 C2.13523437 8.20785156 1.89546875 7.35320312 1.6484375 6.47265625 C1.08354674 4.31858487 0.53183232 2.1624503 0 0 Z " fill="#E8E8E8" transform="translate(285,59)"/>
<path d="M0 0 C0.33 0 0.66 0 1 0 C1.09765625 6.15234375 1.09765625 6.15234375 1 8 C0.67 8.33 0.34 8.66 0 9 C-0.32466759 10.51413158 -0.60947324 12.03688569 -0.875 13.5625 C-1.77711412 18.31226752 -3.1780653 22.52797846 -5 27 C-5.33 27 -5.66 27 -6 27 C-6.44766166 20.43429568 -5.13698108 14.21488992 -3 8 C-2.34 7.67 -1.68 7.34 -1 7 C-0.59270772 4.67843403 -0.25561323 2.3431213 0 0 Z " fill="#919191" transform="translate(148,486)"/>
<path d="M0 0 C3.6310464 5.4465696 3.14879864 10.74542962 2 17 C3.32 17.66 4.64 18.32 6 19 C6 23.95 6 28.9 6 34 C5.67 34 5.34 34 5 34 C4.97421875 33.03578125 4.9484375 32.0715625 4.921875 31.078125 C4.86515625 29.81484375 4.8084375 28.5515625 4.75 27.25 C4.70359375 25.99703125 4.6571875 24.7440625 4.609375 23.453125 C4.3415806 19.9426355 4.3415806 19.9426355 1.96875 18.0625 C-0.54050446 15.43375723 -0.41593329 13.50133086 -0.3515625 9.9609375 C-0.31804687 9.23132813 -0.28453125 8.50171875 -0.25 7.75 C-0.23195312 7.00492188 -0.21390625 6.25984375 -0.1953125 5.4921875 C-0.14835649 3.66090299 -0.07661652 1.83028351 0 0 Z " fill="#DEDEDE" transform="translate(253,229)"/>
<path d="M0 0 C1.00289062 0.10183594 2.00578125 0.20367187 3.0390625 0.30859375 C3.80992187 0.39238281 4.58078125 0.47617188 5.375 0.5625 C5.375 0.8925 5.375 1.2225 5.375 1.5625 C-0.77734375 2.44140625 -0.77734375 2.44140625 -2.625 2.5625 C-2.955 2.2325 -3.285 1.9025 -3.625 1.5625 C-3.955 2.2225 -4.285 2.8825 -4.625 3.5625 C-3.305 3.5625 -1.985 3.5625 -0.625 3.5625 C-0.625 4.5525 -0.625 5.5425 -0.625 6.5625 C-1.285 6.5625 -1.945 6.5625 -2.625 6.5625 C-2.955 7.5525 -3.285 8.5425 -3.625 9.5625 C-6.6875 10.75 -6.6875 10.75 -9.625 11.5625 C-7.625 9.5625 -5.625 7.5625 -3.625 5.5625 C-5.275 5.5625 -6.925 5.5625 -8.625 5.5625 C-8.625 4.9025 -8.625 4.2425 -8.625 3.5625 C-7.965 3.2325 -7.305 2.9025 -6.625 2.5625 C-6.955 1.9025 -7.285 1.2425 -7.625 0.5625 C-4.89657939 -0.80171031 -3.01546682 -0.31557211 0 0 Z " fill="#DADADA" transform="translate(230.625,229.4375)"/>
<path d="M0 0 C2.80634087 1.14332406 4.25013159 2.26329641 6.375 4.5 C9.25688018 7.24464779 11.26133955 7.83166861 15 9 C16.7074998 10.28062485 18.38263741 11.6072711 20 13 C20.66 13.33 21.32 13.66 22 14 C21.67 14.99 21.34 15.98 21 17 C21 16.34 21 15.68 21 15 C20.05125 14.71125 19.1025 14.4225 18.125 14.125 C15 13 15 13 13 11 C12.22269531 10.71253906 11.44539063 10.42507813 10.64453125 10.12890625 C7.61620436 8.83616405 5.96282887 7.29852864 3.6875 4.9375 C2.99011719 4.22464844 2.29273438 3.51179688 1.57421875 2.77734375 C0 1 0 1 0 0 Z " fill="#E0E0E0" transform="translate(41,414)"/>
<path d="M0 0 C0.99 1.0209375 0.99 1.0209375 2 2.0625 C2.996573 3.04515438 3.99699841 4.02390821 5 5 C5.56976563 5.56589844 6.13953125 6.13179688 6.7265625 6.71484375 C11.92248334 11.60071993 17.40272968 14.36836827 24 17 C21.65644686 17.82837001 20.41160431 18.1418201 18.02734375 17.3203125 C11.56804077 13.62583266 5.16250152 9.39409037 0 4 C0 2.68 0 1.36 0 0 Z " fill="#DBDBDB" transform="translate(47,401)"/>
<path d="M0 0 C0 5.26216497 -3.58444749 9.19409864 -7 13 C-8.95851344 14.39355764 -10.95127113 15.74282547 -13 17 C-10.97435578 12.79289278 -8.5887676 8.8831514 -6 5 C-5.01 5 -4.02 5 -3 5 C-1.28288757 2.55503957 -1.28288757 2.55503957 0 0 Z " fill="#CFCFCF" transform="translate(283,181)"/>
<path d="M0 0 C2.68182489 1.11074007 4.62648221 2.30463015 7 4 C5.3125 4.6875 5.3125 4.6875 3 5 C2.319375 4.566875 1.63875 4.13375 0.9375 3.6875 C-3.42672843 1.18039005 -8.06678012 0.73436723 -13 0 C-13.33 0.66 -13.66 1.32 -14 2 C-14.66 1.01 -15.32 0.02 -16 -1 C-11.46034261 -3.26982869 -4.78672849 -1.01698014 0 0 Z " fill="#C5C5C5" transform="translate(182,2)"/>
<path d="M0 0 C5.6131052 1.36075278 8.61031425 5.62621194 12 10 C12.33 10.66 12.66 11.32 13 12 C15.01669827 13.13350534 15.01669827 13.13350534 17 14 C16.67 14.99 16.34 15.98 16 17 C11.19295483 15.14464923 9.45952964 11.50035544 6.78125 7.3125 C4.93227853 4.91208089 3.66558087 4.26502143 1 3 C0.67 2.01 0.34 1.02 0 0 Z " fill="#D4D4D4" transform="translate(212,176)"/>
<path d="M0 0 C3.54232555 0.60908765 5.59724102 2.00829977 8.375 4.25 C9.15617188 4.8790625 9.93734375 5.508125 10.7421875 6.15625 C11.48726562 6.7646875 12.23234375 7.373125 13 8 C13.62132812 8.4846875 14.24265625 8.969375 14.8828125 9.46875 C17.56551287 11.59417444 18.89372553 12.68117658 20 16 C16.96123829 14.6552985 15.04386965 13.19624228 12.8125 10.75 C9.45419281 7.26028078 5.82008963 4.72239319 1.72265625 2.1640625 C1.15417969 1.77992188 0.58570313 1.39578125 0 1 C0 0.67 0 0.34 0 0 Z " fill="#EAEAEA" transform="translate(197,184)"/>
<path d="M0 0 C0.66 0.33 1.32 0.66 2 1 C1.67 1.66 1.34 2.32 1 3 C0.91550372 4.7404417 0.89276976 6.48409722 0.90234375 8.2265625 C0.90556641 9.2578125 0.90878906 10.2890625 0.91210938 11.3515625 C0.92048828 12.43179687 0.92886719 13.51203125 0.9375 14.625 C0.94201172 15.71296875 0.94652344 16.8009375 0.95117188 17.921875 C0.96298224 20.61463789 0.97945222 23.30729188 1 26 C0.67 26 0.34 26 0 26 C-0.39238918 22.0431867 -0.76095842 18.08451397 -1.125 14.125 C-1.29322266 12.43310547 -1.29322266 12.43310547 -1.46484375 10.70703125 C-1.56152344 9.63066406 -1.65820312 8.55429687 -1.7578125 7.4453125 C-1.8520752 6.45031738 -1.94633789 5.45532227 -2.04345703 4.43017578 C-2 2 -2 2 0 0 Z " fill="#C9C9C9" transform="translate(163,414)"/>
<path d="M0 0 C6.67177036 -0.60652458 12.99786282 1.04902512 19 4 C20.35546875 6.140625 20.35546875 6.140625 21 8 C17.60510659 7.29870746 14.74146026 6.00148785 11.625 4.5 C7.73327534 2.69219751 4.32680094 1.3508217 0 1 C0 0.67 0 0.34 0 0 Z " fill="#B4B4B4" transform="translate(170,157)"/>
<path d="M0 0 C7.48252838 1.37179687 14.05604954 3.92163279 21 7 C14.33698052 9.22100649 6.07395184 3.82876717 0 1 C0 0.67 0 0.34 0 0 Z " fill="#C4C4C4" transform="translate(68,599)"/>
<path d="M0 0 C0.99 0.33 1.98 0.66 3 1 C2.34 1 1.68 1 1 1 C1 1.99 1 2.98 1 4 C2.32 4.33 3.64 4.66 5 5 C4.67 8.63 4.34 12.26 4 16 C3.67 16 3.34 16 3 16 C3 13.03 3 10.06 3 7 C2.01 7 1.02 7 0 7 C-0.38133299 5.0085944 -0.71325582 3.00720923 -1 1 C-0.67 0.67 -0.34 0.34 0 0 Z " fill="#BEBEBE" transform="translate(293,133)"/>
<path d="M0 0 C0 4.08321607 -1.57888255 5.10217106 -4.3125 8.0625 C-5.11300781 8.94035156 -5.91351563 9.81820312 -6.73828125 10.72265625 C-9 13 -9 13 -12 15 C-10.38462556 11.10082032 -7.72075127 8.28706228 -4.875 5.25 C-4.40707031 4.74339844 -3.93914062 4.23679687 -3.45703125 3.71484375 C-2.30873459 2.47280859 -1.15491328 1.23588506 0 0 Z " fill="#DBDBDB" transform="translate(153,639)"/>
<path d="M0 0 C0 0.66 0 1.32 0 2 C-0.99 2 -1.98 2 -3 2 C-3.2475 2.556875 -3.495 3.11375 -3.75 3.6875 C-5.22924818 6.42410913 -6.93467439 8.67650869 -9 11 C-9.66 11 -10.32 11 -11 11 C-9.7672897 6.34309441 -5.30909278 0 0 0 Z " fill="#363636" transform="translate(48,362)"/>
<path d="M0 0 C6.40629424 -0.20852314 11.92972642 -0.1583195 18 2 C18 2.33 18 2.66 18 3 C13.38 3 8.76 3 4 3 C4 2.34 4 1.68 4 1 C2.68 0.67 1.36 0.34 0 0 Z " fill="#D7D7D7" transform="translate(158,154)"/>
<path d="M0 0 C0 0.99 0 1.98 0 3 C-0.680625 3.5775 -1.36125 4.155 -2.0625 4.75 C-4.44165076 6.98087896 -4.44165076 6.98087896 -3.75 10.75 C-3.5025 11.8225 -3.255 12.895 -3 14 C-5.7972908 11.93243723 -6.02692273 10.85559629 -6.6875 7.3125 C-6.790625 6.219375 -6.89375 5.12625 -7 4 C-5.68 4.33 -4.36 4.66 -3 5 C-2.690625 4.360625 -2.38125 3.72125 -2.0625 3.0625 C-1 1 -1 1 0 0 Z " fill="#D0D0D0" transform="translate(256,215)"/>
<path d="M0 0 C2 2 2 2 2.125 4.625 C2.08375 5.40875 2.0425 6.1925 2 7 C2.99 7.33 3.98 7.66 5 8 C5 8.66 5 9.32 5 10 C4.34 10 3.68 10 3 10 C2.67 10.66 2.34 11.32 2 12 C0.00214565 7.8794254 -0.17835515 4.54805635 0 0 Z " fill="#919191" transform="translate(287,66)"/>
<path d="M0 0 C0.66 0.33 1.32 0.66 2 1 C1.51171875 7.0546875 1.51171875 7.0546875 1 9 C0.01 9.66 -0.98 10.32 -2 11 C-2.05399736 9.54207116 -2.09279177 8.08357288 -2.125 6.625 C-2.15980469 5.40683594 -2.15980469 5.40683594 -2.1953125 4.1640625 C-2 2 -2 2 0 0 Z " fill="#BABABA" transform="translate(287,168)"/>
<path d="M0 0 C0.66 0 1.32 0 2 0 C2.33 2.64 2.66 5.28 3 8 C1.35 7.67 -0.3 7.34 -2 7 C-2.33 5.68 -2.66 4.36 -3 3 C-2.01 3 -1.02 3 0 3 C0 2.01 0 1.02 0 0 Z " fill="#D8D8D8" transform="translate(285,66)"/>
<path d="M0 0 C0.33 0.99 0.66 1.98 1 3 C-2.3 5.97 -5.6 8.94 -9 12 C-9.66 11.67 -10.32 11.34 -11 11 C-7.37 7.37 -3.74 3.74 0 0 Z " fill="#D2D2D2" transform="translate(203,382)"/>
<path d="M0 0 C0.66 0 1.32 0 2 0 C2.2475 1.0725 2.495 2.145 2.75 3.25 C3.99883146 6.99649437 5.02488658 8.52073882 8 11 C7.67 11.66 7.34 12.32 7 13 C1.26598465 7.56777494 1.26598465 7.56777494 0 4 C0 2.68 0 1.36 0 0 Z " fill="#D2D2D2" transform="translate(106,211)"/>
<path d="M0 0 C0.33 0 0.66 0 1 0 C1.33 4.29 1.66 8.58 2 13 C1.34 12.34 0.68 11.68 0 11 C-0.99 11.495 -0.99 11.495 -2 12 C-2 11.01 -2 10.02 -2 9 C-1.34 9 -0.68 9 0 9 C0 8.01 0 7.02 0 6 C-0.66 6 -1.32 6 -2 6 C-1.49396008 3.83125748 -1.00016187 2.00032373 0 0 Z " fill="#626262" transform="translate(297,84)"/>
<path d="M0 0 C1.65 0.33 3.3 0.66 5 1 C5 2.32 5 3.64 5 5 C1.26512223 4.5020163 -0.81237635 4.12508244 -4 2 C-2.68 2 -1.36 2 0 2 C0 1.34 0 0.68 0 0 Z " fill="#BDBDBD" transform="translate(199,9)"/>
<path d="M0 0 C1.98 0 3.96 0 6 0 C2.54143152 2.94995547 -0.80021485 5.22675738 -5 7 C-5.66 6.67 -6.32 6.34 -7 6 C-6.030625 5.38125 -5.06125 4.7625 -4.0625 4.125 C-0.97164638 2.34321154 -0.97164638 2.34321154 0 0 Z " fill="#E6E6E6" transform="translate(137,425)"/>
<path d="M0 0 C0.66 1.32 1.32 2.64 2 4 C-1.68266103 3.40049704 -5.34543185 2.75241109 -9 2 C-5.86501708 0.14223235 -3.62528568 -0.20140476 0 0 Z " fill="#171717" transform="translate(197,7)"/>
<path d="M0 0 C3.63 0.33 7.26 0.66 11 1 C11 1.33 11 1.66 11 2 C8.36 2 5.72 2 3 2 C3 2.66 3 3.32 3 4 C3.66 4.33 4.32 4.66 5 5 C3.35 4.67 1.7 4.34 0 4 C0 2.68 0 1.36 0 0 Z " fill="#767676" transform="translate(169,2)"/>
<path d="M0 0 C0.33 0.66 0.66 1.32 1 2 C-0.09346881 3.34212062 -1.2001575 4.67347975 -2.3125 6 C-3.23482422 7.11375 -3.23482422 7.11375 -4.17578125 8.25 C-6 10 -6 10 -9 10 C-6.03 6.7 -3.06 3.4 0 0 Z " fill="#D0D0D0" transform="translate(127,668)"/>
<path d="M0 0 C3 3 6 6 9 9 C8.67 9.66 8.34 10.32 8 11 C6.65499045 9.93119777 5.32428562 8.84437492 4 7.75 C3.2575 7.14671875 2.515 6.5434375 1.75 5.921875 C0 4 0 4 0 0 Z " fill="#BABABA" transform="translate(47,401)"/>
<path d="M0 0 C1.2989839 0.90626784 2.58893167 1.82549537 3.875 2.75 C4.59429687 3.26046875 5.31359375 3.7709375 6.0546875 4.296875 C8.08570565 6.07503547 8.97855012 7.52701607 10 10 C8.7010161 9.09373216 7.41106833 8.17450463 6.125 7.25 C5.40570313 6.73953125 4.68640625 6.2290625 3.9453125 5.703125 C1.91429435 3.92496453 1.02144988 2.47298393 0 0 Z " fill="#CFCFCF" transform="translate(137,375)"/>
<path d="M0 0 C0.66 0.66 1.32 1.32 2 2 C0.35 4.31 -1.3 6.62 -3 9 C-3.99 8.67 -4.98 8.34 -6 8 C-4.625 6 -4.625 6 -3 4 C-2.34 4 -1.68 4 -1 4 C-0.67 2.68 -0.34 1.36 0 0 Z " fill="#D5D5D5" transform="translate(269,198)"/>
<path d="M0 0 C0 3.61537605 -0.89229241 5.11165997 -3 8 C-3.99 8 -4.98 8 -6 8 C-6 7.01 -6 6.02 -6 5 C-5.01 5 -4.02 5 -3 5 C-1.28288757 2.55503957 -1.28288757 2.55503957 0 0 Z " fill="#DCDCDC" transform="translate(283,181)"/>
<path d="M0 0 C0 0.66 0 1.32 0 2 C-3.4019487 4.09350689 -6.05272412 4.17942163 -10 4 C-4 0 -4 0 0 0 Z " fill="#CFCFCF" transform="translate(149,421)"/>
<path d="M0 0 C2.475 0.99 2.475 0.99 5 2 C5 3.65 5 5.3 5 7 C4.01 6.67 3.02 6.34 2 6 C0.8125 2.9375 0.8125 2.9375 0 0 Z " fill="#2E2E2E" transform="translate(292,81)"/>
<path d="M0 0 C1.41377341 2.63904371 2.37240135 5.07120629 3 8 C1.02 8.99 1.02 8.99 -1 10 C-0.835 9.46375 -0.67 8.9275 -0.5 8.375 C0.09660212 5.54113991 0.0656368 2.8880194 0 0 Z " fill="#D3D3D3" transform="translate(290,158)"/>
<path d="M0 0 C0.91007813 0.10183594 1.82015625 0.20367187 2.7578125 0.30859375 C3.45648438 0.39238281 4.15515625 0.47617188 4.875 0.5625 C4.875 0.8925 4.875 1.2225 4.875 1.5625 C1.905 1.5625 -1.065 1.5625 -4.125 1.5625 C-4.455 2.2225 -4.785 2.8825 -5.125 3.5625 C-5.785 2.5725 -6.445 1.5825 -7.125 0.5625 C-4.50184968 -0.74907516 -2.89466564 -0.33399988 0 0 Z " fill="#E7E7E7" transform="translate(173.125,0.4375)"/>
</svg>
