<?xml version="1.0" encoding="UTF-8"?>
<svg version="1.1" xmlns="http://www.w3.org/2000/svg" width="305" height="308">
<path d="M0 0 C0 0.66 0 1.32 0 2 C0.66 2 1.32 2 2 2 C6.45699222 8.1283643 6.98283877 13.5265329 6 21 C4.99560396 24.21406733 3.62009136 27.05596301 2 30 C1.4225 31.175625 0.845 32.35125 0.25 33.5625 C-0.36875 34.7690625 -0.36875 34.7690625 -1 36 C-0.67 36 -0.34 36 0 36 C1.42809445 34.51087587 2.8418925 33.00803771 4.25 31.5 C18.84990436 16.90009564 39.18420064 10.26620509 59.5625 9.625 C74.74576475 9.65418105 87.63032806 13.76114189 100.21484375 22.140625 C101.37146947 22.90764874 102.52904363 23.67324395 103.6875 24.4375 C104.26669189 24.8200293 104.84588379 25.20255859 105.44262695 25.59667969 C116.01381193 32.40118682 128.32132477 37.84461803 140.9375 38.625 C142.08089844 38.69976562 143.22429687 38.77453125 144.40234375 38.8515625 C145.25957031 38.90054688 146.11679688 38.94953125 147 39 C146.360625 38.278125 145.72125 37.55625 145.0625 36.8125 C142.96103466 33.94686544 142.14839501 32.51201527 142 29 C144.44496778 22.01911916 148.97124936 17.46771055 155.4140625 14.0625 C160.92982683 11.79620408 165.04944921 11.38232558 170.75 13.1875 C176.50591765 16.397531 179.61128148 19.37582609 182.5625 25.3125 C182.86494629 25.91771484 183.16739258 26.52292969 183.47900391 27.14648438 C185.63639366 31.67247688 186.83062474 36.11492109 187.875 41 C188.86183937 45.99082434 188.86183937 45.99082434 192.1015625 49.57421875 C192.89304687 49.94160156 193.68453125 50.30898438 194.5 50.6875 C197.18557884 52.06765017 198.66407844 53.10109261 199.73681641 55.97167969 C201.03226453 61.11733993 201.78878289 66.36599624 202.59814453 71.60595703 C204.38827073 82.27058491 209.02837644 92.34748926 213.09765625 102.30078125 C213.5764624 103.48474487 213.5764624 103.48474487 214.06494141 104.69262695 C214.67794341 106.20528542 215.29972555 107.71442186 215.93115234 109.21948242 C217.92271479 114.14552538 218.23242635 116.95839545 216.88671875 121.97265625 C216 124 216 124 213.3125 126.625 C212.1678125 127.800625 212.1678125 127.800625 211 129 C211.10407917 132.40080577 211.10407917 132.40080577 212 136 C212.46085367 140.17152032 212.4253631 143.24379893 210.3125 147 C208 149 208 149 205.25 149.3125 C204.13625 149.1578125 204.13625 149.1578125 203 149 C201.41744803 144.67435795 200.54855348 140.571279 200 136 C199.01 136.33 198.02 136.66 197 137 C197.12117187 137.57363281 197.24234375 138.14726562 197.3671875 138.73828125 C198.56763055 144.82360411 199.36838125 150.89765084 200 157.0625 C200.08523926 157.87605957 200.17047852 158.68961914 200.25830078 159.52783203 C200.67516442 163.57069739 201.05356696 167.611247 201.359375 171.6640625 C202.12079185 180.90417318 203.94042501 188.70943594 207.5625 197.25390625 C211.2059294 206.28035572 211.17150387 214.77501257 210.83398438 224.38476562 C210.71786127 230.37912059 211.34476486 235.1919388 213.44360352 240.82836914 C214.08436459 243.32927732 213.95690101 244.61686538 213 247 C210.6058019 248.72914307 208.41120158 249.8636047 205.609375 250.79296875 C202.42468519 252.26612616 200.79706954 254.04667886 198.5 256.6875 C197.71753906 257.58082031 196.93507813 258.47414063 196.12890625 259.39453125 C194.40483611 261.50454002 192.90207152 263.58629671 191.4375 265.875 C188.75668984 269.3119361 186.87448764 270.22568973 183.015625 271.93359375 C180.84883923 273.07997459 179.54526637 274.27835183 177.875 276.0625 C165.22843788 289.3973104 149.47690875 299.60376692 130.75 300.3125 C112.12649139 299.8423413 96.71398809 291.04337441 80.89086914 282.21777344 C74.42113785 278.65336492 68.22877959 275.7015992 61 274 C60.28070313 273.814375 59.56140625 273.62875 58.8203125 273.4375 C42.3797663 270.88716596 26.2097538 273.91203052 10.30859375 277.93359375 C3.52726085 279.57588642 -2.85824818 280.27740819 -9.8125 280.3125 C-10.97761108 280.32071777 -10.97761108 280.32071777 -12.16625977 280.32910156 C-23.79764074 280.18530531 -33.62255653 276.72906908 -42.3125 268.84375 C-54.10624792 255.95798839 -58.68678471 239.35818583 -58.234375 222.32421875 C-57.57857385 207.70049609 -51.95089 192.96647435 -43.265625 181.140625 C-39.81662958 176.35960376 -39.78338758 172.34292772 -40.5 166.6875 C-41.46608706 158.8242851 -40.55736841 150.87175698 -40 143 C-40.81597656 142.71125 -41.63195312 142.4225 -42.47265625 142.125 C-43.72369141 141.568125 -43.72369141 141.568125 -45 141 C-45.144375 140.34 -45.28875 139.68 -45.4375 139 C-45.623125 138.34 -45.80875 137.68 -46 137 C-47.98723268 136.29618843 -49.98777953 135.6288189 -52 135 C-52.97013359 132.08959924 -53.07027387 130.56426088 -52.9140625 127.5703125 C-52.87095947 126.69890625 -52.82785645 125.8275 -52.78344727 124.9296875 C-52.73115967 124.00414062 -52.67887207 123.07859375 -52.625 122.125 C-52.574646 121.17625 -52.52429199 120.2275 -52.47241211 119.25 C-52.32275455 116.49948612 -52.16343793 113.74972572 -52 111 C-51.92652344 109.73929687 -51.85304688 108.47859375 -51.77734375 107.1796875 C-51.35096762 100.86932081 -50.55840894 94.68829206 -49.52734375 88.44921875 C-49.04907153 85.32096416 -48.68520628 82.19578152 -48.34960938 79.04956055 C-47.25326494 69.0454176 -45.34003616 58.6896952 -40 50 C-37.43359375 48.4609375 -37.43359375 48.4609375 -34.4375 47.375 C-33.37917969 46.97667969 -32.32085937 46.57835937 -31.23046875 46.16796875 C-30.16441406 45.78253906 -29.09835938 45.39710937 -28 45 C-26.08069378 44.23576263 -24.16374588 43.46555646 -22.25 42.6875 C-20.83369305 42.12409488 -19.41717215 41.56122525 -18 41 C-18.40992188 40.48050781 -18.81984375 39.96101563 -19.2421875 39.42578125 C-22.10453195 35.72116797 -24.47226087 32.46569899 -26 28 C-26.7734375 26.6078125 -26.7734375 26.6078125 -27.5625 25.1875 C-31.02575639 17.50810539 -29.77147183 10.9643031 -28 3 C-27.34 3 -26.68 3 -26 3 C-25.67 2.01 -25.34 1.02 -25 0 C-17.23296394 -4.29929331 -7.52992429 -4.75574166 0 0 Z " fill="#A0ADB3" transform="translate(74,5)"/>
<path d="M0 0 C3.09249667 3.09249667 3.6553272 6.70917535 4 11 C2.82990798 14.96531186 1.84359506 17.25013773 -1.25 20 C-1.8275 20.66 -2.405 21.32 -3 22 C-2.80765878 25.35278304 -2.80765878 25.35278304 -2 29 C-1.54765649 33.17425769 -1.57235274 36.2397382 -3.6875 40 C-6 42 -6 42 -8.75 42.3125 C-9.4925 42.209375 -10.235 42.10625 -11 42 C-12.58255197 37.67435795 -13.45144652 33.571279 -14 29 C-14.99 29.33 -15.98 29.66 -17 30 C-16.87882813 30.57363281 -16.75765625 31.14726562 -16.6328125 31.73828125 C-15.43236945 37.82360411 -14.63161875 43.89765084 -14 50.0625 C-13.91476074 50.87605957 -13.82952148 51.68961914 -13.74169922 52.52783203 C-13.32483558 56.57069739 -12.94643304 60.611247 -12.640625 64.6640625 C-11.87920815 73.90417318 -10.05957499 81.70943594 -6.4375 90.25390625 C-2.7940706 99.28035572 -2.82849613 107.77501257 -3.16601562 117.38476562 C-3.28213873 123.37912059 -2.65523514 128.1919388 -0.55639648 133.82836914 C0.08436459 136.32927732 -0.04309899 137.61686538 -1 140 C-3.3941981 141.72914307 -5.58879842 142.8636047 -8.390625 143.79296875 C-11.57531481 145.26612616 -13.20293046 147.04667886 -15.5 149.6875 C-16.28246094 150.58082031 -17.06492187 151.47414063 -17.87109375 152.39453125 C-19.59516389 154.50454002 -21.09792848 156.58629671 -22.5625 158.875 C-25.24331016 162.3119361 -27.12551236 163.22568973 -30.984375 164.93359375 C-33.15116077 166.07997459 -34.45473363 167.27835183 -36.125 169.0625 C-48.77156212 182.3973104 -64.52309125 192.60376692 -83.25 193.3125 C-101.87350861 192.8423413 -117.28601191 184.04337441 -133.10913086 175.21777344 C-139.57886215 171.65336492 -145.77122041 168.7015992 -153 167 C-153.71929687 166.814375 -154.43859375 166.62875 -155.1796875 166.4375 C-171.6202337 163.88716596 -187.7902462 166.91203052 -203.69140625 170.93359375 C-210.47273915 172.57588642 -216.85824818 173.27740819 -223.8125 173.3125 C-224.58924072 173.31797852 -225.36598145 173.32345703 -226.16625977 173.32910156 C-237.79764074 173.18530531 -247.62255653 169.72906908 -256.3125 161.84375 C-268.10624792 148.95798839 -272.68678471 132.35818583 -272.234375 115.32421875 C-271.50190684 98.99089687 -264.56964391 84.04224045 -255 71 C-254.31105933 69.67803821 -253.63869496 68.34695619 -253 67 C-251.58271607 80.51235742 -250.75385207 93.98612812 -250.375 107.5625 C-250.35462677 108.27517029 -250.33425354 108.98784058 -250.31326294 109.72210693 C-250.21737081 113.16303536 -250.13421032 116.60367937 -250.07324219 120.04541016 C-250.02423792 122.69131394 -249.9570474 125.33694075 -249.87207031 127.98193359 C-249.83098145 129.84519287 -249.83098145 129.84519287 -249.7890625 131.74609375 C-249.74193115 133.39436157 -249.74193115 133.39436157 -249.69384766 135.07592773 C-250.12538377 139.19754496 -251.93010691 141.33467044 -254.6640625 144.3125 C-256.32593387 146.10330285 -256.32593387 146.10330285 -256.375 149.5 C-256.25125 150.325 -256.1275 151.15 -256 152 C-248.26699212 152.61864063 -241.25795621 150.60981627 -234 148 C-228.4330229 142.4330229 -230.80719864 127.03358024 -230.71875 119.4296875 C-230.70034058 118.18679962 -230.68193115 116.94391174 -230.66296387 115.6633606 C-230.5852036 110.40764954 -230.51676532 105.15182818 -230.44775391 99.89599609 C-230.39564986 96.03217018 -230.33856741 92.16843905 -230.28125 88.3046875 C-230.26767456 87.13356415 -230.25409912 85.9624408 -230.2401123 84.75582886 C-230.13603199 77.7927931 -229.74605039 70.92429379 -229 64 C-228.67 64 -228.34 64 -228 64 C-227.98969254 64.84001053 -227.97938507 65.68002106 -227.96876526 66.54548645 C-227.87034908 74.50355536 -227.76777654 82.4615579 -227.66066074 90.41951466 C-227.60574904 94.5097135 -227.55238401 98.59991977 -227.50268555 102.69018555 C-227.45456837 106.64544359 -227.40221621 110.60062594 -227.34705925 114.55579185 C-227.32684781 116.05665868 -227.30810309 117.55754608 -227.29092598 119.0584507 C-227.92263023 136.18545638 -227.92263023 136.18545638 -221 151 C-221 151.66 -221 152.32 -221 153 C-218.87436897 152.88623383 -216.7494739 152.75864369 -214.625 152.625 C-213.44164062 152.55539062 -212.25828125 152.48578125 -211.0390625 152.4140625 C-207.89437681 152.29782654 -207.89437681 152.29782654 -206 150 C-205.43525606 145.9526684 -205.84071417 144.26008389 -208 140.734375 C-210.17525868 137.03934205 -210.47530705 134.27350035 -210.375 129.9375 C-210.36138428 129.24285645 -210.34776855 128.54821289 -210.33374023 127.83251953 C-209.95689179 114.16567368 -209.4496316 100.03866372 -207.49560547 86.50708008 C-207.0105771 83.07484728 -206.73583359 79.69793888 -206.53515625 76.23828125 C-206.4582959 74.96283447 -206.38143555 73.6873877 -206.30224609 72.37329102 C-206.24360382 71.37738449 -206.24360382 71.37738449 -206.18377686 70.36135864 C-205.42482742 57.53962023 -204.42694236 44.76658002 -203 32 C-202.34 32 -201.68 32 -201 32 C-200.01 34.475 -200.01 34.475 -199 37 C-197.741875 37.020625 -196.48375 37.04125 -195.1875 37.0625 C-194.12595703 37.07990234 -194.12595703 37.07990234 -193.04296875 37.09765625 C-190.79694539 37.08263217 -190.79694539 37.08263217 -188 36 C-189.42929078 39.83246107 -191.22623987 43.26180374 -193.25 46.8125 C-196.01029155 51.88843362 -198.3332237 56.97085477 -200.375 62.375 C-200.75060059 63.35496948 -200.75060059 63.35496948 -201.13378906 64.35473633 C-202.68627669 68.59708691 -203.5045896 72.54130638 -204 77 C-202.3603125 77.9590625 -202.3603125 77.9590625 -200.6875 78.9375 C-195.46804713 81.99038753 -194.78662063 88.0528253 -193.33032227 93.5090332 C-192.67826718 96.06383871 -192.05275894 98.62359759 -191.4375 101.1875 C-189.85966651 107.79346467 -189.85966651 107.79346467 -187.87890625 114.28515625 C-186.73774491 117.81007682 -186.56657911 121.15144475 -186.34375 124.828125 C-186.18545056 127.20646471 -186.18545056 127.20646471 -184 129 C-179.15250576 129.55085162 -176.18831424 128.39332242 -172 126 C-172.33 122.7 -172.66 119.4 -173 116 C-172.34 116.33 -171.68 116.66 -171 117 C-170.08776132 120.29419525 -169.59718825 123.63015202 -169 127 C-165.37 127 -161.74 127 -158 127 C-158.06058594 126.07775635 -158.12117188 125.1555127 -158.18359375 124.20532227 C-158.40954806 120.74452781 -158.63287491 117.28358364 -158.85449219 113.82250977 C-158.95046427 112.33188299 -159.04744704 110.8413209 -159.14550781 109.35083008 C-159.45973333 104.56851014 -159.7394596 99.78555097 -160 95 C-160.06703125 94.03046387 -160.1340625 93.06092773 -160.203125 92.06201172 C-160.3125 89.65234375 -160.3125 89.65234375 -160 86 C-158.01953125 84.34375 -158.01953125 84.34375 -156 83 C-155.4771076 79.90583605 -155.4771076 79.90583605 -155.6875 76.5 C-155.71199219 75.3553125 -155.73648438 74.210625 -155.76171875 73.03125 C-155.88104903 69.95533583 -155.88104903 69.95533583 -157 67 C-157.08106686 65.44578271 -157.10756898 63.88832973 -157.09765625 62.33203125 C-157.09282227 60.99301758 -157.09282227 60.99301758 -157.08789062 59.62695312 C-157.07532227 58.23379883 -157.07532227 58.23379883 -157.0625 56.8125 C-157.05798828 55.87212891 -157.05347656 54.93175781 -157.04882812 53.96289062 C-157.03704626 51.64186288 -157.02059558 49.32096356 -157 47 C-153.90613833 48.48824789 -151.51879807 50.09709149 -148.9375 52.375 C-148.26589844 52.96023437 -147.59429687 53.54546875 -146.90234375 54.1484375 C-143.97930671 56.99344685 -142.13910786 58.88713716 -141.625 63 C-140.81123658 66.90606441 -139.11316104 67.66512922 -136 70 C-135.1875 72.25 -135.1875 72.25 -135 74 C-132.69 74 -130.38 74 -128 74 C-128.33 74.99 -128.66 75.98 -129 77 C-129.66 77 -130.32 77 -131 77 C-131.268125 77.70125 -131.53625 78.4025 -131.8125 79.125 C-133 82 -133 82 -134.625 84.8125 C-136.37238315 88.86325186 -136.22636251 91.62365808 -136 96 C-132.45831328 98.12501203 -129.0535699 98.47497519 -125 99 C-124.98018066 99.57854736 -124.96036133 100.15709473 -124.93994141 100.75317383 C-124.48687316 115.99169283 -124.48687316 115.99169283 -122 131 C-121.01 131.33 -120.02 131.66 -119 132 C-119.33 137.28 -119.66 142.56 -120 148 C-112.02509872 149.32915021 -104.05813281 149.08801359 -96 149 C-96.165 148.05125 -96.33 147.1025 -96.5 146.125 C-97.6298177 138.05893399 -96.93751033 130.35563969 -95.5625 122.375 C-94.13598388 113.57828904 -93.36062773 104.90377422 -93 96 C-90.69 96 -88.38 96 -86 96 C-86.034301 88.71103753 -87.99551606 82.83496389 -90.91650391 76.26733398 C-92.47651858 72.68856015 -93.35052557 69.9154452 -93 66 C-91.88625 65.896875 -90.7725 65.79375 -89.625 65.6875 C-88.42875 65.460625 -87.2325 65.23375 -86 65 C-83.27531776 60.91297664 -83.37926953 57.79930632 -84 53 C-85.41622142 48.48853175 -87.30924389 44.84010878 -90.3125 41.1875 C-92 39 -92 39 -92.0625 37.0625 C-90.41707591 33.86844147 -88.54233413 31.54233413 -86 29 C-82.75 28.0625 -82.75 28.0625 -80 28 C-79.67 28.33 -79.34 28.66 -79 29 C-76.6704053 29.50241322 -76.6704053 29.50241322 -74 29 C-69.56861672 25.36399321 -66.33836487 20.62323382 -63 16 C-62.67 16.66 -62.34 17.32 -62 18 C-62.96846881 20.31182878 -64.1231024 22.49078351 -65.28515625 24.7109375 C-66.2143263 26.96413983 -66.2143263 26.96413983 -65.421875 29.12109375 C-63.61251136 31.51203856 -61.88862103 32.40375882 -59.1875 33.6875 C-58.33542969 34.10386719 -57.48335937 34.52023438 -56.60546875 34.94921875 C-46.33950701 39.08946419 -35.76514106 37.59133697 -25.828125 33.37890625 C-22.63312487 31.82112304 -19.86508903 30.09074064 -17 28 C-16.34 28 -15.68 28 -15 28 C-15.33 26.35 -15.66 24.7 -16 23 C-14.906875 23.185625 -13.81375 23.37125 -12.6875 23.5625 C-9.06375867 24.2578068 -9.06375867 24.2578068 -6 23 C-5.67 22.01 -5.34 21.02 -5 20 C-3.35360035 18.64172029 -1.68704193 17.30745749 0 16 C2.32622007 11.34755986 0.98524838 4.9262419 0 0 Z " fill="#D4F5E4" transform="translate(288,112)"/>
<path d="M0 0 C1.15662572 0.76702374 2.31419988 1.53261895 3.47265625 2.296875 C4.05184814 2.6794043 4.63104004 3.06193359 5.2277832 3.45605469 C15.79896818 10.26056182 28.10648102 15.70399303 40.72265625 16.484375 C41.86605469 16.55914062 43.00945312 16.63390625 44.1875 16.7109375 C45.47333984 16.78441406 45.47333984 16.78441406 46.78515625 16.859375 C46.14578125 16.1375 45.50640625 15.415625 44.84765625 14.671875 C42.74619091 11.80624044 41.93355126 10.37139027 41.78515625 6.859375 C44.23012403 -0.12150584 48.75640561 -4.67291445 55.19921875 -8.078125 C60.71498308 -10.34442092 64.83460546 -10.75829942 70.53515625 -8.953125 C76.2910739 -5.743094 79.39643773 -2.76479891 82.34765625 3.171875 C82.65010254 3.77708984 82.95254883 4.38230469 83.26416016 5.00585938 C85.42154291 9.53183718 86.61586464 13.97427599 87.66015625 18.859375 C88.6921524 23.88392426 88.6921524 23.88392426 91.921875 27.57421875 C92.72238281 27.97769531 93.52289063 28.38117187 94.34765625 28.796875 C98.06226474 30.68783714 98.68096138 31.55439123 100.0703125 35.62109375 C102.52891107 47.11930909 102.52891107 47.11930909 100.78515625 51.859375 C100.12515625 49.549375 99.46515625 47.239375 98.78515625 44.859375 C98.70998779 45.87753296 98.70998779 45.87753296 98.63330078 46.91625977 C98.06210047 54.56788295 97.44804209 62.21513435 96.78515625 69.859375 C96.71570801 70.66149414 96.64625977 71.46361328 96.57470703 72.29003906 C95.37470715 85.27935076 92.70105516 97.7641022 82.78515625 106.859375 C81.45484375 108.1278125 81.45484375 108.1278125 80.09765625 109.421875 C77.78515625 110.859375 77.78515625 110.859375 75.87890625 110.6328125 C67.05506356 107.37325867 61.09274031 97.49621058 57.12109375 89.515625 C52.93797473 79.87178411 51.10273881 70.24828469 49.78515625 59.859375 C49.63941162 58.7144458 49.63941162 58.7144458 49.49072266 57.54638672 C49.25209965 55.65114537 49.01814131 53.75531768 48.78515625 51.859375 C48.55441406 52.99375 48.32367188 54.128125 48.0859375 55.296875 C45.22814626 68.76419752 41.82746361 75.17206605 31.390625 84.42578125 C27.21307242 88.32775315 24.03626388 91.72501368 23.56640625 97.58984375 C23.58697936 99.49542852 23.6395509 101.40097913 23.7265625 103.3046875 C23.80143109 106.56895794 23.24421781 108.94125187 21.78515625 111.859375 C18.58515625 114.859375 18.58515625 114.859375 15.78515625 114.859375 C14.70990431 117.51166312 13.69059474 120.14305954 12.78515625 122.859375 C11.79515625 122.529375 10.80515625 122.199375 9.78515625 121.859375 C10.09453125 121.26125 10.40390625 120.663125 10.72265625 120.046875 C13.42836351 114.47630122 13.4569698 108.93846837 12.78515625 102.859375 C11.28515625 99.359375 11.28515625 99.359375 7.78515625 97.859375 C2.88520402 96.92735611 -1.69956696 96.73424194 -6.328125 98.8046875 C-8.54538124 100.74147935 -9.29484662 102.03048516 -10.21484375 104.859375 C-10.44252075 108.66898267 -10.21617707 112.46949222 -10.04125977 116.27807617 C-9.91921007 120.99782115 -9.98198104 123.94380061 -13.40234375 127.546875 C-15.60650323 129.40528398 -16.6620478 129.86029941 -19.55078125 129.85546875 C-23.30228308 128.45278111 -25.82364099 125.9725856 -28.65234375 123.234375 C-29.51339722 122.41731079 -29.51339722 122.41731079 -30.3918457 121.58374023 C-41.9426799 110.51343653 -41.9426799 110.51343653 -43.21484375 104.859375 C-42.98365251 101.56489978 -42.74212569 98.85960067 -41.19140625 95.91796875 C-39.48718242 92.32546492 -39.67639119 88.74296411 -40.21484375 84.859375 C-42.01012094 81.06167326 -43.20499835 79.3642977 -46.96484375 77.484375 C-51.09885336 76.68937315 -53.99454883 76.32346453 -58.21484375 76.859375 C-62.04692766 80.03918931 -63.4093949 82.39092277 -64.08984375 87.296875 C-64.34034217 91.29130928 -63.96607765 94.93626461 -63.21484375 98.859375 C-63.76914063 99.06433594 -64.3234375 99.26929687 -64.89453125 99.48046875 C-65.61898437 99.74988281 -66.3434375 100.01929687 -67.08984375 100.296875 C-67.80914062 100.56371094 -68.5284375 100.83054687 -69.26953125 101.10546875 C-71.2513322 101.83854354 -71.2513322 101.83854354 -73.21484375 102.859375 C-73.23466309 102.04895752 -73.25448242 101.23854004 -73.27490234 100.40356445 C-73.35407779 97.32993866 -73.44078879 94.25663323 -73.53222656 91.18334961 C-73.5882962 89.22590145 -73.63606297 87.26822099 -73.68359375 85.31054688 C-73.9369375 77.01353893 -74.73901043 69.02587533 -76.21484375 60.859375 C-76.37098145 59.97016357 -76.52711914 59.08095215 -76.68798828 58.16479492 C-77.59526283 53.14082274 -78.62513519 48.14594127 -79.71777344 43.15917969 C-80.15404077 41.14069331 -80.55095134 39.11378399 -80.94140625 37.0859375 C-82.06098317 32.50585011 -82.77283099 29.75194932 -86.890625 27.203125 C-90.00821802 25.8851792 -90.00821802 25.8851792 -93.21875 24.8828125 C-97.216612 23.51718037 -99.93067636 21.47178088 -103.21484375 18.859375 C-100.0860725 9.47306124 -87.45349031 0.96821573 -79.1015625 -3.2734375 C-52.97247684 -15.28307935 -24.31607243 -16.19101785 0 0 Z " fill="#D4F6E5" transform="translate(174.21484375,27.140625)"/>
<path d="M0 0 C3.09249667 3.09249667 3.6553272 6.70917535 4 11 C2.82990798 14.96531186 1.84359506 17.25013773 -1.25 20 C-2.11625 20.99 -2.11625 20.99 -3 22 C-2.80765878 25.35278304 -2.80765878 25.35278304 -2 29 C-1.54765649 33.17425769 -1.57235274 36.2397382 -3.6875 40 C-6 42 -6 42 -8.75 42.3125 C-9.4925 42.209375 -10.235 42.10625 -11 42 C-12.58255197 37.67435795 -13.45144652 33.571279 -14 29 C-15.485 29.495 -15.485 29.495 -17 30 C-16.81824219 30.86044922 -16.81824219 30.86044922 -16.6328125 31.73828125 C-15.43236945 37.82360411 -14.63161875 43.89765084 -14 50.0625 C-13.91476074 50.87605957 -13.82952148 51.68961914 -13.74169922 52.52783203 C-13.32483558 56.57069739 -12.94643304 60.611247 -12.640625 64.6640625 C-11.87920815 73.90417318 -10.05957499 81.70943594 -6.4375 90.25390625 C-2.7940706 99.28035572 -2.82849613 107.77501257 -3.16601562 117.38476562 C-3.28213873 123.37912059 -2.65523514 128.1919388 -0.55639648 133.82836914 C0.08436459 136.32927732 -0.04309899 137.61686538 -1 140 C-3.3941981 141.72914307 -5.58879842 142.8636047 -8.390625 143.79296875 C-11.57531481 145.26612616 -13.20293046 147.04667886 -15.5 149.6875 C-16.27859375 150.57566406 -17.0571875 151.46382812 -17.859375 152.37890625 C-19.64845314 154.56954754 -21.21797453 156.75423906 -22.75 159.125 C-25 162 -25 162 -27.625 162.6875 C-30 162 -30 162 -31.625 160.5625 C-33.27594365 157.48574139 -34.16881668 154.39227899 -35.05859375 151.0234375 C-35.85150548 148.87198452 -35.85150548 148.87198452 -37.84765625 147.7265625 C-40.25303712 146.78677564 -40.25303712 146.78677564 -44 147 C-43.8453125 148.1446875 -43.8453125 148.1446875 -43.6875 149.3125 C-43.790625 150.199375 -43.89375 151.08625 -44 152 C-47.28657068 154.26172606 -50.83442452 155.98562179 -54.4375 157.6875 C-55.34371094 158.12449219 -56.24992187 158.56148437 -57.18359375 159.01171875 C-60.28908107 160.10143899 -62.73291248 160.17802981 -66 160 C-66.495 158.02 -66.495 158.02 -67 156 C-66.28972656 155.37351562 -65.57945312 154.74703125 -64.84765625 154.1015625 C-63.92855469 153.28429687 -63.00945312 152.46703125 -62.0625 151.625 C-61.14597656 150.81289063 -60.22945312 150.00078125 -59.28515625 149.1640625 C-56.96398605 147.21290653 -56.96398605 147.21290653 -56 145 C-56.97582031 145.02320313 -57.95164063 145.04640625 -58.95703125 145.0703125 C-60.22933594 145.08835937 -61.50164062 145.10640625 -62.8125 145.125 C-64.07707031 145.14820313 -65.34164062 145.17140625 -66.64453125 145.1953125 C-70 145 -70 145 -73 143 C-74.11375 142.731875 -75.2275 142.46375 -76.375 142.1875 C-80.57887102 140.81036984 -82.43757729 139.60340693 -85 136 C-84.54761958 130.07304979 -82.99617821 124.28777931 -81.6875 118.5 C-79.86239168 110.30157108 -78.26361195 102.09579511 -76.875 93.8125 C-75.75658351 87.1804768 -74.59271861 80.63266199 -72.83984375 74.1328125 C-72.14751494 71.55026504 -71.50256876 68.96673331 -70.87890625 66.3671875 C-65.00569616 42.01139233 -65.00569616 42.01139233 -61 34 C-58.21738023 34.50593087 -55.67290541 35.115846 -53 36.0625 C-42.37235735 39.05296222 -32.69229298 36.72566219 -23 32 C-20.89319261 30.76046858 -18.97656156 29.44235573 -17 28 C-16.34 28 -15.68 28 -15 28 C-15.33 26.35 -15.66 24.7 -16 23 C-14.906875 23.185625 -13.81375 23.37125 -12.6875 23.5625 C-9.06375867 24.2578068 -9.06375867 24.2578068 -6 23 C-5.505 21.515 -5.505 21.515 -5 20 C-3.35360035 18.64172029 -1.68704193 17.30745749 0 16 C2.32622007 11.34755986 0.98524838 4.9262419 0 0 Z " fill="#F5D4C5" transform="translate(288,112)"/>
<path d="M0 0 C0 0.66 0 1.32 0 2 C0.66 2 1.32 2 2 2 C6.45699222 8.1283643 6.98283877 13.5265329 6 21 C4.99607714 24.21255314 3.62757463 27.06099833 2 30 C0.04567651 33.76388227 -1.25283582 36.83822571 -2 41 C4.82761347 45.40713 4.82761347 45.40713 12.375 48.25 C14.945184 49.13948018 15.80322627 49.68949466 17.27734375 52.015625 C18.373711 54.64690639 19.21748067 57.25927376 20 60 C20.27457031 60.88429687 20.54914063 61.76859375 20.83203125 62.6796875 C22.50652583 68.37131933 23.6408435 74.08639775 24.52734375 79.94921875 C24.82907574 81.89676161 25.17152919 83.8387186 25.56640625 85.76953125 C27.05149351 93.52729477 27.18186284 101.11530646 27.1875 109 C27.1887085 110.64875122 27.1887085 110.64875122 27.18994141 112.33081055 C27.12299927 121.98609853 27.12299927 121.98609853 26 126 C22.09483344 128.34309993 19.79629952 128 15 128 C14.67 115.79 14.34 103.58 14 91 C13.67 91 13.34 91 13 91 C13.00523682 92.10923828 13.01047363 93.21847656 13.01586914 94.36132812 C13.03407172 98.50617658 13.04548743 102.65102154 13.05493164 106.79589844 C13.05993714 108.58431596 13.06674355 110.37272943 13.07543945 112.16113281 C13.08767166 114.74284874 13.09326628 117.32451021 13.09765625 119.90625 C13.10281754 120.69616333 13.10797882 121.48607666 13.11329651 122.29992676 C13.11379207 127.28751558 12.71069415 132.06202819 12 137 C11.21463867 137.0093457 10.42927734 137.01869141 9.62011719 137.02832031 C5.99615296 137.08263185 2.37339669 137.16615883 -1.25 137.25 C-2.48492187 137.26417969 -3.71984375 137.27835938 -4.9921875 137.29296875 C-12.35791124 137.48680359 -18.49316623 138.41835875 -25.36865234 141.11474609 C-32.04639753 143.36131355 -37.45392418 142.18202527 -44 140 C-43.67 135.71 -43.34 131.42 -43 127 C-44.134375 126.855625 -45.26875 126.71125 -46.4375 126.5625 C-50 126 -50 126 -51 125 C-51.25836712 120.75670001 -51.18525597 116.50020071 -51.1875 112.25 C-51.19974609 111.07566406 -51.21199219 109.90132813 -51.22460938 108.69140625 C-51.23630595 101.60328082 -50.68836021 94.87926251 -49.49243164 87.89355469 C-49.08316954 85.48870869 -48.7556032 83.1128364 -48.5078125 80.6875 C-47.41086059 70.12094286 -45.65065322 59.19515388 -40 50 C-37.43359375 48.4609375 -37.43359375 48.4609375 -34.4375 47.375 C-33.37917969 46.97667969 -32.32085937 46.57835937 -31.23046875 46.16796875 C-30.16441406 45.78253906 -29.09835938 45.39710937 -28 45 C-26.08069378 44.23576263 -24.16374588 43.46555646 -22.25 42.6875 C-20.83369305 42.12409488 -19.41717215 41.56122525 -18 41 C-18.40992188 40.48050781 -18.81984375 39.96101563 -19.2421875 39.42578125 C-22.10453195 35.72116797 -24.47226087 32.46569899 -26 28 C-26.7734375 26.6078125 -26.7734375 26.6078125 -27.5625 25.1875 C-31.02575639 17.50810539 -29.77147183 10.9643031 -28 3 C-27.34 3 -26.68 3 -26 3 C-25.67 2.01 -25.34 1.02 -25 0 C-17.23296394 -4.29929331 -7.52992429 -4.75574166 0 0 Z " fill="#0E894A" transform="translate(74,5)"/>
<path d="M0 0 C0.99 0.495 0.99 0.495 2 1 C2.33333333 3 2.66666667 5 3 7 C3.99 7.495 3.99 7.495 5 8 C5.63619358 9.80908128 6.18156776 11.65025679 6.6875 13.5 C8.32220516 19.10117844 10.33568402 24.3859693 12.625 29.75 C16.098889 37.98457196 19.0426116 45.91438467 18 55 C16.56799022 57.49670106 15.12462661 58.97654609 13 61 C12.34 61 11.68 61 11 61 C10.67 62.32 10.34 63.64 10 65 C3.25 66.125 3.25 66.125 1 65 C1 66.32 1 67.64 1 69 C-9.20544324 77.02966346 -20.20576059 80.17465722 -33 79 C-39.2880883 77.68919005 -46.18847386 75.02779739 -50.625 70.25 C-51.24828724 66.51027656 -49.52532604 63.37867919 -48 60 C-48.47050781 60.62648437 -48.94101563 61.25296875 -49.42578125 61.8984375 C-50.35970703 63.12433594 -50.35970703 63.12433594 -51.3125 64.375 C-51.92738281 65.18710938 -52.54226562 65.99921875 -53.17578125 66.8359375 C-55 69 -55 69 -58 71 C-60.4375 71.125 -60.4375 71.125 -63 71 C-64.32 71 -65.64 71 -67 71 C-67.99 71 -68.98 71 -70 71 C-72.84689628 73.68291796 -72.84689628 73.68291796 -75 77 C-74.67818007 80.09675785 -73.4644039 81.97081288 -71.5625 84.375 C-67.31111495 90.17457729 -66.16477694 95.90060396 -67 103 C-68.0625 105.5625 -68.0625 105.5625 -70 107 C-73.6875 107.25 -73.6875 107.25 -77 107 C-74.62009275 115.52984533 -74.62009275 115.52984533 -71.25 123.6875 C-69.55539072 128.17821458 -69.74228482 132.25613173 -70 137 C-72.31 137 -74.62 137 -77 137 C-76.94779297 138.38445312 -76.94779297 138.38445312 -76.89453125 139.796875 C-76.73034657 147.709013 -77.1780602 155.13002964 -78.5 162.9375 C-80.0379408 172.03478098 -80.32199108 180.79344036 -80 190 C-83.50708827 191.75354414 -87.51211749 191.18464284 -91.375 191.1875 C-92.23867187 191.19974609 -93.10234375 191.21199219 -93.9921875 191.22460938 C-94.8275 191.22654297 -95.6628125 191.22847656 -96.5234375 191.23046875 C-97.28575684 191.23457764 -98.04807617 191.23868652 -98.83349609 191.24291992 C-101.26410069 190.97038763 -102.89091986 190.20839576 -105 189 C-105.20674944 183.21101581 -104.59162079 178.57067277 -103 173 C-104.32 172.67 -105.64 172.34 -107 172 C-109.75536554 161.49516888 -109.1948442 150.76289377 -109 140 C-110.09441406 140.020625 -111.18882812 140.04125 -112.31640625 140.0625 C-116.36576098 139.99379409 -118.08740333 139.82433616 -121 137 C-122.47850155 129.473083 -118.87863027 124.2796871 -115 118 C-114.34 118 -113.68 118 -113 118 C-113 117.34 -113 116.68 -113 116 C-113.9075 115.95875 -114.815 115.9175 -115.75 115.875 C-120.07300563 114.71111387 -120.77539779 112.75881063 -123 109 C-123.99 108.34 -124.98 107.68 -126 107 C-126.1875 104.375 -126.1875 104.375 -126 102 C-125.4225 102.474375 -124.845 102.94875 -124.25 103.4375 C-122.07417916 104.9484867 -120.57397552 105.54036151 -118 106 C-117.95875 106.61875 -117.9175 107.2375 -117.875 107.875 C-117.14941018 110.29078504 -117.14941018 110.29078504 -114.3125 111.375 C-110.50087465 112.0941746 -108.52173406 111.5093146 -105 110 C-105.34227572 107.02934491 -105.34227572 107.02934491 -106 104 C-106.66 103.67 -107.32 103.34 -108 103 C-108 100.69 -108 98.38 -108 96 C-108.66 97.32 -109.32 98.64 -110 100 C-111.52069039 98.47930961 -111.44553508 96.78297256 -111.8125 94.6875 C-112.64604399 90.6915792 -113.66865342 88.55403238 -117 86 C-116.4225 85.70351562 -115.845 85.40703125 -115.25 85.1015625 C-112.44318882 83.25959266 -110.83313183 81.84564118 -109 79 C-108.59468023 76.00063369 -108.76030801 73.07720784 -108.9375 70.0625 C-109.4415922 60.09760536 -109.4415922 60.09760536 -106.25 55.875 C-103.00137369 52.97775572 -100.17453418 52.42636301 -95.875 52.1875 C-92.0881168 52.43395548 -89.55264486 52.72132142 -86.8125 55.4375 C-86.214375 56.283125 -85.61625 57.12875 -85 58 C-84.67 58.33 -84.34 58.66 -84 59 C-83.84747691 60.91240484 -83.77807227 62.83172799 -83.75 64.75 C-83.72421875 65.79671875 -83.6984375 66.8434375 -83.671875 67.921875 C-84.03885155 71.36446454 -85.10704407 73.15060318 -87 76 C-87 76.66 -87 77.32 -87 78 C-86.01 78.495 -86.01 78.495 -85 79 C-84.9175 78.2575 -84.835 77.515 -84.75 76.75 C-83.83864773 73.408375 -82.60601265 72.23372513 -80 70 C-79.278125 69.608125 -78.55625 69.21625 -77.8125 68.8125 C-74.83312361 65.83312361 -75.09581967 62.07233584 -75 58 C-75.12375 56.865625 -75.2475 55.73125 -75.375 54.5625 C-74.40544174 45.35169652 -66.16322337 39.00737588 -59.453125 33.421875 C-54.57881901 28.60966208 -53.28788287 22.90850354 -51.875 16.4375 C-51.70613281 15.69564453 -51.53726563 14.95378906 -51.36328125 14.18945312 C-50.52198494 10.46986352 -49.72654253 6.74391813 -49 3 C-48.67 3 -48.34 3 -48 3 C-47.93268677 3.8521106 -47.93268677 3.8521106 -47.86401367 4.72143555 C-46.02036332 27.43529972 -42.92592206 48.01992463 -25.47265625 64.3671875 C-23.20199603 66.21270645 -23.20199603 66.21270645 -20.90625 65.9140625 C-14.81739187 62.99440512 -10.74878223 58.08317458 -8 52 C-7.49339844 50.96939453 -7.49339844 50.96939453 -6.9765625 49.91796875 C-0.48544968 34.81270997 -0.58763436 16.23086626 0 0 Z " fill="#F5D3C5" transform="translate(272,71)"/>
<path d="M0 0 C0.33 0 0.66 0 1 0 C1 6.93 1 13.86 1 21 C4.98649504 21.69002924 4.98649504 21.69002924 9 22 C8.67 26.62 8.34 31.24 8 36 C15.4462046 37.48924092 21.28041536 37.83820496 28.41796875 34.99609375 C35.5812282 32.51576213 42.23879753 32.54614691 49.75 32.75 C51.67199219 32.77707031 51.67199219 32.77707031 53.6328125 32.8046875 C56.75602336 32.85130259 59.87758874 32.91671862 63 33 C63 30.36 63 27.72 63 25 C63.33 25 63.66 25 64 25 C64 27.97 64 30.94 64 34 C63.34 34 62.68 34 62 34 C61.95101562 35.15628906 61.90203125 36.31257813 61.8515625 37.50390625 C60.95384881 57.87013474 59.97627111 78.28795461 57.68432617 98.55078125 C56.77763512 106.68639708 56.30555139 114.82158646 56 123 C55.96600098 123.76715332 55.93200195 124.53430664 55.89697266 125.32470703 C55.80275246 127.61229696 55.7402393 129.89861429 55.6875 132.1875 C55.64278564 133.21157959 55.64278564 133.21157959 55.59716797 134.25634766 C55.53383024 139.70473997 57.20481662 142.52444373 60 147 C60.67696754 152.02890173 60.67696754 152.02890173 58.8671875 154.625 C55.3479538 157.21656959 51.40134369 156.76830368 47.18359375 156.66015625 C43.51319878 155.89905594 42.43820696 155.17822786 40.25 152.1875 C35.28629806 143.97945071 36.81105614 131.48120545 36.68359375 122.23828125 C36.66281265 120.96647507 36.64203156 119.69466888 36.62062073 118.38432312 C36.56673769 115.04227713 36.51636571 111.70021757 36.46777344 108.35809326 C36.4170701 104.93204043 36.36164193 101.50606417 36.30664062 98.08007812 C36.20012742 91.38678019 36.0982513 84.69342405 36 78 C35.98969254 78.69776047 35.97938507 79.39552094 35.96876526 80.11442566 C35.87006403 86.74742456 35.76745885 93.38035087 35.66066074 100.0132246 C35.6059108 103.42179303 35.55257769 106.8303704 35.50268555 110.23901367 C35.44502696 114.17373982 35.38084067 118.10834753 35.31640625 122.04296875 C35.29133751 123.84534248 35.29133751 123.84534248 35.26576233 125.68412781 C35.16540196 131.52213201 34.98977455 137.35460697 34.66772461 143.18481445 C34.61257187 144.23063187 34.55741913 145.27644928 34.50059509 146.35395813 C33.94038192 149.31512881 33.40026792 150.2408924 31 152 C23.86858982 154.70939218 16.64778807 156.74978314 9 156 C8 155 8 155 7.5625 152.4375 C8.04409448 148.65354335 8.55289749 148.17741804 11 145.5 C13.97851653 141.81250878 14.34291814 139.39487667 14.20703125 134.6953125 C14.17947754 133.45104492 14.15192383 132.20677734 14.12353516 130.92480469 C14.06238525 128.98202637 14.06238525 128.98202637 14 127 C13.96166592 124.48698785 13.92391288 121.97396678 13.88671875 119.4609375 C13.82512321 116.76538336 13.75967201 114.07025939 13.6875 111.375 C13.66898987 110.65699219 13.65047974 109.93898438 13.63140869 109.19921875 C13.27183397 95.96628957 12.28844106 82.82430411 10.9284668 69.65771484 C9.91072527 59.322273 10.17250146 49.34751375 11 39 C9.77603516 38.566875 9.77603516 38.566875 8.52734375 38.125 C7.69332031 37.75375 6.85929687 37.3825 6 37 C5.855625 36.34 5.71125 35.68 5.5625 35 C5.376875 34.34 5.19125 33.68 5 33 C3.01276732 32.29618843 1.01222047 31.6288189 -1 31 C-1.9863703 28.04088911 -2.06614754 26.41670514 -1.9140625 23.359375 C-1.87023437 22.45316406 -1.82640625 21.54695313 -1.78125 20.61328125 C-1.7296875 19.66839844 -1.678125 18.72351563 -1.625 17.75 C-1.55925781 16.35587891 -1.55925781 16.35587891 -1.4921875 14.93359375 C-1.23578226 9.89807976 -0.81112046 4.97670517 0 0 Z " fill="#A9BCAE" transform="translate(23,109)"/>
<path d="M0 0 C7.71291808 6.36429389 10.77169948 16.39234236 12.8125 25.8125 C13.84449615 30.83704926 13.84449615 30.83704926 17.07421875 34.52734375 C17.87472656 34.93082031 18.67523438 35.33429687 19.5 35.75 C23.21460849 37.64096214 23.83330513 38.50751623 25.22265625 42.57421875 C27.68125482 54.07243409 27.68125482 54.07243409 25.9375 58.8125 C25.2775 56.5025 24.6175 54.1925 23.9375 51.8125 C23.8873877 52.49127197 23.83727539 53.17004395 23.78564453 53.86938477 C23.21444422 61.52100795 22.60038584 69.16825935 21.9375 76.8125 C21.86805176 77.61461914 21.79860352 78.41673828 21.72705078 79.24316406 C20.5270509 92.23247576 17.85339891 104.7172272 7.9375 113.8125 C7.050625 114.658125 6.16375 115.50375 5.25 116.375 C2.9375 117.8125 2.9375 117.8125 1.03125 117.5859375 C-7.79259269 114.32638367 -13.75491594 104.44933558 -17.7265625 96.46875 C-24.2938859 81.32831971 -28.33787423 61.12945576 -25.0625 44.8125 C-21.1484404 41.14306912 -16.18953377 41.13643024 -11.0625 40.8125 C-11.0625 39.4925 -11.0625 38.1725 -11.0625 36.8125 C-15.5175 34.3375 -15.5175 34.3375 -20.0625 31.8125 C-20.0625 31.1525 -20.0625 30.4925 -20.0625 29.8125 C-20.660625 29.60625 -21.25875 29.4 -21.875 29.1875 C-24.0625 27.8125 -24.0625 27.8125 -25.5 24.875 C-26.80150425 21.65206395 -26.80150425 21.65206395 -29.6875 20.25 C-32.0625 18.8125 -32.0625 18.8125 -32.85546875 16.53125 C-33.24665559 11.39415489 -30.22577701 7.65011901 -27.0625 3.8125 C-18.97479555 -2.60099812 -9.34292425 -5.9027002 0 0 Z " fill="#F5D4C6" transform="translate(249.0625,20.1875)"/>
<path d="M0 0 C-0.99 0.33 -1.98 0.66 -3 1 C-1.68 6.61 -0.36 12.22 1 18 C4.23475448 16.38262276 5.70572021 15.52370777 8 13 C9.72465929 29.72369087 10.1999841 46.32486442 10.1875 63.125 C10.1882251 64.09111206 10.1889502 65.05722412 10.18969727 66.0526123 C10.18945979 68.85025096 10.18068098 71.64770497 10.16796875 74.4453125 C10.16677536 75.27574066 10.16558197 76.10616882 10.16435242 76.96176147 C10.12141147 82.37396894 9.67365552 87.62889922 9 93 C-12.27144536 99.90951821 -12.27144536 99.90951821 -24 96 C-23.67 91.71 -23.34 87.42 -23 83 C-24.134375 82.855625 -25.26875 82.71125 -26.4375 82.5625 C-30 82 -30 82 -31 81 C-31.25836712 76.75670001 -31.18525597 72.50020071 -31.1875 68.25 C-31.19974609 67.07566406 -31.21199219 65.90132813 -31.22460938 64.69140625 C-31.23630595 57.60328082 -30.68836021 50.87926251 -29.49243164 43.89355469 C-29.08316954 41.48870869 -28.7556032 39.1128364 -28.5078125 36.6875 C-27.41301855 26.14172974 -25.67640552 15.15878464 -20 6 C-17.2578125 4.390625 -17.2578125 4.390625 -14.125 3.25 C-12.58199219 2.66992188 -12.58199219 2.66992188 -11.0078125 2.078125 C-10.01523437 1.72234375 -9.02265625 1.3665625 -8 1 C-7.11054687 0.60296875 -6.22109375 0.2059375 -5.3046875 -0.203125 C-3 -1 -3 -1 0 0 Z " fill="#0F8B4C" transform="translate(54,49)"/>
<path d="M0 0 C0.99 0.495 0.99 0.495 2 1 C2.33333333 3 2.66666667 5 3 7 C3.99 7.495 3.99 7.495 5 8 C5.63619358 9.80908128 6.18156776 11.65025679 6.6875 13.5 C8.32220516 19.10117844 10.33568402 24.3859693 12.625 29.75 C16.098889 37.98457196 19.0426116 45.91438467 18 55 C16.56799022 57.49670106 15.12462661 58.97654609 13 61 C12.34 61 11.68 61 11 61 C10.67 62.32 10.34 63.64 10 65 C3.25 66.125 3.25 66.125 1 65 C1 66.32 1 67.64 1 69 C-9.20544324 77.02966346 -20.20576059 80.17465722 -33 79 C-39.2880883 77.68919005 -46.18847386 75.02779739 -50.625 70.25 C-51.24828724 66.51027656 -49.52532604 63.37867919 -48 60 C-48.47050781 60.62648437 -48.94101563 61.25296875 -49.42578125 61.8984375 C-50.04839844 62.71570313 -50.67101562 63.53296875 -51.3125 64.375 C-51.92738281 65.18710938 -52.54226562 65.99921875 -53.17578125 66.8359375 C-55 69 -55 69 -58 71 C-60.4375 71.125 -60.4375 71.125 -63 71 C-64.32 71 -65.64 71 -67 71 C-70.4432658 69.70877533 -72.67367524 67.83328352 -75 65 C-76.15999069 59.3494932 -76.08932056 53.55847 -73.8125 48.2109375 C-69.94790104 42.35829966 -64.81478949 37.88493651 -59.453125 33.421875 C-54.57881901 28.60966208 -53.28788287 22.90850354 -51.875 16.4375 C-51.70613281 15.69564453 -51.53726563 14.95378906 -51.36328125 14.18945312 C-50.52198494 10.46986352 -49.72654253 6.74391813 -49 3 C-48.67 3 -48.34 3 -48 3 C-47.93268677 3.8521106 -47.93268677 3.8521106 -47.86401367 4.72143555 C-46.02036332 27.43529972 -42.92592206 48.01992463 -25.47265625 64.3671875 C-23.20199603 66.21270645 -23.20199603 66.21270645 -20.90625 65.9140625 C-14.81739187 62.99440512 -10.74878223 58.08317458 -8 52 C-7.49339844 50.96939453 -7.49339844 50.96939453 -6.9765625 49.91796875 C-0.48544968 34.81270997 -0.58763436 16.23086626 0 0 Z " fill="#108A4B" transform="translate(272,71)"/>
<path d="M0 0 C7.03347575 -0.26822577 13.81774085 0.26513519 20.77734375 1.21386719 C27.83428348 2.15815293 34.89219606 2.61193024 42 3 C42.37671035 24.52175222 42.37671035 24.52175222 40.4453125 34.75 C39.52741759 41.44902251 39.85456018 48.25320826 40 55 C36.49291173 56.75354414 32.48788251 56.18464284 28.625 56.1875 C27.76132813 56.19974609 26.89765625 56.21199219 26.0078125 56.22460938 C25.1725 56.22654297 24.3371875 56.22847656 23.4765625 56.23046875 C22.71424316 56.23457764 21.95192383 56.23868652 21.16650391 56.24291992 C18.73589931 55.97038763 17.10908014 55.20839576 15 54 C14.79325056 48.21101581 15.40837921 43.57067277 17 38 C15.68 37.67 14.36 37.34 13 37 C10.24463446 26.49516888 10.8051558 15.76289377 11 5 C9.35837891 5.04640625 9.35837891 5.04640625 7.68359375 5.09375 C3.75012638 4.99364054 2.12722563 4.27434591 -1 2 C-0.67 1.34 -0.34 0.68 0 0 Z " fill="#A4B2B6" transform="translate(152,206)"/>
<path d="M0 0 C0.6290625 0.20496094 1.258125 0.40992188 1.90625 0.62109375 C7.30281819 2.31971235 12.36659614 3.47838853 18 4 C18.33 5.65 18.66 7.3 19 9 C19.33 7.35 19.66 5.7 20 4 C22.03814233 3.32263519 24.08070555 2.65856466 26.125 2 C27.26195313 1.62875 28.39890625 1.2575 29.5703125 0.875 C32.87895941 0.03088051 35.60528016 -0.16509276 39 0 C38.34 0.99 37.68 1.98 37 3 C36.79975916 4.99715499 36.79975916 4.99715499 36.98828125 7.18359375 C37.03484863 8.01987305 37.08141602 8.85615234 37.12939453 9.71777344 C37.18981934 10.6152832 37.25024414 11.51279297 37.3125 12.4375 C37.36519043 13.35950195 37.41788086 14.28150391 37.47216797 15.23144531 C37.58312219 17.16935787 37.69845277 19.10702419 37.81787109 21.04443359 C38.10959222 25.77844966 38.37045271 30.51386456 38.625 35.25 C38.67696533 36.11294678 38.72893066 36.97589355 38.7824707 37.86499023 C38.89447071 39.90821122 38.95292215 41.95425328 39 44 C38 45 38 45 35.53125 45.1328125 C34.03078125 45.12894531 34.03078125 45.12894531 32.5 45.125 C31.4996875 45.12757813 30.499375 45.13015625 29.46875 45.1328125 C27 45 27 45 26 44 C25.6068352 42.32115762 25.25914548 40.63149955 24.9375 38.9375 C24.67259766 37.55884766 24.67259766 37.55884766 24.40234375 36.15234375 C24.20318359 35.08693359 24.20318359 35.08693359 24 34 C24.33 36.97 24.66 39.94 25 43 C17.40614334 47.86006826 17.40614334 47.86006826 12 47 C9.69160464 45.31609807 9.06853179 44.30935828 8.4453125 41.49609375 C8.33960937 40.48675781 8.23390625 39.47742188 8.125 38.4375 C7.37839537 32.76203936 6.10661351 27.47475104 4.5 22 C2.36953015 14.69542139 0.89615517 7.57050485 0 0 Z " fill="#1A450C" transform="translate(92,195)"/>
<path d="M0 0 C0 0.66 0 1.32 0 2 C0.66 2 1.32 2 2 2 C6.45699222 8.1283643 6.98283877 13.5265329 6 21 C4.99607714 24.21255314 3.62757463 27.06099833 2 30 C-0.19059051 34.09123644 -0.19059051 34.09123644 -1.4375 38.5 C-2.39397731 42.75101026 -4.95872614 45.95872614 -8 49 C-10.4375 48.875 -10.4375 48.875 -13 48 C-14.04625409 46.70264493 -15.04701223 45.36733028 -16 44 C-18.08334635 42.7483533 -18.08334635 42.7483533 -20 42 C-19.34 41.34 -18.68 40.68 -18 40 C-18.61488281 39.32904297 -18.61488281 39.32904297 -19.2421875 38.64453125 C-22.29365926 35.22075074 -24.53227096 32.40318713 -26 28 C-26.7734375 26.6078125 -26.7734375 26.6078125 -27.5625 25.1875 C-31.02575639 17.50810539 -29.77147183 10.9643031 -28 3 C-27.34 3 -26.68 3 -26 3 C-25.67 2.01 -25.34 1.02 -25 0 C-17.23296394 -4.29929331 -7.52992429 -4.75574166 0 0 Z " fill="#ECAF90" transform="translate(74,5)"/>
<path d="M0 0 C2.4225823 1.45457373 3.3311509 2.64059265 5 5 C5.33 5.33 5.66 5.66 6 6 C6.15252309 7.91240484 6.22192773 9.83172799 6.25 11.75 C6.27578125 12.79671875 6.3015625 13.8434375 6.328125 14.921875 C5.96114845 18.36446454 4.89295593 20.15060318 3 23 C3 23.66 3 24.32 3 25 C3.66 25.33 4.32 25.66 5 26 C5 25.01 5 24.02 5 23 C5.99 22.67 6.98 22.34 8 22 C8.33 21.34 8.66 20.68 9 20 C10.32 20 11.64 20 13 20 C13 20.66 13 21.32 13 22 C12.34 22 11.68 22 11 22 C10.34 23.98 9.68 25.96 9 28 C8.34 28 7.68 28 7 28 C6.9071875 29.8253125 6.9071875 29.8253125 6.8125 31.6875 C6.38174977 35.1092342 5.95935281 36.05306716 3.75 38.9375 C0.99923 41.0005775 -0.61576008 41.70992229 -4 42 C-4 43.98 -4 45.96 -4 48 C-4.66 48 -5.32 48 -6 48 C-6 46.02 -6 44.04 -6 42 C-7.03125 41.979375 -8.0625 41.95875 -9.125 41.9375 C-14.24565307 40.69863232 -16.22880527 38.35599939 -19 34 C-20.375 30.5625 -20.375 30.5625 -21 28 C-20.34 27.34 -19.68 26.68 -19 26 C-19.02713619 23.94182416 -19.06587802 21.88267836 -19.18261719 19.82763672 C-19.82831691 7.63459262 -19.82831691 7.63459262 -16.25 2.875 C-11.555011 -1.31216366 -5.9227103 -1.31055717 0 0 Z " fill="#A7B1B6" transform="translate(182,124)"/>
<path d="M0 0 C4.86753732 1.01681631 8.05375953 2.38181315 11.45703125 6.046875 C13.44604154 10.34313723 13.76269898 13.76018649 13.01953125 18.421875 C12.50390625 19.411875 11.98828125 20.401875 11.45703125 21.421875 C9.84147636 24.79346781 10.07106621 25.38820372 10.83203125 28.859375 C11.20703125 31.171875 11.20703125 31.171875 11.01953125 33.421875 C7.62337718 37.90479838 2.46735891 41.83592933 -3.1640625 42.79296875 C-7.34459017 42.91613854 -9.366405 42.86239899 -12.85546875 40.359375 C-16.19959432 35.73661318 -18.12621657 31.05993942 -18.98046875 25.421875 C-13.23046875 23.421875 -13.23046875 23.421875 -10.98046875 23.421875 C-11.33109375 22.4525 -11.68171875 21.483125 -12.04296875 20.484375 C-13.50938578 15.1860069 -13.46350715 10.21860832 -10.8515625 5.29296875 C-7.82901329 1.21623343 -5.35889396 -0.53281546 0 0 Z " fill="#F6D4C6" transform="translate(121.98046875,102.578125)"/>
<path d="M0 0 C0.66 0.33 1.32 0.66 2 1 C2.33333333 3 2.66666667 5 3 7 C3.66 7.33 4.32 7.66 5 8 C5.63619358 9.80908128 6.18156776 11.65025679 6.6875 13.5 C8.32220516 19.10117844 10.33568402 24.3859693 12.625 29.75 C16.098889 37.98457196 19.0426116 45.91438467 18 55 C16.56799022 57.49670106 15.12462661 58.97654609 13 61 C12.34 61 11.68 61 11 61 C10.67 62.32 10.34 63.64 10 65 C3.25 66.125 3.25 66.125 1 65 C-1.06118726 61.12011809 -1.39945001 57.29239276 -1.75390625 52.98828125 C-1.89644924 50.9288014 -1.89644924 50.9288014 -3 49 C-4.32 49.99 -5.64 50.98 -7 52 C-6.80229004 51.33427979 -6.60458008 50.66855957 -6.40087891 49.98266602 C-4.49488893 43.32683724 -3.2125921 36.80480675 -2.375 29.9375 C-2.25020264 28.95322021 -2.12540527 27.96894043 -1.99682617 26.95483398 C-0.90616235 17.98707326 -0.32673991 9.02478173 0 0 Z " fill="#138849" transform="translate(272,71)"/>
<path d="M0 0 C3.09249667 3.09249667 3.6553272 6.70917535 4 11 C2.82990798 14.96531186 1.84359506 17.25013773 -1.25 20 C-2.11625 20.99 -2.11625 20.99 -3 22 C-2.80765878 25.35278304 -2.80765878 25.35278304 -2 29 C-1.54765649 33.17425769 -1.57235274 36.2397382 -3.6875 40 C-6 42 -6 42 -8.75 42.3125 C-9.4925 42.209375 -10.235 42.10625 -11 42 C-12.58255197 37.67435795 -13.45144652 33.571279 -14 29 C-14.99 29.33 -15.98 29.66 -17 30 C-16.75552124 30.84256348 -16.75552124 30.84256348 -16.50610352 31.70214844 C-15.97014902 34.13553181 -15.88638604 36.27622228 -15.90234375 38.765625 C-15.90556641 39.65507812 -15.90878906 40.54453125 -15.91210938 41.4609375 C-15.92467773 42.84152344 -15.92467773 42.84152344 -15.9375 44.25 C-15.94201172 45.18585938 -15.94652344 46.12171875 -15.95117188 47.0859375 C-15.96293082 49.39069041 -15.97936574 51.69531227 -16 54 C-16.86625 53.278125 -17.7325 52.55625 -18.625 51.8125 C-24.08946605 47.85274199 -30.64817199 46.07029068 -37 44 C-37.27452647 70.60372648 -37.00430351 96.79389011 -32.87768555 123.15234375 C-32.74918213 123.99667969 -32.62067871 124.84101563 -32.48828125 125.7109375 C-32.37009033 126.44618652 -32.25189941 127.18143555 -32.13012695 127.93896484 C-31.98904287 130.17354619 -32.3473978 131.86950758 -33 134 C-33.46019397 131.28756257 -33.91328088 128.57417639 -34.359375 125.859375 C-34.8146407 123.11667677 -35.28413542 120.37864784 -35.765625 117.640625 C-36.03164408 116.07298349 -36.29726938 114.5052751 -36.5625 112.9375 C-36.68923096 112.23842529 -36.81596191 111.53935059 -36.9465332 110.8190918 C-39.61976958 94.70732854 -39.13744069 78.08594094 -39.0625 61.8125 C-39.05746585 59.87565222 -39.05290639 57.93880315 -39.04882812 56.00195312 C-39.0379951 51.33460244 -39.02084053 46.66731628 -39 42 C-41.64 41.67 -44.28 41.34 -47 41 C-49.24839982 68.29825748 -49.61165539 95.62315566 -50 123 C-50.33 123 -50.66 123 -51 123 C-51.05175712 115.37673938 -51.0861631 107.75352577 -51.10986328 100.13012695 C-51.1197689 97.55003162 -51.13329705 94.96994702 -51.15087891 92.38989258 C-51.26958304 74.49000817 -50.59393657 56.83070537 -49 39 C-52.63 38.34 -56.26 37.68 -60 37 C-60.495 35.515 -60.495 35.515 -61 34 C-58.21738023 34.50593087 -55.67290541 35.115846 -53 36.0625 C-42.37235735 39.05296222 -32.69229298 36.72566219 -23 32 C-20.89319261 30.76046858 -18.97656156 29.44235573 -17 28 C-16.34 28 -15.68 28 -15 28 C-15.33 26.35 -15.66 24.7 -16 23 C-14.906875 23.185625 -13.81375 23.37125 -12.6875 23.5625 C-9.06375867 24.2578068 -9.06375867 24.2578068 -6 23 C-5.505 21.515 -5.505 21.515 -5 20 C-3.35360035 18.64172029 -1.68704193 17.30745749 0 16 C2.32622007 11.34755986 0.98524838 4.9262419 0 0 Z " fill="#A1B29C" transform="translate(288,112)"/>
<path d="M0 0 C0.33 0 0.66 0 1 0 C1 6.93 1 13.86 1 21 C4.98649504 21.69002924 4.98649504 21.69002924 9 22 C8.67 26.62 8.34 31.24 8 36 C15.4462046 37.48924092 21.28041536 37.83820496 28.41796875 34.99609375 C35.5812282 32.51576213 42.23879753 32.54614691 49.75 32.75 C51.67199219 32.77707031 51.67199219 32.77707031 53.6328125 32.8046875 C56.75602336 32.85130259 59.87758874 32.91671862 63 33 C63 30.36 63 27.72 63 25 C63.33 25 63.66 25 64 25 C64 27.97 64 30.94 64 34 C57.31815401 38.15357994 50.92822192 39.84875684 43.24243164 40.9230957 C34.24053115 42.22767333 27.72674406 44.69547951 22 52 C20.39364178 54.57429202 19.1525621 57.19632568 18 60 C17.56880859 61.02673828 17.56880859 61.02673828 17.12890625 62.07421875 C15.55745863 66.02163503 14.53004505 69.75963957 14 74 C8.14245472 63.57010925 10.05036807 50.43408179 11 39 C9.77603516 38.566875 9.77603516 38.566875 8.52734375 38.125 C7.69332031 37.75375 6.85929687 37.3825 6 37 C5.855625 36.34 5.71125 35.68 5.5625 35 C5.376875 34.34 5.19125 33.68 5 33 C3.01276732 32.29618843 1.01222047 31.6288189 -1 31 C-1.9863703 28.04088911 -2.06614754 26.41670514 -1.9140625 23.359375 C-1.87023437 22.45316406 -1.82640625 21.54695313 -1.78125 20.61328125 C-1.7296875 19.66839844 -1.678125 18.72351563 -1.625 17.75 C-1.55925781 16.35587891 -1.55925781 16.35587891 -1.4921875 14.93359375 C-1.23578226 9.89807976 -0.81112046 4.97670517 0 0 Z " fill="#409A84" transform="translate(23,109)"/>
<path d="M0 0 C9.15564771 -0.34915606 17.95960217 0.72958023 27 2 C28.31361791 10.05763844 29.20715754 17.95726422 29.25 26.125 C29.25902344 26.83454834 29.26804688 27.54409668 29.27734375 28.27514648 C29.25271246 32.57382045 28.65661821 34.85845446 27 39 C22.71 38.67 18.42 38.34 14 38 C11.34992622 30.04977866 10.86454838 23.40781461 10.9375 15.125 C10.94201172 14.15046875 10.94652344 13.1759375 10.95117188 12.171875 C10.96289094 9.78118566 10.97929781 7.3906256 11 5 C9.35837891 5.04640625 9.35837891 5.04640625 7.68359375 5.09375 C3.75012638 4.99364054 2.12722563 4.27434591 -1 2 C-0.67 1.34 -0.34 0.68 0 0 Z " fill="#A1AEB4" transform="translate(152,206)"/>
<path d="M0 0 C3.16273531 1.58136766 3.89919397 4.80451734 5 8 C6.52779842 14.19548603 8.01362555 23.17561415 4.953125 28.98828125 C1.60715733 32.32440784 -1.25472509 33.15333377 -5.8125 33.1875 C-9.64073797 33.15979929 -12.56059901 32.83434719 -16 31 C-13 30 -13 30 -10 30 C-10.66 29.01 -11.32 28.02 -12 27 C-12 25.68 -12 24.36 -12 23 C-14.97 21.35 -17.94 19.7 -21 18 C-21 17.34 -21 16.68 -21 16 C-21.598125 15.79375 -22.19625 15.5875 -22.8125 15.375 C-25.81319776 13.48884712 -26.48284486 11.16073987 -28 8 C-28.721875 7.278125 -29.44375 6.55625 -30.1875 5.8125 C-30.785625 5.214375 -31.38375 4.61625 -32 4 C-32 3.01 -32 2.02 -32 1 C-20.62582692 0.51996456 -10.8444904 0.4370064 -1 7 C0.76549935 13.41999764 1.347655 22.04861333 -2 28 C-2.66 28.66 -3.32 29.32 -4 30 C-1.05908413 29.81584568 -1.05908413 29.81584568 2 29 C5.06965182 24.50260315 4.47929269 19.2087838 4 14 C3.38748368 11.56860898 2.62566076 9.29094595 1.734375 6.94921875 C0.87569322 4.67005807 0.38735485 2.40160004 0 0 Z " fill="#F3AE8F" transform="translate(250,34)"/>
<path d="M0 0 C0.66 0.33 1.32 0.66 2 1 C2.6328125 3.28515625 2.6328125 3.28515625 3.125 6.0625 C3.29257813 6.98160156 3.46015625 7.90070313 3.6328125 8.84765625 C3.75398438 9.55792969 3.87515625 10.26820313 4 11 C4.85464844 10.98839844 5.70929688 10.97679687 6.58984375 10.96484375 C7.69457031 10.95582031 8.79929687 10.94679687 9.9375 10.9375 C11.03964844 10.92589844 12.14179687 10.91429687 13.27734375 10.90234375 C16 11 16 11 17 12 C17.33364703 15.44881216 17.32487935 18.91211844 17.375 22.375 C17.41238281 23.34695312 17.44976562 24.31890625 17.48828125 25.3203125 C17.52122477 27.97043539 17.49329578 30.39530577 17 33 C14.1619993 35.61896038 12.69656349 35.94427492 8.875 36.25 C6 36 6 36 3 35 C1.515 35.495 1.515 35.495 0 36 C-1.39439664 36.06665376 -2.79169875 36.08538199 -4.1875 36.0625 C-5.445625 36.041875 -6.70375 36.02125 -8 36 C-8.15686786 32.15673748 -8.04291012 29.1438751 -6.9375 25.4375 C-5.93116347 21.74759939 -5.89899455 19.64178727 -7 16 C-7.99 15.34 -8.98 14.68 -10 14 C-9.37351562 13.79503906 -8.74703125 13.59007812 -8.1015625 13.37890625 C-7.28429687 13.10949219 -6.46703125 12.84007812 -5.625 12.5625 C-4.81289062 12.29566406 -4.00078125 12.02882812 -3.1640625 11.75390625 C-0.98968201 11.04820271 -0.98968201 11.04820271 1 10 C0.67 6.7 0.34 3.4 0 0 Z " fill="#F1D6C7" transform="translate(115,228)"/>
<path d="M0 0 C0.6290625 0.20496094 1.258125 0.40992188 1.90625 0.62109375 C3.19015625 1.02521484 3.19015625 1.02521484 4.5 1.4375 C5.75296875 1.83775391 5.75296875 1.83775391 7.03125 2.24609375 C10.68463967 3.17386244 14.25368442 3.58774519 18 4 C18.67678186 8.16508837 19.33959148 12.33228675 20 16.5 C20.19078125 17.67304688 20.3815625 18.84609375 20.578125 20.0546875 C21.53113107 26.11308323 22.24289989 31.86677782 22 38 C18.04 38.66 14.08 39.32 10 40 C6.77829399 31.19857336 4.25551603 22.39130641 2.1875 13.25 C1.96876221 12.28562012 1.75002441 11.32124023 1.5246582 10.32763672 C0 3.41789801 0 3.41789801 0 0 Z " fill="#19450B" transform="translate(92,195)"/>
<path d="M0 0 C0 0.66 0 1.32 0 2 C0.66 2 1.32 2 2 2 C6.48303033 8.1641667 6.66885392 13.50006427 6 21 C5.505 22.485 5.505 22.485 5 24 C4.01 24.33 3.02 24.66 2 25 C1.93941406 24.08476562 1.87882812 23.16953125 1.81640625 22.2265625 C1.73261719 21.03804687 1.64882812 19.84953125 1.5625 18.625 C1.48128906 17.44164063 1.40007812 16.25828125 1.31640625 15.0390625 C1.18915064 12.08481099 1.18915064 12.08481099 0 10 C-2.11884756 10.45403876 -3.8055426 10.87892275 -5.65625 12.03125 C-8.98801432 13.40837925 -12.20986039 13.21199776 -15.75 13.125 C-16.79607422 13.11146484 -16.79607422 13.11146484 -17.86328125 13.09765625 C-19.57566958 13.07419888 -21.28788004 13.03833104 -23 13 C-23.33 17.62 -23.66 22.24 -24 27 C-26 26 -26 26 -27 23 C-27.66 22.67 -28.32 22.34 -29 22 C-30.48624743 15.31188658 -29.47386455 9.62630011 -28 3 C-27.34 3 -26.68 3 -26 3 C-25.67 2.01 -25.34 1.02 -25 0 C-17.23296394 -4.29929331 -7.52992429 -4.75574166 0 0 Z " fill="#325825" transform="translate(74,5)"/>
<path d="M0 0 C1.98 0.66 3.96 1.32 6 2 C6.53383597 8.13911369 5.28362474 13.7097157 2 19 C-0.140625 19.7890625 -0.140625 19.7890625 -2 20 C-2.66 19.01 -3.32 18.02 -4 17 C-5.32 17.33 -6.64 17.66 -8 18 C-7.86722656 19.25554687 -7.73445313 20.51109375 -7.59765625 21.8046875 C-7.41925653 23.49479016 -7.24087192 25.18489441 -7.0625 26.875 C-6.97548828 27.69742188 -6.88847656 28.51984375 -6.79882812 29.3671875 C-6.62000909 31.06265687 -6.44365621 32.75838782 -6.26953125 34.4543457 C-6.09775598 36.07671958 -5.91411222 37.69791175 -5.71484375 39.31713867 C-4.89147106 46.3724134 -4.84761486 53.41018998 -4.86962891 60.50463867 C-4.87499977 62.56241184 -4.86964674 64.6199677 -4.86328125 66.67773438 C-4.86018637 73.52392268 -5.05512065 80.2133666 -6 87 C-6.33 87 -6.66 87 -7 87 C-7.01981934 85.77297363 -7.03963867 84.54594727 -7.06005859 83.28173828 C-7.59506777 49.59429774 -7.59506777 49.59429774 -10 16 C-10.6496875 16.99 -10.6496875 16.99 -11.3125 18 C-11.869375 18.66 -12.42625 19.32 -13 20 C-13.99 20 -14.98 20 -16 20 C-16.67364661 17.91891315 -17.33866798 15.8350329 -18 13.75 C-18.37125 12.58984375 -18.7425 11.4296875 -19.125 10.234375 C-20 7 -20 7 -20 3 C-17 1 -17 1 -14.4375 1.125 C-12 2 -12 2 -10.6875 4.0625 C-10.3471875 5.0215625 -10.3471875 5.0215625 -10 6 C-7.71305777 6.50379029 -7.71305777 6.50379029 -5 6 C-3.00977164 4.16038352 -1.61010101 2.20813852 0 0 Z " fill="#0F6D2E" transform="translate(71,47)"/>
<path d="M0 0 C1.65 1.32 3.3 2.64 5 4 C3.36053412 8.66617211 3.36053412 8.66617211 1.3125 10.5625 C0.6628125 11.2740625 0.6628125 11.2740625 0 12 C0.43515708 15.07809637 1.53146053 16.96558513 3.4375 19.375 C7.68888505 25.17457729 8.83522306 30.90060396 8 38 C6.9375 40.5625 6.9375 40.5625 5 42 C1.3125 42.25 1.3125 42.25 -2 42 C-2.33 42.66 -2.66 43.32 -3 44 C-3 43.34 -3 42.68 -3 42 C-3.61875 41.731875 -4.2375 41.46375 -4.875 41.1875 C-7 40 -7 40 -9 37 C-9.01171875 35.01953125 -9.01171875 35.01953125 -8.6875 32.8125 C-8.58179688 32.02101562 -8.47609375 31.22953125 -8.3671875 30.4140625 C-8.1316831 28.86574635 -7.88764367 27.31869033 -7.6328125 25.7734375 C-7.03587555 21.88606759 -6.6575958 19.30692357 -9 16 C-8.360625 15.38125 -7.72125 14.7625 -7.0625 14.125 C-4.96116416 12.17402388 -4.96116416 12.17402388 -4 10 C-3.34 10 -2.68 10 -2 10 C-2 9.34 -2 8.68 -2 8 C-3.32 8 -4.64 8 -6 8 C-6.33 8.99 -6.66 9.98 -7 11 C-7.66 11 -8.32 11 -9 11 C-7.63501982 6.08607135 -5.23958284 4.61591282 -1 2 C-0.67 1.34 -0.34 0.68 0 0 Z " fill="#F3D3C5" transform="translate(197,136)"/>
<path d="M0 0 C0.08107583 1.93681161 0.13922475 3.8745934 0.1875 5.8125 C0.23970703 7.43091797 0.23970703 7.43091797 0.29296875 9.08203125 C0 12 0 12 -1.09375 13.75 C-7.72443838 18.09799238 -17.18062841 19.76660506 -25 19 C-26 18 -26 18 -26.5 15.5 C-25.64019267 9.48134866 -21.20547228 5.20547228 -17 1 C-14.86328125 0.5859375 -14.86328125 0.5859375 -12.3125 0.375 C-11.42433594 0.30152344 -10.53617188 0.22804687 -9.62109375 0.15234375 C-6.40037954 -0.03485126 -3.22494003 -0.07010739 0 0 Z " fill="#1E4910" transform="translate(57,246)"/>
<path d="M0 0 C4.19171856 3.50934577 6.59899918 6.42213761 7.4375 11.8125 C6.84853927 16.10349963 4.88421372 18.82736491 2 22 C-1.17878694 23.58939347 -3.4956772 23.41576711 -7 23 C-10.83807038 19.82602322 -12.82097971 16.17357742 -13.5625 11.3125 C-13.54121375 8.40160577 -13.1923472 7.24883751 -11.390625 4.91796875 C-7.6712003 1.48519144 -5.26921321 -0.72086956 0 0 Z " fill="#FCB294" transform="translate(124,106)"/>
<path d="M0 0 C3.97560946 0.63248332 5.88552227 2.70033239 8.75 5.4375 C10.75 8.4375 10.75 8.4375 10.625 11.75 C9.35933716 17.08386484 7.31792628 20.39221581 2.75 23.4375 C-0.625 23.9375 -0.625 23.9375 -4.25 23.4375 C-7.58458323 20.74145398 -8.90941667 19.17364431 -9.73046875 14.98828125 C-9.98712127 10.34772614 -9.82225923 8.16035376 -6.875 4.4375 C-6.00875 3.7775 -5.1425 3.1175 -4.25 2.4375 C-2.25 0.4375 -2.25 0.4375 0 0 Z " fill="#F9B093" transform="translate(176.25,126.5625)"/>
<path d="M0 0 C0.99 0 1.98 0 3 0 C4.796875 2.1953125 4.796875 2.1953125 6.75 5.125 C10.1252139 9.92723448 13.16351166 13.65166192 18 17 C22.71032888 16.53638495 25.86415146 13.30515492 29 10 C30.17997192 8.18225512 30.17997192 8.18225512 31.125 6.3125 C33.09053233 2.84005955 34.45097299 1.67592942 38 0 C35.39036911 10.96502803 30.44438635 18.03570468 22.24609375 25.6640625 C20 27 20 27 17.53515625 26.9609375 C11.48887904 24.66912826 8.5538021 20.27884976 5.3125 15 C4.92255859 14.38382813 4.53261719 13.76765625 4.13085938 13.1328125 C-1.12623466 4.75740798 -1.12623466 4.75740798 -0.625 1.75 C-0.41875 1.1725 -0.2125 0.595 0 0 Z " fill="#11823C" transform="translate(231,120)"/>
<path d="M0 0 C13.22708375 -1.36309642 13.22708375 -1.36309642 17.33203125 1.79296875 C19.72939441 5.27526999 20.86781765 8.20690592 21.5625 12.375 C20.91105436 15.41507964 20.47070834 16.17157224 18 18 C13.56808744 18.859487 9.43312292 18.84889588 5 18 C2.03866713 15.82757091 0.94160248 13.50859019 0 10 C-0.34516632 6.61545245 -0.31212551 3.38482772 0 0 Z " fill="#1E4911" transform="translate(62,247)"/>
<path d="M0 0 C0.14505175 3.43705705 0.23398014 6.87333033 0.3125 10.3125 C0.3753418 11.77719727 0.3753418 11.77719727 0.43945312 13.27148438 C0.48519594 15.93371599 0.47280132 18.37894196 0 21 C-2.90997592 23.71335593 -4.35841866 23.96368408 -8.3125 24.1875 C-9.199375 24.125625 -10.08625 24.06375 -11 24 C-10.34 23.34 -9.68 22.68 -9 22 C-9.33 21.67 -9.66 21.34 -10 21 C-10.08669432 19.5112814 -10.10703494 18.018555 -10.09765625 16.52734375 C-10.09443359 15.62822266 -10.09121094 14.72910156 -10.08789062 13.80273438 C-10.07951172 12.85720703 -10.07113281 11.91167969 -10.0625 10.9375 C-10.05798828 9.98810547 -10.05347656 9.03871094 -10.04882812 8.06054688 C-10.0370011 5.70696935 -10.02052025 3.35351523 -10 1 C-8.71073008 0.63720544 -7.41846728 0.28503302 -6.125 -0.0625 C-5.40570313 -0.25972656 -4.68640625 -0.45695313 -3.9453125 -0.66015625 C-2 -1 -2 -1 0 0 Z " fill="#F2D4C5" transform="translate(132,240)"/>
<path d="M0 0 C3.09249667 3.09249667 3.6553272 6.70917535 4 11 C2.82990798 14.96531186 1.84359506 17.25013773 -1.25 20 C-1.8275 20.66 -2.405 21.32 -3 22 C-2.80765878 25.35278304 -2.80765878 25.35278304 -2 29 C-1.54765649 33.17425769 -1.57235274 36.2397382 -3.6875 40 C-6 42 -6 42 -8.75 42.3125 C-9.4925 42.209375 -10.235 42.10625 -11 42 C-12.58255197 37.67435795 -13.45144652 33.571279 -14 29 C-14.99 29.33 -15.98 29.66 -17 30 C-16.67 31.32 -16.34 32.64 -16 34 C-16.99 34.495 -16.99 34.495 -18 35 C-18 33.02 -18 31.04 -18 29 C-17.01 28.67 -16.02 28.34 -15 28 C-15.33 26.35 -15.66 24.7 -16 23 C-14.906875 23.185625 -13.81375 23.37125 -12.6875 23.5625 C-9.06375867 24.2578068 -9.06375867 24.2578068 -6 23 C-5.67 22.01 -5.34 21.02 -5 20 C-3.35360035 18.64172029 -1.68704193 17.30745749 0 16 C2.32622007 11.34755986 0.98524838 4.9262419 0 0 Z " fill="#F2CBB6" transform="translate(288,112)"/>
<path d="M0 0 C0.33 0 0.66 0 1 0 C1.07476562 0.8971875 1.14953125 1.794375 1.2265625 2.71875 C2.07615411 10.78154099 3.67490511 17.78100242 6.79150391 25.27929688 C10.41512424 34.06410918 11.28803806 42.08748022 11.125 51.5625 C11.11597656 52.57119141 11.10695313 53.57988281 11.09765625 54.61914062 C11.07433356 57.07968457 11.04160763 59.53970896 11 62 C10.01 62.495 10.01 62.495 9 63 C6.21782373 52.0240179 4.06288579 41.10934718 2.56201172 29.88598633 C2.24664573 27.53752146 1.91512615 25.19171236 1.58203125 22.84570312 C0.52073813 15.19600133 -0.27895122 7.74089633 0 0 Z " fill="#DDF5E7" transform="translate(274,175)"/>
<path d="M0 0 C1.47906892 -0.02689216 2.95827483 -0.04634621 4.4375 -0.0625 C5.26121094 -0.07410156 6.08492187 -0.08570313 6.93359375 -0.09765625 C9 0 9 0 10 1 C10.15313272 3.4942965 10.23156517 5.94188493 10.25 8.4375 C10.270625 9.13166016 10.29125 9.82582031 10.3125 10.54101562 C10.328125 12.55859375 10.328125 12.55859375 10 16 C5.80117625 18.79921583 3.87872887 17.86558093 -1 17 C-2 16 -2 16 -2.1875 12.4375 C-2.14774773 8.04089906 -1.2047916 4.21677059 0 0 Z " fill="#204B13" transform="translate(169,244)"/>
<path d="M0 0 C0.33 0 0.66 0 1 0 C2.52016163 8.41518047 3.27733386 16.4488728 3 25 C2.52949219 24.65066406 2.05898438 24.30132812 1.57421875 23.94140625 C0.64029297 23.25884766 0.64029297 23.25884766 -0.3125 22.5625 C-1.23482422 21.88380859 -1.23482422 21.88380859 -2.17578125 21.19140625 C-4.09677101 19.82663692 -4.09677101 19.82663692 -7 19 C-7.12117188 18.22914063 -7.24234375 17.45828125 -7.3671875 16.6640625 C-7.53476562 15.66117188 -7.70234375 14.65828125 -7.875 13.625 C-8.03742188 12.62726563 -8.19984375 11.62953125 -8.3671875 10.6015625 C-8.7958802 7.8574885 -8.7958802 7.8574885 -11 6 C-10.28972656 5.65066406 -9.57945312 5.30132812 -8.84765625 4.94140625 C-7.92855469 4.48636719 -7.00945312 4.03132812 -6.0625 3.5625 C-4.68771484 2.88380859 -4.68771484 2.88380859 -3.28515625 2.19140625 C-1.09471096 1.19474606 -1.09471096 1.19474606 0 0 Z " fill="#62A594" transform="translate(269,141)"/>
<path d="M0 0 C0.73863281 0.18820312 1.47726563 0.37640625 2.23828125 0.5703125 C2.55078125 2.8828125 2.55078125 2.8828125 2.23828125 5.5703125 C0.078125 7.21484375 0.078125 7.21484375 -2.76171875 8.5703125 C-3.64730469 9.02792969 -4.53289062 9.48554688 -5.4453125 9.95703125 C-6.35410156 10.38628906 -7.26289063 10.81554687 -8.19921875 11.2578125 C-9.10542969 11.69480469 -10.01164063 12.13179688 -10.9453125 12.58203125 C-14.05079982 13.67175149 -16.49463123 13.74834231 -19.76171875 13.5703125 C-20.09171875 12.2503125 -20.42171875 10.9303125 -20.76171875 9.5703125 C-14.32591071 2.36170074 -10.12603835 -1.82706156 0 0 Z " fill="#264F19" transform="translate(241.76171875,258.4296875)"/>
<path d="M0 0 C2.97 0 5.94 0 9 0 C10.2982126 5.76081841 11.25706972 11.08739655 11 17 C7.74696956 18.62651522 4.60774398 18.11453156 1 18 C0 17 0 17 -0.09765625 13.18359375 C-0.09098089 11.60153318 -0.07901875 10.01948841 -0.0625 8.4375 C-0.05798828 7.63119141 -0.05347656 6.82488281 -0.04882812 5.99414062 C-0.03700518 3.99606244 -0.01906914 1.99802217 0 0 Z " fill="#214B14" transform="translate(181,244)"/>
<path d="M0 0 C1.65 1.32 3.3 2.64 5 4 C3.36053412 8.66617211 3.36053412 8.66617211 1.3125 10.5625 C0.6628125 11.2740625 0.6628125 11.2740625 0 12 C0.20231652 14.83243123 1.45857733 17.0229802 2.625 19.625 C3.07875 20.73875 3.5325 21.8525 4 23 C3.67 23.66 3.34 24.32 3 25 C2.67 24.01 2.34 23.02 2 22 C0.68 22 -0.64 22 -2 22 C-2.33 23.32 -2.66 24.64 -3 26 C-3 24.68 -3 23.36 -3 22 C-3.66 22 -4.32 22 -5 22 C-5.33 23.98 -5.66 25.96 -6 28 C-7 25 -7 25 -6.9375 22.5625 C-7.00471291 19.80677058 -7.61086976 18.34415727 -9 16 C-8.360625 15.38125 -7.72125 14.7625 -7.0625 14.125 C-4.96116416 12.17402388 -4.96116416 12.17402388 -4 10 C-3.34 10 -2.68 10 -2 10 C-2 9.34 -2 8.68 -2 8 C-3.32 8 -4.64 8 -6 8 C-6.33 8.99 -6.66 9.98 -7 11 C-7.66 11 -8.32 11 -9 11 C-7.63501982 6.08607135 -5.23958284 4.61591282 -1 2 C-0.67 1.34 -0.34 0.68 0 0 Z " fill="#F3B292" transform="translate(197,136)"/>
<path d="M0 0 C0.33 0 0.66 0 1 0 C1 6.93 1 13.86 1 21 C4.98649504 21.69002924 4.98649504 21.69002924 9 22 C8.67 26.62 8.34 31.24 8 36 C9.32 36.66 10.64 37.32 12 38 C12 47.57 12 57.14 12 67 C11.67 67 11.34 67 11 67 C9.63287151 57.5820037 10.33106349 48.4474418 11 39 C9.77603516 38.566875 9.77603516 38.566875 8.52734375 38.125 C7.69332031 37.75375 6.85929687 37.3825 6 37 C5.855625 36.34 5.71125 35.68 5.5625 35 C5.376875 34.34 5.19125 33.68 5 33 C3.01276732 32.29618843 1.01222047 31.6288189 -1 31 C-1.9863703 28.04088911 -2.06614754 26.41670514 -1.9140625 23.359375 C-1.87023437 22.45316406 -1.82640625 21.54695313 -1.78125 20.61328125 C-1.7296875 19.66839844 -1.678125 18.72351563 -1.625 17.75 C-1.55925781 16.35587891 -1.55925781 16.35587891 -1.4921875 14.93359375 C-1.23578226 9.89807976 -0.81112046 4.97670517 0 0 Z " fill="#D9E3D7" transform="translate(23,109)"/>
<path d="M0 0 C3.16273531 1.58136766 3.89919397 4.80451734 5 8 C6.52779842 14.19548603 8.01362555 23.17561415 4.953125 28.98828125 C1.60715733 32.32440784 -1.25472509 33.15333377 -5.8125 33.1875 C-9.64073797 33.15979929 -12.56059901 32.83434719 -16 31 C-13 30 -13 30 -10 30 C-10.66 29.01 -11.32 28.02 -12 27 C-11.625 24.8125 -11.625 24.8125 -11 23 C-7.535 22.505 -7.535 22.505 -4 22 C-3.01 19.03 -2.02 16.06 -1 13 C-0.67 13 -0.34 13 0 13 C0.37659963 23.77493398 0.37659963 23.77493398 -2 28 C-2.66 28.66 -3.32 29.32 -4 30 C-1.05908413 29.81584568 -1.05908413 29.81584568 2 29 C5.06965182 24.50260315 4.47929269 19.2087838 4 14 C3.38748368 11.56860898 2.62566076 9.29094595 1.734375 6.94921875 C0.87569322 4.67005807 0.38735485 2.40160004 0 0 Z " fill="#B6BFB0" transform="translate(250,34)"/>
<path d="M0 0 C0.33 0 0.66 0 1 0 C1.21505217 13.82950887 1.33340344 27.32883262 -1 41 C-1.11778809 41.71075684 -1.23557617 42.42151367 -1.35693359 43.15380859 C-3.67986342 57.03976687 -3.67986342 57.03976687 -6 61 C-6.33 60.67 -6.66 60.34 -7 60 C-9.32817964 59.63239269 -11.6618385 59.29758419 -14 59 C-14.33 57.35 -14.66 55.7 -15 54 C-11.7 54.33 -8.4 54.66 -5 55 C-4.87625 53.494375 -4.7525 51.98875 -4.625 50.4375 C-4.24096441 46.13738317 -3.69962574 41.89424411 -3.0625 37.625 C-1.33468104 25.16651591 -0.78600237 12.54697348 0 0 Z " fill="#125E21" transform="translate(38,72)"/>
<path d="M0 0 C2.4375 0.875 2.4375 0.875 3.75 2.9375 C4.0903125 3.8965625 4.0903125 3.8965625 4.4375 4.875 C5.0975 4.875 5.7575 4.875 6.4375 4.875 C6.03624358 10.49258986 4.31167866 13.00082134 0.4375 16.875 C-0.5525 16.875 -1.5425 16.875 -2.5625 16.875 C-3.06886607 15.12683142 -3.56734619 13.37637737 -4.0625 11.625 C-4.3409375 10.65046875 -4.619375 9.6759375 -4.90625 8.671875 C-5.5625 5.875 -5.5625 5.875 -5.5625 1.875 C-2.5625 -0.125 -2.5625 -0.125 0 0 Z " fill="#108042" transform="translate(56.5625,48.125)"/>
<path d="M0 0 C0.33 0 0.66 0 1 0 C1.50604924 2.39469729 2.00499517 4.79051717 2.5 7.1875 C2.64308594 7.86103516 2.78617188 8.53457031 2.93359375 9.22851562 C3.68317878 12.88720447 4.10654523 16.27091692 4 20 C4.29749946 21.67343448 4.62127066 23.34305915 5 25 C-2.59385666 29.86006826 -2.59385666 29.86006826 -8 29 C-9.875 27.875 -9.875 27.875 -11 26 C-11.1875 22.8125 -11.1875 22.8125 -11 20 C-10.67 20.66 -10.34 21.32 -10 22 C-8.948125 21.67 -7.89625 21.34 -6.8125 21 C-3.5690557 20.14926051 -1.28523991 19.90921617 2 20 C1.855625 19.14277344 1.71125 18.28554687 1.5625 17.40234375 C0.61141112 11.54390042 -0.2761941 5.93817322 0 0 Z " fill="#267E4B" transform="translate(112,213)"/>
<path d="M0 0 C0.19392201 5.52677733 -0.2520497 9.75614911 -2 15 C-4.3125 15.25 -4.3125 15.25 -7 15 C-9.71139698 12.12910908 -10.52980507 9.59498575 -11.1875 5.75 C-11.34605469 4.85796875 -11.50460938 3.9659375 -11.66796875 3.046875 C-11.77753906 2.37140625 -11.88710937 1.6959375 -12 1 C-10.37512529 0.83211627 -8.75009558 0.66573213 -7.125 0.5 C-6.22007812 0.4071875 -5.31515625 0.314375 -4.3828125 0.21875 C-2 0 -2 0 0 0 Z " fill="#274F19" transform="translate(265,259)"/>
<path d="M0 0 C2 1 2 1 2.62841797 2.80615234 C4.11420933 10.11636457 4.23284559 17.18365409 4.125 24.625 C4.11597656 25.81996094 4.10695313 27.01492187 4.09765625 28.24609375 C4.07431077 31.16427834 4.04156656 34.08202776 4 37 C4.66 37 5.32 37 6 37 C5.505 41.95 5.505 41.95 5 47 C4.34 45.68 3.68 44.36 3 43 C2.01 43.495 2.01 43.495 1 44 C1.16113281 42.89140625 1.32226562 41.7828125 1.48828125 40.640625 C2.1054149 35.67297215 2.19113632 30.75130511 2.1875 25.75 C2.18814453 24.83065674 2.18878906 23.91131348 2.18945312 22.96411133 C2.13645381 16.12418834 1.54917895 9.68083421 0 3 C-0.67095703 3.72316406 -0.67095703 3.72316406 -1.35546875 4.4609375 C-6.0969238 9.41469651 -9.33054336 11.98114604 -16.3125 12.375 C-22.46395341 12.23146609 -26.98705057 9.81165449 -31.5 5.75 C-31.995 5.1725 -32.49 4.595 -33 4 C-32.67 3.34 -32.34 2.68 -32 2 C-31.55269531 2.40992187 -31.10539063 2.81984375 -30.64453125 3.2421875 C-25.07563071 8.36572664 -25.07563071 8.36572664 -17.90234375 10.02734375 C-9.89268129 9.50584653 -5.42187491 5.74080873 0 0 Z " fill="#B4BEAF" transform="translate(264,65)"/>
<path d="M0 0 C1.98 0.66 3.96 1.32 6 2 C3.10933941 13.70615034 3.10933941 13.70615034 0 18 C-3.82669043 14.57611908 -5.72278474 11.99275057 -7 7 C-6.21625 6.401875 -5.4325 5.80375 -4.625 5.1875 C-1.85425677 3.08914751 -1.85425677 3.08914751 0 0 Z " fill="#10894A" transform="translate(71,47)"/>
<path d="M0 0 C1.15941038 3.47823115 0.70820884 5.45895578 0 9 C0.99 9.33 1.98 9.66 3 10 C3 11.98 3 13.96 3 16 C0.9375 17.1875 0.9375 17.1875 -2 18 C-4.54812724 17.27873258 -6.62082896 16.21291073 -9 15 C-9 13.02 -9 11.04 -9 9 C-8.01 8.67 -7.02 8.34 -6 8 C-4.79117904 5.99983534 -4.79117904 5.99983534 -4 4 C-3.34 4.33 -2.68 4.66 -2 5 C-1.34 3.35 -0.68 1.7 0 0 Z " fill="#F9B395" transform="translate(164,165)"/>
<path d="M0 0 C1.65808821 2.9182146 2.25978517 5.05449297 2.31884766 8.40136719 C2.33871735 9.2619574 2.35858704 10.12254761 2.37905884 11.00921631 C2.39638565 12.38910736 2.39638565 12.38910736 2.4140625 13.796875 C2.43342865 14.74564514 2.4527948 15.69441528 2.4727478 16.67193604 C2.53245659 19.69786633 2.57889433 22.72383484 2.625 25.75 C2.66318777 27.80340187 2.70223997 29.85678786 2.7421875 31.91015625 C2.83815108 36.93997496 2.92221446 41.96986865 3 47 C2.01 47 1.02 47 0 47 C-0.70317843 36.35186948 -1.10553582 25.73535636 -1.125 15.0625 C-1.12951172 14.02673828 -1.13402344 12.99097656 -1.13867188 11.92382812 C-1.13673828 10.94994141 -1.13480469 9.97605469 -1.1328125 8.97265625 C-1.13168457 8.10906494 -1.13055664 7.24547363 -1.12939453 6.35571289 C-1.00576514 4.1049582 -0.62841932 2.15890432 0 0 Z " fill="#C3EBD7" transform="translate(87,92)"/>
<path d="M0 0 C0.33 0 0.66 0 1 0 C1.30985219 4.53855711 1.61285774 9.07749869 1.90942383 13.61694336 C2.01136485 15.16231727 2.11520206 16.70756728 2.22094727 18.25268555 C2.37229794 20.46894255 2.51690518 22.68555037 2.66015625 24.90234375 C2.70906509 25.5971434 2.75797394 26.29194305 2.80836487 27.00779724 C2.91245041 28.66983442 2.96176577 30.3351458 3 32 C2 33 2 33 -0.46875 33.1328125 C-1.96921875 33.12894531 -1.96921875 33.12894531 -3.5 33.125 C-4.5003125 33.12757813 -5.500625 33.13015625 -6.53125 33.1328125 C-9 33 -9 33 -10 32 C-10.04080783 30.00041636 -10.04254356 27.99954746 -10 26 C-9.67 26.66 -9.34 27.32 -9 28 C-5.7 27.67 -2.4 27.34 1 27 C0.835 25.515 0.67 24.03 0.5 22.5 C-0.19582319 15.00275013 -0.08492491 7.52057289 0 0 Z " fill="#358757" transform="translate(128,207)"/>
<path d="M0 0 C2 1 2 1 2.80859375 2.828125 C3 5 3 5 1.78515625 6.921875 C1.21667969 7.52515625 0.64820312 8.1284375 0.0625 8.75 C-0.50339844 9.36359375 -1.06929687 9.9771875 -1.65234375 10.609375 C-2.09707031 11.06828125 -2.54179688 11.5271875 -3 12 C-7.59407832 11.50334288 -7.59407832 11.50334288 -9.5625 9.0625 C-10.036875 8.381875 -10.51125 7.70125 -11 7 C-13.08334635 5.7483533 -13.08334635 5.7483533 -15 5 C-13.68 5 -12.36 5 -11 5 C-11 4.34 -11 3.68 -11 3 C-9.9275 3.061875 -8.855 3.12375 -7.75 3.1875 C-3.89133813 2.99456691 -2.71182212 2.60334924 0 0 Z " fill="#A1A17F" transform="translate(69,42)"/>
<path d="M0 0 C-2 2 -2 2 -4.34375 2.82421875 C-7.62442209 4.2763986 -9.18228119 6.09081259 -11.5 8.8125 C-14.56362211 12.34666173 -17.64026912 15.74864753 -21 19 C-20.74535902 16.8729989 -20.47077058 14.74837785 -20.1875 12.625 C-20.03667969 11.44164062 -19.88585937 10.25828125 -19.73046875 9.0390625 C-19 6 -19 6 -16 4 C-13.66666667 3.33333333 -11.33333333 2.66666667 -9 2 C-5.5647952 -0.29013653 -4.014669 -0.17842973 0 0 Z " fill="#DCF3E5" transform="translate(284,253)"/>
<path d="M0 0 C2.97 0.495 2.97 0.495 6 1 C5.37528809 1.22373291 4.75057617 1.44746582 4.10693359 1.67797852 C1.23995763 3.47689796 1.09131149 4.90110961 0.2890625 8.15234375 C0.01666748 9.22677734 -0.25572754 10.30121094 -0.53637695 11.40820312 C-0.81312256 12.57287109 -1.08986816 13.73753906 -1.375 14.9375 C-1.67172607 16.12923828 -1.96845215 17.32097656 -2.27416992 18.54882812 C-4.71972607 28.48988041 -6.94761079 38.48385727 -9.04638672 48.50366211 C-9.27471191 49.57495361 -9.50303711 50.64624512 -9.73828125 51.75 C-9.93462158 52.69359375 -10.13096191 53.6371875 -10.33325195 54.609375 C-11 57 -11 57 -13 60 C-12.29956359 53.03783091 -10.79917436 46.36553012 -9.1875 39.5625 C-8.91905273 38.41467041 -8.65060547 37.26684082 -8.37402344 36.08422852 C-7.58675665 32.72184505 -6.79412948 29.36076832 -6 26 C-5.59485894 24.27869128 -5.18988924 22.55734221 -4.78515625 20.8359375 C-4.28006083 18.68876327 -3.7746186 16.54167763 -3.26733398 14.39501953 C-2.13639627 9.60537994 -1.04905917 4.80818785 0 0 Z " fill="#BEB7A0" transform="translate(233,150)"/>
<path d="M0 0 C3.14221458 0.83792389 5.44650556 1.46559157 7.8125 3.75 C9.25437417 6.48197211 9.65301967 8.9465731 10 12 C9.34 11.67 8.68 11.34 8 11 C8 10.34 8 9.68 8 9 C6.68 9 5.36 9 4 9 C3.67 10.32 3.34 11.64 3 13 C3 11.68 3 10.36 3 9 C2.34 9 1.68 9 1 9 C0.67 10.98 0.34 12.96 0 15 C-1 12 -1 12 -0.9375 9.5625 C-1.00471291 6.80677058 -1.61086976 5.34415727 -3 3 C-2.01 2.01 -1.02 1.02 0 0 Z " fill="#D9AE91" transform="translate(191,149)"/>
<path d="M0 0 C2.08459878 4.02738431 3.56318926 8.16574117 5.0625 12.4375 C5.33126953 13.18837891 5.60003906 13.93925781 5.87695312 14.71289062 C7.19600857 18.45295557 8.36710255 22.06978499 9 26 C8.566875 25.525625 8.13375 25.05125 7.6875 24.5625 C5.97690387 22.76313043 5.97690387 22.76313043 3 22 C-1.10852102 14.77007016 -1.42720544 8.02027407 0 0 Z " fill="#55AC80" transform="translate(276,79)"/>
<path d="M0 0 C-0.46800711 4.05606165 -0.87953208 7.46588679 -3 11 C-5.375 10.8125 -5.375 10.8125 -8 10 C-9.86007925 6.72271751 -10 4.8340246 -10 1 C-6.59437148 0.22157062 -3.49234244 -0.09978121 0 0 Z " fill="#D0AD8E" transform="translate(100,132)"/>
<path d="M0 0 C2 1 2 1 3.125 3.875 C4.22393737 8.00024182 4.03130706 11.96031238 3.9375 16.19921875 C4.02971298 20.33151305 4.95349141 24.01018599 6 28 C5.38125 27.175 4.7625 26.35 4.125 25.5 C3.42375 24.675 2.7225 23.85 2 23 C1.34 23 0.68 23 0 23 C0 15.41 0 7.82 0 0 Z " fill="#1B8643" transform="translate(272,71)"/>
<path d="M0 0 C0.86625 0.7115625 0.86625 0.7115625 1.75 1.4375 C3.92582084 2.9484867 5.42602448 3.54036151 8 4 C8.061875 4.928125 8.061875 4.928125 8.125 5.875 C8.41375 6.57625 8.7025 7.2775 9 8 C11.91666667 9.25 11.91666667 9.25 15 10 C15.66 10.33 16.32 10.66 17 11 C15 13 15 13 11.125 13.5 C8.96484375 13.4609375 8.96484375 13.4609375 7 13 C4.6875 10.125 4.6875 10.125 3 7 C2.01 6.34 1.02 5.68 0 5 C-0.1875 2.375 -0.1875 2.375 0 0 Z " fill="#E4CDBD" transform="translate(146,173)"/>
<path d="M0 0 C0.33 0 0.66 0 1 0 C1.61016949 8.72881356 1.61016949 8.72881356 -0.5 13.125 C-4.1314309 15.84857317 -6.53542721 15.37204773 -11 15 C-10.67 13.35 -10.34 11.7 -10 10 C-6.535 9.505 -6.535 9.505 -3 9 C-2.01 6.03 -1.02 3.06 0 0 Z " fill="#73A998" transform="translate(249,47)"/>
<path d="M0 0 C-0.556875 0.24234375 -1.11375 0.4846875 -1.6875 0.734375 C-3.29015989 1.4382459 -4.88888574 2.15111668 -6.484375 2.87109375 C-8.04766767 3.57263347 -9.619457 4.25591043 -11.203125 4.91015625 C-16.38797864 7.19584554 -19.52539137 9.84456536 -22 15 C-23.21171363 18.625369 -24.17033069 22.26986076 -25 26 C-25.66 25.67 -26.32 25.34 -27 25 C-26.40266451 22.95632428 -25.79680343 20.91513957 -25.1875 18.875 C-24.85105469 17.73804687 -24.51460937 16.60109375 -24.16796875 15.4296875 C-21.19569802 6.70174869 -21.19569802 6.70174869 -17.2578125 4.390625 C-16.22398438 4.01421875 -15.19015625 3.6378125 -14.125 3.25 C-12.58199219 2.66992188 -12.58199219 2.66992188 -11.0078125 2.078125 C-10.01523437 1.72234375 -9.02265625 1.3665625 -8 1 C-7.11054687 0.60296875 -6.22109375 0.2059375 -5.3046875 -0.203125 C-3 -1 -3 -1 0 0 Z " fill="#B5DAC7" transform="translate(54,49)"/>
<path d="M0 0 C2.79318092 0.50785108 5.41653503 1.13329121 8.125 2 C12.96927536 3.43931906 17.98108044 3.65511945 23 4 C23 5.65 23 7.3 23 9 C19.34867608 8.08305366 15.70520384 7.13806368 12.0625 6.1875 C11.02158203 5.92646484 9.98066406 5.66542969 8.90820312 5.39648438 C7.91884766 5.13544922 6.92949219 4.87441406 5.91015625 4.60546875 C4.99371338 4.36981201 4.07727051 4.13415527 3.13305664 3.89135742 C2.0771936 3.4501355 2.0771936 3.4501355 1 3 C0.67 2.01 0.34 1.02 0 0 Z " fill="#60A28D" transform="translate(227,146)"/>
<path d="M0 0 C0.33 0 0.66 0 1 0 C0.69343615 6.62177926 -0.74288723 11.22125154 -4 17 C-7.78125 16.296875 -7.78125 16.296875 -9.75 13.625 C-11 11 -11 11 -11 8 C-11.66 8 -12.32 8 -13 8 C-13.33 8.99 -13.66 9.98 -14 11 C-14.33 10.34 -14.66 9.68 -15 9 C-14.0625 6.375 -14.0625 6.375 -13 4 C-9.72713318 6.7819368 -8.03572303 10.27954067 -6 14 C-3.52813545 11.03653214 -2.33751639 8.45958311 -1.3125 4.75 C-1.06113281 3.85796875 -0.80976562 2.9659375 -0.55078125 2.046875 C-0.36902344 1.37140625 -0.18726562 0.6959375 0 0 Z " fill="#135A1D" transform="translate(76,50)"/>
<path d="M0 0 C0.33 0 0.66 0 1 0 C1 1.65 1 3.3 1 5 C1.66 5 2.32 5 3 5 C4.0064275 6.66279327 5.00585407 8.32983484 6 10 C6.99 10.66 7.98 11.32 9 12 C9 12.66 9 13.32 9 14 C8.01 14 7.02 14 6 14 C5.67 14.66 5.34 15.32 5 16 C5 15.34 5 14.68 5 14 C4.38125 13.731875 3.7625 13.46375 3.125 13.1875 C1 12 1 12 -1 9 C-0.9765625 6.73828125 -0.9765625 6.73828125 -0.625 4.3125 C-0.51414063 3.50425781 -0.40328125 2.69601563 -0.2890625 1.86328125 C-0.19367188 1.24839844 -0.09828125 0.63351563 0 0 Z " fill="#D4C4B1" transform="translate(189,164)"/>
<path d="M0 0 C5.43559818 2.06552731 11.25493407 4.50986813 14 10 C14.039992 11.99960012 14.04346799 14.00047242 14 16 C12 15 12 15 10.375 11.8125 C8.22488771 7.82412376 5.33347896 5.74218945 1.609375 3.26171875 C1.07828125 2.84535156 0.5471875 2.42898437 0 2 C0 1.34 0 0.68 0 0 Z " fill="#96A7A7" transform="translate(147,153)"/>
<path d="M0 0 C3.7952131 1.49097658 5.61042731 3.75700849 8 7 C7.01 8.485 7.01 8.485 6 10 C2.63820226 8.55922954 0.40843732 6.75249979 -2 4 C-2 3.34 -2 2.68 -2 2 C-1.34 2 -0.68 2 0 2 C0 1.34 0 0.68 0 0 Z " fill="#1C7028" transform="translate(199,132)"/>
<path d="M0 0 C0.33 0.99 0.66 1.98 1 3 C-0.109375 4.97265625 -0.109375 4.97265625 -1.75 7.0625 C-2.28109375 7.75472656 -2.8121875 8.44695312 -3.359375 9.16015625 C-5 11 -5 11 -8 13 C-10.6875 13.125 -10.6875 13.125 -13 13 C-13.33 12.34 -13.66 11.68 -14 11 C-12.80375 10.484375 -11.6075 9.96875 -10.375 9.4375 C-5.7794364 7.17242684 -3.01707592 4.06848117 0 0 Z " fill="#1D9256" transform="translate(222,129)"/>
<path d="M0 0 C1.0765283 3.22958491 1 5.61619998 1 9 C1.291224 10.67453799 1.61070799 12.34550895 2 14 C1.34 12.68 0.68 11.36 0 10 C-2.38564077 10.57584432 -4.66682784 11.22227595 -7 12 C-6.6875 9.125 -6.6875 9.125 -6 6 C-5.01 5.34 -4.02 4.68 -3 4 C-2.67 4.33 -2.34 4.66 -2 5 C-1.34 3.35 -0.68 1.7 0 0 Z " fill="#C8AA8B" transform="translate(164,165)"/>
<path d="M0 0 C1.51400391 0.01740234 1.51400391 0.01740234 3.05859375 0.03515625 C4.07050781 0.04417969 5.08242187 0.05320313 6.125 0.0625 C7.29869141 0.07990234 7.29869141 0.07990234 8.49609375 0.09765625 C8.49609375 1.41765625 8.49609375 2.73765625 8.49609375 4.09765625 C7.05953521 4.17897088 5.62164545 4.23699184 4.18359375 4.28515625 C2.98283203 4.33736328 2.98283203 4.33736328 1.7578125 4.390625 C-0.98242209 4.03567233 -1.79561704 3.20399343 -3.50390625 1.09765625 C-2.50390625 0.09765625 -2.50390625 0.09765625 0 0 Z " fill="#2D5522" transform="translate(154.50390625,205.90234375)"/>
<path d="M0 0 C2.60018816 3.90028225 2.15085514 7.47434569 2 12 C1.67 12 1.34 12 1 12 C0.67 17.28 0.34 22.56 0 28 C-0.33 28 -0.66 28 -1 28 C-1.02904864 24.08334892 -1.04681517 20.1667256 -1.0625 16.25 C-1.07087891 15.13882813 -1.07925781 14.02765625 -1.08789062 12.8828125 C-1.09111328 11.81289062 -1.09433594 10.74296875 -1.09765625 9.640625 C-1.10289307 8.65610352 -1.10812988 7.67158203 -1.11352539 6.65722656 C-1.01159103 4.27130486 -0.68303357 2.27835419 0 0 Z " fill="#9AD5B6" transform="translate(87,92)"/>
<path d="M0 0 C2.31 0 4.62 0 7 0 C5.68 0.33 4.36 0.66 3 1 C3.10959718 4.29237055 3.24028931 7.58356887 3.375 10.875 C3.42140625 12.28072266 3.42140625 12.28072266 3.46875 13.71484375 C3.50742188 14.61074219 3.54609375 15.50664062 3.5859375 16.4296875 C3.6173584 17.25710449 3.6487793 18.08452148 3.68115234 18.93701172 C3.82599137 21.21986085 3.82599137 21.21986085 6 23 C4.35 23 2.7 23 1 23 C1.33 15.74 1.66 8.48 2 1 C1.34 0.67 0.68 0.34 0 0 Z " fill="#91B5A4" transform="translate(119,240)"/>
<path d="M0 0 C0.66 0.33 1.32 0.66 2 1 C2.103125 1.61875 2.20625 2.2375 2.3125 2.875 C3.29676995 5.91728893 5.32447145 6.42212419 8 8 C8 8.99 8 9.98 8 11 C7.34 10.34 6.68 9.68 6 9 C1.90154112 7.91755221 1.90154112 7.91755221 -2 9 C-1.67 7.35 -1.34 5.7 -1 4 C-1.66 4 -2.32 4 -3 4 C-3 3.34 -3 2.68 -3 2 C-2.01 2 -1.02 2 0 2 C0 1.34 0 0.68 0 0 Z " fill="#899E94" transform="translate(90,137)"/>
<path d="M0 0 C2.31 0.66 4.62 1.32 7 2 C6.01 2.33 5.02 2.66 4 3 C4 4.98 4 6.96 4 9 C4.66 9.33 5.32 9.66 6 10 C3.03 9.505 3.03 9.505 0 9 C0 6.03 0 3.06 0 0 Z " fill="#DFAB8A" transform="translate(23,130)"/>
<path d="M0 0 C0 0.99 0 1.98 0 3 C-0.66 3.66 -1.32 4.32 -2 5 C-1.67 5.66 -1.34 6.32 -1 7 C-9.42857143 8.42857143 -9.42857143 8.42857143 -14 6 C-11 5 -11 5 -8 5 C-8.33 4.34 -8.66 3.68 -9 3 C-7.88625 2.87625 -6.7725 2.7525 -5.625 2.625 C-1.96896323 2.3534187 -1.96896323 2.3534187 0 0 Z " fill="#D1C7B9" transform="translate(248,59)"/>
<path d="M0 0 C0.66 0.33 1.32 0.66 2 1 C2.625 4.0625 2.625 4.0625 3 7 C2.34 6.67 1.68 6.34 1 6 C1 5.34 1 4.68 1 4 C-0.32 4 -1.64 4 -3 4 C-3.33 5.32 -3.66 6.64 -4 8 C-4 6.68 -4 5.36 -4 4 C-4.66 4 -5.32 4 -6 4 C-6.33 5.98 -6.66 7.96 -7 10 C-8.09658936 6.71023192 -7.79953138 5.28696233 -7 2 C-4.69 2 -2.38 2 0 2 C0 1.34 0 0.68 0 0 Z " fill="#CBBDA6" transform="translate(198,154)"/>
<path d="M0 0 C1.32 0 2.64 0 4 0 C4 2.31 4 4.62 4 7 C2.35 6.67 0.7 6.34 -1 6 C-1.625 4.125 -1.625 4.125 -2 2 C-1.34 1.34 -0.68 0.68 0 0 Z " fill="#F2B093" transform="translate(93,136)"/>
<path d="M0 0 C1.89453748 2.84180622 3.00192814 5.31564815 4.1875 8.5 C4.55230469 9.4590625 4.91710937 10.418125 5.29296875 11.40625 C6 14 6 14 5 17 C4.54625 16.175 4.0925 15.35 3.625 14.5 C3.08875 13.675 2.5525 12.85 2 12 C1.34 12 0.68 12 0 12 C0 8.04 0 4.08 0 0 Z " fill="#0C7833" transform="translate(272,82)"/>
<path d="M0 0 C3 2 3 2 3.73046875 4.8203125 C3.88128906 5.91085938 4.03210938 7.00140625 4.1875 8.125 C4.34605469 9.22070312 4.50460938 10.31640625 4.66796875 11.4453125 C4.83232422 12.70988281 4.83232422 12.70988281 5 14 C4.01 14.495 4.01 14.495 3 15 C2.49363393 13.25183142 1.99515381 11.50137737 1.5 9.75 C1.2215625 8.77546875 0.943125 7.8009375 0.65625 6.796875 C0 4 0 4 0 0 Z " fill="#12823D" transform="translate(225,103)"/>
<path d="M0 0 C2.18975773 3.28463659 2.99806563 6.20696275 4 10 C2.68 10.33 1.36 10.66 0 11 C-0.66 13.31 -1.32 15.62 -2 18 C-2.66 17.67 -3.32 17.34 -4 17 C-3.71125 16.35933594 -3.4225 15.71867187 -3.125 15.05859375 C-0.85115713 9.76085568 0.50141512 5.76627391 0 0 Z " fill="#449E67" transform="translate(229,110)"/>
<path d="M0 0 C2.97 0.33 5.94 0.66 9 1 C8.67 2.32 8.34 3.64 8 5 C5.69 4.67 3.38 4.34 1 4 C0.67 2.68 0.34 1.36 0 0 Z " fill="#1A8A4D" transform="translate(23,127)"/>
<path d="M0 0 C1.32 0 2.64 0 4 0 C4 0.66 4 1.32 4 2 C3.34 2 2.68 2 2 2 C1.34 3.98 0.68 5.96 0 8 C-1.32 7.67 -2.64 7.34 -4 7 C-4 5.68 -4 4.36 -4 3 C-3.01 2.67 -2.02 2.34 -1 2 C-0.67 1.34 -0.34 0.68 0 0 Z " fill="#B0AA8A" transform="translate(191,144)"/>
<path d="M0 0 C0.33 0.66 0.66 1.32 1 2 C1.66 2 2.32 2 3 2 C2.67 5.3 2.34 8.6 2 12 C1.34 10.68 0.68 9.36 0 8 C-0.99 8.495 -0.99 8.495 -2 9 C-1.125 1.125 -1.125 1.125 0 0 Z " fill="#D3C7B5" transform="translate(267,100)"/>
<path d="M0 0 C5.61 0 11.22 0 17 0 C17 0.33 17 0.66 17 1 C12.38 1 7.76 1 3 1 C3.33 2.98 3.66 4.96 4 7 C2 5.1875 2 5.1875 0 3 C0 2.01 0 1.02 0 0 Z " fill="#C2B6A1" transform="translate(218,35)"/>
<path d="M0 0 C-3.22791555 2.1519437 -4.28400809 2.20086443 -8 2 C-8.28875 2.78375 -8.5775 3.5675 -8.875 4.375 C-10 7 -10 7 -12 9 C-12 7.35 -12 5.7 -12 4 C-11.34 4 -10.68 4 -10 4 C-9.67 3.01 -9.34 2.02 -9 1 C-5.65441284 -0.80842549 -3.59559792 -1.33170293 0 0 Z " fill="#BDC9B9" transform="translate(58,4)"/>
<path d="M0 0 C0.66 0 1.32 0 2 0 C1.67 1.32 1.34 2.64 1 4 C1.66 4 2.32 4 3 4 C2.67 4.99 2.34 5.98 2 7 C0.35 6.67 -1.3 6.34 -3 6 C-3 5.01 -3 4.02 -3 3 C-2.34 3 -1.68 3 -1 3 C-0.67 2.01 -0.34 1.02 0 0 Z " fill="#7E784B" transform="translate(120,116)"/>
<path d="M0 0 C-3 2 -3 2 -5 2 C-5 3.32 -5 4.64 -5 6 C-5.99 5.67 -6.98 5.34 -8 5 C-8 4.34 -8 3.68 -8 3 C-9.65 2.67 -11.3 2.34 -13 2 C-13 1.67 -13 1.34 -13 1 C-8.60563789 0.14256349 -4.47427924 -0.08948558 0 0 Z " fill="#0F6F30" transform="translate(57,71)"/>
<path d="M0 0 C0.66 0.33 1.32 0.66 2 1 C1.34 1.66 0.68 2.32 0 3 C-0.24315656 5.66949409 -0.24315656 5.66949409 -0.125 8.625 C-0.09792969 10.12933594 -0.09792969 10.12933594 -0.0703125 11.6640625 C-0.04710937 12.43492187 -0.02390625 13.20578125 0 14 C-2 11 -2 11 -2.5 7.4375 C-2.65847757 3.9428808 -2.65847757 3.9428808 -5 2 C-2.625 0.9375 -2.625 0.9375 0 0 Z " fill="#4C9980" transform="translate(263,145)"/>
<path d="M0 0 C0 0.99 0 1.98 0 3 C-3.3 3 -6.6 3 -10 3 C-10 2.34 -10 1.68 -10 1 C-6.61981469 -0.04005702 -3.5219721 -0.08004482 0 0 Z " fill="#0F7A3B" transform="translate(100,128)"/>
<path d="M0 0 C0.66 0.33 1.32 0.66 2 1 C1.07038578 2.15224028 0.1309875 3.29659176 -0.8125 4.4375 C-1.59560547 5.39462891 -1.59560547 5.39462891 -2.39453125 6.37109375 C-4 8 -4 8 -7 9 C-5.64978174 4.58110387 -3.73884332 2.65654657 0 0 Z " fill="#FBECE6" transform="translate(226,21)"/>
<path d="M0 0 C0.66 0.33 1.32 0.66 2 1 C0.37660195 2.70884005 -1.29319053 4.37446717 -3 6 C-3.66 6 -4.32 6 -5 6 C-5.33 6.99 -5.66 7.98 -6 9 C-6.66 9 -7.32 9 -8 9 C-6.64531705 4.12314139 -4.28324091 2.51407619 0 0 Z " fill="#F2BDA0" transform="translate(196,138)"/>
<path d="M0 0 C3 3.625 3 3.625 3 7 C1.35 7 -0.3 7 -2 7 C-2.33 6.01 -2.66 5.02 -3 4 C-2.01 4 -1.02 4 0 4 C0 2.68 0 1.36 0 0 Z " fill="#948258" transform="translate(176,137)"/>
<path d="M0 0 C2.31 0 4.62 0 7 0 C7.33 0.99 7.66 1.98 8 3 C5.69 3 3.38 3 1 3 C0.67 2.01 0.34 1.02 0 0 Z " fill="#FCB395" transform="translate(190,153)"/>
<path d="M0 0 C0.99 0.33 1.98 0.66 3 1 C2.34 2.98 1.68 4.96 1 7 C0.34 7 -0.32 7 -1 7 C-0.67 8.32 -0.34 9.64 0 11 C-0.99 11.495 -0.99 11.495 -2 12 C-2 10.02 -2 8.04 -2 6 C-1.01 5.67 -0.02 5.34 1 5 C0.67 3.35 0.34 1.7 0 0 Z " fill="#CCE5D9" transform="translate(272,135)"/>
<path d="M0 0 C0.33 0.66 0.66 1.32 1 2 C0.22265625 4.1640625 0.22265625 4.1640625 -0.9375 6.625 C-1.31777344 7.44226563 -1.69804687 8.25953125 -2.08984375 9.1015625 C-2.39019531 9.72804687 -2.69054687 10.35453125 -3 11 C-3.33 10.34 -3.66 9.68 -4 9 C-4.66 8.67 -5.32 8.34 -6 8 C-4.02 5.36 -2.04 2.72 0 0 Z " fill="#9CD8B9" transform="translate(225,128)"/>
<path d="M0 0 C2 4 2 4 1.3125 6.625 C0 9 0 9 -3 11 C-2.01 7.37 -1.02 3.74 0 0 Z " fill="#238847" transform="translate(268,112)"/>
<path d="M0 0 C2.97 0.495 2.97 0.495 6 1 C5.38125 1.185625 4.7625 1.37125 4.125 1.5625 C0.94397134 3.71437233 0.80548053 6.37533763 0 10 C-0.66 9.67 -1.32 9.34 -2 9 C-1.34 6.03 -0.68 3.06 0 0 Z " fill="#C6C0AE" transform="translate(233,150)"/>
<path d="M0 0 C0.33 0.99 0.66 1.98 1 3 C1.66 3.33 2.32 3.66 3 4 C2.34 4.66 1.68 5.32 1 6 C0.34 6 -0.32 6 -1 6 C-1.99 6.66 -2.98 7.32 -4 8 C-2.87548273 5.0280615 -1.77706209 2.66559313 0 0 Z " fill="#8EA5A4" transform="translate(104,142)"/>
<path d="M0 0 C0.99 0.495 0.99 0.495 2 1 C3.1577506 4.47325181 3.06866652 7.36067448 3 11 C2.34 10.67 1.68 10.34 1 10 C0.5859375 7.71484375 0.5859375 7.71484375 0.375 4.9375 C0.30023438 4.01839844 0.22546875 3.09929687 0.1484375 2.15234375 C0.09945312 1.44207031 0.05046875 0.73179687 0 0 Z " fill="#9DCCB0" transform="translate(115,228)"/>
<path d="M0 0 C0.66 0.33 1.32 0.66 2 1 C0.515 4.96 0.515 4.96 -1 9 C-1.33 8.34 -1.66 7.68 -2 7 C-1.67 6.01 -1.34 5.02 -1 4 C-1.66 4 -2.32 4 -3 4 C-3 3.34 -3 2.68 -3 2 C-2.01 2 -1.02 2 0 2 C0 1.34 0 0.68 0 0 Z " fill="#8CA3A0" transform="translate(90,137)"/>
<path d="M0 0 C1.65 0 3.3 0 5 0 C4.67 2.31 4.34 4.62 4 7 C3.566875 6.0409375 3.566875 6.0409375 3.125 5.0625 C2.17176549 2.84793921 2.17176549 2.84793921 0 2 C0 1.34 0 0.68 0 0 Z " fill="#ECAF91" transform="translate(95,132)"/>
<path d="M0 0 C1.88391785 3.26545761 2.49287967 6.28111761 3 10 C2.01 9.34 1.02 8.68 0 8 C-0.40843923 5.28796348 -0.13336867 2.7562858 0 0 Z " fill="#A3D1B9" transform="translate(276,79)"/>
<path d="M0 0 C0.66 0.99 1.32 1.98 2 3 C1.125 5.6875 1.125 5.6875 0 8 C-0.99 7.67 -1.98 7.34 -3 7 C-2.690625 6.401875 -2.38125 5.80375 -2.0625 5.1875 C-0.89790296 2.91043228 -0.89790296 2.91043228 0 0 Z " fill="#CCE8DB" transform="translate(187,142)"/>
<path d="M0 0 C0.99 0 1.98 0 3 0 C3 1.98 3 3.96 3 6 C2.01 6 1.02 6 0 6 C0 4.02 0 2.04 0 0 Z " fill="#FBD8C8" transform="translate(27,133)"/>
</svg>
