<svg width="80" height="80" viewBox="0 0 80 80" fill="none" xmlns="http://www.w3.org/2000/svg">
<path d="M50 61.666C49.1484 61.666 48.2969 61.3379 47.6406 60.6895L40 53.0488L32.3594 60.6895C31.0625 61.9941 28.9453 61.9941 27.6484 60.6895C26.3438 59.3848 26.3438 57.2754 27.6484 55.9785L37.6484 45.9785C38.9453 44.6738 41.0625 44.6738 42.3594 45.9785L52.3594 55.9785C53.6641 57.2832 53.6641 59.3926 52.3594 60.6895C51.7031 61.3457 50.8516 61.666 50 61.666Z" fill="#1F2C5C"/>
<path d="M40 75C38.1563 75 36.6641 73.5078 36.6641 71.6641V48.3359C36.6641 46.4922 38.1563 45 40 45C41.8438 45 43.3359 46.4922 43.3359 48.3359V71.6719C43.3359 73.5078 41.8438 75 40 75Z" fill="#1F2C5C"/>
<path d="M59.9922 72.0039C58.1484 72.0039 56.6562 70.5117 56.6562 68.668C56.6562 66.8242 58.1484 65.332 59.9922 65.332C67.3438 65.332 73.3281 59.3477 73.3281 51.9961C73.3281 44.9961 67.8516 39.1602 60.8672 38.707L58.8984 38.5898L58.0625 36.8164C54.7656 29.8398 47.6719 25.332 39.9922 25.332C32.3125 25.332 25.2188 29.8398 21.9219 36.8164L21.0859 38.5898L19.125 38.7148C12.1328 39.168 6.66406 45.0039 6.66406 52.0039C6.66406 59.3555 12.6484 65.3398 20 65.3398C21.8438 65.3398 23.3359 66.832 23.3359 68.6758C23.3359 70.5195 21.8438 72.0117 20 72.0117C8.96875 72.0117 0 63.043 0 52.0117C0 42.1602 7.22656 33.8477 16.7734 32.293C21.4609 23.957 30.375 18.668 39.9922 18.668C49.6094 18.668 58.5234 23.957 63.2188 32.2773C72.7656 33.832 79.9922 42.1523 79.9922 52.0039C79.9922 63.0273 71.0234 72.0039 59.9922 72.0039Z" fill="#3CB099"/>
</svg>
