<svg xmlns="http://www.w3.org/2000/svg" xmlns:xlink="http://www.w3.org/1999/xlink" width="500" zoomAndPan="magnify" viewBox="0 0 375 374.999991" height="500" preserveAspectRatio="xMidYMid meet" version="1.0"><defs><clipPath id="176c03a9a4"><path d="M 0 43.296875 L 111 43.296875 L 111 153 L 0 153 Z M 0 43.296875 " clip-rule="nonzero"/></clipPath></defs><g clip-path="url(#176c03a9a4)"><path fill="#70d8c1" d="M 0.398438 98.113281 C 0.398438 67.839844 24.941406 43.296875 55.21875 43.296875 C 85.492188 43.296875 110.039062 67.839844 110.039062 98.113281 L 110.039062 152.933594 L 0.398438 152.933594 Z M 0.398438 98.113281 " fill-opacity="1" fill-rule="nonzero"/></g><path fill="#70d8c1" d="M 166.050781 152.933594 C 195.667969 152.933594 219.675781 176.945312 219.675781 206.5625 C 219.675781 236.179688 195.667969 260.191406 166.050781 260.191406 L 110.039062 260.191406 L 110.039062 152.933594 Z M 166.050781 152.933594 " fill-opacity="1" fill-rule="nonzero"/><path fill="#1f2c5c" d="M 0.398438 152.933594 L 110.039062 152.933594 L 110.039062 260.191406 L 0.398438 260.191406 Z M 0.398438 152.933594 " fill-opacity="1" fill-rule="nonzero"/><path fill="#1f2c5c" d="M 0.398438 253.039062 L 12.316406 253.039062 L 12.316406 331.695312 L 0.398438 331.695312 Z M 0.398438 253.039062 " fill-opacity="1" fill-rule="nonzero"/><path fill="#70d8c1" d="M 24.242188 222.386719 C 23.042969 222.386719 21.796875 222.234375 20.503906 221.921875 C 19.214844 221.609375 18.089844 221.144531 17.136719 220.519531 C 16.691406 220.230469 16.390625 219.898438 16.234375 219.519531 C 16.078125 219.140625 16.035156 218.785156 16.101562 218.449219 C 16.191406 218.09375 16.355469 217.792969 16.601562 217.550781 C 16.867188 217.304688 17.191406 217.160156 17.570312 217.117188 C 17.96875 217.070312 18.402344 217.171875 18.871094 217.417969 C 19.78125 217.90625 20.660156 218.261719 21.507812 218.484375 C 22.351562 218.683594 23.21875 218.785156 24.109375 218.785156 C 25.089844 218.785156 25.910156 218.652344 26.578125 218.382812 C 27.246094 218.117188 27.746094 217.71875 28.078125 217.183594 C 28.4375 216.648438 28.613281 216.003906 28.613281 215.246094 C 28.613281 214.136719 28.234375 213.3125 27.480469 212.777344 C 26.746094 212.222656 25.667969 211.945312 24.242188 211.945312 L 22.105469 211.945312 C 21.484375 211.945312 21.007812 211.789062 20.671875 211.476562 C 20.359375 211.164062 20.203125 210.730469 20.203125 210.175781 C 20.203125 209.621094 20.359375 209.1875 20.671875 208.875 C 21.007812 208.5625 21.484375 208.40625 22.105469 208.40625 L 23.84375 208.40625 C 24.6875 208.40625 25.410156 208.273438 26.011719 208.007812 C 26.613281 207.71875 27.078125 207.316406 27.414062 206.804688 C 27.746094 206.292969 27.914062 205.671875 27.914062 204.9375 C 27.914062 203.914062 27.566406 203.136719 26.878906 202.601562 C 26.210938 202.066406 25.234375 201.800781 23.941406 201.800781 C 23.121094 201.800781 22.339844 201.898438 21.605469 202.101562 C 20.894531 202.277344 20.105469 202.625 19.238281 203.136719 C 18.835938 203.378906 18.449219 203.480469 18.070312 203.433594 C 17.714844 203.390625 17.414062 203.246094 17.167969 203 C 16.925781 202.757812 16.757812 202.46875 16.667969 202.132812 C 16.578125 201.777344 16.601562 201.421875 16.734375 201.066406 C 16.867188 200.6875 17.144531 200.367188 17.570312 200.097656 C 18.527344 199.476562 19.582031 199.007812 20.738281 198.695312 C 21.894531 198.363281 23.085938 198.195312 24.308594 198.195312 C 25.933594 198.195312 27.324219 198.453125 28.480469 198.964844 C 29.636719 199.453125 30.515625 200.164062 31.117188 201.097656 C 31.738281 202.011719 32.050781 203.125 32.050781 204.4375 C 32.050781 205.371094 31.871094 206.226562 31.515625 207.003906 C 31.160156 207.761719 30.660156 208.40625 30.015625 208.941406 C 29.371094 209.476562 28.589844 209.851562 27.679688 210.074219 L 27.679688 209.675781 C 29.28125 209.941406 30.527344 210.609375 31.417969 211.675781 C 32.304688 212.722656 32.75 214.035156 32.75 215.613281 C 32.75 216.992188 32.40625 218.195312 31.71875 219.21875 C 31.027344 220.242188 30.046875 221.03125 28.78125 221.585938 C 27.511719 222.121094 26 222.386719 24.242188 222.386719 Z M 54.644531 222.386719 C 52.710938 222.386719 51.050781 221.933594 49.671875 221.019531 C 48.316406 220.085938 47.28125 218.75 46.570312 217.015625 C 45.855469 215.28125 45.5 213.179688 45.5 210.710938 C 45.5 208.707031 45.722656 206.9375 46.167969 205.402344 C 46.636719 203.847656 47.304688 202.535156 48.171875 201.464844 C 49.039062 200.398438 50.09375 199.585938 51.339844 199.03125 C 52.609375 198.472656 54.03125 198.195312 55.613281 198.195312 C 56.589844 198.195312 57.582031 198.351562 58.582031 198.664062 C 59.605469 198.953125 60.5625 199.398438 61.453125 200 C 61.808594 200.21875 62.039062 200.511719 62.152344 200.867188 C 62.261719 201.222656 62.273438 201.578125 62.1875 201.933594 C 62.117188 202.265625 61.964844 202.566406 61.71875 202.835938 C 61.496094 203.078125 61.207031 203.234375 60.851562 203.300781 C 60.496094 203.347656 60.105469 203.246094 59.683594 203 C 58.925781 202.554688 58.214844 202.246094 57.546875 202.066406 C 56.878906 201.890625 56.210938 201.800781 55.546875 201.800781 C 54.253906 201.800781 53.164062 202.101562 52.273438 202.699219 C 51.386719 203.300781 50.707031 204.203125 50.238281 205.402344 C 49.792969 206.605469 49.574219 208.105469 49.574219 209.910156 L 49.574219 212.410156 L 49.171875 212.410156 C 49.351562 211.277344 49.71875 210.308594 50.273438 209.507812 C 50.851562 208.683594 51.585938 208.0625 52.476562 207.640625 C 53.363281 207.195312 54.355469 206.972656 55.445312 206.972656 C 56.800781 206.972656 58.003906 207.292969 59.050781 207.941406 C 60.09375 208.585938 60.917969 209.476562 61.519531 210.609375 C 62.117188 211.742188 62.417969 213.046875 62.417969 214.511719 C 62.417969 216.027344 62.085938 217.382812 61.417969 218.585938 C 60.773438 219.761719 59.859375 220.699219 58.683594 221.386719 C 57.523438 222.054688 56.179688 222.386719 54.644531 222.386719 Z M 54.410156 218.984375 C 55.210938 218.984375 55.914062 218.808594 56.511719 218.449219 C 57.136719 218.09375 57.613281 217.59375 57.949219 216.949219 C 58.28125 216.28125 58.449219 215.527344 58.449219 214.679688 C 58.449219 213.8125 58.28125 213.054688 57.949219 212.410156 C 57.613281 211.765625 57.136719 211.265625 56.511719 210.910156 C 55.914062 210.53125 55.210938 210.34375 54.410156 210.34375 C 53.609375 210.34375 52.910156 210.53125 52.308594 210.910156 C 51.707031 211.265625 51.230469 211.765625 50.875 212.410156 C 50.539062 213.054688 50.375 213.8125 50.375 214.679688 C 50.375 215.527344 50.539062 216.28125 50.875 216.949219 C 51.230469 217.59375 51.707031 218.09375 52.308594 218.449219 C 52.910156 218.808594 53.609375 218.984375 54.410156 218.984375 Z M 82.84375 222.386719 C 80.0625 222.386719 77.9375 221.34375 76.46875 219.25 C 75.003906 217.136719 74.269531 214.136719 74.269531 210.242188 C 74.269531 207.617188 74.589844 205.414062 75.234375 203.636719 C 75.902344 201.832031 76.871094 200.476562 78.140625 199.566406 C 79.429688 198.652344 80.996094 198.195312 82.84375 198.195312 C 85.648438 198.195312 87.769531 199.21875 89.21875 201.265625 C 90.683594 203.3125 91.417969 206.292969 91.417969 210.210938 C 91.417969 212.8125 91.085938 215.023438 90.417969 216.847656 C 89.773438 218.652344 88.816406 220.03125 87.546875 220.988281 C 86.28125 221.921875 84.710938 222.386719 82.84375 222.386719 Z M 82.84375 218.886719 C 84.355469 218.886719 85.46875 218.183594 86.179688 216.78125 C 86.914062 215.382812 87.28125 213.191406 87.28125 210.210938 C 87.28125 207.226562 86.914062 205.070312 86.179688 203.734375 C 85.46875 202.378906 84.355469 201.699219 82.84375 201.699219 C 81.351562 201.699219 80.242188 202.378906 79.507812 203.734375 C 78.773438 205.070312 78.40625 207.226562 78.40625 210.210938 C 78.40625 213.191406 78.773438 215.382812 79.507812 216.78125 C 80.242188 218.183594 81.351562 218.886719 82.84375 218.886719 Z M 82.84375 218.886719 " fill-opacity="1" fill-rule="nonzero"/><path fill="#70d8c1" d="M 19.464844 274.492188 L 71.902344 274.492188 L 71.902344 331.695312 L 19.464844 331.695312 Z M 19.464844 274.492188 " fill-opacity="1" fill-rule="nonzero"/><path fill="#1f2c5c" d="M 110.445312 322.160156 L 107.363281 312.035156 L 91.855469 312.035156 L 88.769531 322.160156 L 79.050781 322.160156 L 94.066406 279.449219 L 105.09375 279.449219 L 120.164062 322.160156 Z M 105.207031 304.46875 L 102.125 294.578125 C 101.929688 293.917969 101.667969 293.074219 101.339844 292.046875 C 101.027344 291 100.710938 289.941406 100.378906 288.875 C 100.070312 287.789062 99.816406 286.847656 99.621094 286.054688 C 99.429688 286.847656 99.15625 287.839844 98.808594 289.019531 C 98.476562 290.183594 98.160156 291.289062 97.847656 292.339844 C 97.539062 293.382812 97.316406 294.132812 97.179688 294.578125 L 94.125 304.46875 Z M 159.761719 322.160156 L 149.519531 322.160156 L 138.378906 304.238281 L 134.566406 306.972656 L 134.566406 322.160156 L 125.546875 322.160156 L 125.546875 279.625 L 134.566406 279.625 L 134.566406 299.089844 C 135.167969 298.253906 135.757812 297.417969 136.339844 296.585938 C 136.921875 295.75 137.515625 294.917969 138.117188 294.082031 L 149.636719 279.625 L 159.644531 279.625 L 144.808594 298.445312 Z M 189.613281 322.160156 L 165.117188 322.160156 L 165.117188 279.625 L 189.613281 279.625 L 189.613281 287.011719 L 174.136719 287.011719 L 174.136719 296.351562 L 188.535156 296.351562 L 188.535156 303.742188 L 174.136719 303.742188 L 174.136719 314.710938 L 189.613281 314.710938 Z M 223.015625 322.160156 L 198.515625 322.160156 L 198.515625 279.625 L 223.015625 279.625 L 223.015625 287.011719 L 207.535156 287.011719 L 207.535156 296.351562 L 221.9375 296.351562 L 221.9375 303.742188 L 207.535156 303.742188 L 207.535156 314.710938 L 223.015625 314.710938 Z M 249.925781 322.160156 L 239.6875 288.789062 L 239.421875 288.789062 C 239.460938 289.582031 239.519531 290.785156 239.597656 292.394531 C 239.695312 293.988281 239.785156 295.683594 239.859375 297.488281 C 239.9375 299.289062 239.976562 300.921875 239.976562 302.375 L 239.976562 322.160156 L 231.917969 322.160156 L 231.917969 279.625 L 244.195312 279.625 L 254.261719 312.152344 L 254.4375 312.152344 L 265.113281 279.625 L 277.390625 279.625 L 277.390625 322.160156 L 268.984375 322.160156 L 268.984375 302.027344 C 268.984375 300.6875 269.003906 299.144531 269.042969 297.402344 C 269.101562 295.652344 269.167969 293.996094 269.246094 292.425781 C 269.324219 290.835938 269.382812 289.640625 269.421875 288.847656 L 269.160156 288.847656 L 258.191406 322.160156 Z M 325.863281 322.160156 L 314.402344 322.160156 L 295.898438 289.980469 L 295.636719 289.980469 C 295.714844 291.320312 295.78125 292.667969 295.839844 294.027344 C 295.898438 295.382812 295.953125 296.742188 296.015625 298.097656 C 296.070312 299.4375 296.132812 300.785156 296.1875 302.144531 L 296.1875 322.160156 L 288.128906 322.160156 L 288.128906 279.625 L 299.503906 279.625 L 317.980469 311.480469 L 318.183594 311.480469 C 318.144531 310.164062 318.097656 308.851562 318.039062 307.554688 C 317.980469 306.253906 317.921875 304.957031 317.863281 303.65625 C 317.824219 302.355469 317.785156 301.058594 317.746094 299.757812 L 317.746094 279.625 L 325.863281 279.625 Z M 362.640625 322.160156 L 359.558594 312.035156 L 344.050781 312.035156 L 340.964844 322.160156 L 331.25 322.160156 L 346.257812 279.449219 L 357.289062 279.449219 L 372.359375 322.160156 Z M 357.40625 304.46875 L 354.320312 294.578125 C 354.125 293.917969 353.863281 293.074219 353.535156 292.046875 C 353.222656 291 352.90625 289.941406 352.574219 288.875 C 352.265625 287.789062 352.011719 286.847656 351.816406 286.054688 C 351.625 286.847656 351.351562 287.839844 351.003906 289.019531 C 350.675781 290.183594 350.351562 291.289062 350.042969 292.339844 C 349.734375 293.382812 349.507812 294.132812 349.375 294.578125 L 346.320312 304.46875 Z M 357.40625 304.46875 " fill-opacity="1" fill-rule="nonzero"/><path fill="#1f2c5c" d="M 62.058594 322.160156 L 53.070312 322.160156 L 53.070312 303.800781 L 36.222656 303.800781 L 36.222656 322.160156 L 27.203125 322.160156 L 27.203125 279.625 L 36.222656 279.625 L 36.222656 296.292969 L 53.070312 296.292969 L 53.070312 279.625 L 62.058594 279.625 Z M 62.058594 322.160156 " fill-opacity="1" fill-rule="nonzero"/></svg>