<?xml version="1.0" encoding="UTF-8"?>
<svg version="1.1" xmlns="http://www.w3.org/2000/svg" width="332" height="294">
<path d="M0 0 C10.09581288 9.40376119 15.10602338 22.01076974 15.92193604 35.61727905 C15.97892402 38.59469619 15.97559544 41.56518117 15.9453125 44.54296875 C15.9424826 45.61501053 15.93965271 46.68705231 15.93673706 47.7915802 C15.92565375 51.1736731 15.90057195 54.55548884 15.875 57.9375 C15.86495487 60.24804302 15.85583172 62.55859024 15.84765625 64.86914062 C15.82575341 70.49618632 15.79239627 76.12307335 15.75 81.75 C16.69054985 81.74000725 16.69054985 81.74000725 17.65010071 81.72981262 C24.22086419 81.6630525 30.79153012 81.61803172 37.36254883 81.58520508 C39.8095288 81.57018897 42.25648217 81.54976995 44.70336914 81.52368164 C48.23590692 81.48698182 51.76808651 81.47020123 55.30078125 81.45703125 C56.38144363 81.44154739 57.46210602 81.42606354 58.57551575 81.41011047 C72.14448432 81.4071548 84.88314994 85.43954692 94.9375 94.8046875 C103.69724005 104.20630506 108.64426152 116.11604989 108.78515625 128.953125 C108.12970672 142.44579347 103.00313244 155.15919905 93.0625 164.5625 C81.22645706 174.10473616 69.06003847 176.06312951 54.33569336 175.97705078 C52.35862396 175.97748886 52.35862396 175.97748886 50.34161377 175.97793579 C46.75336255 175.97850604 43.16524698 175.96680524 39.57702708 175.95278788 C35.81743619 175.94022549 32.05784167 175.9391057 28.29823303 175.93673706 C21.19051836 175.9305384 14.08286574 175.91414958 6.9751783 175.89403808 C-2.63765811 175.86743268 -12.25051168 175.85669339 -21.86337566 175.84503365 C-36.99229685 175.8262677 -52.12108716 175.78641134 -67.25 175.75 C-67.25 206.44 -67.25 237.13 -67.25 268.75 C-70.88 268.75 -74.51 268.75 -78.25 268.75 C-78.34134871 238.12491568 -78.41208935 207.49986266 -78.45426132 176.87467454 C-78.45926385 173.25499114 -78.46444116 169.635308 -78.46972656 166.015625 C-78.4707758 165.29504395 -78.47182505 164.5744629 -78.47290608 163.83204606 C-78.49028763 152.18096353 -78.52181283 140.52996035 -78.55861118 128.87892482 C-78.5960834 116.91430053 -78.61824909 104.94971765 -78.62635398 92.98503709 C-78.63133885 86.26866713 -78.6437785 79.55248791 -78.67292023 72.83617401 C-78.70014779 66.50952983 -78.70843002 60.1831387 -78.70243073 53.8564415 C-78.70352767 51.53938546 -78.71143741 49.22232062 -78.7268219 46.9053154 C-78.84490254 28.1978916 -77.10194643 15.17718247 -63.875 0.9375 C-46.32064994 -15.75287758 -18.28592346 -14.98959949 0 0 Z " fill="#5EE29C" transform="translate(92.25,17.25)"/>
<path d="M0 0 C30.36 0 60.72 0 92 0 C92 30.36 92 60.72 92 92 C64.61 92 37.22 92 9 92 C9 122.69 9 153.38 9 185 C6.03 185 3.06 185 0 185 C0 123.95 0 62.9 0 0 Z " fill="#1F2B5B" transform="translate(15,100)"/>
<path d="M0 0 C15.18 0 30.36 0 46 0 C46 16.5 46 33 46 50 C30.82 50 15.64 50 0 50 C0 33.5 0 17 0 0 Z " fill="#62E39F" transform="translate(30,201)"/>
<path d="M0 0 C3.3 0 6.6 0 10 0 C13.3 7.26 16.6 14.52 20 22 C22.15616817 19.1251091 23.5690412 17.07323231 25.0078125 13.92578125 C25.35457031 13.17619141 25.70132813 12.42660156 26.05859375 11.65429688 C26.41050781 10.88150391 26.76242188 10.10871094 27.125 9.3125 C27.83404968 7.76606011 28.54489271 6.2204408 29.2578125 4.67578125 C29.5686377 3.99427002 29.87946289 3.31275879 30.19970703 2.6105957 C31 1 31 1 32 0 C34.97 0 37.94 0 41 0 C41 12.21 41 24.42 41 37 C38.03 37 35.06 37 32 37 C31.67 32.05 31.34 27.1 31 22 C28.69 26.95 26.38 31.9 24 37 C21.69 37 19.38 37 17 37 C14.69 31.72 12.38 26.44 10 21 C9.67 26.28 9.34 31.56 9 37 C6.03 37 3.06 37 0 37 C0 24.79 0 12.58 0 0 Z " fill="#3B466F" transform="translate(209,206)"/>
<path d="M0 0 C9 0 9 0 11.6015625 2.0546875 C12.26929688 2.98539063 12.93703125 3.91609375 13.625 4.875 C14.35847656 5.86886719 15.09195312 6.86273438 15.84765625 7.88671875 C16.55792969 8.91410156 17.26820313 9.94148437 18 11 C18.69996094 11.97582031 19.39992188 12.95164063 20.12109375 13.95703125 C21.77602691 16.28459318 23.3922099 18.63962729 25 21 C25.33 14.07 25.66 7.14 26 0 C28.97 0 31.94 0 35 0 C35 12.21 35 24.42 35 37 C25 37 25 37 22.59545898 35.27172852 C22.06766846 34.48209717 21.53987793 33.69246582 20.99609375 32.87890625 C20.40119141 32.02619141 19.80628906 31.17347656 19.19335938 30.29492188 C18.61392578 29.39322266 18.03449219 28.49152344 17.4375 27.5625 C16.82326172 26.66466797 16.20902344 25.76683594 15.57617188 24.84179688 C14.44858889 23.1909157 13.33495342 21.53036075 12.23999023 19.85766602 C11.13236285 18.06717909 11.13236285 18.06717909 10 17 C9.67 23.6 9.34 30.2 9 37 C6.03 37 3.06 37 0 37 C0 24.79 0 12.58 0 0 Z " fill="#3C4670" transform="translate(256,206)"/>
<path d="M0 0 C2.97 0 5.94 0 9 0 C9 30.36 9 60.72 9 92 C6.03 92 3.06 92 0 92 C0 61.64 0 31.28 0 0 Z " fill="#1F2B5B" transform="translate(15,193)"/>
<path d="M0 0 C2.64 0 5.28 0 8 0 C8 4.29 8 8.58 8 13 C8.66 13 9.32 13 10 13 C10.24878906 12.43796875 10.49757813 11.8759375 10.75390625 11.296875 C13.25747239 6.6821512 16.70731181 3.00236403 21 0 C24.79799125 -0.72737879 28.18951014 -0.57691529 32 0 C30.34136495 4.32504836 27.128959 7.09418825 23.875 10.25 C23.31167969 10.80429688 22.74835938 11.35859375 22.16796875 11.9296875 C20.78313972 13.29104485 19.39216796 14.64614859 18 16 C19.29675068 18.8041469 20.71453412 21.02800486 22.75 23.34765625 C23.2759375 23.95287109 23.801875 24.55808594 24.34375 25.18164062 C24.8903125 25.80232422 25.436875 26.42300781 26 27.0625 C27.08480732 28.30209704 28.16819583 29.54293749 29.25 30.78515625 C29.96929687 31.60318726 29.96929687 31.60318726 30.703125 32.43774414 C32 34 32 34 34 37 C29.39736855 37.92198977 25.57309754 38.1691738 21 37 C16.35983731 33.2476614 13.21077004 27.95708581 10 23 C9.67 22.67 9.34 22.34 9 22 C8.67 26.95 8.34 31.9 8 37 C5.36 37 2.72 37 0 37 C0 24.79 0 12.58 0 0 Z " fill="#37426D" transform="translate(117,206)"/>
<path d="M0 0 C1.37478516 0.01740234 1.37478516 0.01740234 2.77734375 0.03515625 C3.69644531 0.04417969 4.61554688 0.05320313 5.5625 0.0625 C6.27277344 0.07410156 6.98304687 0.08570313 7.71484375 0.09765625 C9.56826743 5.20556754 11.41962658 10.3142204 13.26904297 15.42358398 C13.89900364 17.16304948 14.52953652 18.90230786 15.16064453 20.64135742 C16.06561991 23.13536729 16.96856134 25.6301052 17.87109375 28.125 C18.15545288 28.90729477 18.43981201 29.68958954 18.73278809 30.49559021 C20.71484375 35.98378454 20.71484375 35.98378454 20.71484375 37.09765625 C17.41484375 37.09765625 14.11484375 37.09765625 10.71484375 37.09765625 C10.05484375 35.44765625 9.39484375 33.79765625 8.71484375 32.09765625 C4.42484375 31.76765625 0.13484375 31.43765625 -4.28515625 31.09765625 C-4.94515625 33.07765625 -5.60515625 35.05765625 -6.28515625 37.09765625 C-9.25515625 37.09765625 -12.22515625 37.09765625 -15.28515625 37.09765625 C-14.56888862 32.85468105 -13.2617438 28.90193081 -11.81640625 24.86328125 C-11.57603638 24.18465027 -11.3356665 23.50601929 -11.0880127 22.80682373 C-10.58199276 21.38087582 -10.07427132 19.9555307 -9.56494141 18.53076172 C-8.78330954 16.34248616 -8.00848629 14.15188326 -7.234375 11.9609375 C-6.74128808 10.57407552 -6.24781224 9.18735174 -5.75390625 7.80078125 C-5.52159302 7.14354065 -5.28927979 6.48630005 -5.04992676 5.80914307 C-3.0112543 0.12868608 -3.0112543 0.12868608 0 0 Z M1.71484375 12.09765625 C0.22984375 17.54265625 0.22984375 17.54265625 -1.28515625 23.09765625 C1.02484375 23.09765625 3.33484375 23.09765625 5.71484375 23.09765625 C5.43242734 21.63750334 5.13857761 20.17955832 4.83984375 18.72265625 C4.59621094 17.50449219 4.59621094 17.50449219 4.34765625 16.26171875 C3.84825443 13.91091702 3.84825443 13.91091702 1.71484375 12.09765625 Z " fill="#3D4770" transform="translate(94.28515625,205.90234375)"/>
<path d="M0 0 C3.3 0 6.6 0 10 0 C13.60587515 9.12137057 17.15607485 18.25608303 20.4375 27.5 C20.69611816 28.2230835 20.95473633 28.94616699 21.22119141 29.69116211 C23 34.75387814 23 34.75387814 23 37 C19.7 37 16.4 37 13 37 C12.67 35.02 12.34 33.04 12 31 C5.565 31.495 5.565 31.495 -1 32 C-1.99 34.475 -1.99 34.475 -3 37 C-6.3 37 -9.6 37 -13 37 C-8.92592809 24.56082186 -4.71538544 12.21163921 0 0 Z M5 12 C4.33125616 13.64499042 3.66505926 15.29101648 3 16.9375 C2.62875 17.85402344 2.2575 18.77054688 1.875 19.71484375 C0.940402 21.74782158 0.940402 21.74782158 1 23 C3.64 23 6.28 23 9 23 C8.01 19.37 7.02 15.74 6 12 C5.67 12 5.34 12 5 12 Z " fill="#3C4670" transform="translate(306,206)"/>
<path d="M0 0 C2.64 0 5.28 0 8 0 C8 4.62 8 9.24 8 14 C12.95 14 17.9 14 23 14 C23 9.38 23 4.76 23 0 C25.64 0 28.28 0 31 0 C31 11.88 31 23.76 31 36 C28.36 36 25.72 36 23 36 C23 31.05 23 26.1 23 21 C18.05 21 13.1 21 8 21 C8 25.95 8 30.9 8 36 C5.36 36 2.72 36 0 36 C0 24.12 0 12.24 0 0 Z " fill="#21325D" transform="translate(37,207)"/>
<path d="M0 0 C7.59 0 15.18 0 23 0 C23 2.64 23 5.28 23 8 C18.38 8 13.76 8 9 8 C9 10.31 9 12.62 9 15 C12.96 15 16.92 15 21 15 C21 17.64 21 20.28 21 23 C17.04 23 13.08 23 9 23 C9 25.31 9 27.62 9 30 C13.62 30 18.24 30 23 30 C23 32.31 23 34.62 23 37 C15.41 37 7.82 37 0 37 C0 24.79 0 12.58 0 0 Z " fill="#3A456F" transform="translate(181,206)"/>
<path d="M0 0 C7.26 0 14.52 0 22 0 C22 2.64 22 5.28 22 8 C17.71 8 13.42 8 9 8 C9 10.31 9 12.62 9 15 C12.63 15 16.26 15 20 15 C20 17.64 20 20.28 20 23 C16.37 23 12.74 23 9 23 C9 25.31 9 27.62 9 30 C13.29 30 17.58 30 22 30 C22 32.31 22 34.62 22 37 C14.74 37 7.48 37 0 37 C0 24.79 0 12.58 0 0 Z " fill="#333E6A" transform="translate(153,206)"/>
<path d="M0 0 C4.29971018 0.87749187 5.61812415 1.95843622 8.0625 5.625 C8.95143079 10.7807986 8.81365771 15.09263828 6.5 19.8125 C4.0625 21.625 4.0625 21.625 0.5625 22.25 C-2.9375 21.625 -2.9375 21.625 -5.375 19.8125 C-7.68906682 15.09180368 -7.6956733 10.78522034 -6.9375 5.625 C-5.01529992 1.85453061 -4.12894559 0.87849906 0 0 Z " fill="#56D796" transform="translate(83.9375,136.375)"/>
<path d="M0 0 C1.875 1.3125 1.875 1.3125 3 3 C3 3.99 3 4.98 3 6 C0.03 5.67 -2.94 5.34 -6 5 C-6 5.99 -6 6.98 -6 8 C-4.906875 7.938125 -3.81375 7.87625 -2.6875 7.8125 C1 8 1 8 2.9375 9.125 C4.52990283 11.93512264 4.45319325 13.82764724 4 17 C2.4375 19.375 2.4375 19.375 0 21 C-3.5 21.5625 -3.5 21.5625 -7 21 C-9.84287154 18.81317574 -10.83071489 17.17345362 -11.34375 13.6171875 C-11.52144745 8.65646713 -11.31225837 4.94923114 -8 1 C-5.20129973 -0.39935013 -3.09501208 -0.25265405 0 0 Z " fill="#56D596" transform="translate(65,137)"/>
<path d="M0 0 C3.125 0.375 3.125 0.375 5.5625 2 C7.125 4.375 7.125 4.375 6.75 7.5 C6.54375 8.44875 6.3375 9.3975 6.125 10.375 C6.785 11.035 7.445 11.695 8.125 12.375 C7.9375 15.875 7.9375 15.875 7.125 19.375 C3.41486601 21.84842266 1.51439738 21.76003486 -2.875 21.375 C-5.3125 20.125 -5.3125 20.125 -6.875 18.375 C-6.875 17.055 -6.875 15.735 -6.875 14.375 C-5.555 14.375 -4.235 14.375 -2.875 14.375 C-2.545 15.365 -2.215 16.355 -1.875 17.375 C-0.225 17.375 1.425 17.375 3.125 17.375 C3.125 16.055 3.125 14.735 3.125 13.375 C1.805 13.045 0.485 12.715 -0.875 12.375 C-0.875 11.385 -0.875 10.395 -0.875 9.375 C0.445 9.045 1.765 8.715 3.125 8.375 C3.125 7.055 3.125 5.735 3.125 4.375 C0.155 5.035 -2.815 5.695 -5.875 6.375 C-4.4255618 0.57724719 -4.4255618 0.57724719 0 0 Z " fill="#55D295" transform="translate(37.875,136.625)"/>
<path d="M0 0 C4.875 0.875 4.875 0.875 6 2 C6.16796875 3.9609375 6.16796875 3.9609375 6.1875 6.375 C6.20167969 7.16648438 6.21585937 7.95796875 6.23046875 8.7734375 C6 11 6 11 4 14 C2.0625 13.625 2.0625 13.625 0 13 C-1.18306728 10.63386544 -1.13354608 9.13219264 -1.125 6.5 C-1.12757812 5.7059375 -1.13015625 4.911875 -1.1328125 4.09375 C-1 2 -1 2 0 0 Z " fill="#21325D" transform="translate(82,141)"/>
<path d="M0 0 C1.2065625 0.0309375 1.2065625 0.0309375 2.4375 0.0625 C3.0625 2.4375 3.0625 2.4375 3.4375 5.0625 C2.7775 5.7225 2.1175 6.3825 1.4375 7.0625 C-0.6875 6.6875 -0.6875 6.6875 -2.5625 6.0625 C-2.94468767 4.40635343 -3.27645102 2.73792976 -3.5625 1.0625 C-2.5625 0.0625 -2.5625 0.0625 0 0 Z " fill="#23395F" transform="translate(61.5625,147.9375)"/>
<path d="M0 0 C3.62528568 -0.20140476 5.86501708 0.14223235 9 2 C9.33 1.34 9.66 0.68 10 0 C10 0.99 10 1.98 10 3 C6.37 3.66 2.74 4.32 -1 5 C-0.67 3.35 -0.34 1.7 0 0 Z " fill="#284764" transform="translate(59,141)"/>
</svg>
