<?xml version="1.0" encoding="UTF-8"?>
<!DOCTYPE svg PUBLIC "-//W3C//DTD SVG 1.1//EN" "http://www.w3.org/Graphics/SVG/1.1/DTD/svg11.dtd">
<!-- Creator: CorelDRAW -->
<svg xmlns="http://www.w3.org/2000/svg" xml:space="preserve" width="512px" height="512px" version="1.1" style="shape-rendering:geometricPrecision; text-rendering:geometricPrecision; image-rendering:optimizeQuality; fill-rule:evenodd; clip-rule:evenodd"
viewBox="0 0 512 512"
 xmlns:xlink="http://www.w3.org/1999/xlink">
 <defs>
  <style type="text/css">
   <![CDATA[
    .fil5 {fill:#5FD3AE}
    .fil0 {fill:#64798A}
    .fil4 {fill:#A6A6A6}
    .fil2 {fill:#CCCCCC}
    .fil1 {fill:#D0FFFF}
    .fil3 {fill:#D6D8D9}
    .fil6 {fill:white}
   ]]>
  </style>
 </defs>
 <g id="Layer_x0020_1">
  <metadata id="CorelCorpID_0Corel-Layer"/>
  <g id="_356276072">
   <path class="fil0" d="M0 318l0 -278c0,-13 11,-24 25,-24l462 0c14,0 25,11 25,24l0 278 -37 0 -438 0 -37 0z"/>
   <polygon class="fil1" points="482,298 30,298 30,46 482,46 "/>
   <polygon class="fil2" points="208,360 208,437 304,437 304,360 "/>
   <path class="fil3" d="M326 430c2,0 4,0 5,0 17,0 30,10 30,23l0 36c0,4 -3,7 -7,7l-196 0c-4,0 -7,-3 -7,-7l0 -36c0,-13 13,-24 30,-24 1,0 144,1 145,1z"/>
   <path class="fil3" d="M0 343c0,13 11,25 25,25 197,0 265,0 462,0 14,0 25,-11 25,-24l0 -26 -37 0 -438 0 -37 0 0 25z"/>
   <polygon class="fil4" points="208,375 304,375 304,368 208,368 "/>
   <path class="fil5" d="M256 276c-58,0 -105,-47 -105,-104 0,-58 47,-105 105,-105 58,0 105,47 105,105 0,57 -47,104 -105,104z"/>
   <path class="fil6" d="M227 215c-2,0 -4,-1 -5,-2l-31 -30c-3,-3 -3,-8 0,-11 3,-3 8,-3 11,0l25 25 67 -67c3,-3 7,-3 10,0 3,3 3,8 0,11l-72 72c-2,1 -3,2 -5,2z"/>
  </g>
 </g>
</svg>
