<svg width="400" height="396" viewBox="0 0 400 396" fill="none" xmlns="http://www.w3.org/2000/svg">
<path d="M341.199 308.88H70.4793C70.4793 308.88 10.3993 276.907 33.6393 174.588C45.6393 121.722 106.015 71.6284 180.839 56.8496L182.535 56.517C204.935 52.256 225.231 50.973 243.247 51.9788C285.935 54.3548 315.999 69.4028 332.487 87.6188C355.935 113.557 316.215 169.559 333.695 198.325C351.175 227.09 405.279 269.415 341.199 308.88Z" fill="white"/>
<path opacity="0.7" d="M341.199 308.88H70.4793C70.4793 308.88 10.3993 276.907 33.6393 174.588C45.6393 121.722 106.015 71.6284 180.839 56.8496L182.535 56.517C204.935 52.256 225.231 50.973 243.247 51.9788C285.935 54.3548 315.999 69.4028 332.487 87.6188C355.935 113.557 316.215 169.559 333.695 198.325C351.175 227.09 405.279 269.415 341.199 308.88Z" fill="white"/>
<path d="M191.601 88.5845L185.465 84.9492V91.4436" stroke="#1F2C5C" stroke-linecap="round" stroke-linejoin="round"/>
<path d="M185.465 95.2051V98.9988" stroke="#1F2C5C" stroke-linecap="round" stroke-linejoin="round"/>
<path d="M185.465 99V104.489L191.689 100.798" stroke="#1F2C5C" stroke-linecap="round" stroke-linejoin="round"/>
<path d="M194.793 98.9286L201.937 94.6993L194.145 90.0898" stroke="#1F2C5C" stroke-linecap="round" stroke-linejoin="round"/>
<path d="M24.9199 235.651V232.27H28.7999V236.277" stroke="#1F2C5C" stroke-linecap="round" stroke-linejoin="round"/>
<path d="M28.7991 239.184V249.408H27.4551" stroke="#1F2C5C" stroke-linecap="round" stroke-linejoin="round"/>
<path d="M26.6079 249.424H24.9199V242.961" stroke="#1F2C5C" stroke-linecap="round" stroke-linejoin="round"/>
<path d="M24.9199 240.039V237.322" stroke="#1F2C5C" stroke-linecap="round" stroke-linejoin="round"/>
<path d="M33.416 234.186V232.27H37.288V235.857" stroke="#1F2C5C" stroke-linecap="round" stroke-linejoin="round"/>
<path d="M37.2871 240.039V243.381" stroke="#1F2C5C" stroke-linecap="round" stroke-linejoin="round"/>
<path d="M37.288 245.051V249.423H33.416V235.65" stroke="#1F2C5C" stroke-linecap="round" stroke-linejoin="round"/>
<path d="M354.32 227.184H357.168" stroke="#1F2C5C" stroke-linecap="round" stroke-linejoin="round"/>
<path d="M360.271 227.184H365.663V244.037H361.311" stroke="#1F2C5C" stroke-linecap="round" stroke-linejoin="round"/>
<path d="M357.689 244.038H348.633V236.91" stroke="#1F2C5C" stroke-linecap="round" stroke-linejoin="round"/>
<path d="M348.633 235.088V227.168H352.001" stroke="#1F2C5C" stroke-linecap="round" stroke-linejoin="round"/>
<path d="M19.1914 308.881H380.807" stroke="#1F2C5C" stroke-linecap="round" stroke-linejoin="round"/>
<path d="M328.4 130.545H71.6078C70.0791 130.545 68.8398 131.772 68.8398 133.285V304.769C68.8398 306.283 70.0791 307.509 71.6078 307.509H328.4C329.929 307.509 331.168 306.283 331.168 304.769V133.285C331.168 131.772 329.929 130.545 328.4 130.545Z" fill="#1F2C5C"/>
<path d="M327.92 138.307H72.0879V295.685H327.92V138.307Z" fill="white" stroke="#1F2C5C" stroke-linecap="round" stroke-linejoin="round"/>
<path d="M206.967 299.637H193.031C192.576 299.637 192.207 300.002 192.207 300.452V301.712C192.207 302.162 192.576 302.528 193.031 302.528H206.967C207.422 302.528 207.791 302.162 207.791 301.712V300.452C207.791 300.002 207.422 299.637 206.967 299.637Z" fill="white"/>
<path d="M200 136.31C201.153 136.31 202.088 135.385 202.088 134.243C202.088 133.101 201.153 132.176 200 132.176C198.847 132.176 197.912 133.101 197.912 134.243C197.912 135.385 198.847 136.31 200 136.31Z" fill="white"/>
<path d="M244.471 273.398V281.659L250.647 277.533L244.471 273.398Z" stroke="#1F2C5C" stroke-linecap="round" stroke-linejoin="round"/>
<path d="M251 273.398V281.659L257.176 277.533L251 273.398Z" stroke="#1F2C5C" stroke-linecap="round" stroke-linejoin="round"/>
<path d="M196.791 281.659V273.398L190.607 277.533L196.791 281.659Z" stroke="#1F2C5C" stroke-linecap="round" stroke-linejoin="round"/>
<path d="M190.271 273.398V281.659" stroke="#1F2C5C" stroke-linecap="round" stroke-linejoin="round"/>
<path d="M188.504 273.398V281.659" stroke="#1F2C5C" stroke-linecap="round" stroke-linejoin="round"/>
<path d="M266.07 273.398V281.659L272.254 277.533L266.07 273.398Z" stroke="#1F2C5C" stroke-linecap="round" stroke-linejoin="round"/>
<path d="M272.592 281.659V273.398" stroke="#1F2C5C" stroke-linecap="round" stroke-linejoin="round"/>
<path d="M274.359 281.659V273.398" stroke="#1F2C5C" stroke-linecap="round" stroke-linejoin="round"/>
<path d="M218.391 281.659V273.398L212.207 277.533L218.391 281.659Z" stroke="#1F2C5C" stroke-linecap="round" stroke-linejoin="round"/>
<path d="M211.864 281.659V273.398L205.688 277.533L211.864 281.659Z" stroke="#1F2C5C" stroke-linecap="round" stroke-linejoin="round"/>
<path d="M228.344 273.398V281.659L234.52 277.533L228.344 273.398Z" stroke="#1F2C5C" stroke-linecap="round" stroke-linejoin="round"/>
<path opacity="0.5" d="M326.43 139.486H73.5664V144.912H326.43V139.486Z" fill="white"/>
<path d="M73.5664 144.912H326.43" stroke="#1F2C5C" stroke-linecap="round" stroke-linejoin="round"/>
<path d="M78.2148 142.068H86.4068" stroke="#1F2C5C" stroke-linecap="round" stroke-linejoin="round"/>
<path d="M95.3594 142.068H102.727" stroke="#1F2C5C" stroke-linecap="round" stroke-linejoin="round"/>
<path d="M112.279 142.068H119.447" stroke="#1F2C5C" stroke-linecap="round" stroke-linejoin="round"/>
<path d="M135.223 144.912H131.439V294.473H135.223V144.912Z" fill="#1F2C5C"/>
<path d="M134.159 197.549H132.503C131.916 197.549 131.439 198.02 131.439 198.602V206.847C131.439 207.429 131.916 207.9 132.503 207.9H134.159C134.747 207.9 135.223 207.429 135.223 206.847V198.602C135.223 198.02 134.747 197.549 134.159 197.549Z" fill="white" stroke="#1F2C5C" stroke-linecap="round" stroke-linejoin="round"/>
<path d="M319.671 152.15H143.191V267.188H319.671V152.15Z" fill="#1F2C5C"/>
<path d="M221.584 199.924V219.423L241.28 209.673L221.584 199.924Z" fill="white" stroke="#1F2C5C" stroke-linecap="round" stroke-linejoin="round"/>
<path opacity="0.5" d="M98.0705 150.639H79.2305V162.923H98.0705V150.639Z" fill="#1F2C5C"/>
<path d="M86.5742 154.717V158.843L90.7342 156.776L86.5742 154.717Z" fill="#1F2C5C"/>
<g opacity="0.5">
<path d="M78.7435 150.639H77.4395V151.716H78.7435V150.639Z" fill="#1F2C5C"/>
<path d="M78.7435 152.508H77.4395V153.585H78.7435V152.508Z" fill="#1F2C5C"/>
<path d="M78.7435 154.377H77.4395V155.454H78.7435V154.377Z" fill="#1F2C5C"/>
<path d="M78.7435 156.238H77.4395V157.315H78.7435V156.238Z" fill="#1F2C5C"/>
<path d="M78.7435 158.107H77.4395V159.185H78.7435V158.107Z" fill="#1F2C5C"/>
<path d="M78.7435 159.977H77.4395V161.054H78.7435V159.977Z" fill="#1F2C5C"/>
<path d="M78.7435 161.846H77.4395V162.923H78.7435V161.846Z" fill="#1F2C5C"/>
<path d="M99.8724 150.639H98.5684V151.716H99.8724V150.639Z" fill="#1F2C5C"/>
<path d="M99.8724 152.508H98.5684V153.585H99.8724V152.508Z" fill="#1F2C5C"/>
<path d="M99.8724 154.377H98.5684V155.454H99.8724V154.377Z" fill="#1F2C5C"/>
<path d="M99.8724 156.238H98.5684V157.315H99.8724V156.238Z" fill="#1F2C5C"/>
<path d="M99.8724 158.107H98.5684V159.185H99.8724V158.107Z" fill="#1F2C5C"/>
<path d="M99.8724 159.977H98.5684V161.054H99.8724V159.977Z" fill="#1F2C5C"/>
<path d="M99.8724 161.846H98.5684V162.923H99.8724V161.846Z" fill="#1F2C5C"/>
</g>
<path d="M83.4785 165.852H93.8305" stroke="#1F2C5C" stroke-linecap="round" stroke-linejoin="round"/>
<path opacity="0.5" d="M124.512 150.639H105.672V162.923H124.512V150.639Z" fill="#1F2C5C"/>
<path d="M113.008 154.717V158.843L117.176 156.776L113.008 154.717Z" fill="#1F2C5C"/>
<g opacity="0.5">
<path d="M105.175 150.639H103.871V151.716H105.175V150.639Z" fill="#1F2C5C"/>
<path d="M105.175 152.508H103.871V153.585H105.175V152.508Z" fill="#1F2C5C"/>
<path d="M105.175 154.377H103.871V155.454H105.175V154.377Z" fill="#1F2C5C"/>
<path d="M105.175 156.238H103.871V157.315H105.175V156.238Z" fill="#1F2C5C"/>
<path d="M105.175 158.107H103.871V159.185H105.175V158.107Z" fill="#1F2C5C"/>
<path d="M105.175 159.977H103.871V161.054H105.175V159.977Z" fill="#1F2C5C"/>
<path d="M105.175 161.846H103.871V162.923H105.175V161.846Z" fill="#1F2C5C"/>
<path d="M126.304 150.639H125V151.716H126.304V150.639Z" fill="#1F2C5C"/>
<path d="M126.304 152.508H125V153.585H126.304V152.508Z" fill="#1F2C5C"/>
<path d="M126.304 154.377H125V155.454H126.304V154.377Z" fill="#1F2C5C"/>
<path d="M126.304 156.238H125V157.315H126.304V156.238Z" fill="#1F2C5C"/>
<path d="M126.304 158.107H125V159.185H126.304V158.107Z" fill="#1F2C5C"/>
<path d="M126.304 159.977H125V161.054H126.304V159.977Z" fill="#1F2C5C"/>
<path d="M126.304 161.846H125V162.923H126.304V161.846Z" fill="#1F2C5C"/>
</g>
<path d="M109.92 165.852H120.264" stroke="#1F2C5C" stroke-linecap="round" stroke-linejoin="round"/>
<path opacity="0.5" d="M98.0705 171.523H79.2305V183.807H98.0705V171.523Z" fill="#1F2C5C"/>
<path d="M86.5742 175.602V179.72L90.7342 177.661L86.5742 175.602Z" fill="#1F2C5C"/>
<g opacity="0.5">
<path d="M78.7435 171.523H77.4395V172.601H78.7435V171.523Z" fill="#1F2C5C"/>
<path d="M78.7435 173.385H77.4395V174.462H78.7435V173.385Z" fill="#1F2C5C"/>
<path d="M78.7435 175.254H77.4395V176.331H78.7435V175.254Z" fill="#1F2C5C"/>
<path d="M78.7435 177.123H77.4395V178.2H78.7435V177.123Z" fill="#1F2C5C"/>
<path d="M78.7435 178.992H77.4395V180.069H78.7435V178.992Z" fill="#1F2C5C"/>
<path d="M78.7435 180.854H77.4395V181.931H78.7435V180.854Z" fill="#1F2C5C"/>
<path d="M78.7435 182.723H77.4395V183.8H78.7435V182.723Z" fill="#1F2C5C"/>
<path d="M99.8724 171.523H98.5684V172.601H99.8724V171.523Z" fill="#1F2C5C"/>
<path d="M99.8724 173.385H98.5684V174.462H99.8724V173.385Z" fill="#1F2C5C"/>
<path d="M99.8724 175.254H98.5684V176.331H99.8724V175.254Z" fill="#1F2C5C"/>
<path d="M99.8724 177.123H98.5684V178.2H99.8724V177.123Z" fill="#1F2C5C"/>
<path d="M99.8724 178.992H98.5684V180.069H99.8724V178.992Z" fill="#1F2C5C"/>
<path d="M99.8724 180.854H98.5684V181.931H99.8724V180.854Z" fill="#1F2C5C"/>
<path d="M99.8724 182.723H98.5684V183.8H99.8724V182.723Z" fill="#1F2C5C"/>
</g>
<path d="M83.4785 186.729H93.8305" stroke="#1F2C5C" stroke-linecap="round" stroke-linejoin="round"/>
<path opacity="0.5" d="M124.512 171.523H105.672V183.807H124.512V171.523Z" fill="#1F2C5C"/>
<path d="M113.008 175.602V179.72L117.176 177.661L113.008 175.602Z" fill="#1F2C5C"/>
<g opacity="0.5">
<path d="M105.175 171.523H103.871V172.601H105.175V171.523Z" fill="#1F2C5C"/>
<path d="M105.175 173.385H103.871V174.462H105.175V173.385Z" fill="#1F2C5C"/>
<path d="M105.175 175.254H103.871V176.331H105.175V175.254Z" fill="#1F2C5C"/>
<path d="M105.175 177.123H103.871V178.2H105.175V177.123Z" fill="#1F2C5C"/>
<path d="M105.175 178.992H103.871V180.069H105.175V178.992Z" fill="#1F2C5C"/>
<path d="M105.175 180.854H103.871V181.931H105.175V180.854Z" fill="#1F2C5C"/>
<path d="M105.175 182.723H103.871V183.8H105.175V182.723Z" fill="#1F2C5C"/>
<path d="M126.304 171.523H125V172.601H126.304V171.523Z" fill="#1F2C5C"/>
<path d="M126.304 173.385H125V174.462H126.304V173.385Z" fill="#1F2C5C"/>
<path d="M126.304 175.254H125V176.331H126.304V175.254Z" fill="#1F2C5C"/>
<path d="M126.304 177.123H125V178.2H126.304V177.123Z" fill="#1F2C5C"/>
<path d="M126.304 178.992H125V180.069H126.304V178.992Z" fill="#1F2C5C"/>
<path d="M126.304 180.854H125V181.931H126.304V180.854Z" fill="#1F2C5C"/>
<path d="M126.304 182.723H125V183.8H126.304V182.723Z" fill="#1F2C5C"/>
</g>
<path d="M109.92 186.729H120.264" stroke="#1F2C5C" stroke-linecap="round" stroke-linejoin="round"/>
<path opacity="0.5" d="M98.0705 192.4H79.2305V204.684H98.0705V192.4Z" fill="#1F2C5C"/>
<path d="M86.5742 196.486V200.605L90.7342 198.546L86.5742 196.486Z" fill="#1F2C5C"/>
<g opacity="0.5">
<path d="M78.7435 192.4H77.4395V193.478H78.7435V192.4Z" fill="#1F2C5C"/>
<path d="M78.7435 194.27H77.4395V195.347H78.7435V194.27Z" fill="#1F2C5C"/>
<path d="M78.7435 196.139H77.4395V197.216H78.7435V196.139Z" fill="#1F2C5C"/>
<path d="M78.7435 198.008H77.4395V199.085H78.7435V198.008Z" fill="#1F2C5C"/>
<path d="M78.7435 199.869H77.4395V200.946H78.7435V199.869Z" fill="#1F2C5C"/>
<path d="M78.7435 201.738H77.4395V202.815H78.7435V201.738Z" fill="#1F2C5C"/>
<path d="M78.7435 203.607H77.4395V204.685H78.7435V203.607Z" fill="#1F2C5C"/>
<path d="M99.8724 192.4H98.5684V193.478H99.8724V192.4Z" fill="#1F2C5C"/>
<path d="M99.8724 194.27H98.5684V195.347H99.8724V194.27Z" fill="#1F2C5C"/>
<path d="M99.8724 196.139H98.5684V197.216H99.8724V196.139Z" fill="#1F2C5C"/>
<path d="M99.8724 198.008H98.5684V199.085H99.8724V198.008Z" fill="#1F2C5C"/>
<path d="M99.8724 199.869H98.5684V200.946H99.8724V199.869Z" fill="#1F2C5C"/>
<path d="M99.8724 201.738H98.5684V202.815H99.8724V201.738Z" fill="#1F2C5C"/>
<path d="M99.8724 203.607H98.5684V204.685H99.8724V203.607Z" fill="#1F2C5C"/>
</g>
<path d="M83.4785 207.615H93.8305" stroke="#1F2C5C" stroke-linecap="round" stroke-linejoin="round"/>
<path opacity="0.5" d="M124.512 192.4H105.672V204.684H124.512V192.4Z" fill="#1F2C5C"/>
<path d="M113.008 196.486V200.605L117.176 198.546L113.008 196.486Z" fill="#1F2C5C"/>
<g opacity="0.5">
<path d="M105.175 192.4H103.871V193.478H105.175V192.4Z" fill="#1F2C5C"/>
<path d="M105.175 194.27H103.871V195.347H105.175V194.27Z" fill="#1F2C5C"/>
<path d="M105.175 196.139H103.871V197.216H105.175V196.139Z" fill="#1F2C5C"/>
<path d="M105.175 198.008H103.871V199.085H105.175V198.008Z" fill="#1F2C5C"/>
<path d="M105.175 199.869H103.871V200.946H105.175V199.869Z" fill="#1F2C5C"/>
<path d="M105.175 201.738H103.871V202.815H105.175V201.738Z" fill="#1F2C5C"/>
<path d="M105.175 203.607H103.871V204.685H105.175V203.607Z" fill="#1F2C5C"/>
<path d="M126.304 192.4H125V193.478H126.304V192.4Z" fill="#1F2C5C"/>
<path d="M126.304 194.27H125V195.347H126.304V194.27Z" fill="#1F2C5C"/>
<path d="M126.304 196.139H125V197.216H126.304V196.139Z" fill="#1F2C5C"/>
<path d="M126.304 198.008H125V199.085H126.304V198.008Z" fill="#1F2C5C"/>
<path d="M126.304 199.869H125V200.946H126.304V199.869Z" fill="#1F2C5C"/>
<path d="M126.304 201.738H125V202.815H126.304V201.738Z" fill="#1F2C5C"/>
<path d="M126.304 203.607H125V204.685H126.304V203.607Z" fill="#1F2C5C"/>
</g>
<path d="M109.92 207.615H120.264" stroke="#1F2C5C" stroke-linecap="round" stroke-linejoin="round"/>
<path opacity="0.5" d="M98.0705 213.285H79.2305V225.569H98.0705V213.285Z" fill="#1F2C5C"/>
<path d="M86.5742 217.363V221.482L90.7342 219.422L86.5742 217.363Z" fill="#1F2C5C"/>
<g opacity="0.5">
<path d="M78.7435 213.285H77.4395V214.362H78.7435V213.285Z" fill="#1F2C5C"/>
<path d="M78.7435 215.154H77.4395V216.231H78.7435V215.154Z" fill="#1F2C5C"/>
<path d="M78.7435 217.016H77.4395V218.093H78.7435V217.016Z" fill="#1F2C5C"/>
<path d="M78.7435 218.885H77.4395V219.962H78.7435V218.885Z" fill="#1F2C5C"/>
<path d="M78.7435 220.754H77.4395V221.831H78.7435V220.754Z" fill="#1F2C5C"/>
<path d="M78.7435 222.623H77.4395V223.7H78.7435V222.623Z" fill="#1F2C5C"/>
<path d="M78.7435 224.492H77.4395V225.569H78.7435V224.492Z" fill="#1F2C5C"/>
<path d="M99.8724 213.285H98.5684V214.362H99.8724V213.285Z" fill="#1F2C5C"/>
<path d="M99.8724 215.154H98.5684V216.231H99.8724V215.154Z" fill="#1F2C5C"/>
<path d="M99.8724 217.016H98.5684V218.093H99.8724V217.016Z" fill="#1F2C5C"/>
<path d="M99.8724 218.885H98.5684V219.962H99.8724V218.885Z" fill="#1F2C5C"/>
<path d="M99.8724 220.754H98.5684V221.831H99.8724V220.754Z" fill="#1F2C5C"/>
<path d="M99.8724 222.623H98.5684V223.7H99.8724V222.623Z" fill="#1F2C5C"/>
<path d="M99.8724 224.492H98.5684V225.569H99.8724V224.492Z" fill="#1F2C5C"/>
</g>
<path d="M83.4785 228.5H93.8305" stroke="#1F2C5C" stroke-linecap="round" stroke-linejoin="round"/>
<path opacity="0.5" d="M124.512 213.285H105.672V225.569H124.512V213.285Z" fill="#1F2C5C"/>
<path d="M113.008 217.363V221.482L117.176 219.422L113.008 217.363Z" fill="#1F2C5C"/>
<g opacity="0.5">
<path d="M105.175 213.285H103.871V214.362H105.175V213.285Z" fill="#1F2C5C"/>
<path d="M105.175 215.154H103.871V216.231H105.175V215.154Z" fill="#1F2C5C"/>
<path d="M105.175 217.016H103.871V218.093H105.175V217.016Z" fill="#1F2C5C"/>
<path d="M105.175 218.885H103.871V219.962H105.175V218.885Z" fill="#1F2C5C"/>
<path d="M105.175 220.754H103.871V221.831H105.175V220.754Z" fill="#1F2C5C"/>
<path d="M105.175 222.623H103.871V223.7H105.175V222.623Z" fill="#1F2C5C"/>
<path d="M105.175 224.492H103.871V225.569H105.175V224.492Z" fill="#1F2C5C"/>
<path d="M126.304 213.285H125V214.362H126.304V213.285Z" fill="#1F2C5C"/>
<path d="M126.304 215.154H125V216.231H126.304V215.154Z" fill="#1F2C5C"/>
<path d="M126.304 217.016H125V218.093H126.304V217.016Z" fill="#1F2C5C"/>
<path d="M126.304 218.885H125V219.962H126.304V218.885Z" fill="#1F2C5C"/>
<path d="M126.304 220.754H125V221.831H126.304V220.754Z" fill="#1F2C5C"/>
<path d="M126.304 222.623H125V223.7H126.304V222.623Z" fill="#1F2C5C"/>
<path d="M126.304 224.492H125V225.569H126.304V224.492Z" fill="#1F2C5C"/>
</g>
<path d="M109.92 228.5H120.264" stroke="#1F2C5C" stroke-linecap="round" stroke-linejoin="round"/>
<path opacity="0.5" d="M98.0705 234.17H79.2305V246.454H98.0705V234.17Z" fill="#1F2C5C"/>
<path d="M86.5742 238.248V242.366L90.7342 240.307L86.5742 238.248Z" fill="#1F2C5C"/>
<g opacity="0.5">
<path d="M78.7435 234.17H77.4395V235.247H78.7435V234.17Z" fill="#1F2C5C"/>
<path d="M78.7435 236.031H77.4395V237.108H78.7435V236.031Z" fill="#1F2C5C"/>
<path d="M78.7435 237.9H77.4395V238.977H78.7435V237.9Z" fill="#1F2C5C"/>
<path d="M78.7435 239.77H77.4395V240.847H78.7435V239.77Z" fill="#1F2C5C"/>
<path d="M78.7435 241.639H77.4395V242.716H78.7435V241.639Z" fill="#1F2C5C"/>
<path d="M78.7435 243.5H77.4395V244.577H78.7435V243.5Z" fill="#1F2C5C"/>
<path d="M78.7435 245.369H77.4395V246.446H78.7435V245.369Z" fill="#1F2C5C"/>
<path d="M99.8724 234.17H98.5684V235.247H99.8724V234.17Z" fill="#1F2C5C"/>
<path d="M99.8724 236.031H98.5684V237.108H99.8724V236.031Z" fill="#1F2C5C"/>
<path d="M99.8724 237.9H98.5684V238.977H99.8724V237.9Z" fill="#1F2C5C"/>
<path d="M99.8724 239.77H98.5684V240.847H99.8724V239.77Z" fill="#1F2C5C"/>
<path d="M99.8724 241.639H98.5684V242.716H99.8724V241.639Z" fill="#1F2C5C"/>
<path d="M99.8724 243.5H98.5684V244.577H99.8724V243.5Z" fill="#1F2C5C"/>
<path d="M99.8724 245.369H98.5684V246.446H99.8724V245.369Z" fill="#1F2C5C"/>
</g>
<path d="M83.4785 249.377H93.8305" stroke="#1F2C5C" stroke-linecap="round" stroke-linejoin="round"/>
<path opacity="0.5" d="M124.512 234.17H105.672V246.454H124.512V234.17Z" fill="#1F2C5C"/>
<path d="M113.008 238.248V242.366L117.176 240.307L113.008 238.248Z" fill="#1F2C5C"/>
<g opacity="0.5">
<path d="M105.175 234.17H103.871V235.247H105.175V234.17Z" fill="#1F2C5C"/>
<path d="M105.175 236.031H103.871V237.108H105.175V236.031Z" fill="#1F2C5C"/>
<path d="M105.175 237.9H103.871V238.977H105.175V237.9Z" fill="#1F2C5C"/>
<path d="M105.175 239.77H103.871V240.847H105.175V239.77Z" fill="#1F2C5C"/>
<path d="M105.175 241.639H103.871V242.716H105.175V241.639Z" fill="#1F2C5C"/>
<path d="M105.175 243.5H103.871V244.577H105.175V243.5Z" fill="#1F2C5C"/>
<path d="M105.175 245.369H103.871V246.446H105.175V245.369Z" fill="#1F2C5C"/>
<path d="M126.304 234.17H125V235.247H126.304V234.17Z" fill="#1F2C5C"/>
<path d="M126.304 236.031H125V237.108H126.304V236.031Z" fill="#1F2C5C"/>
<path d="M126.304 237.9H125V238.977H126.304V237.9Z" fill="#1F2C5C"/>
<path d="M126.304 239.77H125V240.847H126.304V239.77Z" fill="#1F2C5C"/>
<path d="M126.304 241.639H125V242.716H126.304V241.639Z" fill="#1F2C5C"/>
<path d="M126.304 243.5H125V244.577H126.304V243.5Z" fill="#1F2C5C"/>
<path d="M126.304 245.369H125V246.446H126.304V245.369Z" fill="#1F2C5C"/>
</g>
<path d="M109.92 249.377H120.264" stroke="#1F2C5C" stroke-linecap="round" stroke-linejoin="round"/>
<path opacity="0.5" d="M98.0705 255.047H79.2305V267.331H98.0705V255.047Z" fill="#1F2C5C"/>
<path d="M86.5742 259.127V263.253L90.7342 261.194L86.5742 259.127Z" fill="#1F2C5C"/>
<g opacity="0.5">
<path d="M78.7435 255.047H77.4395V256.124H78.7435V255.047Z" fill="#1F2C5C"/>
<path d="M78.7435 256.916H77.4395V257.993H78.7435V256.916Z" fill="#1F2C5C"/>
<path d="M78.7435 258.785H77.4395V259.862H78.7435V258.785Z" fill="#1F2C5C"/>
<path d="M78.7435 260.654H77.4395V261.731H78.7435V260.654Z" fill="#1F2C5C"/>
<path d="M78.7435 262.516H77.4395V263.593H78.7435V262.516Z" fill="#1F2C5C"/>
<path d="M78.7435 264.385H77.4395V265.462H78.7435V264.385Z" fill="#1F2C5C"/>
<path d="M78.7435 266.254H77.4395V267.331H78.7435V266.254Z" fill="#1F2C5C"/>
<path d="M99.8724 255.047H98.5684V256.124H99.8724V255.047Z" fill="#1F2C5C"/>
<path d="M99.8724 256.916H98.5684V257.993H99.8724V256.916Z" fill="#1F2C5C"/>
<path d="M99.8724 258.785H98.5684V259.862H99.8724V258.785Z" fill="#1F2C5C"/>
<path d="M99.8724 260.654H98.5684V261.731H99.8724V260.654Z" fill="#1F2C5C"/>
<path d="M99.8724 262.516H98.5684V263.593H99.8724V262.516Z" fill="#1F2C5C"/>
<path d="M99.8724 264.385H98.5684V265.462H99.8724V264.385Z" fill="#1F2C5C"/>
<path d="M99.8724 266.254H98.5684V267.331H99.8724V266.254Z" fill="#1F2C5C"/>
</g>
<path d="M83.4785 270.262H93.8305" stroke="#1F2C5C" stroke-linecap="round" stroke-linejoin="round"/>
<path opacity="0.5" d="M124.512 255.047H105.672V267.331H124.512V255.047Z" fill="#1F2C5C"/>
<path d="M113.008 259.127V263.253L117.176 261.194L113.008 259.127Z" fill="#1F2C5C"/>
<g opacity="0.5">
<path d="M105.175 255.047H103.871V256.124H105.175V255.047Z" fill="#1F2C5C"/>
<path d="M105.175 256.916H103.871V257.993H105.175V256.916Z" fill="#1F2C5C"/>
<path d="M105.175 258.785H103.871V259.862H105.175V258.785Z" fill="#1F2C5C"/>
<path d="M105.175 260.654H103.871V261.731H105.175V260.654Z" fill="#1F2C5C"/>
<path d="M105.175 262.516H103.871V263.593H105.175V262.516Z" fill="#1F2C5C"/>
<path d="M105.175 264.385H103.871V265.462H105.175V264.385Z" fill="#1F2C5C"/>
<path d="M105.175 266.254H103.871V267.331H105.175V266.254Z" fill="#1F2C5C"/>
<path d="M126.304 255.047H125V256.124H126.304V255.047Z" fill="#1F2C5C"/>
<path d="M126.304 256.916H125V257.993H126.304V256.916Z" fill="#1F2C5C"/>
<path d="M126.304 258.785H125V259.862H126.304V258.785Z" fill="#1F2C5C"/>
<path d="M126.304 260.654H125V261.731H126.304V260.654Z" fill="#1F2C5C"/>
<path d="M126.304 262.516H125V263.593H126.304V262.516Z" fill="#1F2C5C"/>
<path d="M126.304 264.385H125V265.462H126.304V264.385Z" fill="#1F2C5C"/>
<path d="M126.304 266.254H125V267.331H126.304V266.254Z" fill="#1F2C5C"/>
</g>
<path d="M109.92 270.262H120.264" stroke="#1F2C5C" stroke-linecap="round" stroke-linejoin="round"/>
<path opacity="0.5" d="M98.0705 275.932H79.2305V288.216H98.0705V275.932Z" fill="#1F2C5C"/>
<path d="M86.5742 280.012V284.13L90.7342 282.071L86.5742 280.012Z" fill="#1F2C5C"/>
<g opacity="0.5">
<path d="M78.7435 275.932H77.4395V277.009H78.7435V275.932Z" fill="#1F2C5C"/>
<path d="M78.7435 277.801H77.4395V278.878H78.7435V277.801Z" fill="#1F2C5C"/>
<path d="M78.7435 279.662H77.4395V280.739H78.7435V279.662Z" fill="#1F2C5C"/>
<path d="M78.7435 281.531H77.4395V282.608H78.7435V281.531Z" fill="#1F2C5C"/>
<path d="M78.7435 283.4H77.4395V284.478H78.7435V283.4Z" fill="#1F2C5C"/>
<path d="M78.7435 285.27H77.4395V286.347H78.7435V285.27Z" fill="#1F2C5C"/>
<path d="M78.7435 287.139H77.4395V288.216H78.7435V287.139Z" fill="#1F2C5C"/>
<path d="M99.8724 275.932H98.5684V277.009H99.8724V275.932Z" fill="#1F2C5C"/>
<path d="M99.8724 277.801H98.5684V278.878H99.8724V277.801Z" fill="#1F2C5C"/>
<path d="M99.8724 279.662H98.5684V280.739H99.8724V279.662Z" fill="#1F2C5C"/>
<path d="M99.8724 281.531H98.5684V282.608H99.8724V281.531Z" fill="#1F2C5C"/>
<path d="M99.8724 283.4H98.5684V284.478H99.8724V283.4Z" fill="#1F2C5C"/>
<path d="M99.8724 285.27H98.5684V286.347H99.8724V285.27Z" fill="#1F2C5C"/>
<path d="M99.8724 287.139H98.5684V288.216H99.8724V287.139Z" fill="#1F2C5C"/>
</g>
<path d="M83.4785 291.146H93.8305" stroke="#1F2C5C" stroke-linecap="round" stroke-linejoin="round"/>
<path opacity="0.5" d="M124.512 275.932H105.672V288.216H124.512V275.932Z" fill="#1F2C5C"/>
<path d="M113.008 280.012V284.13L117.176 282.071L113.008 280.012Z" fill="#1F2C5C"/>
<g opacity="0.5">
<path d="M105.175 275.932H103.871V277.009H105.175V275.932Z" fill="#1F2C5C"/>
<path d="M105.175 277.801H103.871V278.878H105.175V277.801Z" fill="#1F2C5C"/>
<path d="M105.175 279.662H103.871V280.739H105.175V279.662Z" fill="#1F2C5C"/>
<path d="M105.175 281.531H103.871V282.608H105.175V281.531Z" fill="#1F2C5C"/>
<path d="M105.175 283.4H103.871V284.478H105.175V283.4Z" fill="#1F2C5C"/>
<path d="M105.175 285.27H103.871V286.347H105.175V285.27Z" fill="#1F2C5C"/>
<path d="M105.175 287.139H103.871V288.216H105.175V287.139Z" fill="#1F2C5C"/>
<path d="M126.304 275.932H125V277.009H126.304V275.932Z" fill="#1F2C5C"/>
<path d="M126.304 277.801H125V278.878H126.304V277.801Z" fill="#1F2C5C"/>
<path d="M126.304 279.662H125V280.739H126.304V279.662Z" fill="#1F2C5C"/>
<path d="M126.304 281.531H125V282.608H126.304V281.531Z" fill="#1F2C5C"/>
<path d="M126.304 283.4H125V284.478H126.304V283.4Z" fill="#1F2C5C"/>
<path d="M126.304 285.27H125V286.347H126.304V285.27Z" fill="#1F2C5C"/>
<path d="M126.304 287.139H125V288.216H126.304V287.139Z" fill="#1F2C5C"/>
</g>
<path d="M109.92 291.146H120.264" stroke="#1F2C5C" stroke-linecap="round" stroke-linejoin="round"/>
<path d="M332.367 316.902H67.6311C59.9991 316.902 37.2871 313.734 37.2871 313.734H362.711C362.711 313.734 339.999 316.902 332.367 316.902Z" fill="#999999" stroke="#1F2C5C" stroke-linecap="round" stroke-linejoin="round"/>
<path d="M362.711 313.711H37.2872C37.0693 313.706 36.8607 313.623 36.7005 313.476C36.5403 313.33 36.4395 313.131 36.4169 312.916C36.3944 312.701 36.4516 312.486 36.5779 312.31C36.7042 312.134 36.891 312.01 37.1032 311.961L67.6312 305.498H332.367L362.895 311.961C363.107 312.01 363.294 312.134 363.42 312.31C363.547 312.486 363.604 312.701 363.581 312.916C363.559 313.131 363.458 313.33 363.298 313.476C363.138 313.623 362.929 313.706 362.711 313.711Z" fill="#BFBFBF" stroke="#1F2C5C" stroke-linecap="round" stroke-linejoin="round"/>
<path d="M344.935 309.608H55.0625L68.2545 306.535H331.742L344.935 309.608Z" stroke="#1F2C5C" stroke-linecap="round" stroke-linejoin="round"/>
</svg>
