<?xml version="1.0" encoding="UTF-8"?>
<svg version="1.1" xmlns="http://www.w3.org/2000/svg" width="608" height="633">
<path d="M0 0 C5.69280043 3.16266691 8.14146566 8.59610386 10.25 14.5 C11.26101449 19.21806763 11.63353803 23.05413319 10.125 27.6875 C4.27081245 34.05823351 -6.29030784 35.24179451 -14.3984375 37.25 C-15.1925 37.44851562 -15.9865625 37.64703125 -16.8046875 37.8515625 C-17.87178955 38.11187256 -17.87178955 38.11187256 -18.96044922 38.37744141 C-21.05223435 38.95244594 -21.05223435 38.95244594 -23.06835938 40.04541016 C-25.8520204 41.42105659 -28.54575564 41.4632411 -31.625 41.75 C-44.46363782 43.54236412 -51.21140631 50.46346591 -58.76757812 60.34375 C-69.81152335 75.18569223 -73.81986589 89.25967778 -71.54931641 107.65039062 C-70.89004111 111.37372142 -70.12702878 115.05750031 -69.3125 118.75 C-69.00233628 120.20162032 -68.6923672 121.65328224 -68.38256836 123.10498047 C-64.31677518 141.87390745 -59.49413396 160.4736473 -54.7610321 179.08242798 C-52.68181167 187.27024041 -50.64116807 195.46706474 -48.62185287 203.66980171 C-42.00167987 230.55723916 -35.23071592 257.38213541 -27.8125 284.0625 C-27.50225891 285.18130554 -27.19201782 286.30011108 -26.87237549 287.45281982 C-17.10480852 325.23549363 -17.10480852 325.23549363 9 353 C24.64324678 361.43859623 40.31159824 364.34162541 57.8671875 360.9453125 C68.71348315 357.67249012 78.76780687 351.74271137 87 344 C87.70511719 343.34773438 88.41023437 342.69546875 89.13671875 342.0234375 C97.35567992 333.66357985 101.26884567 322.60347719 104.890625 311.671875 C105.1482663 310.89519974 105.40590759 310.11852448 105.6713562 309.3183136 C108.48716728 300.69560244 110.82494711 291.9590214 113.125 283.1875 C113.60246993 281.38130313 114.08043013 279.5752358 114.55883789 277.76928711 C115.30401379 274.95587734 116.04869761 272.14234648 116.79109192 269.32820129 C118.38810659 263.28030783 120.02000842 257.2429778 121.67578125 251.2109375 C129.64589128 222.05833942 136.76821764 192.70478064 143.88256836 163.33422852 C144.19390292 162.04951078 144.19390292 162.04951078 144.51152706 160.73883915 C145.53234155 156.52537806 146.5510724 152.31143314 147.56584167 148.09651184 C149.37315945 140.60328534 151.20945379 133.12147857 153.16162109 125.66455078 C153.49179733 124.39148575 153.82197357 123.11842072 154.16215515 121.80677795 C154.76466043 119.49759834 155.37772184 117.19113018 156.00447083 114.88841248 C160.29799274 98.38740827 157.51824769 82.99617654 149.43359375 68.1171875 C143.08464513 57.54051672 134.124932 48.562466 123 43 C120.11293015 42.80012593 117.22784219 42.68201468 114.3359375 42.57421875 C111.37204911 42.06404124 109.86224259 41.51963294 107.296875 40.140625 C101.54107219 37.06742515 95.26965403 35.8600392 88.95703125 34.37695312 C83.07340066 32.89188268 79.23364092 31.42041919 75 27 C72.47303827 20.26143539 75.23473159 13.35135136 78 7 C79.93420262 3.93626303 81.70012002 1.56190533 85 0 C91.83581378 -1.0877875 96.50359545 0.6974747 102.25 4.25 C102.930625 4.64574219 103.61125 5.04148437 104.3125 5.44921875 C108.1339083 7.70799691 111.53789017 10.216157 115 13 C116.46192231 13.78308186 117.94104574 14.53511632 119.4375 15.25 C122.80633985 17.05591907 124.70777231 18.63050045 126.8125 21.8125 C129.99054328 26.5005528 134.1111272 28.93737252 138.83984375 31.9375 C157.03331871 43.81160974 170.39813255 61.55356113 175 83 C176.87798124 94.13925861 176.68180093 105.04275406 174.35424805 116.06030273 C174.08983052 117.34346076 174.08983052 117.34346076 173.82007122 118.65254116 C171.51325292 129.62081053 168.75892395 140.48126485 166.01953125 151.34765625 C165.44107969 153.65651533 164.86301949 155.96547248 164.2853241 158.27452087 C162.77239651 164.31671808 161.25364908 170.35743779 159.73376465 176.39788818 C158.51694556 181.23815814 157.30442189 186.079499 156.09209442 190.92089558 C150.3739116 213.75500573 144.6440642 236.58585903 138.72749329 259.36952209 C136.84828753 266.62220743 135.05290841 273.88567981 133.375 281.1875 C131.57211165 288.89076695 129.54133981 296.51568905 127.375 304.125 C127.08544434 305.16422607 126.79588867 306.20345215 126.49755859 307.27416992 C126.07724365 308.7201355 126.07724365 308.7201355 125.6484375 310.1953125 C125.40270996 311.05141113 125.15698242 311.90750977 124.90380859 312.78955078 C123.93293986 315.16400932 122.82823621 316.25001156 121 318 C120.32812416 320.24622899 119.75809894 322.52365809 119.25 324.8125 C114.83142976 342.68181349 104.8996872 357.05220612 89.4375 367.0078125 C78.85473671 373.14100486 64.51327771 381 52 381 C55.66408584 438.41890611 70.46158823 493.81550371 109 538 C109.825 538.95390625 110.65 539.9078125 111.5 540.890625 C113.62842148 543.29987987 115.79591526 545.65996237 118 548 C118.67933594 548.7321875 119.35867187 549.464375 120.05859375 550.21875 C126.46314646 556.89358658 133.62752495 562.45227706 141 568 C141.84522217 568.64437012 141.84522217 568.64437012 142.70751953 569.30175781 C175.08400884 593.87497406 214.74871702 608.92016807 255 613 C256.41406128 613.14356934 256.41406128 613.14356934 257.85668945 613.29003906 C314.83746861 618.57033048 374.56160687 603.79327354 419.03735352 566.89160156 C421.72143507 564.62806186 424.36531314 562.32069565 427 560 C427.50192871 559.56123535 428.00385742 559.1224707 428.52099609 558.67041016 C434.47647167 553.44839636 439.9575197 548.10291607 445 542 C445.82757812 541.02546875 446.65515625 540.0509375 447.5078125 539.046875 C452.52585051 533.15447932 452.52585051 533.15447932 457.05078125 526.8828125 C459 524 459 524 460.98828125 522.04296875 C463.56811158 519.42306339 465.3429947 516.46450795 467.1875 513.3125 C467.57478271 512.65459473 467.96206543 511.99668945 468.36108398 511.31884766 C469.58599871 509.21920583 470.79533752 507.11131927 472 505 C472.38381836 504.33242676 472.76763672 503.66485352 473.16308594 502.97705078 C486.66736351 479.26658908 494.65051618 453.02272799 498 426 C498.19722656 424.49566406 498.19722656 424.49566406 498.3984375 422.9609375 C503.54599294 374.68521485 490.24713171 324.8387733 471 281 C470.38535889 279.59693604 470.38535889 279.59693604 469.75830078 278.16552734 C456.64170638 248.61691914 438.49575275 221.67393972 419 196 C418.56896973 195.43087891 418.13793945 194.86175781 417.69384766 194.27539062 C414.08095225 189.53431042 410.66085343 185.72286577 406 182 C404.79992935 180.67534574 403.63084638 179.32171998 402.5 177.9375 C398.85080963 173.68040845 398.85080963 173.68040845 394 171 C389.00242424 171.44167437 384.78340869 172.68311498 380.125 174.5 C374.60820345 176.5172059 369.85207792 177.84183573 364 178 C363.05125 178.061875 362.1025 178.12375 361.125 178.1875 C344.99989423 178.81985709 328.9543691 173.79139793 316.875 162.9375 C303.09718149 149.93943118 295.10614776 136.08104886 294 117 C293.8865625 115.77539062 293.773125 114.55078125 293.65625 113.2890625 C292.72775877 96.94098475 299.61365594 82.08360635 310.2890625 69.91796875 C311.18367188 68.95503906 312.07828125 67.99210937 313 67 C313.72960937 66.21238281 314.45921875 65.42476563 315.2109375 64.61328125 C327.15794039 52.95496059 345.22018703 47.6723447 361.5859375 46.83984375 C378.29324577 47.6235962 392.18328762 54.33877068 404 66 C405.175625 67.06734375 405.175625 67.06734375 406.375 68.15625 C417.85241834 78.8581671 423.47068223 92.27963719 424.34375 107.7890625 C424.85360785 124.05417736 420.98717142 136.22587809 412.89208984 150.19165039 C411.92326585 152.15554731 411.29853969 153.82683116 411 156 C412.86972007 158.32764173 412.86972007 158.32764173 415.5 160.5625 C419.95453562 164.78812198 423.03842851 168.93791452 426.1796875 174.17578125 C428.12707342 177.19715468 430.28498708 179.83499298 432.625 182.5625 C462.10660527 217.25460046 485.47000478 259.90160433 500 303 C500.34756348 304.02625488 500.69512695 305.05250977 501.05322266 306.10986328 C506.63063698 322.81641572 510.76903537 339.69219678 514 357 C514.17934082 357.91088379 514.35868164 358.82176758 514.54345703 359.76025391 C519.70844947 386.77516472 519.87012784 419.10184007 514 446 C513.80132324 446.94037109 513.60264648 447.88074219 513.39794922 448.84960938 C505.31317759 486.17884708 488.99795335 521.63507887 462.921875 549.82421875 C460.84394257 552.06802962 460.84394257 552.06802962 458.9375 555.1875 C456.72170186 558.40398117 454.22791439 560.53505706 451.25 563.03125 C448.81995895 565.15753592 446.61334802 567.42329613 444.375 569.75 C438.38390164 575.79606257 431.8053448 580.91480845 425 586 C424.1330249 586.6501709 424.1330249 586.6501709 423.24853516 587.31347656 C370.44039888 626.65486699 306.4382942 639.06025143 241.71264648 629.7878418 C202.94803159 623.78852509 165.71203355 610.34653321 134 587 C133.1013623 586.33895264 133.1013623 586.33895264 132.18457031 585.66455078 C94.48200705 557.6215797 66.064178 518.03393714 50 474 C49.55398437 472.83597656 49.10796875 471.67195313 48.6484375 470.47265625 C39.56342963 445.35700545 35.45583577 418.26498969 33.7331543 391.72705078 C33.66523682 390.7626709 33.59731934 389.79829102 33.52734375 388.8046875 C33.47312256 387.94858887 33.41890137 387.09249023 33.36303711 386.21044922 C33.10970459 383.71765986 33.10970459 383.71765986 31 381 C29.12714503 380.1529088 29.12714503 380.1529088 26.921875 379.640625 C25.6851001 379.30345459 25.6851001 379.30345459 24.42333984 378.95947266 C23.5411377 378.72534668 22.65893555 378.4912207 21.75 378.25 C8.51339312 374.49075633 -2.65592705 369.29846269 -13 360 C-13.61101562 359.48179687 -14.22203125 358.96359375 -14.8515625 358.4296875 C-51.48988389 325.13733153 -56.54886435 248.22481409 -68.07677472 202.17054623 C-69.95069031 194.68438322 -71.83064267 187.19977167 -73.71583736 179.71644115 C-75.19972088 173.82450353 -76.6780091 167.93117889 -78.15226185 162.03682423 C-79.02185902 158.56049565 -79.89355816 155.08473338 -80.77126694 151.61044312 C-83.94154593 139.05337914 -87.06800995 126.5031699 -89.45361328 113.76953125 C-89.61671934 112.91775803 -89.7798254 112.0659848 -89.94787407 111.18840027 C-93.35164563 91.95206957 -89.30734108 70.28726301 -78.40625 54.03125 C-70.42820335 43.98098344 -61.39088031 35.00164661 -50 29 C-48.51847778 28.03468761 -47.05890536 27.03472292 -45.625 26 C-45.01914062 25.566875 -44.41328125 25.13375 -43.7890625 24.6875 C-41.79920726 22.96135448 -41.79920726 22.96135448 -40.23828125 20.0859375 C-37.46599644 16.26376473 -34.69400334 14.73905471 -30.5625 12.625 C-29.12340903 11.86106244 -27.68592896 11.0940833 -26.25 10.32421875 C-25.53457031 9.94185059 -24.81914063 9.55948242 -24.08203125 9.16552734 C-22.11752728 8.06579212 -20.24709677 6.89381186 -18.375 5.64453125 C-6.98153508 -1.94663347 -6.98153508 -1.94663347 0 0 Z " fill="#272727" transform="translate(91,0)"/>
<path d="M0 0 C3.52784347 2.81459362 6.76693642 5.85473527 10 9 C11.17949219 10.06927734 11.17949219 10.06927734 12.3828125 11.16015625 C23.85092842 21.87021027 29.4706348 35.27879463 30.34375 50.7890625 C30.85360785 67.05417736 26.98717142 79.22587809 18.89208984 93.19165039 C17.92045801 95.16123906 17.28802089 96.81820012 17 99 C19.00273155 101.49820873 19.00273155 101.49820873 21.75 103.875 C25.55264458 107.34083892 27.93072479 110.26825735 30 115 C28.9275 115.556875 27.855 116.11375 26.75 116.6875 C23.33165287 118.61420475 21.36154604 120.85127195 19 124 C18.34 124 17.68 124 17 124 C17 125.32 17 126.64 17 128 C12.15131883 126.06052753 9.51941121 122.20095019 6.21875 118.3125 C3.51007873 115.46746065 3.51007873 115.46746065 0 114 C-5.00741771 114.32990046 -9.22271002 115.68550141 -13.875 117.5 C-19.39179655 119.5172059 -24.14792208 120.84183573 -30 121 C-30.94875 121.061875 -31.8975 121.12375 -32.875 121.1875 C-49.00010577 121.81985709 -65.0456309 116.79139793 -77.125 105.9375 C-90.90281851 92.93943118 -98.89385224 79.08104886 -100 60 C-100.1134375 58.77539062 -100.226875 57.55078125 -100.34375 56.2890625 C-101.27224123 39.94098475 -94.38634406 25.08360635 -83.7109375 12.91796875 C-82.81632812 11.95503906 -81.92171875 10.99210937 -81 10 C-80.27039063 9.21238281 -79.54078125 8.42476562 -78.7890625 7.61328125 C-58.97670534 -11.72033865 -23.11866941 -15.47808701 0 0 Z " fill="#EDECEC" transform="translate(485,57)"/>
<path d="M0 0 C35.22967073 34.54740598 61.35200044 84.5854165 77 131 C77.34756348 132.02625488 77.69512695 133.05250977 78.05322266 134.10986328 C83.63063698 150.81641572 87.76903537 167.69219678 91 185 C91.17934082 185.91088379 91.35868164 186.82176758 91.54345703 187.76025391 C96.70844947 214.77516472 96.87012784 247.10184007 91 274 C90.70198486 275.41055664 90.70198486 275.41055664 90.39794922 276.84960938 C82.31317759 314.17884708 65.99795335 349.63507887 39.921875 377.82421875 C37.84394257 380.06802962 37.84394257 380.06802962 35.9375 383.1875 C33.72170186 386.40398117 31.22791439 388.53505706 28.25 391.03125 C25.81995895 393.15753592 23.61334802 395.42329613 21.375 397.75 C15.38390164 403.79606257 8.8053448 408.91480845 2 414 C1.4220166 414.43344727 0.8440332 414.86689453 0.24853516 415.31347656 C-52.55960112 454.65486699 -116.5617058 467.06025143 -181.28735352 457.7878418 C-220.05196841 451.78852509 -257.28796645 438.34653321 -289 415 C-289.5990918 414.55930176 -290.19818359 414.11860352 -290.81542969 413.66455078 C-323.16879468 389.60028564 -360.2038685 349.31741194 -370 309 C-369.67 308.01 -369.34 307.02 -369 306 C-365.87424645 308.0838357 -365.45777557 308.66186787 -364.08984375 311.9375 C-363.74518066 312.7409082 -363.40051758 313.54431641 -363.04541016 314.37207031 C-362.6797998 315.23928711 -362.31418945 316.10650391 -361.9375 317 C-350.68674566 342.74380101 -335.22381561 364.59749788 -316 385 C-315.27167969 385.78246094 -314.54335938 386.56492187 -313.79296875 387.37109375 C-307.95386264 393.44853073 -301.49671885 398.58999077 -294.78222656 403.65332031 C-293.13380898 404.89889173 -291.49981264 406.16348695 -289.8671875 407.4296875 C-262.24198451 428.13162094 -230.07254329 441.25308569 -196.54101562 448.45214844 C-194.28993555 448.93748891 -192.0428673 449.4370552 -189.796875 449.9453125 C-180.24309293 452.07526824 -171.08925832 453.15210373 -161.3046875 453.203125 C-160.40273148 453.21013931 -159.50077545 453.21715363 -158.57148743 453.22438049 C-155.67260703 453.24180732 -152.77393087 453.24823387 -149.875 453.25 C-148.88513092 453.25067474 -147.89526184 453.25134949 -146.87539673 453.25204468 C-132.3655013 453.23630838 -118.27806021 452.7869755 -104 450 C-103.10297363 449.83902832 -102.20594727 449.67805664 -101.28173828 449.51220703 C-70.38999462 443.92237474 -40.79977172 432.8457992 -15.3203125 414.34375 C-12.8412725 412.55456603 -10.38395575 411.08190967 -7.625 409.75 C-2.95949217 407.24636292 0.30890585 403.8880208 3.93359375 400.07421875 C6.38608244 397.61245789 9.07541954 395.86109666 12 394 C16.30176372 390.12841265 19.62704288 385.67113993 23 381 C15.48702425 384.72151126 9.52481783 389.04889157 3.5 394.8125 C2.85514648 395.42625488 2.21029297 396.04000977 1.54589844 396.67236328 C-1.21803147 399.3140881 -3.96816925 401.96899602 -6.70703125 404.63671875 C-33.08683618 428.56442787 -76.12262729 443.42468874 -111 448 C-112.14154541 448.15251221 -112.14154541 448.15251221 -113.30615234 448.30810547 C-173.20405742 454.98989603 -233.63945827 442.42010055 -283 407 C-283.95648438 406.31679688 -284.91296875 405.63359375 -285.8984375 404.9296875 C-302.06483754 393.09130007 -316.61256895 379.78747769 -329 364 C-329.77859375 363.04996094 -330.5571875 362.09992188 -331.359375 361.12109375 C-348.75712632 339.42931145 -360.11635973 314.16317005 -369 288 C-369.39832031 286.86820312 -369.79664063 285.73640625 -370.20703125 284.5703125 C-373.8374853 273.66448638 -375.82567394 262.26577361 -378 251 C-378.16951172 250.15066895 -378.33902344 249.30133789 -378.51367188 248.42626953 C-381.10732409 235.25083912 -381.35257921 222.40343429 -381 209 C-380.01 209 -379.02 209 -378 209 C-377.90295776 210.20438721 -377.90295776 210.20438721 -377.80395508 211.43310547 C-372.80418286 271.79945397 -356.23329744 330.68169703 -313 375 C-312.48373047 375.53141602 -311.96746094 376.06283203 -311.43554688 376.61035156 C-305.52006863 382.67609909 -299.48630949 388.54093409 -293 394 C-292.49210937 394.45890625 -291.98421875 394.9178125 -291.4609375 395.390625 C-288.83372685 397.7228013 -286.28973551 399.4157737 -283.125 400.875 C-280.05011638 402.32268532 -277.79910059 403.93615271 -275.3125 406.25 C-263.25171297 417.25282326 -247.24323175 423.82858295 -232.3125 430 C-231.36262207 430.41048584 -230.41274414 430.82097168 -229.43408203 431.24389648 C-223.34502161 433.68552855 -219.06377086 434.13091673 -212.5925293 433.22460938 C-208.49591581 432.86969042 -205.11247505 433.99758398 -201.25 435.25 C-193.90098242 437.40545273 -186.66200631 438.80285839 -179.0625 439.75 C-178.14049805 439.86504883 -177.21849609 439.98009766 -176.26855469 440.09863281 C-173.5143957 440.42433007 -170.75920195 440.7203299 -168 441 C-167.05729248 441.09571289 -166.11458496 441.19142578 -165.14331055 441.29003906 C-108.16253139 446.57033048 -48.43839313 431.79327354 -3.96264648 394.89160156 C-1.27856493 392.62806186 1.36531314 390.32069565 4 388 C4.75289307 387.34185303 4.75289307 387.34185303 5.52099609 386.67041016 C11.47647167 381.44839636 16.9575197 376.10291607 22 370 C22.82757812 369.02546875 23.65515625 368.0509375 24.5078125 367.046875 C29.52585051 361.15447932 29.52585051 361.15447932 34.05078125 354.8828125 C36 352 36 352 37.98828125 350.04296875 C40.56811158 347.42306339 42.3429947 344.46450795 44.1875 341.3125 C44.76842407 340.32564209 44.76842407 340.32564209 45.36108398 339.31884766 C46.58599871 337.21920583 47.79533752 335.11131927 49 333 C49.38381836 332.33242676 49.76763672 331.66485352 50.16308594 330.97705078 C63.66736351 307.26658908 71.65051618 281.02272799 75 254 C75.13148438 252.99710938 75.26296875 251.99421875 75.3984375 250.9609375 C80.54599294 202.68521485 67.24713171 152.8387733 48 109 C47.59023926 108.06462402 47.18047852 107.12924805 46.75830078 106.16552734 C32.49227645 74.02752333 12.5500135 42.41863456 -10.7421875 16.0078125 C-12.33853576 13.45960441 -12.41274391 11.95639826 -12 9 C-8.57953155 5.00945348 -5.01338942 1.67112981 0 0 Z " fill="#171717" transform="translate(514,172)"/>
<path d="M0 0 C5.69280043 3.16266691 8.14146566 8.59610386 10.25 14.5 C11.26101449 19.21806763 11.63353803 23.05413319 10.125 27.6875 C4.27081245 34.05823351 -6.29030784 35.24179451 -14.3984375 37.25 C-15.1925 37.44851562 -15.9865625 37.64703125 -16.8046875 37.8515625 C-17.87178955 38.11187256 -17.87178955 38.11187256 -18.96044922 38.37744141 C-21.05223435 38.95244594 -21.05223435 38.95244594 -23.06835938 40.04541016 C-25.8520204 41.42105659 -28.54575564 41.4632411 -31.625 41.75 C-44.46363782 43.54236412 -51.21140631 50.46346591 -58.76757812 60.34375 C-69.81152335 75.18569223 -73.81986589 89.25967778 -71.54931641 107.65039062 C-70.89004111 111.37372142 -70.12702878 115.05750031 -69.3125 118.75 C-69.00233628 120.20162032 -68.6923672 121.65328224 -68.38256836 123.10498047 C-64.32844203 141.82004974 -59.52244667 160.36750423 -54.80635071 178.92381287 C-52.43916923 188.24402519 -50.102766 197.57164927 -47.77734375 206.90234375 C-47.4177377 208.34468787 -47.05812366 209.78702999 -46.69850159 211.22937012 C-45.45973941 216.19830248 -44.22122601 221.1672969 -42.98335648 226.13645172 C-39.08536555 241.78347466 -35.16626662 257.42183897 -31 273 C-38.3125 273.8125 -38.3125 273.8125 -40.6027832 274.04614258 C-44.51502455 274.52554539 -46.42234773 275.0634778 -49 278 C-53.89426436 258.56381343 -58.78019082 239.12554857 -63.65650558 219.68485069 C-65.92142871 210.65594695 -68.18895967 201.62771394 -70.46289062 192.60107422 C-72.4474621 184.7230523 -74.42687576 176.84375454 -76.40039372 168.96295607 C-77.44315536 164.79965438 -78.48829301 160.63698559 -79.5396347 156.47584152 C-87.07731259 126.62858004 -87.07731259 126.62858004 -89.54394531 113.41259766 C-89.7015974 112.5823728 -89.8592495 111.75214794 -90.02167892 110.89676476 C-93.34954092 91.77164642 -89.22713817 70.16766218 -78.40625 54.03125 C-70.42820335 43.98098344 -61.39088031 35.00164661 -50 29 C-48.51847778 28.03468761 -47.05890536 27.03472292 -45.625 26 C-45.01914062 25.566875 -44.41328125 25.13375 -43.7890625 24.6875 C-41.79920726 22.96135448 -41.79920726 22.96135448 -40.23828125 20.0859375 C-37.46599644 16.26376473 -34.69400334 14.73905471 -30.5625 12.625 C-29.12340903 11.86106244 -27.68592896 11.0940833 -26.25 10.32421875 C-25.53457031 9.94185059 -24.81914063 9.55948242 -24.08203125 9.16552734 C-22.11752728 8.06579212 -20.24709677 6.89381186 -18.375 5.64453125 C-6.98153508 -1.94663347 -6.98153508 -1.94663347 0 0 Z " fill="#BFC0BE" transform="translate(91,0)"/>
<path d="M0 0 C2.96989195 1.09239346 5.56388226 2.58939621 8.25 4.25 C9.2709375 4.84361328 9.2709375 4.84361328 10.3125 5.44921875 C14.1339083 7.70799691 17.53789017 10.216157 21 13 C22.46192231 13.78308186 23.94104574 14.53511632 25.4375 15.25 C28.80633985 17.05591907 30.70777231 18.63050045 32.8125 21.8125 C35.99054328 26.5005528 40.1111272 28.93737252 44.83984375 31.9375 C63.03331871 43.81160974 76.39813255 61.55356113 81 83 C82.87798124 94.13925861 82.68180093 105.04275406 80.35424805 116.06030273 C80.08983052 117.34346076 80.08983052 117.34346076 79.82007122 118.65254116 C77.51325292 129.62081053 74.75892395 140.48126485 72.01953125 151.34765625 C71.44107969 153.65651533 70.86301949 155.96547248 70.2853241 158.27452087 C68.77239651 164.31671808 67.25364908 170.35743779 65.73376465 176.39788818 C64.51695229 181.23813137 63.30443369 186.07944504 62.09211922 190.92081642 C52.42537183 229.52230229 52.42537183 229.52230229 48.16552734 246.02294922 C47.95090568 246.85449618 47.73628401 247.68604315 47.51515865 248.54278851 C46.54309768 252.30493627 45.56716836 256.06601901 44.58467102 259.82545471 C44.08776009 261.73801308 44.08776009 261.73801308 43.58081055 263.68920898 C43.15495918 265.31704567 43.15495918 265.31704567 42.72050476 266.97776794 C42.00644971 269.97294603 41.4684614 272.95759327 41 276 C38.95737483 275.71512349 36.91592973 275.42177949 34.875 275.125 C33.73804688 274.96257812 32.60109375 274.80015625 31.4296875 274.6328125 C28.13519192 274.0249443 25.16106226 273.08988773 22 272 C22.31412842 270.87513184 22.62825684 269.75026367 22.9519043 268.59130859 C32.56429094 234.0367254 41.18104899 199.26643422 49.62573242 164.41162109 C49.9511875 163.06872985 49.9511875 163.06872985 50.28321743 161.69870949 C51.34645097 157.3100088 52.40735446 152.9207681 53.46379089 148.53042603 C55.31230081 140.86109076 57.1869582 133.20243777 59.18408203 125.5703125 C59.51509415 124.29385864 59.84610626 123.01740479 60.18714905 121.70227051 C60.787669 119.40126492 61.39874917 117.10297149 62.02366638 114.80847168 C66.30967411 98.34656052 63.49595482 82.95514876 55.43359375 68.1171875 C49.08464513 57.54051672 40.124932 48.562466 29 43 C26.11293015 42.80012593 23.22784219 42.68201468 20.3359375 42.57421875 C17.37204911 42.06404124 15.86224259 41.51963294 13.296875 40.140625 C7.54107219 37.06742515 1.26965403 35.8600392 -5.04296875 34.37695312 C-10.92659934 32.89188268 -14.76635908 31.42041919 -19 27 C-21.52696173 20.26143539 -18.76526841 13.35135136 -16 7 C-11.83620007 0.40462698 -7.63146881 -1.14483738 0 0 Z " fill="#B9B9B8" transform="translate(185,0)"/>
<path d="M0 0 C1.23492187 0.26167969 2.46984375 0.52335937 3.7421875 0.79296875 C17.06938987 3.75177433 26.11551162 8.38394022 36 18 C37.17949219 19.06927734 37.17949219 19.06927734 38.3828125 20.16015625 C49.85092842 30.87021027 55.4706348 44.27879463 56.34375 59.7890625 C56.85360785 76.05417736 52.98717142 88.22587809 44.89208984 102.19165039 C43.92045801 104.16123906 43.28802089 105.81820012 43 108 C45.00273155 110.49820873 45.00273155 110.49820873 47.75 112.875 C51.55264458 116.34083892 53.93072479 119.26825735 56 124 C50.921875 127.3203125 50.921875 127.3203125 49 128 C40.96732597 125.56779591 34.68048851 114.57103877 30 108 C31.28152779 105.17577999 32.62385266 103.23959775 34.8125 101.0625 C42.23463315 92.43677769 43.95774512 82.03653257 43.41796875 71.02734375 C42.67968865 62.20727477 39.23625415 54.31654927 33 48 C29.83872816 45.33096772 26.55773582 43.10690502 23 41 C22.27425781 40.56300781 21.54851562 40.12601563 20.80078125 39.67578125 C11.38041842 34.99026047 -2.19825774 35.31657413 -12.0625 38.5625 C-18.5438483 41.41954294 -25.61999619 45.18978355 -29.3125 51.4375 C-31 54 -31 54 -33.5625 54.5625 C-36.43668785 53.89922588 -37.41885935 53.49653787 -39 51 C-39.39453125 48.234375 -39.39453125 48.234375 -39 45 C-37.33240703 42.83390948 -35.85731115 41.19297447 -33.875 39.375 C-33.400625 38.9109375 -32.92625 38.446875 -32.4375 37.96875 C-22.21180688 28.18524902 -10.68560646 26.71510376 3 26 C2.71488328 19.72743209 0.23484793 15.15543569 -2.72265625 9.671875 C-4 7 -4 7 -4 4 C-27.40412417 4.51494223 -41.6170925 12.6170925 -58 29 C-58.99 29 -59.98 29 -61 29 C-57.47199123 18.72673095 -48.3219557 11.85984624 -39 7 C-27.58211879 1.529553 -12.66064889 -2.99214692 0 0 Z " fill="#9B9B9B" transform="translate(459,48)"/>
<path d="M0 0 C0.99 0 1.98 0 3 0 C3.06469482 0.8029248 3.12938965 1.60584961 3.19604492 2.43310547 C8.19581714 62.79945397 24.76670256 121.68169703 68 166 C68.51626953 166.53141602 69.03253906 167.06283203 69.56445312 167.61035156 C75.47993137 173.67609909 81.51369051 179.54093409 88 185 C88.50789063 185.45890625 89.01578125 185.9178125 89.5390625 186.390625 C92.16627315 188.7228013 94.71026449 190.4157737 97.875 191.875 C100.94988362 193.32268532 103.20089941 194.93615271 105.6875 197.25 C117.74828703 208.25282326 133.75676825 214.82858295 148.6875 221 C150.11231689 221.61572876 150.11231689 221.61572876 151.56591797 222.24389648 C157.65497839 224.68552855 161.93622914 225.13091673 168.4074707 224.22460938 C172.50408419 223.86969042 175.88752495 224.99758398 179.75 226.25 C187.09901758 228.40545273 194.33799369 229.80285839 201.9375 230.75 C202.85950195 230.86504883 203.78150391 230.98009766 204.73144531 231.09863281 C207.4856043 231.42433007 210.24079805 231.7203299 213 232 C213.94270752 232.09571289 214.88541504 232.19142578 215.85668945 232.29003906 C272.83746861 237.57033048 332.56160687 222.79327354 377.03735352 185.89160156 C379.72143507 183.62806186 382.36531314 181.32069565 385 179 C385.50192871 178.56123535 386.00385742 178.1224707 386.52099609 177.67041016 C392.47647167 172.44839636 397.9575197 167.10291607 403 161 C403.82757812 160.02546875 404.65515625 159.0509375 405.5078125 158.046875 C410.52585051 152.15447932 410.52585051 152.15447932 415.05078125 145.8828125 C417 143 417 143 418.98828125 141.04296875 C421.56811158 138.42306339 423.3429947 135.46450795 425.1875 132.3125 C425.76842407 131.32564209 425.76842407 131.32564209 426.36108398 130.31884766 C427.58599871 128.21920583 428.79533752 126.11131927 430 124 C430.38381836 123.33242676 430.76763672 122.66485352 431.16308594 121.97705078 C440.36085913 105.82783822 446.61504513 88.85961277 451.09838867 70.84301758 C451.32115479 69.96154053 451.5439209 69.08006348 451.7734375 68.171875 C451.96341309 67.3890918 452.15338867 66.60630859 452.34912109 65.79980469 C453 64 453 64 455 63 C456.2208901 74.70504158 453.26756236 83.72653283 449.00439453 94.46826172 C448.05713398 96.85598459 447.14952999 99.25559449 446.24609375 101.66015625 C439.0305558 120.29401526 428.61833532 137.55076858 416 153 C414.54756698 154.92633092 413.10947312 156.86357595 411.6875 158.8125 C411.03652344 159.70195313 410.38554688 160.59140625 409.71484375 161.5078125 C408.21567118 163.68656443 406.98774474 165.85709415 405.75 168.1875 C402.97470211 172.76674152 398.77821907 174.95072051 394.3203125 177.73828125 C389.52968083 180.86168244 385.51757608 184.83858575 381.3984375 188.77734375 C380.8725 189.27596924 380.3465625 189.77459473 379.8046875 190.28833008 C378.45906456 191.56459664 377.12184924 192.84973886 375.7890625 194.1394043 C369.75108074 199.81503504 363.52635861 204.00501409 356.25 207.9375 C354.6098291 208.8351709 354.6098291 208.8351709 352.93652344 209.75097656 C327.07711778 223.72478564 299.37183228 235.41010939 270 239 C269.2462207 239.09877441 268.49244141 239.19754883 267.71582031 239.29931641 C207.81318976 245.99879614 147.3649019 233.42322931 98 198 C96.56527344 196.97519531 96.56527344 196.97519531 95.1015625 195.9296875 C78.93516246 184.09130007 64.38743105 170.78747769 52 155 C51.22140625 154.04996094 50.4428125 153.09992188 49.640625 152.12109375 C32.24287368 130.42931145 20.88364027 105.16317005 12 79 C11.60167969 77.86820312 11.20335937 76.73640625 10.79296875 75.5703125 C7.1625147 64.66448638 5.17432606 53.26577361 3 42 C2.83048828 41.15066895 2.66097656 40.30133789 2.48632812 39.42626953 C-0.10732409 26.25083912 -0.35257921 13.40343429 0 0 Z " fill="#171717" transform="translate(133,381)"/>
<path d="M0 0 C4.34617077 1.56462148 6.6901121 4.92055342 9.4375 8.4375 C9.95683105 9.09492188 10.47616211 9.75234375 11.01123047 10.4296875 C16.87198697 17.95668599 22.20636573 25.83706565 27.50097656 33.76757812 C28.84515893 35.76940282 30.20927591 37.75481945 31.5859375 39.734375 C49.34318852 65.45017749 62.83978292 93.89948303 74 123 C74.33483398 123.85754883 74.66966797 124.71509766 75.01464844 125.59863281 C79.86167705 138.1946997 82.83625931 151.23997937 85.8125 164.375 C86.00781311 165.23290131 86.20312622 166.09080261 86.40435791 166.97470093 C89.87792345 182.34505379 92.38424232 197.2973776 92.3125 213.125 C92.30831055 214.43033691 92.30412109 215.73567383 92.29980469 217.08056641 C92.20706201 227.8728342 91.57367596 238.61623941 90.75 249.375 C90.66826035 250.51319183 90.66826035 250.51319183 90.58486938 251.67437744 C89.51414049 266.20228906 86.76364201 280.1556616 81.75 293.875 C81.45335449 294.70032227 81.15670898 295.52564453 80.85107422 296.37597656 C70.83821768 323.83176139 56.26848794 354.17912603 34 374 C33.34 374 32.68 374 32 374 C33.15223695 366.542826 37.98622992 361.2627726 42.5390625 355.44116211 C56.10904029 338.08584734 67.55121942 318.77022295 75 298 C75.56217495 296.58008387 76.1260478 295.16083908 76.69140625 293.7421875 C80.41707379 284.01707592 81.45931436 275.78773565 81.08203125 265.4140625 C80.91732057 260.45999045 81.63052242 255.80639391 82.48828125 250.93359375 C91.06869803 201.74357082 75.60485213 147.65354531 56 103 C55.59023926 102.06462402 55.18047852 101.12924805 54.75830078 100.16552734 C40.49227645 68.02752333 20.5500135 36.41863456 -2.7421875 10.0078125 C-4.3282115 7.47608474 -4.39922714 5.93578006 -4 3 C-2 1.1875 -2 1.1875 0 0 Z " fill="#262626" transform="translate(506,178)"/>
<path d="M0 0 C0.99 0 1.98 0 3 0 C3.06993164 0.72251953 3.13986328 1.44503906 3.21191406 2.18945312 C9.95659819 70.85077124 30.92714961 137.46957077 85.21386719 183.53857422 C96.44890217 192.73115478 108.32299644 200.9400561 121 208 C121.6511377 208.36931641 122.30227539 208.73863281 122.97314453 209.11914062 C160.14685753 230.10588699 198.46078133 238.16786002 240.75 238.3125 C242.23684296 238.31869354 242.23684296 238.31869354 243.75372314 238.32501221 C255.37096602 238.34692926 266.51441271 237.85100581 278 236 C279.45998295 235.82516885 280.92080712 235.65702364 282.3828125 235.5 C305.6019067 232.39765756 328.23443543 222.47185241 349 212 C349.98758301 211.50661133 350.97516602 211.01322266 351.99267578 210.50488281 C365.68025026 203.55788944 376.49985172 195.63309529 387.25927734 184.72216797 C401.12928835 171 401.12928835 171 408 171 C406.76915325 175.64986551 404.32853724 177.63014531 400.73046875 180.5234375 C398.81098639 182.06302825 398.81098639 182.06302825 396.9375 184.625 C394.62105266 187.4645161 392.04614098 188.96923935 389 191 C387.8761587 192.12654284 386.77306873 193.27403166 385.6875 194.4375 C383.22741204 196.98482512 380.94140425 198.73623705 377.80078125 200.36328125 C373.14258003 202.87037662 368.84917455 205.74800997 364.5 208.75 C341.7273196 224.11299144 316.64329206 233.65370592 289.75 239.125 C287.97689453 239.50205078 287.97689453 239.50205078 286.16796875 239.88671875 C270.24800841 243.16688318 254.85437523 244.33256791 238.6328125 244.26074219 C235.73937286 244.2499604 232.84654673 244.26073848 229.953125 244.2734375 C220.11722671 244.2824927 210.67044299 243.98422601 201 242 C199.77974121 241.76120117 198.55948242 241.52240234 197.30224609 241.27636719 C133.26683155 228.53353888 77.56216691 195.97667132 40.46240234 141.20410156 C32.91105269 129.82286873 26.84956053 117.87163715 21.12890625 105.484375 C19.98043409 102.99798937 18.85329122 100.77221531 17.3671875 98.46484375 C15.32686399 94.78643194 14.53331273 90.88478705 13.5625 86.8125 C12.37744781 81.86081728 11.13897786 77.19919604 9.0390625 72.55078125 C5.85658985 64.87197111 5.04358001 56.54076563 3.8125 48.375 C3.55118425 46.70556384 3.28882157 45.0362912 3.02539062 43.3671875 C-0.13786939 23.16205677 -0.13786939 23.16205677 -0.09765625 16.40625 C-0.09443359 15.43945312 -0.09121094 14.47265625 -0.08789062 13.4765625 C-0.07951172 12.49429687 -0.07113281 11.51203125 -0.0625 10.5 C-0.05798828 9.48679687 -0.05347656 8.47359375 -0.04882812 7.4296875 C-0.03714593 4.95306173 -0.02076582 2.47656343 0 0 Z " fill="#656565" transform="translate(129,382)"/>
<path d="M0 0 C0.91007813 0.15339844 1.82015625 0.30679687 2.7578125 0.46484375 C6.16562512 1.02733812 9.57953175 1.52113444 13 2 C13 2.33 13 2.66 13 3 C11.35 3 9.7 3 8 3 C7.79246094 3.96035156 7.58492187 4.92070312 7.37109375 5.91015625 C0.65670364 36.11552884 -7.40673049 68.797957 -34.8125 86.75 C-52.56257985 97.9624694 -72.40390093 101.72142046 -93.1015625 97.75390625 C-98.32861803 96.39430825 -103.13764348 94.32772387 -108 92 C-109.3921875 91.33484375 -109.3921875 91.33484375 -110.8125 90.65625 C-117.987665 86.98713153 -123.96856406 82.31408205 -130 77 C-130.64839844 76.47019531 -131.29679687 75.94039063 -131.96484375 75.39453125 C-147.93516616 61.30733075 -153.90617285 31.43818278 -158.4675293 11.49511719 C-159.6238084 6.57693309 -159.6238084 6.57693309 -163 3 C-161.00383446 1.00383446 -157.18298037 1.59016573 -154.4375 1.4375 C-153.37112305 1.37272461 -153.37112305 1.37272461 -152.28320312 1.30664062 C-150.52238088 1.20028223 -148.7612168 1.09961154 -147 1 C-146.64808594 2.2375 -146.29617187 3.475 -145.93359375 4.75 C-145.1664275 7.44668163 -144.39647014 10.14247636 -143.62060547 12.83666992 C-142.1513323 17.94035003 -140.71009301 23.04877719 -139.32421875 28.17578125 C-135.2047162 43.19480095 -130.54148248 58.10920776 -120 70 C-119.52691406 70.57621094 -119.05382812 71.15242188 -118.56640625 71.74609375 C-109.13405819 82.30750093 -92.91656799 89.44114868 -78.8515625 90.37109375 C-74.87303799 90.49940282 -70.96905931 90.29477323 -67 90 C-65.97390625 89.93941406 -64.9478125 89.87882812 -63.890625 89.81640625 C-50.88985589 88.39334909 -38.37670098 80.81916741 -29 72 C-28.29488281 71.34773438 -27.58976563 70.69546875 -26.86328125 70.0234375 C-9.89442237 52.7636839 -5.84112039 22.55680945 0 0 Z " fill="#666666" transform="translate(207,272)"/>
<path d="M0 0 C4.78049347 1.53626444 8.11333048 4.24650825 11.9375 7.375 C15.33304751 10.12675465 18.67003695 12.78415078 22.33203125 15.1796875 C26.68810745 18.15176878 27.70907002 21.67898302 28.81640625 26.70703125 C29.92346318 31.21691861 31.85844094 34.94489687 34.1875 38.9375 C34.5896875 39.63625244 34.991875 40.33500488 35.40625 41.05493164 C38.53716564 46.40171555 41.88774722 51.35136642 46 56 C46.67546875 56.8146875 47.3509375 57.629375 48.046875 58.46875 C52.67947759 63.65989332 56.21472904 66.12396936 63.19140625 66.859375 C64.11824219 66.90578125 65.04507813 66.9521875 66 67 C66.87527344 67.06703125 67.75054687 67.1340625 68.65234375 67.203125 C75.33175675 67.47775578 81.37827423 66.19851952 87.8359375 64.55859375 C90.97602366 64.00423286 92.9610672 64.14067631 96 65 C95.890625 68.29296875 95.890625 68.29296875 95 72 C87.37974886 77.42887834 77.14471264 79.28626633 68 80 C66.96359375 80.0825 65.9271875 80.165 64.859375 80.25 C48.8944854 80.87915821 32.79681812 75.64983075 20.875 64.9375 C6.43687295 51.31649252 -1.36708049 36.88203098 -2.07519531 16.87548828 C-2.13236255 14.70846254 -2.16550468 12.54265162 -2.1875 10.375 C-2.20047119 9.68833252 -2.21344238 9.00166504 -2.22680664 8.29418945 C-2.23366965 4.62430753 -2.0941513 3.14122696 0 0 Z " fill="#D6D5D5" transform="translate(387,98)"/>
<path d="M0 0 C35.22967073 34.54740598 61.35200044 84.5854165 77 131 C77.34756348 132.02625488 77.69512695 133.05250977 78.05322266 134.10986328 C83.63063698 150.81641572 87.76903537 167.69219678 91 185 C91.17934082 185.91088379 91.35868164 186.82176758 91.54345703 187.76025391 C96.70844947 214.77516472 96.87012784 247.10184007 91 274 C90.80132324 274.94037109 90.60264648 275.88074219 90.39794922 276.84960938 C82.38243982 313.85904752 65.82373312 353.29347222 38 380 C35.73828125 381.2734375 35.73828125 381.2734375 34 382 C35.66541908 372.84019508 40.46018149 366.85164189 46.25366211 359.78125 C52.67125745 351.93339026 58.21530805 343.95727598 63 335 C63.81065918 333.48708374 63.81065918 333.48708374 64.63769531 331.94360352 C68.99283433 323.55341759 72.30184814 315.09984562 75.125 306.0625 C75.33688965 305.39590363 75.5487793 304.72930725 75.76708984 304.04251099 C79.62848183 291.86866166 82.83634424 279.59516705 85 267 C85.18256348 265.96399658 85.36512695 264.92799316 85.55322266 263.8605957 C87.0892488 254.3154858 87.39825291 244.95445939 87.375 235.3125 C87.37478851 234.49618103 87.37457703 233.67986206 87.37435913 232.83880615 C87.21691304 171.15127903 68.97761539 113.47252804 37 61 C36.484375 60.14680176 35.96875 59.29360352 35.4375 58.41455078 C29.39953599 48.459379 22.95361019 38.92979731 15.89453125 29.66674805 C12.35236956 24.99070058 9.24169593 20.21841513 6.32983398 15.12353516 C4.59793223 12.35796117 2.80773436 10.65584334 0 9 C-0.886875 8.835 -1.77375 8.67 -2.6875 8.5 C-3.450625 8.335 -4.21375 8.17 -5 8 C-6.3125 5.9375 -6.3125 5.9375 -7 4 C-4.61426621 2.10786631 -2.92824652 0.97608217 0 0 Z " fill="#222222" transform="translate(514,172)"/>
<path d="M0 0 C0.66 0.45375 1.32 0.9075 2 1.375 C2 2.695 2 4.015 2 5.375 C-0.08984375 7.3046875 -0.08984375 7.3046875 -2.9375 9.25 C-3.93652344 9.94222656 -4.93554688 10.63445313 -5.96484375 11.34765625 C-12.96748186 16.02509406 -12.96748186 16.02509406 -16.125 18.05078125 C-18.05005005 19.32486579 -18.05005005 19.32486579 -19.625 21.04296875 C-21 22.375 -21 22.375 -23 22.375 C-23.23074219 22.90996094 -23.46148438 23.44492187 -23.69921875 23.99609375 C-25.0597191 26.48421602 -26.69529453 28.59182872 -28.47851562 30.79003906 C-40.75466828 45.95099772 -43.44898367 61.24590111 -42 80.375 C-39.83974669 98.64831152 -34.54728454 116.64010875 -30.01226807 134.43666077 C-27.92217549 142.6407537 -25.93276859 150.85311155 -24.125 159.125 C-22.78212259 165.23477938 -21.19596448 171.06898677 -19.09375 176.96875 C-14.73206766 190.55227499 -11.89436415 204.69258184 -8.83544922 218.61523438 C-7.28124193 225.52899484 -5.26385265 232.18322291 -2.91796875 238.8671875 C-1.85566222 242.92655457 -1.83932567 246.1974673 -2 250.375 C-3.423125 250.808125 -3.423125 250.808125 -4.875 251.25 C-8.05211578 252.14325109 -8.05211578 252.14325109 -10 254.375 C-14.89426436 234.93881343 -19.78019082 215.50054857 -24.65650558 196.05985069 C-26.92142871 187.03094695 -29.18895967 178.00271394 -31.46289062 168.97607422 C-33.4474621 161.0980523 -35.42687576 153.21875454 -37.40039372 145.33795607 C-38.44315536 141.17465438 -39.48829301 137.01198559 -40.5396347 132.85084152 C-48.07731259 103.00358004 -48.07731259 103.00358004 -50.54394531 89.78759766 C-50.7015974 88.9573728 -50.8592495 88.12714794 -51.02167892 87.27176476 C-54.34954092 68.14664642 -50.22713817 46.54266218 -39.40625 30.40625 C-32.16746283 21.28725837 -23.62418981 11.92815476 -13.17578125 6.5546875 C-10.74816934 5.23845986 -8.80438035 3.64233981 -6.6875 1.875 C-3.39057038 -0.70636883 -3.39057038 -0.70636883 0 0 Z " fill="#F5F5F5" transform="translate(52,23.625)"/>
<path d="M0 0 C5.69280043 3.16266691 8.14146566 8.59610386 10.25 14.5 C11.26101449 19.21806763 11.63353803 23.05413319 10.125 27.6875 C2.67026675 35.80000384 -16.28680081 38.82530711 -27 40 C-29.375 39.5625 -29.375 39.5625 -31 39 C-31.0515625 38.43152344 -31.103125 37.86304688 -31.15625 37.27734375 C-32.09040402 30.91872716 -34.30432872 28.15087373 -39.3203125 24.21484375 C-40.15175781 23.61349609 -40.15175781 23.61349609 -41 23 C-39.68498593 18.76069828 -38.38688302 17.19092975 -34.50390625 15.0859375 C-33.60687988 14.58288086 -32.70985352 14.07982422 -31.78564453 13.56152344 C-30.86638184 13.0462207 -29.94711914 12.53091797 -29 12 C-27.31448996 10.9409427 -25.63591954 9.87075199 -23.96484375 8.7890625 C-22.2890625 7.734375 -20.61328125 6.6796875 -18.9375 5.625 C-18.10412109 5.07972656 -17.27074219 4.53445312 -16.41210938 3.97265625 C-10.93710103 0.57261216 -6.491708 -1.20077352 0 0 Z " fill="#080808" transform="translate(91,0)"/>
<path d="M0 0 C2.96989195 1.09239346 5.56388226 2.58939621 8.25 4.25 C9.2709375 4.84361328 9.2709375 4.84361328 10.3125 5.44921875 C14.13342564 7.70771162 17.54308985 10.209905 21 13 C23.30355634 14.33085988 25.6447414 15.54058173 28.01171875 16.75390625 C30 18 30 18 32 21 C31.44570312 21.71285156 30.89140625 22.42570312 30.3203125 23.16015625 C24.77872188 30.44505168 24.77872188 30.44505168 22 39 C16.12896471 40.06212958 11.97242275 39.84268968 6.3125 37.8125 C4.91826678 37.34026501 3.52373042 36.86892416 2.12890625 36.3984375 C1.43941895 36.16092773 0.74993164 35.92341797 0.03955078 35.67871094 C-4.03333252 34.32335834 -8.19046621 33.22927517 -12.328125 32.08984375 C-15.36219746 30.85226156 -16.92347839 29.51468672 -19 27 C-21.3412444 20.12259458 -18.80752637 13.44841072 -16 7 C-11.83620007 0.40462698 -7.63146881 -1.14483738 0 0 Z " fill="#1E1E1E" transform="translate(185,0)"/>
<path d="M0 0 C5.05858263 3.41160224 8.57500516 7.03093519 10.6875 12.8125 C11.59457809 19.60937278 10.38981302 25.09587341 6.29296875 30.73046875 C3.15920009 34.57826065 0.59401584 37.36693786 -4.50390625 38.1484375 C-11.95140022 38.27113098 -19.49581582 37.10532557 -25.3046875 32.09375 C-29.43538658 27.42941994 -30.74306035 23.42779729 -30.65234375 17.21875 C-29.73014839 10.68918288 -24.98431833 5.93692001 -19.98828125 2 C-14.02349682 -2.22679363 -6.78875895 -2.43370604 0 0 Z " fill="#CDCDCD" transform="translate(471.3125,106.1875)"/>
<path d="M0 0 C4.34617077 1.56462148 6.6901121 4.92055342 9.4375 8.4375 C9.95683105 9.09492188 10.47616211 9.75234375 11.01123047 10.4296875 C16.87198697 17.95668599 22.20636573 25.83706565 27.50097656 33.76757812 C28.84515893 35.76940282 30.20927591 37.75481945 31.5859375 39.734375 C49.34318852 65.45017749 62.83978292 93.89948303 74 123 C74.33483398 123.85754883 74.66966797 124.71509766 75.01464844 125.59863281 C79.86167705 138.1946997 82.83625931 151.23997937 85.8125 164.375 C86.00781311 165.23290131 86.20312622 166.09080261 86.40435791 166.97470093 C89.95269014 182.67589264 92.36567503 197.82925035 92.25 214 C92.24734131 214.98916916 92.24734131 214.98916916 92.24462891 215.99832153 C92.20583504 228.40023427 91.36812867 240.67462652 90 253 C89.01 253 88.02 253 87 253 C86.97282308 250.93757383 86.9535242 248.87504297 86.9375 246.8125 C86.92589844 245.66394531 86.91429687 244.51539063 86.90234375 243.33203125 C87 240 87 240 87.48828125 237.578125 C99.90612892 175.01492298 61.57521539 95.18402162 28.0625 44.75 C21.01594285 34.27424267 13.64557451 24.04590251 6 14 C5.08371826 12.78159424 5.08371826 12.78159424 4.14892578 11.53857422 C3.53388184 10.73049316 2.91883789 9.92241211 2.28515625 9.08984375 C1.72836182 8.35499756 1.17156738 7.62015137 0.59790039 6.86303711 C-1.05085243 4.77077745 -1.05085243 4.77077745 -4 3 C-2.68 2.01 -1.36 1.02 0 0 Z " fill="#626262" transform="translate(506,178)"/>
<path d="M0 0 C4.31445705 1.49455048 5.3628412 4.08407929 7.3125 8.0625 C10.36835966 13.96011449 13.63574621 19.00575979 18 24 C19.01707031 25.22783203 19.01707031 25.22783203 20.0546875 26.48046875 C24.68651306 31.66448704 28.22052552 34.12458036 35.19140625 34.859375 C36.11824219 34.90578125 37.04507813 34.9521875 38 35 C38.87527344 35.06703125 39.75054687 35.1340625 40.65234375 35.203125 C47.33175675 35.47775578 53.37827423 34.19851952 59.8359375 32.55859375 C62.97602366 32.00423286 64.9610672 32.14067631 68 33 C67.890625 36.29296875 67.890625 36.29296875 67 40 C59.37974886 45.42887834 49.14471264 47.28626633 40 48 C38.96359375 48.0825 37.9271875 48.165 36.859375 48.25 C19.46721909 48.93540516 3.65092139 42.70805654 -9.08105469 31.04663086 C-11.96647544 28.28250868 -14.11103594 25.51716204 -16 22 C-10.07134585 20.81426917 -4.38228865 21.01131828 1.63671875 21.16015625 C5.13331335 21.2827047 5.13331335 21.2827047 8 19 C7.75689044 15.11024712 6.36566402 13.0110908 4 10.0625 C1.36892273 6.74532842 0.21658425 4.33168504 0 0 Z " fill="#A9A9A9" transform="translate(415,130)"/>
<path d="M0 0 C2 1.25 2 1.25 4 3 C4 4.32 4 5.64 4 7 C2.741875 7.33 1.48375 7.66 0.1875 8 C-15.40391209 13.25415925 -27.51250564 27.8241152 -35 42 C-42.41915166 57.49449618 -43.33489717 70.29458445 -39.1875 86.875 C-38.72815063 88.77717285 -38.72815063 88.77717285 -38.25952148 90.71777344 C-37.38445325 94.33910551 -36.49298069 97.95623362 -35.59875488 101.57287598 C-34.51373198 105.97114515 -33.44138094 110.37251338 -32.3671875 114.7734375 C-30.95706658 120.54829712 -29.54528405 126.32272951 -28.12646484 132.09545898 C-25.27850001 143.69249978 -22.50975151 155.30459265 -19.8125 166.9375 C-17.07072191 178.75801922 -14.05914206 190.47624133 -10.87182617 202.18530273 C-8.30936641 211.65792394 -6.02946552 221.17658605 -3.90185547 230.75585938 C-2.81999746 235.6027084 -1.71255003 240.32649898 0 245 C1.65 245 3.3 245 5 245 C5 245.33 5 245.66 5 246 C1.7 246.33 -1.6 246.66 -5 247 C-5.20625 245.4325 -5.4125 243.865 -5.625 242.25 C-6.56180357 236.59619252 -8.04696786 231.26859057 -9.75 225.8125 C-12.1300626 218.16313368 -14.16963406 210.48660785 -16 202.6875 C-19.52826571 187.66094044 -23.3659546 172.72901869 -27.5625 157.875 C-30.05736589 149.00841815 -32.19275994 140.07068324 -34.27587891 131.09960938 C-35.08363482 127.64200009 -35.90665149 124.1881917 -36.73046875 120.734375 C-38.53002491 113.16583762 -40.27884467 105.58681047 -42 98 C-42.23170898 96.99308105 -42.46341797 95.98616211 -42.70214844 94.94873047 C-47.21486294 75.03785532 -49.45790662 54.08909221 -38.80859375 35.73828125 C-29.74618784 22.01744638 -18.1359544 12.56092055 -4.50390625 3.69921875 C-1.96655598 2.09191252 -1.96655598 2.09191252 0 0 Z " fill="#AFB0AE" transform="translate(55,27)"/>
<path d="M0 0 C11.86722826 13.30806171 15.36360369 28.41562908 15.3125 45.75 C15.32861328 46.82765625 15.34472656 47.9053125 15.36132812 49.015625 C15.36930678 62.41976131 11.50413511 75.26500171 8.19284821 88.16317558 C7.55778217 90.63786451 6.92649302 93.11349221 6.29608154 95.58937073 C4.50519859 102.62020567 2.70796557 109.64941179 0.90820312 116.67797852 C-0.41445341 121.84542617 -1.73271112 127.01397979 -3.046875 132.18359375 C-3.26140005 133.02709633 -3.4759251 133.87059891 -3.69695091 134.73966217 C-6.92921581 147.47629783 -9.96035723 160.24592934 -12.75274658 173.08628845 C-14.63993878 181.7109525 -16.99179328 190.10078295 -19.6484375 198.515625 C-21.31270114 203.87799074 -22.57877512 209.32156965 -23.7956543 214.80029297 C-24.91514795 219.83029591 -24.91514795 219.83029591 -26 222 C-27.65 222 -29.3 222 -31 222 C-29.06530244 213.11177179 -26.90181347 204.39584559 -24.0625 195.75 C-21.06273387 186.5506546 -18.80328895 177.2577882 -16.65185547 167.82910156 C-15.49172927 162.79406697 -14.27357026 157.77297635 -13.0625 152.75 C-12.55321156 150.6302501 -12.04409798 148.51045817 -11.53515625 146.390625 C-11.28137207 145.33423828 -11.02758789 144.27785156 -10.76611328 143.18945312 C-9.75942132 138.99843218 -8.75353257 134.80721872 -7.74780273 130.6159668 C-7.24878892 128.5366611 -6.74960238 126.45739684 -6.25024414 124.37817383 C-4.9966745 119.1578905 -3.74572741 113.93700444 -2.5 108.71484375 C-2.00011294 106.62236885 -1.50011336 104.52992082 -1 102.4375 C-0.75612549 101.41527344 -0.51225098 100.39304687 -0.26098633 99.33984375 C1.01398704 94.01996805 2.32043834 88.7101656 3.67578125 83.41015625 C3.94970703 82.33515869 4.22363281 81.26016113 4.50585938 80.15258789 C5.02648545 78.11782865 5.55216268 76.08435203 6.08398438 74.05249023 C10.44882894 56.98707784 12.46714823 35.35008603 5 19 C4.50628906 17.91203125 4.01257813 16.8240625 3.50390625 15.703125 C0.78007076 10.02351651 0.78007076 10.02351651 -2.68359375 4.78515625 C-4 3 -4 3 -4 1 C-2 0 -2 0 0 0 Z " fill="#F0F0F0" transform="translate(242,50)"/>
<path d="M0 0 C7.98134085 -0.59121043 14.12615524 1.55779352 20.875 5.8125 C26.44475203 11.54606826 28.14766706 17.41463066 28.0625 25.25 C28.05347656 26.32765625 28.04445313 27.4053125 28.03515625 28.515625 C28.02355469 29.33546875 28.01195312 30.1553125 28 31 C24.30802488 30.63080249 21.64686292 29.87184087 18.5 28 C12.78200522 24.91764344 6.35795371 25.17859421 0 25 C0 26.32 0 27.64 0 29 C1.24716797 29.07347656 1.24716797 29.07347656 2.51953125 29.1484375 C4.14955078 29.26058594 4.14955078 29.26058594 5.8125 29.375 C6.89144531 29.44460937 7.97039062 29.51421875 9.08203125 29.5859375 C12 30 12 30 15 32 C13.35064453 32.03867188 13.35064453 32.03867188 11.66796875 32.078125 C-1.7857689 32.53252983 -12.52800531 34.88112822 -23 44 C-24.33852683 45.72135356 -24.33852683 45.72135356 -25.3125 47.4375 C-27 50 -27 50 -29.5625 50.5625 C-32.43668785 49.89922588 -33.41885935 49.49653787 -35 47 C-35.39453125 44.234375 -35.39453125 44.234375 -35 41 C-33.33240703 38.83390948 -31.85731115 37.19297447 -29.875 35.375 C-29.400625 34.9109375 -28.92625 34.446875 -28.4375 33.96875 C-18.21180688 24.18524902 -6.68560646 22.71510376 7 22 C6.71488328 15.72743209 4.23484793 11.15543569 1.27734375 5.671875 C0 3 0 3 0 0 Z " fill="#BFBEBE" transform="translate(455,52)"/>
<path d="M0 0 C1.23492187 0.26167969 2.46984375 0.52335937 3.7421875 0.79296875 C17.45174756 3.83666251 29.85173542 8.77760313 38 21 C37.50959229 21.41137207 37.01918457 21.82274414 36.51391602 22.24658203 C34.65945145 24.39442343 34.66509226 25.26588981 34.77734375 28.0546875 C34.80538086 29.22451172 34.80538086 29.22451172 34.83398438 30.41796875 C34.86814453 31.22878906 34.90230469 32.03960937 34.9375 32.875 C35.30330189 42.57264151 35.30330189 42.57264151 33 47 C32.11699219 46.46890625 31.23398437 45.9378125 30.32421875 45.390625 C20.60227151 39.62962237 11.50585407 34.82032783 -0.00390625 34.17578125 C-2 34 -2 34 -4 33 C-4 31.68 -4 30.36 -4 29 C4.3049373 28.46149542 10.65838253 28.46261479 17.9140625 32.80859375 C19.96179118 33.97817661 21.69849574 34.54698898 24 35 C23.40055441 21.89722251 23.40055441 21.89722251 17 11 C8.64741331 5.09352798 1.42778798 4.7709843 -8.5625 4.6875 C-10.25729492 4.64399414 -10.25729492 4.64399414 -11.98632812 4.59960938 C-30.58806115 4.46039088 -43.23717223 14.64689383 -56 27 C-56.66 27.66 -57.32 28.32 -58 29 C-58.99 29 -59.98 29 -61 29 C-57.47199123 18.72673095 -48.3219557 11.85984624 -39 7 C-27.58211879 1.529553 -12.66064889 -2.99214692 0 0 Z " fill="#A9A8A8" transform="translate(459,48)"/>
<path d="M0 0 C1.65 0.33 3.3 0.66 5 1 C4.37688899 4.75221198 3.25782776 7.89172701 1.75 11.375 C-1.16997881 18.70439925 -2.6820233 26.20972296 -4.12402344 33.95263672 C-5.22954646 39.57824572 -6.55645209 43.31258498 -10 48 C-11.22224665 50.55604619 -12.25234036 53.18584049 -13.3125 55.8125 C-16.08085635 62.36069885 -19.13331798 67.74480135 -24 73 C-24.65484375 73.74507813 -25.3096875 74.49015625 -25.984375 75.2578125 C-38.36262367 88.58475906 -57.49875612 97.61778681 -75.75 98.3359375 C-98.43967809 98.6683076 -119.08933158 95.33964138 -136.08203125 79.078125 C-141 73.74949084 -141 73.74949084 -141 71 C-137.24592864 72.62290021 -134.45093826 75.02905747 -131.3125 77.625 C-114.65514142 90.90436064 -95.15958747 95.69942664 -74.078125 93.7265625 C-55.03210667 90.74005667 -38.01839241 81.23868478 -25.83203125 66.3515625 C-14.80687415 51.07149403 -9.60740707 32.40063774 -4.578125 14.49609375 C-3.201376 9.61000129 -1.65951485 4.79689497 0 0 Z " fill="#161616" transform="translate(215,276)"/>
<path d="M0 0 C1.4540625 0.0309375 1.4540625 0.0309375 2.9375 0.0625 C3.46537109 1.91875 3.46537109 1.91875 4.00390625 3.8125 C4.7710725 6.50918163 5.54102986 9.20497636 6.31689453 11.89916992 C7.7861677 17.00285003 9.22740699 22.11127719 10.61328125 27.23828125 C14.7327838 42.25730095 19.39601752 57.17170776 29.9375 69.0625 C30.41058594 69.63871094 30.88367188 70.21492188 31.37109375 70.80859375 C39.82216666 80.27126641 51.73136536 84.75238528 63.63671875 88.0546875 C66.9375 89.0625 66.9375 89.0625 69.9375 91.0625 C68.9375 92.0625 68.9375 92.0625 65.125 92.3125 C50.65949236 92.08361539 37.63425845 85.45477571 26.9375 76.0625 C26.26074219 75.47984375 25.58398438 74.8971875 24.88671875 74.296875 C15.12086971 65.27057569 9.73212498 53.24343913 4.9375 41.0625 C4.40189453 39.79792969 4.40189453 39.79792969 3.85546875 38.5078125 C1.29367794 32.11864499 -0.25574455 25.50200035 -1.8125 18.8125 C-2.03558838 17.86503906 -2.25867676 16.91757812 -2.48852539 15.94140625 C-3.62402079 10.8761055 -4.42745798 6.25613279 -4.0625 1.0625 C-3.0625 0.0625 -3.0625 0.0625 0 0 Z " fill="#202020" transform="translate(57.0625,272.9375)"/>
<path d="M0 0 C0.66 0.33 1.32 0.66 2 1 C1.99830811 1.84872681 1.99830811 1.84872681 1.99658203 2.71459961 C2.00921402 5.45656529 2.06755128 8.19611866 2.125 10.9375 C2.12242187 11.82501953 2.11984375 12.71253906 2.1171875 13.62695312 C2.41089627 24.53089139 5.41947267 34.91548369 8.09326172 45.43222046 C9.02270683 49.08934549 9.93782091 52.74981229 10.84960938 56.41137695 C12.13230927 61.55612879 13.41945154 66.69973523 14.71289062 71.84179688 C14.87495499 72.48609555 15.03701935 73.13039423 15.20399475 73.79421711 C16.03338871 77.09047131 16.86364868 80.38650609 17.69458008 83.68237305 C18.35898399 86.31817357 19.02205271 88.95430381 19.68379211 91.59077454 C20.29615131 94.0300823 20.91040264 96.46891626 21.52702332 98.90715027 C23.27543419 105.87974974 24.86919378 112.87108754 26.34716797 119.90606689 C27.27557045 124.30599677 28.27681387 128.68672612 29.3125 133.0625 C29.52197266 133.94897217 29.73144531 134.83544434 29.94726562 135.7487793 C31.45094109 141.99553665 33.17589899 148.15279522 35 154.3125 C37.30082616 162.1447031 39.23326577 170.01653167 40.9375 178 C41.16115234 179.02134033 41.38480469 180.04268066 41.61523438 181.0949707 C41.81310547 182.05363037 42.01097656 183.01229004 42.21484375 184 C42.39136475 184.845625 42.56788574 185.69125 42.74975586 186.5625 C43.03153476 189.30716397 42.77086978 191.35542247 42 194 C41.34 194.66 40.68 195.32 40 196 C35.10573564 176.56381343 30.21980918 157.12554857 25.34349442 137.68485069 C23.07857129 128.65594695 20.81104033 119.62771394 18.53710938 110.60107422 C16.5525379 102.7230523 14.57312424 94.84375454 12.59960628 86.96295607 C11.55684464 82.79965438 10.51170699 78.63698559 9.4603653 74.47584152 C1.92268741 44.62858004 1.92268741 44.62858004 -0.54394531 31.41259766 C-0.7015974 30.5823728 -0.8592495 29.75214794 -1.02167892 28.89676476 C-2.39547109 21.00162432 -2.46830022 13.26711367 -1 5.375 C-0.814375 4.35148437 -0.62875 3.32796875 -0.4375 2.2734375 C-0.293125 1.52320312 -0.14875 0.77296875 0 0 Z " fill="#B9B9B9" transform="translate(2,82)"/>
<path d="M0 0 C0.33 0 0.66 0 1 0 C1.87878232 5.3078452 2.19196362 10.43550632 2.1875 15.8125 C2.18814453 16.6269458 2.18878906 17.4413916 2.18945312 18.28051758 C2.11628541 26.93010605 1.14600071 35.43569114 0 44 C0.99 44 1.98 44 3 44 C1.62149678 87.49177649 -22.26202846 131.8269632 -51.1875 163.38671875 C-53 165 -53 165 -55 165 C-53.84776305 157.542826 -49.01377008 152.2627726 -44.4609375 146.44116211 C-30.89095971 129.08584734 -19.44878058 109.77022295 -12 89 C-11.43782505 87.58008387 -10.8739522 86.16083908 -10.30859375 84.7421875 C-6.95962309 76.00036795 -5.35978324 68.37704471 -5.86962891 58.98339844 C-6.10371615 54.51482235 -5.82935049 50.47437438 -5.078125 46.0546875 C-4.19107903 40.7628798 -3.70571989 35.56500271 -3.4375 30.21484375 C-3.3994928 29.45819931 -3.3614856 28.70155487 -3.32232666 27.92198181 C-3.17160578 24.79543201 -3.03187503 21.66846586 -2.89550781 18.54125977 C-2.79198802 16.22369861 -2.67772539 13.90684787 -2.5625 11.58984375 C-2.53534912 10.88568832 -2.50819824 10.1815329 -2.48022461 9.45603943 C-2.2971206 5.85002097 -1.94936237 3.08237991 0 0 Z " fill="#414141" transform="translate(593,387)"/>
<path d="M0 0 C0.83144531 0.00902344 1.66289062 0.01804688 2.51953125 0.02734375 C4.55481337 0.0507378 6.58994564 0.08660275 8.625 0.125 C9.97038144 2.84879681 11.30141535 5.57813508 12.625 8.3125 C13.0065625 9.08142578 13.388125 9.85035156 13.78125 10.64257812 C17.27849843 17.91810387 17.27849843 17.91810387 16.625 22.125 C14.53482004 24.21517996 10.32980688 23.81725662 7.4375 24.125 C2.47126552 24.66692499 -2.4538244 25.24593833 -7.375 26.125 C-7.765625 24.10677083 -8.15625 22.08854167 -8.546875 20.0703125 C-9.65550591 17.46607574 -10.81317041 17.2319634 -13.375 16.125 C-14.96423356 15.01654298 -16.52623038 13.86826921 -18.0625 12.6875 C-18.85011719 12.09066406 -19.63773437 11.49382813 -20.44921875 10.87890625 C-22.375 9.125 -22.375 9.125 -23.375 6.125 C-22.16943396 5.49467867 -20.96036811 4.8710503 -19.75 4.25 C-19.07710938 3.90195312 -18.40421875 3.55390625 -17.7109375 3.1953125 C-11.60484586 0.39753807 -6.61718668 -0.13719845 0 0 Z " fill="#D9D7D8" transform="translate(446.375,51.875)"/>
<path d="M0 0 C0.66 0 1.32 0 2 0 C3.48727581 2.97455163 3.07891893 5.813746 3.125 9.125 C3.39385236 15.29832032 4.45120601 19.26488099 9.0625 23.55078125 C14.44998608 27.58053394 17.84886828 28.00759934 24.4375 28 C28.69342561 28.21156624 30.43548439 28.49700745 33.65234375 31.36328125 C39.07568537 38.55945511 39.07568537 38.55945511 38.8828125 42.23046875 C38 44 38 44 35 46 C27.46153836 47.29296237 16.78262568 48.42088044 10.16796875 44.1875 C8.28151268 41.53027971 7.14199383 39.04932388 6 36 C5.51917969 35.04996094 5.03835938 34.09992188 4.54296875 33.12109375 C-0.5637634 22.55592614 -0.20737509 11.49779654 0 0 Z " fill="#C0BFBF" transform="translate(385,106)"/>
<path d="M0 0 C0.66 0 1.32 0 2 0 C2.18859269 6.18599191 1.7081091 11.37585259 0.05859375 17.3203125 C-0.14440842 18.08909729 -0.34741058 18.85788208 -0.55656433 19.64996338 C-0.99103083 21.29265689 -1.43017674 22.9341189 -1.87365723 24.57440186 C-3.05099688 28.9337716 -4.1907432 33.30295305 -5.33203125 37.671875 C-5.56203827 38.54971649 -5.79204529 39.42755798 -6.02902222 40.33200073 C-8.10740087 48.31010163 -9.9697812 56.3258056 -11.75 64.375 C-12.0277124 65.62780762 -12.3054248 66.88061523 -12.59155273 68.17138672 C-13.13184069 70.60933788 -13.6719662 73.04732505 -14.21191406 75.48535156 C-17.476339 90.04379686 -21.06814615 104.5207415 -24.921875 118.93359375 C-25.80413219 122.23751048 -26.63339954 125.55107309 -27.4375 128.875 C-28.83347421 134.5147358 -30.41040629 140.09992542 -32 145.6875 C-32.24935303 146.56712402 -32.49870605 147.44674805 -32.75561523 148.35302734 C-34.36138153 153.95345988 -36.1102128 159.48895834 -38 165 C-39.32 164.67 -40.64 164.34 -42 164 C-41.81115234 163.36578125 -41.62230469 162.7315625 -41.42773438 162.078125 C-35.56861129 142.20924859 -30.44336391 122.16064983 -25.4375 102.0625 C-25.26978466 101.38921787 -25.10206932 100.71593575 -24.9292717 100.02225113 C-20.73852518 83.1913836 -16.59058421 66.34992655 -12.4453125 49.5078125 C-12.25983164 48.75424154 -12.07435078 48.00067059 -11.88324928 47.22426414 C-10.07824585 39.89010966 -8.27450905 32.55565114 -6.47728729 25.21958542 C-5.97704403 23.1779856 -5.47631917 21.13650452 -4.97543335 19.09506226 C-4.36397536 16.60225611 -3.75350865 14.10920653 -3.14419556 11.61587524 C-2.87497284 10.51891327 -2.60575012 9.42195129 -2.32836914 8.29174805 C-2.09461075 7.33672897 -1.86085236 6.3817099 -1.62001038 5.39775085 C-1.1497261 3.57903207 -0.5940459 1.7821377 0 0 Z " fill="#C8C8C8" transform="translate(249,107)"/>
<path d="M0 0 C-1.23084675 4.64986551 -3.67146276 6.63014531 -7.26953125 9.5234375 C-9.18901361 11.06302825 -9.18901361 11.06302825 -11.0625 13.625 C-13.37894734 16.4645161 -15.95385902 17.96923935 -19 20 C-20.1238413 21.12654284 -21.22693127 22.27403166 -22.3125 23.4375 C-24.77258796 25.98482512 -27.05859575 27.73623705 -30.19921875 29.36328125 C-34.85741997 31.87037662 -39.15082545 34.74800997 -43.5 37.75 C-60.440145 49.17822444 -85.94866396 65 -107 65 C-107 64.01 -107 63.02 -107 62 C-107.99 61.67 -108.98 61.34 -110 61 C-109.30777344 60.78496826 -108.61554688 60.56993652 -107.90234375 60.34838867 C-90.98687578 55.04001841 -74.84490765 48.98967145 -59 41 C-58.0095166 40.50516113 -57.0190332 40.01032227 -55.99853516 39.50048828 C-42.31437998 32.55519687 -31.49744579 24.63035474 -20.74072266 13.72216797 C-6.87071165 0 -6.87071165 0 0 0 Z " fill="#464646" transform="translate(537,553)"/>
<path d="M0 0 C1.32 0 2.64 0 4 0 C3.50098961 11.5021895 -0.36657021 20.61523655 -6.44555664 30.22949219 C-8.43678596 33.45888391 -8.43678596 33.45888391 -9.00390625 37.13671875 C-7.61137696 39.72129647 -5.77970671 41.38764915 -3.625 43.375 C-0.11065072 46.75525646 2.2546224 49.46201824 4 54 C-1.078125 57.3203125 -1.078125 57.3203125 -3 58 C-11.03267403 55.56779591 -17.31951149 44.57103877 -22 38 C-20.71847221 35.17577999 -19.37614734 33.23959775 -17.1875 31.0625 C-10.70990105 23.6640659 -8.23954071 13.64695763 -8 4 C-7.67 4 -7.34 4 -7 4 C-7 6.64 -7 9.28 -7 12 C-3.58296941 9.7219796 -3.20348811 8.61627835 -1.8125 4.875 C-1.46832031 3.96492188 -1.12414062 3.05484375 -0.76953125 2.1171875 C-0.38861328 1.06917969 -0.38861328 1.06917969 0 0 Z " fill="#AEAEAE" transform="translate(511,118)"/>
<path d="M0 0 C1.82104492 1.96191406 1.82104492 1.96191406 3.48046875 4.515625 C4.08697266 5.43730469 4.69347656 6.35898437 5.31835938 7.30859375 C5.93517578 8.27925781 6.55199219 9.24992187 7.1875 10.25 C7.81591797 11.20519531 8.44433594 12.16039062 9.09179688 13.14453125 C11.82360508 17.34596462 14.25685429 21.28343882 16 26 C10.1829473 27.50617209 5.72394439 25.94576235 0.0625 24.375 C-0.91396484 24.12621094 -1.89042969 23.87742187 -2.89648438 23.62109375 C-8.74702518 22.02657348 -12.79655117 20.43812414 -17 16 C-18.125 12.4375 -18.125 12.4375 -18 9 C-16.625 6.9375 -16.625 6.9375 -14 5 C-13.30777344 4.46890625 -12.61554688 3.9378125 -11.90234375 3.390625 C-4.9837043 -1.64531289 -4.9837043 -1.64531289 0 0 Z " fill="#080808" transform="translate(183,11)"/>
<path d="M0 0 C-0.109375 3.29296875 -0.109375 3.29296875 -1 7 C-12.73703533 15.36178962 -30.59236786 16.57618475 -44.37890625 14.48828125 C-45.67634766 14.24658203 -45.67634766 14.24658203 -47 14 C-47.44704333 10.94520395 -47.43224942 8.77618982 -45.91015625 6.04296875 C-43.20158417 2.51535896 -41.90308534 1.1245635 -37.375 0.5 C-34 1 -34 1 -32.09375 1.515625 C-24.02012393 3.38340416 -16.02610049 1.55516096 -8.1640625 -0.44140625 C-5.02397634 -0.99576714 -3.0389328 -0.85932369 0 0 Z " fill="#8F8F8F" transform="translate(483,163)"/>
<path d="M0 0 C0 0.99 0 1.98 0 3 C-8.24127646 5.18510291 -16.47624622 7.20044834 -24.875 8.6875 C-25.53878662 8.80649658 -26.20257324 8.92549316 -26.88647461 9.0480957 C-35.61593863 10.54048651 -44.2943832 11.15664913 -53.14453125 11.16796875 C-54.54199837 11.17296135 -54.54199837 11.17296135 -55.96769714 11.17805481 C-57.92483024 11.18308142 -59.88197178 11.18546447 -61.83911133 11.18530273 C-64.79458071 11.18748676 -67.74967461 11.20568181 -70.70507812 11.22460938 C-80.68146627 11.25422833 -90.19628488 11.01477352 -100 9 C-101.02134033 8.80301514 -102.04268066 8.60603027 -103.0949707 8.40307617 C-105.40130481 7.95490434 -107.70175011 7.48766476 -110 7 C-110 6.67 -110 6.34 -110 6 C-104.52986796 4.11621316 -100.24275357 3.88246939 -94.515625 4.36328125 C-84.25084448 5.05865734 -74.02329813 5.18614723 -63.73730469 5.18530273 C-60.73879166 5.18750824 -57.74063695 5.20581414 -54.7421875 5.22460938 C-43.9640329 5.25635194 -33.64509359 4.83117415 -23 3 C-22.09056641 2.85296631 -21.18113281 2.70593262 -20.24414062 2.55444336 C-17.1928614 2.05303255 -14.14924621 1.5135914 -11.10546875 0.96875 C-7.36175739 0.31939829 -3.80293212 -0.16534487 0 0 Z " fill="#545454" transform="translate(430,615)"/>
<path d="M0 0 C0.66 0.45375 1.32 0.9075 2 1.375 C2 2.695 2 4.015 2 5.375 C-0.08984375 7.3046875 -0.08984375 7.3046875 -2.9375 9.25 C-3.93652344 9.94222656 -4.93554688 10.63445313 -5.96484375 11.34765625 C-12.96748186 16.02509406 -12.96748186 16.02509406 -16.125 18.05078125 C-18.05005005 19.32486579 -18.05005005 19.32486579 -19.625 21.04296875 C-21 22.375 -21 22.375 -23 22.375 C-23.22429688 22.89578125 -23.44859375 23.4165625 -23.6796875 23.953125 C-25.49424109 27.28159609 -27.78914175 30.14792576 -30.125 33.125 C-30.59292969 33.72699219 -31.06085937 34.32898437 -31.54296875 34.94921875 C-32.69225007 36.42686616 -33.84571235 37.90126005 -35 39.375 C-36.65 39.045 -38.3 38.715 -40 38.375 C-40.17015625 38.98085938 -40.3403125 39.58671875 -40.515625 40.2109375 C-42.31566942 46.43449532 -44.49618433 52.40142961 -47 58.375 C-47.99 58.375 -48.98 58.375 -50 58.375 C-47.07937304 38.6716659 -35.74652016 24.11568549 -21 11.375 C-18.4716772 9.58642 -15.983764 8.0635131 -13.24609375 6.625 C-10.80835888 5.26834755 -8.82680499 3.65974606 -6.6875 1.875 C-3.39057038 -0.70636883 -3.39057038 -0.70636883 0 0 Z " fill="#DDDDDD" transform="translate(52,23.625)"/>
<path d="M0 0 C0.66 1.32 1.32 2.64 2 4 C1.09121094 4.27650391 1.09121094 4.27650391 0.1640625 4.55859375 C-15.76466648 10.07238455 -22.22751758 23.04294004 -30 37 C-32 35 -32 35 -32.6875 32.25 C-34.45377721 27.87636119 -37.30128602 25.7888699 -41 23 C-39.68498593 18.76069828 -38.38688302 17.19092975 -34.50390625 15.0859375 C-33.60687988 14.58288086 -32.70985352 14.07982422 -31.78564453 13.56152344 C-30.86638184 13.0462207 -29.94711914 12.53091797 -29 12 C-27.31448996 10.9409427 -25.63591954 9.87075199 -23.96484375 8.7890625 C-22.2890625 7.734375 -20.61328125 6.6796875 -18.9375 5.625 C-18.10412109 5.07972656 -17.27074219 4.53445312 -16.41210938 3.97265625 C-10.60310368 0.3651959 -6.83378302 -0.6193761 0 0 Z " fill="#272626" transform="translate(91,0)"/>
<path d="M0 0 C1.2684375 0.2165625 1.2684375 0.2165625 2.5625 0.4375 C6.03593149 1.0058797 9.51445662 1.51202393 13 2 C13 2.33 13 2.66 13 3 C11.35 3 9.7 3 8 3 C7.68869141 4.44052734 7.68869141 4.44052734 7.37109375 5.91015625 C5.40631784 14.73904609 3.07499348 23.40998836 0.4375 32.0625 C0.14480225 33.02486572 -0.14789551 33.98723145 -0.44946289 34.97875977 C-2.12331359 40.39720916 -3.9508217 45.71199884 -6 51 C-6.99 50.34 -7.98 49.68 -9 49 C-11.31 53.62 -13.62 58.24 -16 63 C-17.32 62.67 -18.64 62.34 -20 62 C-19.76925781 61.48542236 -19.53851563 60.97084473 -19.30078125 60.44067383 C-12.64825613 45.40511248 -7.97346215 30.1732105 -3.85253906 14.27197266 C-2.61000255 9.50322286 -1.30811115 4.75111284 0 0 Z " fill="#454545" transform="translate(207,272)"/>
<path d="M0 0 C3 1 3 1 3.95703125 2.87890625 C9.00791991 18.72347478 12.59858052 35.00971927 16.16455078 51.24023438 C17.71875807 58.15399484 19.73614735 64.80822291 22.08203125 71.4921875 C23.14433778 75.55155457 23.16067433 78.8224673 23 83 C21.35 83 19.7 83 18 83 C17.78907715 82.04971924 17.5781543 81.09943848 17.36083984 80.12036133 C13.55326478 63.01060962 9.64307755 46.01895225 4.64501953 29.2109375 C-1.09671167 9.52996938 -1.09671167 9.52996938 -1 1 C-0.67 0.67 -0.34 0.34 0 0 Z " fill="#E4E4E3" transform="translate(27,191)"/>
<path d="M0 0 C2.60146329 3.97870856 4.42069896 7.22076642 5 12 C3.375 12.8125 3.375 12.8125 1 13 C0.030625 12.175 -0.93875 11.35 -1.9375 10.5 C-4.66876512 7.80075765 -4.66876512 7.80075765 -7.5 7.75 C-14.83246372 11.41623186 -17.8378684 19.24595604 -21.10864258 26.31274414 C-22.92392007 30.16865345 -24.53624814 33.34445691 -28 36 C-31.75 36.25 -31.75 36.25 -35 36 C-36 33 -36 33 -35.13891602 30.95043945 C-33.62548883 28.3965811 -32.10865839 25.84673594 -30.5625 23.3125 C-30.05267578 22.43916016 -29.54285156 21.56582031 -29.01757812 20.66601562 C-24.42579532 13.04718393 -19.01038003 5.79253076 -10.6875 2.0625 C-9.86636719 1.68222656 -9.04523438 1.30195312 -8.19921875 0.91015625 C-3.32329635 -1.10776545 -3.32329635 -1.10776545 0 0 Z " fill="#191818" transform="translate(96,4)"/>
<path d="M0 0 C6.16335337 4.63516559 10.17322465 8.85224508 12.37890625 16.3515625 C12.91515625 17.5271875 13.45140625 18.7028125 14.00390625 19.9140625 C16.47466913 26.63504961 16.58144917 33.75714851 14.3125 40.5390625 C9.83641328 50.10105703 3.19420682 58.95360573 -6.6875 63.25 C-14.01293751 65.880882 -21.92564166 66.27501675 -29.62109375 65.3515625 C-32.06640625 63.828125 -32.06640625 63.828125 -33.62109375 62.3515625 C-32.47511719 62.37476563 -31.32914062 62.39796875 -30.1484375 62.421875 C-28.61849615 62.44064729 -27.08854769 62.45884591 -25.55859375 62.4765625 C-24.80642578 62.49332031 -24.05425781 62.51007813 -23.27929688 62.52734375 C-12.41489098 62.62140787 -5.69359586 58.37161634 2.37890625 51.3515625 C4.67469702 48.83544632 6.63742476 46.27700084 8.37890625 43.3515625 C8.75144531 42.79597656 9.12398438 42.24039063 9.5078125 41.66796875 C10.87553747 38.03092431 10.70714318 34.45396308 10.69140625 30.6015625 C10.70751953 29.828125 10.72363281 29.0546875 10.74023438 28.2578125 C10.74757362 19.50942721 8.15931569 13.45880568 2.19140625 7.10546875 C-6.44049309 -1.24738212 -17.12082221 -2.12569788 -28.62109375 -2.6484375 C-28.62109375 -3.3084375 -28.62109375 -3.9684375 -28.62109375 -4.6484375 C-18.73658021 -7.41160833 -8.64323267 -5.43583336 0 0 Z " fill="#C4C4C4" transform="translate(482.62109375,94.6484375)"/>
<path d="M0 0 C0.81903545 3.97784986 1.62902594 7.95749132 2.4375 11.9375 C2.66759766 13.05447266 2.89769531 14.17144531 3.13476562 15.32226562 C5.41234589 26.57813332 6.19314801 37.13058997 6.1875 48.625 C6.1882251 49.29943146 6.1889502 49.97386292 6.18969727 50.66873169 C6.18821775 63.18824954 5.38117607 75.55708343 4 88 C3.01 88 2.02 88 1 88 C0.97282308 85.93757383 0.9535242 83.87504297 0.9375 81.8125 C0.92589844 80.66394531 0.91429687 79.51539063 0.90234375 78.33203125 C1 75 1 75 1.48828125 72.578125 C5.97743082 49.96103557 -0.54014887 23.18606144 -5 1 C-1.125 0 -1.125 0 0 0 Z " fill="#545454" transform="translate(592,343)"/>
<path d="M0 0 C1.32 1.32 2.64 2.64 4 4 C-4.83009114 24.92347684 -18.67746741 48.91136867 -36 64 C-36.66 64 -37.32 64 -38 64 C-36.84776305 56.542826 -32.01377008 51.2627726 -27.4609375 45.44116211 C-17.03281952 32.10412701 -5.39470136 16.18410408 0 0 Z " fill="#333333" transform="translate(576,488)"/>
<path d="M0 0 C0.33 0 0.66 0 1 0 C2.2208901 11.70504158 -0.73243764 20.72653283 -4.99560547 31.46826172 C-5.94286602 33.85598459 -6.85047001 36.25559449 -7.75390625 38.66015625 C-13.71181305 54.03656024 -21.70269486 70.8352601 -33 83 C-33.33 83 -33.66 83 -34 83 C-34.49695068 77.63774186 -33.18730299 75.16224178 -30.125 70.8125 C-16.01906838 49.91179276 -7.60963253 27.14906714 -1.53735352 2.79980469 C-1 1 -1 1 0 0 Z " fill="#232323" transform="translate(587,444)"/>
<path d="M0 0 C1.875 0.125 1.875 0.125 4 1 C5.02661133 3.69067383 5.02661133 3.69067383 6 7 C6.42091919 8.41478638 6.42091919 8.41478638 6.8503418 9.8581543 C7.13047119 10.83695557 7.41060059 11.81575684 7.69921875 12.82421875 C14.63040185 37.76452732 14.63040185 37.76452732 25.25 61.28515625 C25.4975 61.85105469 25.745 62.41695313 26 63 C25.67 63.66 25.34 64.32 25 65 C24.61328125 64.54109375 24.2265625 64.0821875 23.828125 63.609375 C23.30734375 62.99578125 22.7865625 62.3821875 22.25 61.75 C21.48429687 60.84507812 21.48429687 60.84507812 20.703125 59.921875 C19.03012133 57.95022862 19.03012133 57.95022862 17 56.26171875 C14.29828518 53.20645921 13.0906365 49.84978806 11.75 46.0625 C11.31482056 44.85654175 11.31482056 44.85654175 10.87084961 43.6262207 C8.11247028 35.74273604 5.80896794 27.72826682 3.5625 19.6875 C3.20833008 18.4301001 2.85416016 17.1727002 2.48925781 15.87719727 C2.1640918 14.68408936 1.83892578 13.49098145 1.50390625 12.26171875 C1.21330322 11.19912842 0.9227002 10.13653809 0.62329102 9.04174805 C-0.01177726 5.94252529 -0.11365387 3.15426382 0 0 Z " fill="#171717" transform="translate(43,276)"/>
<path d="M0 0 C0.309375 0.8971875 0.309375 0.8971875 0.625 1.8125 C1.88445304 4.24537432 1.88445304 4.24537432 4.76171875 5.3359375 C8.22725693 7.11678101 10.45333346 9.05289935 13.1875 11.8125 C14.02667969 12.64394531 14.86585938 13.47539062 15.73046875 14.33203125 C18.0667714 17.07849374 19.53019066 19.72045799 21 23 C15.921875 26.3203125 15.921875 26.3203125 14 27 C5.96732597 24.56779591 -0.31951149 13.57103877 -5 7 C-3.64062915 4.1394109 -2.35479531 2.14072301 0 0 Z " fill="#D7D7D7" transform="translate(494,149)"/>
<path d="M0 0 C0 0.66 0 1.32 0 2 C-1.32 2 -2.64 2 -4 2 C-4 2.66 -4 3.32 -4 4 C-5.17175781 4.02578125 -6.34351563 4.0515625 -7.55078125 4.078125 C-29.3267855 4.76972143 -42.91977607 13.91977607 -58 29 C-58.99 29 -59.98 29 -61 29 C-57.47199123 18.72673095 -48.3219557 11.85984624 -39 7 C-27.27952317 1.38457572 -12.97395285 -2.59479057 0 0 Z " fill="#BDBCBD" transform="translate(459,48)"/>
<path d="M0 0 C1 1 1 1 1.625 4.125 C0.89481929 8.65212042 0.28284201 8.96209662 -3.25 11.5625 C-4.075 12.13226563 -4.9 12.70203125 -5.75 13.2890625 C-7.8953779 14.92044361 -8.94733372 16.12526736 -10.25 18.4375 C-12 21 -12 21 -14.5625 21.5625 C-17.43668785 20.89922588 -18.41885935 20.49653787 -20 18 C-20.40234375 15.2421875 -20.40234375 15.2421875 -20 12 C-18.29042848 9.79524225 -16.77220213 8.10754445 -14.75 6.25 C-14.01330078 5.52876953 -14.01330078 5.52876953 -13.26171875 4.79296875 C-8.82063018 0.54136662 -6.11235936 -1.81718792 0 0 Z " fill="#9C9B9B" transform="translate(440,81)"/>
<path d="M0 0 C0.66 0 1.32 0 2 0 C1.36405733 5.77395565 -1.53937038 7.95034952 -5.8046875 11.58984375 C-19.36532071 22.15852772 -35.42002258 28.08722429 -52.6875 28.1875 C-53.80511719 28.20167969 -54.92273438 28.21585937 -56.07421875 28.23046875 C-59 28 -59 28 -62 26 C-56.65039949 23.85839716 -51.61158719 23.56377516 -45.9375 23.1875 C-27.11907194 21.63364015 -13.28803895 13.28803895 0 0 Z " fill="#4E4E4E" transform="translate(183,339)"/>
<path d="M0 0 C1.65 0.66 3.3 1.32 5 2 C5 3.32 5 4.64 5 6 C2.875 7.96484375 2.875 7.96484375 0 9.9375 C-1.00546875 10.62972656 -2.0109375 11.32195313 -3.046875 12.03515625 C-4.02140625 12.68355469 -4.9959375 13.33195312 -6 14 C-6.74765625 14.51433594 -7.4953125 15.02867188 -8.265625 15.55859375 C-12.4425231 18.32948875 -16.16468012 19.74281683 -21 21 C-21.66 21.66 -22.32 22.32 -23 23 C-25.625 23.125 -25.625 23.125 -28 23 C-21.87840517 15.50104633 -15.67364234 9.63614185 -7.0546875 5.1328125 C-4.45509283 3.69957589 -2.23443943 1.94612467 0 0 Z " fill="#CBCBCB" transform="translate(49,23)"/>
<path d="M0 0 C-0.07421875 3.2890625 -0.07421875 3.2890625 -1 7 C-3.42283883 8.57343479 -5.15765316 9.45180703 -7.8125 10.375 C-8.44220703 10.62121094 -9.07191406 10.86742187 -9.72070312 11.12109375 C-15.46251343 13.32623811 -19.84381361 14.1183882 -26 14 C-24.68775452 10.06326356 -23.08089673 7.77280706 -20 5 C-22.97 4.505 -22.97 4.505 -26 4 C-26 3.67 -26 3.34 -26 3 C-24.73542969 2.79503906 -23.47085937 2.59007812 -22.16796875 2.37890625 C-20.50779137 2.10689979 -18.84763627 1.83475728 -17.1875 1.5625 C-16.35412109 1.42779297 -15.52074219 1.29308594 -14.66210938 1.15429688 C-13.85966797 1.02216797 -13.05722656 0.89003906 -12.23046875 0.75390625 C-11.49207764 0.63345947 -10.75368652 0.5130127 -9.99291992 0.38891602 C-3.56117455 -0.86623165 -3.56117455 -0.86623165 0 0 Z " fill="#A2A2A2" transform="translate(483,163)"/>
<path d="M0 0 C-1.23084675 4.64986551 -3.67146276 6.63014531 -7.26953125 9.5234375 C-9.18901361 11.06302825 -9.18901361 11.06302825 -11.0625 13.625 C-13.37894734 16.4645161 -15.95385902 17.96923935 -19 20 C-20.1238413 21.12654284 -21.22693127 22.27403166 -22.3125 23.4375 C-26.02934594 27.30435318 -30.21894875 29.64741923 -35 32 C-35.33 31.34 -35.66 30.68 -36 30 C-36.66 29.67 -37.32 29.34 -38 29 C-37.31035156 28.45472656 -36.62070312 27.90945313 -35.91015625 27.34765625 C-31.22733953 23.58984036 -26.72237214 19.83574909 -22.5625 15.5 C-7.4711116 0 -7.4711116 0 0 0 Z " fill="#333333" transform="translate(537,553)"/>
<path d="M0 0 C7.23195562 -0.49777472 11.32361161 0.5893825 17.4375 4.375 C18.14326172 4.7875 18.84902344 5.2 19.57617188 5.625 C22.34816418 7.26648541 24.71250838 8.71250838 27 11 C26.625 13.125 26.625 13.125 26 15 C19.32651213 15.70482024 15.39001409 13.45113142 9.75 10.0625 C8.16257703 9.13480185 6.57407947 8.20893937 4.984375 7.28515625 C4.29053711 6.87144775 3.59669922 6.45773926 2.88183594 6.03149414 C0.87714086 4.85977345 0.87714086 4.85977345 -2 4 C-1.34 2.68 -0.68 1.36 0 0 Z " fill="#414141" transform="translate(176,0)"/>
<path d="M0 0 C1.14356733 3.43070199 0.86443186 3.87421354 -0.4375 7.0625 C-3.40982314 15.52745714 -2.56045706 23.81766659 1 32 C4.54972926 38.11526567 9.55786071 42.57998839 15 47 C13.1796875 47.59375 13.1796875 47.59375 11 48 C3.12467991 43.89113735 -1.14580087 37.5980112 -4.23828125 29.4296875 C-6.80629091 21.23839516 -7.45708926 13.19784931 -3.5625 5.375 C-1.31448763 1.31448763 -1.31448763 1.31448763 0 0 Z " fill="#A8A7A7" transform="translate(432,108)"/>
<path d="M0 0 C0.66 1.32 1.32 2.64 2 4 C1.03900391 4.36351562 1.03900391 4.36351562 0.05859375 4.734375 C-4.04362627 6.32390884 -7.92716905 7.84769683 -11.625 10.25 C-15.85782482 12.44479806 -18.3057773 12.32941914 -23 12 C-23.33 11.01 -23.66 10.02 -24 9 C-8.43963554 -1.33257403 -8.43963554 -1.33257403 0 0 Z " fill="#4B4B4B" transform="translate(91,0)"/>
<path d="M0 0 C1.32 0 2.64 0 4 0 C2.89252734 6.74684 1.49574014 13.40757475 -0.0625 20.0625 C-0.2368457 20.81265381 -0.41119141 21.56280762 -0.59082031 22.33569336 C-1.87492953 27.74985907 -1.87492953 27.74985907 -3 30 C-4.65 30 -6.3 30 -8 30 C-5.71580912 19.85479051 -3.23411567 9.89157718 0 0 Z " fill="#DFDFDE" transform="translate(219,242)"/>
<path d="M0 0 C4.68089436 2.96686099 9.05557689 6.23021802 12 11 C12 12.32 12 13.64 12 15 C11.34 15 10.68 15 10 15 C8.484375 13.390625 8.484375 13.390625 6.75 11.25 C-0.66527203 2.61661346 -9.04247704 0.18077166 -20.125 -0.6875 C-22.08270984 -0.80279238 -24.04092103 -0.91095096 -26 -1 C-26 -1.66 -26 -2.32 -26 -3 C-16.94023004 -5.53261751 -8.44141355 -3.89167318 0 0 Z " fill="#A7A7A7" transform="translate(480,93)"/>
<path d="M0 0 C4.46895581 1.49802077 7.9383122 3.9548961 11.625 6.8125 C12.48351562 7.45155273 12.48351562 7.45155273 13.359375 8.10351562 C16.76833506 10.72365818 19.05590159 13.16006094 21 17 C19.02 17.99 19.02 17.99 17 19 C16.05640625 18.12988281 16.05640625 18.12988281 15.09375 17.2421875 C9.92287456 12.52298491 4.70336945 8.06245589 -1 4 C-0.67 2.68 -0.34 1.36 0 0 Z " fill="#CECFCD" transform="translate(220,33)"/>
<path d="M0 0 C2.97 0.33 5.94 0.66 9 1 C9 1.33 9 1.66 9 2 C7.35 2 5.7 2 4 2 C3.73445312 3.16917969 3.46890625 4.33835937 3.1953125 5.54296875 C2.83875149 7.09119417 2.48196898 8.63936859 2.125 10.1875 C1.95097656 10.95642578 1.77695313 11.72535156 1.59765625 12.51757812 C0.67454956 16.50061254 -0.33072186 20.24788383 -2 24 C-2.99 23.34 -3.98 22.68 -5 22 C-4.47458553 14.2501365 -2.44408524 7.3549914 0 0 Z " fill="#646463" transform="translate(211,273)"/>
<path d="M0 0 C0.33 0 0.66 0 1 0 C1.94765281 5.58062213 2.1515064 10.97030058 2.125 16.625 C2.12886719 17.45773437 2.13273438 18.29046875 2.13671875 19.1484375 C2.13022094 23.22905986 2.02346367 27.01986352 1 31 C-1.77854797 27.85915252 -2.37682555 25.88600236 -2.36328125 21.71875 C-2.36263672 20.71199219 -2.36199219 19.70523437 -2.36132812 18.66796875 C-2.34521484 17.62253906 -2.32910156 16.57710938 -2.3125 15.5 C-2.31572266 14.45457031 -2.31894531 13.40914063 -2.32226562 12.33203125 C-2.26253758 3.85064868 -2.26253758 3.85064868 0 0 Z " fill="#444444" transform="translate(593,387)"/>
<path d="M0 0 C-0.33 0.66 -0.66 1.32 -1 2 C-9.96219246 4.61197588 -19.68735687 6.07346336 -29 5 C-29.99 4.34 -30.98 3.68 -32 3 C-26.55032334 0.84378403 -21.21975569 0.33013427 -15.4375 -0.1875 C-14.03854492 -0.32961914 -14.03854492 -0.32961914 -12.61132812 -0.47460938 C-11.70705078 -0.55904297 -10.80277344 -0.64347656 -9.87109375 -0.73046875 C-8.64797485 -0.84491333 -8.64797485 -0.84491333 -7.40014648 -0.96166992 C-4.79784872 -1.00322833 -2.52728618 -0.5949366 0 0 Z " fill="#3E3E3E" transform="translate(153,362)"/>
<path d="M0 0 C0.598125 0.78375 1.19625 1.5675 1.8125 2.375 C3.91085249 5.14574323 3.91085249 5.14574323 7 7 C5.125 11.875 5.125 11.875 4 13 C1.22806071 13.29178308 -0.41409825 13.36366316 -2.8125 11.875 C-4.57844751 9.08666183 -4.46181576 7.23271032 -4 4 C-2 1.625 -2 1.625 0 0 Z " fill="#BFBFBF" transform="translate(424,89)"/>
<path d="M0 0 C0.74958984 0.05220703 1.49917969 0.10441406 2.27148438 0.15820312 C4.11887082 0.28763784 5.96574371 0.42436518 7.8125 0.5625 C7.8125 0.8925 7.8125 1.2225 7.8125 1.5625 C6.966875 1.58828125 6.12125 1.6140625 5.25 1.640625 C-5.95264917 2.20075746 -11.73291544 5.03261991 -20.20703125 12.171875 C-22.1875 13.5625 -22.1875 13.5625 -25.1875 13.5625 C-18.69855198 3.65702254 -11.98909633 -0.9109619 0 0 Z " fill="#CACAC9" transform="translate(459.1875,91.4375)"/>
<path d="M0 0 C8.98050546 3.09190413 14.53104195 11.61690663 20 19 C19.67 19.66 19.34 20.32 19 21 C10.46360725 17.46570165 4.67727132 7.59368755 0 0 Z " fill="#989898" transform="translate(489,155)"/>
<path d="M0 0 C9.405 2.475 9.405 2.475 19 5 C16.61629091 7.38370909 16.0063401 7.29588602 12.75 7.3125 C8.50247047 7.20990267 5.57155923 6.43911362 2 4 C1.34 2.68 0.68 1.36 0 0 Z " fill="#212121" transform="translate(303,605)"/>
<path d="M0 0 C7.59 0 15.18 0 23 0 C22.67 0.66 22.34 1.32 22 2 C18.47111581 3.17629473 15.23668023 3.22181837 11.5625 3.25 C10.24378906 3.27578125 8.92507813 3.3015625 7.56640625 3.328125 C4 3 4 3 0 0 Z " fill="#A5A5A5" transform="translate(449,157)"/>
<path d="M0 0 C0.99 0.33 1.98 0.66 3 1 C3 5.95 3 10.9 3 16 C2.34 16 1.68 16 1 16 C0.67 10.72 0.34 5.44 0 0 Z " fill="#212121" transform="translate(590,414)"/>
<path d="M0 0 C0.66 0 1.32 0 2 0 C4.32622007 4.65244014 2.98524838 11.0737581 2 16 C1.67 16 1.34 16 1 16 C0.14701624 12.32612505 -0.10789471 8.9552607 -0.0625 5.1875 C-0.05347656 4.21167969 -0.04445313 3.23585938 -0.03515625 2.23046875 C-0.02355469 1.49441406 -0.01195312 0.75835937 0 0 Z " fill="#818181" transform="translate(385,106)"/>
</svg>
