<svg width="1668" height="781" viewBox="0 0 1668 781" fill="none" xmlns="http://www.w3.org/2000/svg">
<path d="M1668 781L0 781L0 125.762V64.7008C0 64.7008 86.597 19.3557 147.688 8.3363C206.723 -2.31244 242.739 -3.23547 301.58 8.3363C348.902 17.6427 417 50.6097 417 50.6097C417 50.6097 515.766 86.5537 582.063 97.5801C679.442 113.776 736.418 100.539 835.241 97.5801C953.728 94.0328 1019.56 80.5459 1138.06 77.6177C1209.28 75.8579 1249.48 72.2964 1320.5 77.6177C1378.1 81.9333 1409.77 89.6932 1466.95 97.5801C1545.49 108.414 1668 125.762 1668 125.762L1668 781Z" fill="url(#paint0_linear_208_9497)"/>
<defs>
<linearGradient id="paint0_linear_208_9497" x1="42.9998" y1="724" x2="1621.36" y2="236.167" gradientUnits="userSpaceOnUse">
<stop offset="0.301667" stop-color="#3CB099"/>
<stop offset="0.556667" stop-color="#3CB099" stop-opacity="0.8"/>
<stop offset="0.711667" stop-color="#70D8C0" stop-opacity="0.6"/>
<stop offset="0.836026" stop-color="#F4F9F9" stop-opacity="0.6"/>
<stop offset="1" stop-color="#70D8C0" stop-opacity="0.9"/>
</linearGradient>
</defs>
</svg>
