<?xml version="1.0" encoding="UTF-8"?>
<!DOCTYPE svg PUBLIC "-//W3C//DTD SVG 1.1//EN" "http://www.w3.org/Graphics/SVG/1.1/DTD/svg11.dtd">
<!-- Creator: CorelDRAW -->
<svg xmlns="http://www.w3.org/2000/svg" xml:space="preserve" width="2.66666in" height="2.66666in" version="1.1" style="shape-rendering:geometricPrecision; text-rendering:geometricPrecision; image-rendering:optimizeQuality; fill-rule:evenodd; clip-rule:evenodd"
viewBox="0 0 2667 2667"
 xmlns:xlink="http://www.w3.org/1999/xlink">
 <defs>
  <style type="text/css">
   <![CDATA[
    .fil6 {fill:#000002}
    .fil4 {fill:#171D24}
    .fil7 {fill:#273845}
    .fil5 {fill:#3B566A}
    .fil3 {fill:#43484E}
    .fil8 {fill:#659ED8}
    .fil1 {fill:#929292}
    .fil0 {fill:#D6D6D6}
    .fil2 {fill:#EF5350}
    .fil9 {fill:whitesmoke}
   ]]>
  </style>
 </defs>
 <g id="_321884320">
  <rect class="fil0" width="2667" height="2667" rx="501" ry="501"/>
  <rect class="fil1" x="151" y="151" width="2365" height="2365" rx="444" ry="444"/>
 </g>
 <g id="Layer_x0020_1">
  <metadata id="CorelCorpID_0Corel-Layer"/>
  <g id="_323974744">
   <g>
    <path class="fil2" d="M1858 792c-2,0 -4,-1 -6,-1l-180 -48c-9,-2 -16,-9 -18,-18 -2,-9 0,-19 7,-25l14 -15 -95 -95c-10,-10 -10,-26 0,-37l66 -65c10,-11 27,-11 37,0l95 95 14 -15c7,-6 17,-9 26,-7 8,3 15,10 18,19l47 179c3,9 0,18 -6,25 -5,5 -12,8 -19,8z"/>
    <path class="fil2" d="M874 825c-6,0 -13,-3 -18,-8l-66 -66c-10,-10 -10,-26 0,-37l95 -95 -15 -14c-6,-7 -9,-16 -6,-25 2,-9 9,-16 18,-19l179 -47c9,-3 19,0 25,7 7,6 9,16 7,24l-47 180c-3,9 -10,16 -19,18 -9,3 -18,0 -25,-7l-14 -14 -96 95c-5,5 -11,8 -18,8z"/>
   </g>
   <path class="fil3" d="M1408 2187l-149 0c-14,0 -26,-12 -26,-26l0 -233c0,-14 12,-26 26,-26l149 0c14,0 26,12 26,26l0 233c0,14 -12,26 -26,26z"/>
   <path class="fil4" d="M1967 1954l-1267 0c-49,0 -88,-40 -88,-88l0 -757c0,-48 39,-88 88,-88l271 0c14,0 26,12 26,26l0 31 65 0c12,0 23,9 25,21 7,31 19,60 36,86 7,10 5,24 -4,32l-46 47 44 43 46 -46c9,-8 23,-10 33,-3 26,17 55,29 86,36 12,2 20,13 20,25l0 65 62 0 0 -65c0,-12 9,-23 21,-25 31,-7 60,-19 86,-36 10,-7 24,-5 32,3l47 46 43 -43 -46 -47c-8,-8 -10,-22 -3,-32 17,-26 29,-55 35,-86 3,-12 14,-21 26,-21l65 0 0 -31c0,-14 12,-26 26,-26l271 0c48,0 88,40 88,88l0 757c0,48 -40,88 -88,88z"/>
   <path class="fil5" d="M1390 1436l-114 0c-14,0 -25,-12 -25,-26l0 -71c-23,-6 -45,-15 -65,-27l-51 50c-10,11 -26,11 -36,0l-81 -80c-5,-5 -7,-12 -7,-18 0,-7 2,-14 7,-19l50 -50c-11,-20 -20,-42 -27,-65l-70 0c-15,0 -26,-11 -26,-26l0 -114c0,-14 11,-25 26,-25l71 0c6,-23 15,-45 26,-65l-50 -51c-5,-4 -7,-11 -7,-18 0,-7 2,-13 7,-18l81 -81c10,-10 26,-10 36,0l51 51c20,-12 42,-21 65,-27l0 -71c0,-15 11,-26 25,-26l114 0c15,0 26,11 26,26l0 71c23,6 45,15 65,26l50 -50c10,-10 27,-10 37,0l80 81c5,5 8,11 8,18 0,7 -3,14 -8,18l-50 51c12,20 21,42 27,65l71 0c14,0 26,11 26,25l0 114c0,15 -12,26 -26,26l-71 0c-6,23 -15,45 -27,65l50 50c10,10 10,27 0,37l-80 80c-10,11 -27,11 -37,0l-50 -50c-20,12 -42,21 -65,27l0 71c0,14 -11,26 -26,26z"/>
   <path class="fil6" d="M1615 1582c-7,0 -13,-3 -18,-8 -7,-6 -9,-16 -7,-25l48 -179c2,-9 9,-16 18,-18 9,-3 18,0 25,6l15 15 95 -95c4,-5 11,-8 18,-8l0 0c7,0 13,3 18,8l66 66c10,10 10,26 0,36l-95 95 15 15c6,7 9,16 6,25 -2,9 -9,16 -18,18l-179 48c-3,1 -5,1 -7,1zm61 -155l-24 92 92 -24 -1 -1c-5,-5 -8,-12 -8,-19 0,-6 3,-13 8,-18l95 -95 -29 -29 -95 95c-10,10 -27,10 -37,0l-1 -1z"/>
   <path class="fil6" d="M1019 1615c-7,0 -14,-3 -19,-8l-95 -95 -14 15c-7,6 -16,9 -25,6 -9,-2 -16,-9 -19,-18l-47 -179c-3,-9 0,-19 6,-25 7,-7 16,-9 25,-7l180 48c9,2 16,9 18,18 3,9 0,18 -7,25l-14 15 95 95c10,10 10,26 0,36l-66 66c-5,5 -12,8 -18,8zm-114 -165c7,0 14,2 19,7l95 95 29 -29 -95 -95c-5,-5 -8,-12 -8,-18 0,-7 3,-14 8,-19l1 -1 -93 -24 25 92 1 -1c5,-5 12,-7 18,-7z"/>
   <path class="fil7" d="M1333 1253c-113,0 -205,-92 -205,-206 0,-113 92,-205 205,-205 114,0 206,92 206,205 0,114 -92,206 -206,206z"/>
   <path class="fil8" d="M700 1073c-20,0 -36,17 -36,36l0 757c0,20 16,36 36,36l1267 0c20,0 36,-16 36,-36l0 -757c0,-19 -16,-36 -36,-36l-245 0 0 31c0,15 -12,26 -26,26l-71 0c-6,23 -15,45 -27,65l50 50c5,5 8,12 8,19 0,7 -3,13 -8,18l-80 80c-10,11 -27,11 -37,0l-50 -50c-20,12 -42,21 -65,27l0 71c0,14 -11,26 -26,26l-114 0c-14,0 -25,-12 -25,-26l0 -71c-23,-6 -45,-15 -65,-27l-51 50c-10,11 -26,11 -36,0l-81 -80c-5,-5 -7,-12 -7,-18 0,-7 2,-14 7,-19l50 -50c-11,-20 -20,-42 -26,-65l-71 0c-15,0 -26,-11 -26,-26l0 -31 -245 0 0 0z"/>
   <path class="fil4" d="M1664 2187l-661 0c-15,0 -26,-12 -26,-26 0,-15 11,-26 26,-26l661 0c14,0 26,11 26,26 0,14 -12,26 -26,26z"/>
   <path class="fil4" d="M2055 1741l-1443 0 0 125c0,48 39,88 88,88 495,0 772,0 1267,0 48,0 88,-40 88,-88l0 -125z"/>
   <path class="fil9" d="M1333 1172c-68,0 -124,-56 -124,-125 0,-68 56,-124 124,-124 69,0 125,56 125,124 0,69 -56,125 -125,125z"/>
   <g>
    <circle class="fil3" cx="1165" cy="1847" r="42"/>
    <circle class="fil3" cx="1333" cy="1847" r="42"/>
    <circle class="fil3" cx="1501" cy="1847" r="42"/>
   </g>
  </g>
 </g>
</svg>
